M48
INCH,TZ
VER,1
FMAT,2
DETECT,ON
ATC,ON
T1C0.00984
T2C0.10630
T3C0.13833
T4C0.03500
T5C0.04331
T6C0.03150
%
T1
X1.26000Y0.38000
Y1.48000
X0.04000Y0.63000
X0.12000
X0.16000
X0.20000
X0.24000
X0.28000
X0.08000
X0.30000Y0.60000
X0.14000
X0.06000
X0.10000
X0.18000
X0.22000
X0.26000
X0.36000Y0.14000
X0.30000Y0.86000
X0.31000Y0.73000
X0.14000Y0.86000
X0.16000Y0.83000
X0.04000Y0.79000
X0.08000Y0.77000
X0.04000Y0.75000
Y0.71000
X0.08000Y0.73000
X0.04000Y0.67000
X0.08000Y0.69000
X0.10000Y0.86000
X0.06000
X0.12000Y0.83000
X0.08000
X0.04000
X0.22000Y0.73000
X0.25000
X0.28000
X0.24000Y0.83000
X0.28000
X0.26000Y0.86000
X0.22000
X0.20000Y0.83000
X0.18000Y0.86000
X0.93000Y0.25000
X1.02000Y0.10000
X1.20000
X1.13000Y0.38000
X0.94000Y0.85000
X0.81000Y0.70000
X1.22000Y0.71000
X0.36000Y1.50000
X0.90000
X1.90000Y0.17000
X1.89000Y1.00000
X1.53000Y0.63000
X1.42000Y0.13000
X1.51000Y0.14000
X1.50000Y0.57000
X1.74000Y0.17000
X1.72000Y0.57000
X1.68000Y0.35000
X1.70000Y0.38000
X1.69000Y0.58000
X1.81000
X1.29000Y0.82000
X1.32000Y0.91000
X1.71417Y0.89000
X1.66333Y0.78667
X1.81000Y0.79000
X1.83500Y0.76500
X1.83417Y0.66583
X1.87000Y0.67000
X1.70000Y1.02000
X2.17000Y0.64000
X2.21000Y0.33000
X1.94000Y0.21000
X2.01000Y0.58000
X1.91000Y0.61000
X2.16000Y0.52000
X2.29000Y0.33000
X2.20000Y0.75000
X2.10000Y0.94000
X2.12000
X2.08000
X2.06000
X2.04000
X1.96000Y0.76000
X1.98000Y0.83000
X2.15000Y0.80000
X2.11000Y0.75000
X2.09000Y1.09000
X2.49000Y0.79000
X1.29000Y1.31000
X2.87000Y0.79000
X2.72000Y1.37000
T2
X0.16000Y0.14000
X0.72000
X0.16000Y1.50000
X0.72000
X2.70000Y0.82000
T3
X2.45667Y1.36583
X1.47833
T4
X1.91250Y1.42167
X1.85833Y1.31000
X1.75000
X1.80417Y1.42167
X2.18333Y1.31000
X2.02083Y1.42167
X2.07500Y1.31000
X1.96667
X2.12917Y1.42167
X0.53000Y0.64000
Y0.54000
Y0.94000
Y0.74000
Y0.84000
Y1.04000
Y1.14000
X0.68000Y0.64000
Y0.54000
Y0.94000
Y0.74000
Y0.84000
Y1.04000
Y1.14000
X1.88000Y1.53000
X1.58000
X1.68000
X1.78000
X2.18000
X2.08000
X1.98000
X2.38000
X2.28000
T5
X1.13000Y1.14000
X2.09000Y0.57000
X2.63000Y1.22000
X2.83000
Y1.02000
X2.63000
X2.73000Y1.12000
X2.64000Y0.63000
X2.84000
Y0.43000
X2.64000
X2.74000Y0.53000
X2.84000Y0.32000
Y0.12000
X2.64000Y0.32000
Y0.12000
X2.74000Y0.22000
T6
X0.18000Y0.68000
X0.13000Y0.73000
X0.18000Y0.78000
M30
