0
SECTION
2
HEADER
9
$EXTMIN
10
-3825.000000
20
-2625.000000
9
$EXTMAX
10
3843.000000
20
2621.000000
0
ENDSEC
0
SECTION
2
TABLES
0
TABLE
2
LTYPE
70
4
0
LTYPE
2
CONTINUOUS
70
64
3
Solid line
72
65
73
0
40
0.0
0
LTYPE
2
DASHED
70
64
3
Dashed line
72
65
73
2
40
0.8
49
0.5
49
-0.3
0
LTYPE
2
DOT
70
64
3
Dotted line
72
65
73
2
40
0.2
49
0.1
49
-0.1
0
LTYPE
2
DASHDOT
70
64
3
Dotted line
72
65
73
4
40
1
49
0.5
49
-0.2
49
0.1
49
-0.2
0
LTYPE
2
SMALLDOT
70
64
3
Small dotted
72
65
73
2
40
0.1
49
0
49
-0.1
0
LTYPE
2
CENTER
70
64
3
Centerline
72
65
73
4
40
1.1
49
0.8
49
-0.1
49
0.1
49
-0.1
0
ENDTAB
0
TABLE
2
STYLE
70
2
0
STYLE
2
STANDARD
70
64
40
0
41
1
50
0
71
0
3
TXT
42
1
4
 
0
STYLE
2
ROMAN
70
64
40
0
41
1
50
0
71
0
3
ROMANS.SHX
42
1
4
 
0
STYLE
2
TECHNIC
70
64
40
0
41
1
50
0
71
0
3
te______.pfb
42
1
4
 
0
STYLE
2
BLUEPRINT
70
64
40
0
41
1
50
0
71
0
3
cibt____.pfb
42
1
4
 
0
ENDTAB
0
TABLE
2
LAYER
70
1
0
LAYER
2
0
70
0
62
7
6
CONTINUOUS
0
LAYER
2
1
70
0
62
7
6
DASHED
0
LAYER
2
2
70
0
62
7
6
DASHDOT
0
LAYER
2
3
70
0
62
7
6
DOT
0
LAYER
2
4
70
0
62
3
6
CONTINUOUS
0
ENDTAB
0
TABLE
2
VIEW
70
0
0
ENDTAB
0
ENDSEC
0
SECTION
2
ENTITIES
0
LINE
8
0
39
4
62
216
10
-3075.000000
20
-225.000000
30
0.000000
11
-3175.000000
21
-375.000000
31
0.000000
0
LINE
8
0
39
4
62
216
10
-3175.000000
20
-375.000000
30
0.000000
11
-2975.000000
21
-375.000000
31
0.000000
0
LINE
8
0
39
4
62
216
10
-2975.000000
20
-375.000000
30
0.000000
11
-3075.000000
21
-225.000000
31
0.000000
0
LINE
8
0
39
4
62
216
10
-3175.000000
20
-225.000000
30
0.000000
11
-2975.000000
21
-225.000000
31
0.000000
0
POLYLINE
8
0
40
4.000000
41
4.000000
66
1
62
216
10
0
20
0
30
0
70
0
0
VERTEX
8
0
10
-2599.000000
20
1200.000000
30
0.000000
0
VERTEX
8
0
10
-2535.000000
20
1124.000000
30
0.000000
0
SEQEND
0
POLYLINE
8
0
40
4.000000
41
4.000000
66
1
62
216
10
0
20
0
30
0
70
0
0
VERTEX
8
0
10
-2449.000000
20
1200.000000
30
0.000000
0
VERTEX
8
0
10
-2515.000000
20
1124.000000
30
0.000000
0
SEQEND
0
POLYLINE
8
0
40
4.000000
41
4.000000
66
1
62
216
10
0
20
0
30
0
70
0
0
VERTEX
8
0
10
-2505.000000
20
1134.000000
30
0.000000
0
VERTEX
8
0
10
-2485.000000
20
1144.000000
30
0.000000
0
VERTEX
8
0
10
-2499.000000
20
1154.000000
30
0.000000
0
VERTEX
8
0
10
-2505.000000
20
1134.000000
30
0.000000
0
SEQEND
0
POLYLINE
8
0
40
1.000000
41
1.000000
66
1
62
216
10
0
20
0
30
0
70
1
0
VERTEX
8
0
10
-2575.000000
20
1118.000000
30
0.000000
0
VERTEX
8
0
10
-2575.000000
20
1130.000000
30
0.000000
0
VERTEX
8
0
10
-2475.000000
20
1130.000000
30
0.000000
0
VERTEX
8
0
10
-2475.000000
20
1118.000000
30
0.000000
0
VERTEX
8
0
10
-2575.000000
20
1118.000000
30
0.000000
0
SEQEND
0
POLYLINE
8
0
40
1.000000
41
1.000000
66
1
62
136
10
0
20
0
30
0
70
0
0
VERTEX
8
0
10
-2450.000000
20
1200.000000
30
0.000000
0
VERTEX
8
0
10
-2375.000000
20
1200.000000
30
0.000000
0
SEQEND
0
POLYLINE
8
0
40
1.000000
41
1.000000
66
1
62
136
10
0
20
0
30
0
70
0
0
VERTEX
8
0
10
-2525.000000
20
1125.000000
30
0.000000
0
VERTEX
8
0
10
-2525.000000
20
1050.000000
30
0.000000
0
SEQEND
0
POLYLINE
8
0
40
1.000000
41
1.000000
66
1
62
136
10
0
20
0
30
0
70
0
0
VERTEX
8
0
10
-2600.000000
20
1200.000000
30
0.000000
0
VERTEX
8
0
10
-2675.000000
20
1200.000000
30
0.000000
0
SEQEND
0
LINE
8
0
39
4
62
216
10
-3450.000000
20
-1600.000000
30
0.000000
11
-3550.000000
21
-1750.000000
31
0.000000
0
LINE
8
0
39
4
62
216
10
-3550.000000
20
-1750.000000
30
0.000000
11
-3350.000000
21
-1750.000000
31
0.000000
0
LINE
8
0
39
4
62
216
10
-3350.000000
20
-1750.000000
30
0.000000
11
-3450.000000
21
-1600.000000
31
0.000000
0
LINE
8
0
39
4
62
216
10
-3550.000000
20
-1600.000000
30
0.000000
11
-3350.000000
21
-1600.000000
31
0.000000
0
POLYLINE
8
0
40
4.000000
41
4.000000
66
1
62
216
10
0
20
0
30
0
70
0
0
VERTEX
8
0
10
-3099.000000
20
1975.000000
30
0.000000
0
VERTEX
8
0
10
-3035.000000
20
1899.000000
30
0.000000
0
SEQEND
0
POLYLINE
8
0
40
4.000000
41
4.000000
66
1
62
216
10
0
20
0
30
0
70
0
0
VERTEX
8
0
10
-2949.000000
20
1975.000000
30
0.000000
0
VERTEX
8
0
10
-3015.000000
20
1899.000000
30
0.000000
0
SEQEND
0
POLYLINE
8
0
40
4.000000
41
4.000000
66
1
62
216
10
0
20
0
30
0
70
0
0
VERTEX
8
0
10
-3005.000000
20
1909.000000
30
0.000000
0
VERTEX
8
0
10
-2985.000000
20
1919.000000
30
0.000000
0
VERTEX
8
0
10
-2999.000000
20
1929.000000
30
0.000000
0
VERTEX
8
0
10
-3005.000000
20
1909.000000
30
0.000000
0
SEQEND
0
POLYLINE
8
0
40
1.000000
41
1.000000
66
1
62
216
10
0
20
0
30
0
70
1
0
VERTEX
8
0
10
-3075.000000
20
1893.000000
30
0.000000
0
VERTEX
8
0
10
-3075.000000
20
1905.000000
30
0.000000
0
VERTEX
8
0
10
-2975.000000
20
1905.000000
30
0.000000
0
VERTEX
8
0
10
-2975.000000
20
1893.000000
30
0.000000
0
VERTEX
8
0
10
-3075.000000
20
1893.000000
30
0.000000
0
SEQEND
0
POLYLINE
8
0
40
1.000000
41
1.000000
66
1
62
136
10
0
20
0
30
0
70
0
0
VERTEX
8
0
10
-2950.000000
20
1975.000000
30
0.000000
0
VERTEX
8
0
10
-2875.000000
20
1975.000000
30
0.000000
0
SEQEND
0
POLYLINE
8
0
40
1.000000
41
1.000000
66
1
62
136
10
0
20
0
30
0
70
0
0
VERTEX
8
0
10
-3025.000000
20
1900.000000
30
0.000000
0
VERTEX
8
0
10
-3025.000000
20
1825.000000
30
0.000000
0
SEQEND
0
POLYLINE
8
0
40
1.000000
41
1.000000
66
1
62
136
10
0
20
0
30
0
70
0
0
VERTEX
8
0
10
-3100.000000
20
1975.000000
30
0.000000
0
VERTEX
8
0
10
-3175.000000
20
1975.000000
30
0.000000
0
SEQEND
0
POLYLINE
8
0
40
1.000000
41
1.000000
66
1
62
216
10
0
20
0
30
0
70
1
0
VERTEX
8
0
10
-311.000000
20
-1531.000000
30
0.000000
0
VERTEX
8
0
10
-311.000000
20
-1519.000000
30
0.000000
0
VERTEX
8
0
10
-245.000000
20
-1519.000000
30
0.000000
0
VERTEX
8
0
10
-245.000000
20
-1531.000000
30
0.000000
0
VERTEX
8
0
10
-311.000000
20
-1531.000000
30
0.000000
0
SEQEND
0
POLYLINE
8
0
40
1.000000
41
1.000000
66
1
62
216
10
0
20
0
30
0
70
1
0
VERTEX
8
0
10
-245.000000
20
-1531.000000
30
0.000000
0
VERTEX
8
0
10
-245.000000
20
-1519.000000
30
0.000000
0
VERTEX
8
0
10
-241.000000
20
-1519.000000
30
0.000000
0
VERTEX
8
0
10
-241.000000
20
-1531.000000
30
0.000000
0
VERTEX
8
0
10
-245.000000
20
-1531.000000
30
0.000000
0
SEQEND
0
POLYLINE
8
0
40
1.000000
41
1.000000
66
1
62
136
10
0
20
0
30
0
70
0
0
VERTEX
8
0
10
-275.000000
20
-1525.000000
30
0.000000
0
VERTEX
8
0
10
-275.000000
20
-1475.000000
30
0.000000
0
SEQEND
0
TEXT
8
0
39
10
62
96
10
-275.000000
20
-1550.000000
30
0.000000
11
-275.000000
21
-1550.000000
31
0.000000
40
34.000000
50
0.000000
1
GND
72
1
73
2
0
POLYLINE
8
0
40
1.000000
41
1.000000
66
1
62
216
10
0
20
0
30
0
70
1
0
VERTEX
8
0
10
-311.000000
20
-931.000000
30
0.000000
0
VERTEX
8
0
10
-311.000000
20
-919.000000
30
0.000000
0
VERTEX
8
0
10
-245.000000
20
-919.000000
30
0.000000
0
VERTEX
8
0
10
-245.000000
20
-931.000000
30
0.000000
0
VERTEX
8
0
10
-311.000000
20
-931.000000
30
0.000000
0
SEQEND
0
POLYLINE
8
0
40
1.000000
41
1.000000
66
1
62
216
10
0
20
0
30
0
70
1
0
VERTEX
8
0
10
-245.000000
20
-931.000000
30
0.000000
0
VERTEX
8
0
10
-245.000000
20
-919.000000
30
0.000000
0
VERTEX
8
0
10
-241.000000
20
-919.000000
30
0.000000
0
VERTEX
8
0
10
-241.000000
20
-931.000000
30
0.000000
0
VERTEX
8
0
10
-245.000000
20
-931.000000
30
0.000000
0
SEQEND
0
POLYLINE
8
0
40
1.000000
41
1.000000
66
1
62
136
10
0
20
0
30
0
70
0
0
VERTEX
8
0
10
-275.000000
20
-925.000000
30
0.000000
0
VERTEX
8
0
10
-275.000000
20
-875.000000
30
0.000000
0
SEQEND
0
TEXT
8
0
39
10
62
96
10
-275.000000
20
-950.000000
30
0.000000
11
-275.000000
21
-950.000000
31
0.000000
40
34.000000
50
0.000000
1
GND
72
1
73
2
0
POLYLINE
8
0
40
1.000000
41
1.000000
66
1
62
216
10
0
20
0
30
0
70
1
0
VERTEX
8
0
10
-311.000000
20
-2181.000000
30
0.000000
0
VERTEX
8
0
10
-311.000000
20
-2169.000000
30
0.000000
0
VERTEX
8
0
10
-245.000000
20
-2169.000000
30
0.000000
0
VERTEX
8
0
10
-245.000000
20
-2181.000000
30
0.000000
0
VERTEX
8
0
10
-311.000000
20
-2181.000000
30
0.000000
0
SEQEND
0
POLYLINE
8
0
40
1.000000
41
1.000000
66
1
62
216
10
0
20
0
30
0
70
1
0
VERTEX
8
0
10
-245.000000
20
-2181.000000
30
0.000000
0
VERTEX
8
0
10
-245.000000
20
-2169.000000
30
0.000000
0
VERTEX
8
0
10
-241.000000
20
-2169.000000
30
0.000000
0
VERTEX
8
0
10
-241.000000
20
-2181.000000
30
0.000000
0
VERTEX
8
0
10
-245.000000
20
-2181.000000
30
0.000000
0
SEQEND
0
POLYLINE
8
0
40
1.000000
41
1.000000
66
1
62
136
10
0
20
0
30
0
70
0
0
VERTEX
8
0
10
-275.000000
20
-2175.000000
30
0.000000
0
VERTEX
8
0
10
-275.000000
20
-2125.000000
30
0.000000
0
SEQEND
0
TEXT
8
0
39
10
62
96
10
-275.000000
20
-2200.000000
30
0.000000
11
-275.000000
21
-2200.000000
31
0.000000
40
34.000000
50
0.000000
1
GND
72
1
73
2
0
POLYLINE
8
0
40
4.000000
41
4.000000
66
1
62
216
10
0
20
0
30
0
70
0
0
VERTEX
8
0
10
-249.000000
20
-775.000000
30
0.000000
0
VERTEX
8
0
10
-349.000000
20
-775.000000
30
0.000000
0
SEQEND
0
POLYLINE
8
0
40
1.000000
41
1.000000
66
1
62
136
10
0
20
0
30
0
70
0
0
VERTEX
8
0
10
-440.000000
20
-785.000000
30
0.000000
0
VERTEX
8
0
10
-450.000000
20
-775.000000
30
0.000000
0
VERTEX
8
0
10
-440.000000
20
-765.000000
30
0.000000
0
SEQEND
0
POLYLINE
8
0
40
1.000000
41
1.000000
66
1
62
136
10
0
20
0
30
0
70
0
0
VERTEX
8
0
10
-430.000000
20
-785.000000
30
0.000000
0
VERTEX
8
0
10
-420.000000
20
-775.000000
30
0.000000
0
VERTEX
8
0
10
-430.000000
20
-765.000000
30
0.000000
0
SEQEND
0
POLYLINE
8
0
40
1.000000
41
1.000000
66
1
62
136
10
0
20
0
30
0
70
0
0
VERTEX
8
0
10
-350.000000
20
-775.000000
30
0.000000
0
VERTEX
8
0
10
-375.000000
20
-775.000000
30
0.000000
0
SEQEND
0
POLYLINE
8
0
40
1.000000
41
1.000000
66
1
62
136
10
0
20
0
30
0
70
0
0
VERTEX
8
0
10
-275.000000
20
-825.000000
30
0.000000
0
VERTEX
8
0
10
-275.000000
20
-875.000000
30
0.000000
0
SEQEND
0
ARC
8
0
39
0
62
216
10
-250.000000
20
-775.000000
30
0.000000
40
50.000000
50
90.000000
51
-90.000000
0
POLYLINE
8
0
40
4.000000
41
4.000000
66
1
62
216
10
0
20
0
30
0
70
0
0
VERTEX
8
0
10
-249.000000
20
-1375.000000
30
0.000000
0
VERTEX
8
0
10
-349.000000
20
-1375.000000
30
0.000000
0
SEQEND
0
POLYLINE
8
0
40
1.000000
41
1.000000
66
1
62
136
10
0
20
0
30
0
70
0
0
VERTEX
8
0
10
-440.000000
20
-1385.000000
30
0.000000
0
VERTEX
8
0
10
-450.000000
20
-1375.000000
30
0.000000
0
VERTEX
8
0
10
-440.000000
20
-1365.000000
30
0.000000
0
SEQEND
0
POLYLINE
8
0
40
1.000000
41
1.000000
66
1
62
136
10
0
20
0
30
0
70
0
0
VERTEX
8
0
10
-430.000000
20
-1385.000000
30
0.000000
0
VERTEX
8
0
10
-420.000000
20
-1375.000000
30
0.000000
0
VERTEX
8
0
10
-430.000000
20
-1365.000000
30
0.000000
0
SEQEND
0
POLYLINE
8
0
40
1.000000
41
1.000000
66
1
62
136
10
0
20
0
30
0
70
0
0
VERTEX
8
0
10
-350.000000
20
-1375.000000
30
0.000000
0
VERTEX
8
0
10
-375.000000
20
-1375.000000
30
0.000000
0
SEQEND
0
POLYLINE
8
0
40
1.000000
41
1.000000
66
1
62
136
10
0
20
0
30
0
70
0
0
VERTEX
8
0
10
-275.000000
20
-1425.000000
30
0.000000
0
VERTEX
8
0
10
-275.000000
20
-1475.000000
30
0.000000
0
SEQEND
0
ARC
8
0
39
0
62
216
10
-250.000000
20
-1375.000000
30
0.000000
40
50.000000
50
90.000000
51
-90.000000
0
POLYLINE
8
0
40
4.000000
41
4.000000
66
1
62
216
10
0
20
0
30
0
70
1
0
VERTEX
8
0
10
25.000000
20
1600.000000
30
0.000000
0
VERTEX
8
0
10
25.000000
20
1300.000000
30
0.000000
0
VERTEX
8
0
10
325.000000
20
1300.000000
30
0.000000
0
VERTEX
8
0
10
325.000000
20
1600.000000
30
0.000000
0
VERTEX
8
0
10
25.000000
20
1600.000000
30
0.000000
0
SEQEND
0
TEXT
8
0
39
10
62
7
10
100.000000
20
1400.000000
30
0.000000
11
100.000000
21
1400.000000
31
0.000000
40
-43.000000
50
0.000000
1
MCU
72
0
73
0
0
POLYLINE
8
0
40
4.000000
41
4.000000
66
1
62
216
10
0
20
0
30
0
70
0
0
VERTEX
8
0
10
-249.000000
20
-2025.000000
30
0.000000
0
VERTEX
8
0
10
-349.000000
20
-2025.000000
30
0.000000
0
SEQEND
0
POLYLINE
8
0
40
1.000000
41
1.000000
66
1
62
136
10
0
20
0
30
0
70
0
0
VERTEX
8
0
10
-440.000000
20
-2035.000000
30
0.000000
0
VERTEX
8
0
10
-450.000000
20
-2025.000000
30
0.000000
0
VERTEX
8
0
10
-440.000000
20
-2015.000000
30
0.000000
0
SEQEND
0
POLYLINE
8
0
40
1.000000
41
1.000000
66
1
62
136
10
0
20
0
30
0
70
0
0
VERTEX
8
0
10
-430.000000
20
-2035.000000
30
0.000000
0
VERTEX
8
0
10
-420.000000
20
-2025.000000
30
0.000000
0
VERTEX
8
0
10
-430.000000
20
-2015.000000
30
0.000000
0
SEQEND
0
POLYLINE
8
0
40
1.000000
41
1.000000
66
1
62
136
10
0
20
0
30
0
70
0
0
VERTEX
8
0
10
-350.000000
20
-2025.000000
30
0.000000
0
VERTEX
8
0
10
-375.000000
20
-2025.000000
30
0.000000
0
SEQEND
0
POLYLINE
8
0
40
1.000000
41
1.000000
66
1
62
136
10
0
20
0
30
0
70
0
0
VERTEX
8
0
10
-275.000000
20
-2075.000000
30
0.000000
0
VERTEX
8
0
10
-275.000000
20
-2125.000000
30
0.000000
0
SEQEND
0
ARC
8
0
39
0
62
216
10
-250.000000
20
-2025.000000
30
0.000000
40
50.000000
50
90.000000
51
-90.000000
0
POLYLINE
8
0
40
4.000000
41
4.000000
66
1
62
216
10
0
20
0
30
0
70
1
0
VERTEX
8
0
10
-2675.000000
20
1325.000000
30
0.000000
0
VERTEX
8
0
10
-2675.000000
20
1025.000000
30
0.000000
0
VERTEX
8
0
10
-2375.000000
20
1025.000000
30
0.000000
0
VERTEX
8
0
10
-2375.000000
20
1325.000000
30
0.000000
0
VERTEX
8
0
10
-2675.000000
20
1325.000000
30
0.000000
0
SEQEND
0
POLYLINE
8
0
40
1.000000
41
1.000000
66
1
62
136
10
0
20
0
30
0
70
1
0
VERTEX
8
0
10
1998.000000
20
-2445.000000
30
0.000000
0
VERTEX
8
0
10
1998.000000
20
-2457.000000
30
0.000000
0
VERTEX
8
0
10
3750.000000
20
-2456.000000
30
0.000000
0
VERTEX
8
0
10
3750.000000
20
-2444.000000
30
0.000000
0
VERTEX
8
0
10
1998.000000
20
-2445.000000
30
0.000000
0
SEQEND
0
POLYLINE
8
0
40
1.000000
41
1.000000
66
1
62
136
10
0
20
0
30
0
70
1
0
VERTEX
8
0
10
2894.000000
20
-2451.000000
30
0.000000
0
VERTEX
8
0
10
2906.000000
20
-2451.000000
30
0.000000
0
VERTEX
8
0
10
2906.000000
20
-2550.000000
30
0.000000
0
VERTEX
8
0
10
2894.000000
20
-2550.000000
30
0.000000
0
VERTEX
8
0
10
2894.000000
20
-2451.000000
30
0.000000
0
SEQEND
0
POLYLINE
8
0
40
1.000000
41
1.000000
66
1
62
136
10
0
20
0
30
0
70
1
0
VERTEX
8
0
10
3244.000000
20
-2451.000000
30
0.000000
0
VERTEX
8
0
10
3256.000000
20
-2451.000000
30
0.000000
0
VERTEX
8
0
10
3256.000000
20
-2550.000000
30
0.000000
0
VERTEX
8
0
10
3244.000000
20
-2550.000000
30
0.000000
0
VERTEX
8
0
10
3244.000000
20
-2451.000000
30
0.000000
0
SEQEND
0
POLYLINE
8
0
40
1.000000
41
1.000000
66
1
62
136
10
0
20
0
30
0
70
1
0
VERTEX
8
0
10
2000.000000
20
-2195.000000
30
0.000000
0
VERTEX
8
0
10
2000.000000
20
-2207.000000
30
0.000000
0
VERTEX
8
0
10
3750.000000
20
-2206.000000
30
0.000000
0
VERTEX
8
0
10
3750.000000
20
-2194.000000
30
0.000000
0
VERTEX
8
0
10
2000.000000
20
-2195.000000
30
0.000000
0
SEQEND
0
POLYLINE
8
0
40
1.000000
41
1.000000
66
1
62
136
10
0
20
0
30
0
70
1
0
VERTEX
8
0
10
2000.000000
20
-2095.000000
30
0.000000
0
VERTEX
8
0
10
2000.000000
20
-2107.000000
30
0.000000
0
VERTEX
8
0
10
3750.000000
20
-2106.000000
30
0.000000
0
VERTEX
8
0
10
3750.000000
20
-2094.000000
30
0.000000
0
VERTEX
8
0
10
2000.000000
20
-2095.000000
30
0.000000
0
SEQEND
0
POLYLINE
8
0
40
1.000000
41
1.000000
66
1
62
136
10
0
20
0
30
0
70
1
0
VERTEX
8
0
10
2294.000000
20
-2001.000000
30
0.000000
0
VERTEX
8
0
10
2306.000000
20
-2001.000000
30
0.000000
0
VERTEX
8
0
10
2306.000000
20
-2101.000000
30
0.000000
0
VERTEX
8
0
10
2294.000000
20
-2101.000000
30
0.000000
0
VERTEX
8
0
10
2294.000000
20
-2001.000000
30
0.000000
0
SEQEND
0
POLYLINE
8
0
40
1.000000
41
1.000000
66
1
62
136
10
0
20
0
30
0
70
1
0
VERTEX
8
0
10
2994.000000
20
-2001.000000
30
0.000000
0
VERTEX
8
0
10
3006.000000
20
-2001.000000
30
0.000000
0
VERTEX
8
0
10
3006.000000
20
-2101.000000
30
0.000000
0
VERTEX
8
0
10
2994.000000
20
-2101.000000
30
0.000000
0
VERTEX
8
0
10
2994.000000
20
-2001.000000
30
0.000000
0
SEQEND
0
POLYLINE
8
0
40
1.000000
41
1.000000
66
1
62
136
10
0
20
0
30
0
70
1
0
VERTEX
8
0
10
1994.000000
20
-1976.000000
30
0.000000
0
VERTEX
8
0
10
2006.000000
20
-1976.000000
30
0.000000
0
VERTEX
8
0
10
2006.000000
20
-2550.000000
30
0.000000
0
VERTEX
8
0
10
1994.000000
20
-2550.000000
30
0.000000
0
VERTEX
8
0
10
1994.000000
20
-1976.000000
30
0.000000
0
SEQEND
0
POLYLINE
8
0
40
1.000000
41
1.000000
66
1
62
136
10
0
20
0
30
0
70
1
0
VERTEX
8
0
10
2000.000000
20
-2556.000000
30
0.000000
0
VERTEX
8
0
10
2000.000000
20
-2544.000000
30
0.000000
0
VERTEX
8
0
10
3750.000000
20
-2544.000000
30
0.000000
0
VERTEX
8
0
10
3750.000000
20
-2556.000000
30
0.000000
0
VERTEX
8
0
10
2000.000000
20
-2556.000000
30
0.000000
0
SEQEND
0
POLYLINE
8
0
40
1.000000
41
1.000000
66
1
62
136
10
0
20
0
30
0
70
1
0
VERTEX
8
0
10
3744.000000
20
-2550.000000
30
0.000000
0
VERTEX
8
0
10
3756.000000
20
-2550.000000
30
0.000000
0
VERTEX
8
0
10
3756.000000
20
-1976.000000
30
0.000000
0
VERTEX
8
0
10
3744.000000
20
-1976.000000
30
0.000000
0
VERTEX
8
0
10
3744.000000
20
-2550.000000
30
0.000000
0
SEQEND
0
POLYLINE
8
0
40
1.000000
41
1.000000
66
1
62
136
10
0
20
0
30
0
70
1
0
VERTEX
8
0
10
3750.000000
20
-2006.000000
30
0.000000
0
VERTEX
8
0
10
3750.000000
20
-1994.000000
30
0.000000
0
VERTEX
8
0
10
2000.000000
20
-1994.000000
30
0.000000
0
VERTEX
8
0
10
2000.000000
20
-2006.000000
30
0.000000
0
VERTEX
8
0
10
3750.000000
20
-2006.000000
30
0.000000
0
SEQEND
0
LINE
8
0
39
10
62
136
10
3330.000000
20
-2100.000000
30
0.000000
11
3330.000000
21
-2190.000000
31
0.000000
0
TEXT
8
0
39
10
62
136
10
2025.000000
20
-2500.000000
30
0.000000
11
2025.000000
21
-2500.000000
31
0.000000
40
34.000000
50
0.000000
1
INITIAL
72
0
73
2
0
TEXT
8
0
39
10
62
136
10
2925.000000
20
-2500.000000
30
0.000000
11
2925.000000
21
-2500.000000
31
0.000000
40
34.000000
50
0.000000
1
PAGE:
72
0
73
2
0
TEXT
8
0
39
10
62
136
10
3270.000000
20
-2500.000000
30
0.000000
11
3270.000000
21
-2500.000000
31
0.000000
40
34.000000
50
0.000000
1
OF:
72
0
73
2
0
TEXT
8
0
39
10
62
136
10
2025.000000
20
-2250.000000
30
0.000000
11
2025.000000
21
-2250.000000
31
0.000000
40
34.000000
50
0.000000
1
COMPANY:
72
0
73
2
0
TEXT
8
0
39
10
62
136
10
2025.000000
20
-2400.000000
30
0.000000
11
2025.000000
21
-2400.000000
31
0.000000
40
34.000000
50
0.000000
1
COUNTRY:
72
0
73
2
0
TEXT
8
0
39
10
62
136
10
2500.000000
20
-2500.000000
30
0.000000
11
2500.000000
21
-2500.000000
31
0.000000
40
34.000000
50
0.000000
1
28.05.2011
72
0
73
2
0
TEXT
8
0
39
10
62
136
10
2525.000000
20
-2050.000000
30
0.000000
11
2525.000000
21
-2050.000000
31
0.000000
40
34.000000
50
0.000000
1
19.07.2011
72
0
73
2
0
TEXT
8
0
39
10
62
136
10
2325.000000
20
-2150.000000
30
0.000000
11
2325.000000
21
-2150.000000
31
0.000000
40
34.000000
50
0.000000
1
SIPM CONTROLLER DUO
72
0
73
2
0
TEXT
8
0
39
10
62
136
10
3125.000000
20
-2500.000000
30
0.000000
11
3125.000000
21
-2500.000000
31
0.000000
40
34.000000
50
0.000000
1
4
72
0
73
2
0
TEXT
8
0
39
10
62
136
10
3400.000000
20
-2500.000000
30
0.000000
11
3400.000000
21
-2500.000000
31
0.000000
40
34.000000
50
0.000000
1
4
72
0
73
2
0
TEXT
8
0
39
10
62
136
10
2175.000000
20
-2050.000000
30
0.000000
11
2175.000000
21
-2050.000000
31
0.000000
40
34.000000
50
0.000000
1
1.0
72
0
73
2
0
TEXT
8
0
39
10
62
136
10
2325.000000
20
-2250.000000
30
0.000000
11
2325.000000
21
-2250.000000
31
0.000000
40
34.000000
50
0.000000
1
III. PHHYSIKALISCHES  INST. B
72
0
73
2
0
TEXT
8
0
39
10
62
136
10
2325.000000
20
-2300.000000
30
0.000000
11
2325.000000
21
-2300.000000
31
0.000000
40
34.000000
50
0.000000
1
OTTO-BLUMENTHAL-STR.
72
0
73
2
0
TEXT
8
0
39
10
62
136
10
2325.000000
20
-2350.000000
30
0.000000
11
2325.000000
21
-2350.000000
31
0.000000
40
34.000000
50
0.000000
1
52074  AACHEN
72
0
73
2
0
TEXT
8
0
39
10
62
136
10
2325.000000
20
-2400.000000
30
0.000000
11
2325.000000
21
-2400.000000
31
0.000000
40
34.000000
50
0.000000
1
GERMANY
72
0
73
2
0
TEXT
8
0
39
10
62
136
10
3175.000000
20
-2050.000000
30
0.000000
11
3175.000000
21
-2050.000000
31
0.000000
40
34.000000
50
0.000000
1
F. BEIßEL
72
0
73
2
0
TEXT
8
0
39
10
62
136
10
2025.000000
20
-2350.000000
30
0.000000
11
2025.000000
21
-2350.000000
31
0.000000
40
34.000000
50
0.000000
1
CITY
72
0
73
2
0
TEXT
8
0
39
10
62
136
10
2025.000000
20
-2150.000000
30
0.000000
11
2025.000000
21
-2150.000000
31
0.000000
40
34.000000
50
0.000000
1
PROJECT:
72
0
73
2
0
TEXT
8
0
39
10
62
136
10
2025.000000
20
-2050.000000
30
0.000000
11
2025.000000
21
-2050.000000
31
0.000000
40
34.000000
50
0.000000
1
REV:
72
0
73
2
0
TEXT
8
0
39
10
62
136
10
2325.000000
20
-2050.000000
30
0.000000
11
2325.000000
21
-2050.000000
31
0.000000
40
34.000000
50
0.000000
1
DATE:
72
0
73
2
0
TEXT
8
0
39
10
62
136
10
3025.000000
20
-2050.000000
30
0.000000
11
3025.000000
21
-2050.000000
31
0.000000
40
34.000000
50
0.000000
1
ENG:
72
0
73
2
0
TEXT
8
0
39
10
62
136
10
2025.000000
20
-2300.000000
30
0.000000
11
2025.000000
21
-2300.000000
31
0.000000
40
34.000000
50
0.000000
1
ADDRESS:
72
0
73
2
0
TEXT
8
0
39
10
62
136
10
3355.000000
20
-2120.000000
30
0.000000
11
3355.000000
21
-2120.000000
31
0.000000
40
33.000000
50
0.000000
1
NO.
72
0
73
3
0
TEXT
8
0
39
10
62
136
10
3540.000000
20
-2125.000000
30
0.000000
11
3540.000000
21
-2125.000000
31
0.000000
40
33.000000
50
0.000000
1
911
72
0
73
3
0
LINE
8
0
39
4
62
216
10
-2350.000000
20
-925.000000
30
0.000000
11
-2350.000000
21
-625.000000
31
0.000000
0
LINE
8
0
39
4
62
216
10
-2350.000000
20
-625.000000
30
0.000000
11
-2100.000000
21
-775.000000
31
0.000000
0
LINE
8
0
39
4
62
216
10
-2100.000000
20
-775.000000
30
0.000000
11
-2350.000000
21
-925.000000
31
0.000000
0
LINE
8
0
39
4
62
216
10
-1450.000000
20
-925.000000
30
0.000000
11
-1450.000000
21
-625.000000
31
0.000000
0
LINE
8
0
39
4
62
216
10
-1450.000000
20
-625.000000
30
0.000000
11
-1200.000000
21
-775.000000
31
0.000000
0
LINE
8
0
39
4
62
216
10
-1200.000000
20
-775.000000
30
0.000000
11
-1450.000000
21
-925.000000
31
0.000000
0
LINE
8
0
39
4
62
216
10
-1450.000000
20
-1525.000000
30
0.000000
11
-1450.000000
21
-1225.000000
31
0.000000
0
LINE
8
0
39
4
62
216
10
-1450.000000
20
-1225.000000
30
0.000000
11
-1200.000000
21
-1375.000000
31
0.000000
0
LINE
8
0
39
4
62
216
10
-1200.000000
20
-1375.000000
30
0.000000
11
-1450.000000
21
-1525.000000
31
0.000000
0
POLYLINE
8
0
40
4.000000
41
4.000000
66
1
62
216
10
0
20
0
30
0
70
1
0
VERTEX
8
0
10
-1425.000000
20
1650.000000
30
0.000000
0
VERTEX
8
0
10
-1425.000000
20
1350.000000
30
0.000000
0
VERTEX
8
0
10
-1125.000000
20
1350.000000
30
0.000000
0
VERTEX
8
0
10
-1125.000000
20
1650.000000
30
0.000000
0
VERTEX
8
0
10
-1425.000000
20
1650.000000
30
0.000000
0
SEQEND
0
POLYLINE
8
0
40
4.000000
41
4.000000
66
1
62
216
10
0
20
0
30
0
70
1
0
VERTEX
8
0
10
-1425.000000
20
950.000000
30
0.000000
0
VERTEX
8
0
10
-1425.000000
20
650.000000
30
0.000000
0
VERTEX
8
0
10
-1125.000000
20
650.000000
30
0.000000
0
VERTEX
8
0
10
-1125.000000
20
950.000000
30
0.000000
0
VERTEX
8
0
10
-1425.000000
20
950.000000
30
0.000000
0
SEQEND
0
TEXT
8
0
39
10
62
7
10
-1350.000000
20
750.000000
30
0.000000
11
-1350.000000
21
750.000000
31
0.000000
40
-43.000000
50
0.000000
1
ADC
72
0
73
0
0
POLYLINE
8
0
40
4.000000
41
4.000000
66
1
62
216
10
0
20
0
30
0
70
1
0
VERTEX
8
0
10
-3175.000000
20
2100.000000
30
0.000000
0
VERTEX
8
0
10
-3175.000000
20
1800.000000
30
0.000000
0
VERTEX
8
0
10
-2875.000000
20
1800.000000
30
0.000000
0
VERTEX
8
0
10
-2875.000000
20
2100.000000
30
0.000000
0
VERTEX
8
0
10
-3175.000000
20
2100.000000
30
0.000000
0
SEQEND
0
LINE
8
0
39
4
62
216
10
-2350.000000
20
-2175.000000
30
0.000000
11
-2350.000000
21
-1875.000000
31
0.000000
0
LINE
8
0
39
4
62
216
10
-2350.000000
20
-1875.000000
30
0.000000
11
-2100.000000
21
-2025.000000
31
0.000000
0
LINE
8
0
39
4
62
216
10
-2100.000000
20
-2025.000000
30
0.000000
11
-2350.000000
21
-2175.000000
31
0.000000
0
LINE
8
0
39
4
62
216
10
-1450.000000
20
-2175.000000
30
0.000000
11
-1450.000000
21
-1875.000000
31
0.000000
0
LINE
8
0
39
4
62
216
10
-1450.000000
20
-1875.000000
30
0.000000
11
-1200.000000
21
-2025.000000
31
0.000000
0
LINE
8
0
39
4
62
216
10
-1200.000000
20
-2025.000000
30
0.000000
11
-1450.000000
21
-2175.000000
31
0.000000
0
POLYLINE
8
0
40
4.000000
41
4.000000
66
1
62
216
10
0
20
0
30
0
70
0
0
VERTEX
8
0
10
-3100.000000
20
50.000000
30
0.000000
0
VERTEX
8
0
10
-3050.000000
20
50.000000
30
0.000000
0
VERTEX
8
0
10
-3050.000000
20
200.000000
30
0.000000
0
VERTEX
8
0
10
-3100.000000
20
200.000000
30
0.000000
0
VERTEX
8
0
10
-3100.000000
20
50.000000
30
0.000000
0
SEQEND
0
POLYLINE
8
0
40
1.000000
41
1.000000
66
1
62
136
10
0
20
0
30
0
70
0
0
VERTEX
8
0
10
-3075.000000
20
50.000000
30
0.000000
0
VERTEX
8
0
10
-3075.000000
20
0.000000
30
0.000000
0
SEQEND
0
POLYLINE
8
0
40
1.000000
41
1.000000
66
1
62
136
10
0
20
0
30
0
70
0
0
VERTEX
8
0
10
-3075.000000
20
200.000000
30
0.000000
0
VERTEX
8
0
10
-3075.000000
20
250.000000
30
0.000000
0
SEQEND
0
TEXT
8
0
39
10
62
2
10
-3074.000000
20
125.000000
30
0.000000
11
-3074.000000
21
125.000000
31
0.000000
40
34.000000
50
90.000000
1
10K
72
1
73
2
0
POLYLINE
8
0
40
4.000000
41
4.000000
66
1
62
216
10
0
20
0
30
0
70
0
0
VERTEX
8
0
10
-3475.000000
20
-1325.000000
30
0.000000
0
VERTEX
8
0
10
-3425.000000
20
-1325.000000
30
0.000000
0
VERTEX
8
0
10
-3425.000000
20
-1175.000000
30
0.000000
0
VERTEX
8
0
10
-3475.000000
20
-1175.000000
30
0.000000
0
VERTEX
8
0
10
-3475.000000
20
-1325.000000
30
0.000000
0
SEQEND
0
POLYLINE
8
0
40
1.000000
41
1.000000
66
1
62
136
10
0
20
0
30
0
70
0
0
VERTEX
8
0
10
-3450.000000
20
-1325.000000
30
0.000000
0
VERTEX
8
0
10
-3450.000000
20
-1375.000000
30
0.000000
0
SEQEND
0
POLYLINE
8
0
40
1.000000
41
1.000000
66
1
62
136
10
0
20
0
30
0
70
0
0
VERTEX
8
0
10
-3450.000000
20
-1175.000000
30
0.000000
0
VERTEX
8
0
10
-3450.000000
20
-1125.000000
30
0.000000
0
SEQEND
0
TEXT
8
0
39
10
62
2
10
-3449.000000
20
-1250.000000
30
0.000000
11
-3449.000000
21
-1250.000000
31
0.000000
40
34.000000
50
90.000000
1
10K
72
1
73
2
0
POLYLINE
8
0
40
4.000000
41
4.000000
66
1
62
216
10
0
20
0
30
0
70
0
0
VERTEX
8
0
10
-2700.000000
20
100.000000
30
0.000000
0
VERTEX
8
0
10
-2650.000000
20
100.000000
30
0.000000
0
VERTEX
8
0
10
-2650.000000
20
250.000000
30
0.000000
0
VERTEX
8
0
10
-2700.000000
20
250.000000
30
0.000000
0
VERTEX
8
0
10
-2700.000000
20
100.000000
30
0.000000
0
SEQEND
0
POLYLINE
8
0
40
1.000000
41
1.000000
66
1
62
136
10
0
20
0
30
0
70
0
0
VERTEX
8
0
10
-2675.000000
20
100.000000
30
0.000000
0
VERTEX
8
0
10
-2675.000000
20
50.000000
30
0.000000
0
SEQEND
0
POLYLINE
8
0
40
1.000000
41
1.000000
66
1
62
136
10
0
20
0
30
0
70
0
0
VERTEX
8
0
10
-2675.000000
20
250.000000
30
0.000000
0
VERTEX
8
0
10
-2675.000000
20
300.000000
30
0.000000
0
SEQEND
0
TEXT
8
0
39
10
62
2
10
-2751.000000
20
175.000000
30
0.000000
11
-2751.000000
21
175.000000
31
0.000000
40
34.000000
50
90.000000
1
PT100
72
1
73
2
0
TEXT
8
0
39
10
62
7
10
-525.000000
20
-625.000000
30
0.000000
11
-525.000000
21
-625.000000
31
0.000000
40
-53.000000
50
0.000000
1
ANALOG OUTPUT
72
0
73
0
0
TEXT
8
0
39
10
62
7
10
-75.000000
20
1975.000000
30
0.000000
11
-75.000000
21
1975.000000
31
0.000000
40
-43.000000
50
0.000000
1
~ 82V
72
0
73
0
0
TEXT
8
0
39
10
62
7
10
775.000000
20
2125.000000
30
0.000000
11
775.000000
21
2125.000000
31
0.000000
40
-53.000000
50
0.000000
1
POWER AND SLOW CONTROL CONNECTOR
72
0
73
0
0
TEXT
8
0
39
10
62
7
10
1650.000000
20
1325.000000
30
0.000000
11
1650.000000
21
1325.000000
31
0.000000
40
-53.000000
50
0.000000
1
6
72
0
73
0
0
TEXT
8
0
39
10
62
7
10
1650.000000
20
1450.000000
30
0.000000
11
1650.000000
21
1450.000000
31
0.000000
40
-53.000000
50
0.000000
1
5
72
0
73
0
0
TEXT
8
0
39
10
62
7
10
1650.000000
20
1575.000000
30
0.000000
11
1650.000000
21
1575.000000
31
0.000000
40
-53.000000
50
0.000000
1
4
72
0
73
0
0
TEXT
8
0
39
10
62
7
10
1650.000000
20
1675.000000
30
0.000000
11
1650.000000
21
1675.000000
31
0.000000
40
-53.000000
50
0.000000
1
3
72
0
73
0
0
TEXT
8
0
39
10
62
7
10
1650.000000
20
1800.000000
30
0.000000
11
1650.000000
21
1800.000000
31
0.000000
40
-53.000000
50
0.000000
1
2
72
0
73
0
0
TEXT
8
0
39
10
62
7
10
1650.000000
20
1950.000000
30
0.000000
11
1650.000000
21
1950.000000
31
0.000000
40
-53.000000
50
0.000000
1
1
72
0
73
0
0
TEXT
8
0
39
10
62
7
10
1650.000000
20
-300.000000
30
0.000000
11
1650.000000
21
-300.000000
31
0.000000
40
-63.000000
50
0.000000
1
BLOCK DIAGRAM 22.05.2011
72
0
73
0
0
TEXT
8
0
39
10
62
7
10
1650.000000
20
-200.000000
30
0.000000
11
1650.000000
21
-200.000000
31
0.000000
40
-80.000000
50
0.000000
1
SIPM DUO CONTROLLER / AMLIFIER
72
0
73
0
0
TEXT
8
0
39
10
62
7
10
1325.000000
20
1350.000000
30
0.000000
11
1325.000000
21
1350.000000
31
0.000000
40
-43.000000
50
0.000000
1
RS485-
72
0
73
0
0
TEXT
8
0
39
10
62
7
10
1325.000000
20
1475.000000
30
0.000000
11
1325.000000
21
1475.000000
31
0.000000
40
-43.000000
50
0.000000
1
RS485+
72
0
73
0
0
TEXT
8
0
39
10
62
7
10
1325.000000
20
1600.000000
30
0.000000
11
1325.000000
21
1600.000000
31
0.000000
40
-43.000000
50
0.000000
1
GND
72
0
73
0
0
TEXT
8
0
39
10
62
7
10
1325.000000
20
1725.000000
30
0.000000
11
1325.000000
21
1725.000000
31
0.000000
40
-43.000000
50
0.000000
1
LV+
72
0
73
0
0
TEXT
8
0
39
10
62
7
10
1325.000000
20
1850.000000
30
0.000000
11
1325.000000
21
1850.000000
31
0.000000
40
-43.000000
50
0.000000
1
LV-
72
0
73
0
0
TEXT
8
0
39
10
62
7
10
1325.000000
20
1975.000000
30
0.000000
11
1325.000000
21
1975.000000
31
0.000000
40
-43.000000
50
0.000000
1
HV+
72
0
73
0
0
TEXT
8
0
39
10
62
7
10
-175.000000
20
-2050.000000
30
0.000000
11
-175.000000
21
-2050.000000
31
0.000000
40
-43.000000
50
0.000000
1
OUT A
72
0
73
0
0
TEXT
8
0
39
10
62
7
10
-3350.000000
20
-1700.000000
30
0.000000
11
-3350.000000
21
-1700.000000
31
0.000000
40
-43.000000
50
0.000000
1
SIPM A
72
0
73
0
0
TEXT
8
0
39
10
62
7
10
-2525.000000
20
-1850.000000
30
0.000000
11
-2525.000000
21
-1850.000000
31
0.000000
40
-43.000000
50
0.000000
1
PREAMPLIFIER A
72
0
73
0
0
TEXT
8
0
39
10
62
7
10
-3500.000000
20
2125.000000
30
0.000000
11
-3500.000000
21
2125.000000
31
0.000000
40
-43.000000
50
0.000000
1
BIAS VOLTAGE REGULATOR A
72
0
73
0
0
TEXT
8
0
39
10
62
7
10
-3150.000000
20
1350.000000
30
0.000000
11
-3150.000000
21
1350.000000
31
0.000000
40
-43.000000
50
0.000000
1
BIAS VOLTAGE REGULATOR B
72
0
73
0
0
TEXT
8
0
39
10
62
7
10
-2525.000000
20
-600.000000
30
0.000000
11
-2525.000000
21
-600.000000
31
0.000000
40
-43.000000
50
0.000000
1
PREAMPLIFIER B
72
0
73
0
0
TEXT
8
0
39
10
62
7
10
-2850.000000
20
350.000000
30
0.000000
11
-2850.000000
21
350.000000
31
0.000000
40
-43.000000
50
0.000000
1
TEMPERATURE SENSOR
72
0
73
0
0
TEXT
8
0
39
10
62
7
10
-2950.000000
20
-325.000000
30
0.000000
11
-2950.000000
21
-325.000000
31
0.000000
40
-43.000000
50
0.000000
1
SIPM B
72
0
73
0
0
TEXT
8
0
39
10
62
7
10
-175.000000
20
-800.000000
30
0.000000
11
-175.000000
21
-800.000000
31
0.000000
40
-43.000000
50
0.000000
1
OUT B
72
0
73
0
0
TEXT
8
0
39
10
62
7
10
-1350.000000
20
1475.000000
30
0.000000
11
-1350.000000
21
1475.000000
31
0.000000
40
-43.000000
50
0.000000
1
DAC
72
0
73
0
0
TEXT
8
0
39
10
62
7
10
-175.000000
20
-1400.000000
30
0.000000
11
-175.000000
21
-1400.000000
31
0.000000
40
-43.000000
50
0.000000
1
OUT A+B
72
0
73
0
0
LINE
8
0
39
0
62
7
10
-1350.000000
20
-1325.000000
30
0.000000
11
-1425.000000
21
-1325.000000
31
0.000000
0
LINE
8
0
39
0
62
7
10
-3450.000000
20
-1125.000000
30
0.000000
11
-3450.000000
21
1975.000000
31
0.000000
0
LINE
8
0
39
0
62
7
10
-2975.000000
20
-2000.000000
30
0.000000
11
-2950.000000
21
-2000.000000
31
0.000000
0
LINE
8
0
39
0
62
7
10
-3075.000000
20
250.000000
30
0.000000
11
-3075.000000
21
1100.000000
31
0.000000
0
LINE
8
0
39
0
62
7
10
-2950.000000
20
-2000.000000
30
0.000000
11
-2925.000000
21
-1950.000000
31
0.000000
0
LINE
8
0
39
0
62
7
10
-3450.000000
20
-2025.000000
30
0.000000
11
-3450.000000
21
-1975.000000
31
0.000000
0
LINE
8
0
39
0
62
7
10
-2975.000000
20
-750.000000
30
0.000000
11
-2950.000000
21
-750.000000
31
0.000000
0
LINE
8
0
39
0
62
7
10
-2975.000000
20
-2025.000000
30
0.000000
11
-3450.000000
21
-2025.000000
31
0.000000
0
LINE
8
0
39
0
62
7
10
-2950.000000
20
-750.000000
30
0.000000
11
-2925.000000
21
-700.000000
31
0.000000
0
LINE
8
0
39
0
62
7
10
-1675.000000
20
-1300.000000
30
0.000000
11
-1450.000000
21
-1300.000000
31
0.000000
0
LINE
8
0
39
0
62
7
10
-1925.000000
20
-1950.000000
30
0.000000
11
-1950.000000
21
-1950.000000
31
0.000000
0
LINE
8
0
39
0
62
7
10
-1675.000000
20
-775.000000
30
0.000000
11
-1675.000000
21
-1300.000000
31
0.000000
0
LINE
8
0
39
0
62
7
10
-1950.000000
20
-1950.000000
30
0.000000
11
-1975.000000
21
-2000.000000
31
0.000000
0
LINE
8
0
39
0
62
7
10
-1675.000000
20
-1450.000000
30
0.000000
11
-1450.000000
21
-1450.000000
31
0.000000
0
LINE
8
0
39
0
62
7
10
-425.000000
20
-1950.000000
30
0.000000
11
-450.000000
21
-1950.000000
31
0.000000
0
LINE
8
0
39
0
62
7
10
-1675.000000
20
-2025.000000
30
0.000000
11
-1675.000000
21
-1450.000000
31
0.000000
0
LINE
8
0
39
0
62
7
10
-450.000000
20
-1950.000000
30
0.000000
11
-475.000000
21
-2000.000000
31
0.000000
0
LINE
8
0
39
0
62
7
10
-2100.000000
20
-2025.000000
30
0.000000
11
-1450.000000
21
-2025.000000
31
0.000000
0
LINE
8
0
39
0
62
7
10
-425.000000
20
-1300.000000
30
0.000000
11
-450.000000
21
-1300.000000
31
0.000000
0
LINE
8
0
39
0
62
7
10
-2100.000000
20
-775.000000
30
0.000000
11
-1450.000000
21
-775.000000
31
0.000000
0
LINE
8
0
39
0
62
7
10
-450.000000
20
-1300.000000
30
0.000000
11
-475.000000
21
-1350.000000
31
0.000000
0
LINE
8
0
39
0
62
7
10
-2050.000000
20
1200.000000
30
0.000000
11
-2050.000000
21
1975.000000
31
0.000000
0
LINE
8
0
39
0
62
7
10
-425.000000
20
-700.000000
30
0.000000
11
-450.000000
21
-700.000000
31
0.000000
0
LINE
8
0
39
0
62
7
10
-2375.000000
20
1200.000000
30
0.000000
11
-2050.000000
21
1200.000000
31
0.000000
0
LINE
8
0
39
0
62
7
10
-450.000000
20
-700.000000
30
0.000000
11
-475.000000
21
-750.000000
31
0.000000
0
LINE
8
0
39
0
62
7
10
-2525.000000
20
925.000000
30
0.000000
11
-2525.000000
21
1050.000000
31
0.000000
0
LINE
8
0
39
0
62
7
10
-1975.000000
20
-700.000000
30
0.000000
11
-2000.000000
21
-700.000000
31
0.000000
0
LINE
8
0
39
0
62
7
10
-1925.000000
20
1425.000000
30
0.000000
11
-1750.000000
21
1425.000000
31
0.000000
0
LINE
8
0
39
0
62
7
10
-1950.000000
20
-700.000000
30
0.000000
11
-1975.000000
21
-750.000000
31
0.000000
0
LINE
8
0
39
0
62
7
10
-1925.000000
20
925.000000
30
0.000000
11
-1925.000000
21
1425.000000
31
0.000000
0
LINE
8
0
39
0
62
7
10
1625.000000
20
1225.000000
30
0.000000
11
1750.000000
21
1225.000000
31
0.000000
0
LINE
8
0
39
0
62
7
10
1750.000000
20
1225.000000
30
0.000000
11
1750.000000
21
2100.000000
31
0.000000
0
LINE
8
0
39
0
62
7
10
1750.000000
20
2100.000000
30
0.000000
11
1625.000000
21
2100.000000
31
0.000000
0
LINE
8
0
39
0
62
7
10
1625.000000
20
2100.000000
30
0.000000
11
1625.000000
21
1225.000000
31
0.000000
0
LINE
8
0
39
0
62
7
10
-2525.000000
20
925.000000
30
0.000000
11
-1925.000000
21
925.000000
31
0.000000
0
LINE
8
0
39
0
62
7
10
-1800.000000
20
800.000000
30
0.000000
11
-1800.000000
21
175.000000
31
0.000000
0
LINE
8
0
39
0
62
7
10
-3025.000000
20
1575.000000
30
0.000000
11
-1750.000000
21
1575.000000
31
0.000000
0
LINE
8
0
39
0
62
7
10
-750.000000
20
1350.000000
30
0.000000
11
-750.000000
21
800.000000
31
0.000000
0
LINE
8
0
39
0
62
7
10
-3025.000000
20
1825.000000
30
0.000000
11
-3025.000000
21
1575.000000
31
0.000000
0
LINE
8
0
39
0
62
7
10
1625.000000
20
1350.000000
30
0.000000
11
325.000000
21
1350.000000
31
0.000000
0
LINE
8
0
39
0
62
7
10
-3075.000000
20
-775.000000
30
0.000000
11
-2975.000000
21
-775.000000
31
0.000000
0
LINE
8
0
39
0
62
7
10
1625.000000
20
1600.000000
30
0.000000
11
1075.000000
21
1600.000000
31
0.000000
0
LINE
8
0
39
0
62
7
10
-3075.000000
20
-600.000000
30
0.000000
11
-3075.000000
21
-775.000000
31
0.000000
0
LINE
8
0
39
0
62
7
10
1625.000000
20
1725.000000
30
0.000000
11
1075.000000
21
1725.000000
31
0.000000
0
LINE
8
0
39
0
62
7
10
-3075.000000
20
1200.000000
30
0.000000
11
-3075.000000
21
1100.000000
31
0.000000
0
LINE
8
0
39
0
62
7
10
-750.000000
20
1350.000000
30
0.000000
11
25.000000
21
1350.000000
31
0.000000
0
LINE
8
0
39
0
62
7
10
-3450.000000
20
1975.000000
30
0.000000
11
-3175.000000
21
1975.000000
31
0.000000
0
LINE
8
0
39
0
62
7
10
-1125.000000
20
800.000000
30
0.000000
11
-850.000000
21
800.000000
31
0.000000
0
LINE
8
0
39
0
62
7
10
-1200.000000
20
-2025.000000
30
0.000000
11
-375.000000
21
-2025.000000
31
0.000000
0
LINE
8
0
39
0
62
7
10
-2650.000000
20
175.000000
30
0.000000
11
-1925.000000
21
175.000000
31
0.000000
0
LINE
8
0
39
0
62
7
10
-1525.000000
20
1975.000000
30
0.000000
11
-2875.000000
21
1975.000000
31
0.000000
0
LINE
8
0
39
0
62
7
10
-1750.000000
20
1575.000000
30
0.000000
11
-1425.000000
21
1575.000000
31
0.000000
0
LINE
8
0
39
0
62
7
10
-2975.000000
20
-2025.000000
30
0.000000
11
-2350.000000
21
-2025.000000
31
0.000000
0
LINE
8
0
39
0
62
7
10
-3075.000000
20
0.000000
30
0.000000
11
-3075.000000
21
-225.000000
31
0.000000
0
LINE
8
0
39
0
62
7
10
-3075.000000
20
-375.000000
30
0.000000
11
-3075.000000
21
-600.000000
31
0.000000
0
LINE
8
0
39
0
62
7
10
-1125.000000
20
1525.000000
30
0.000000
11
25.000000
21
1525.000000
31
0.000000
0
LINE
8
0
39
0
62
7
10
-2975.000000
20
-775.000000
30
0.000000
11
-2350.000000
21
-775.000000
31
0.000000
0
LINE
8
0
39
0
62
7
10
-1425.000000
20
-1325.000000
30
0.000000
11
-1375.000000
21
-1375.000000
31
0.000000
0
LINE
8
0
39
0
62
7
10
-1200.000000
20
-775.000000
30
0.000000
11
-375.000000
21
-775.000000
31
0.000000
0
LINE
8
0
39
0
62
7
10
-3450.000000
20
-1750.000000
30
0.000000
11
-3450.000000
21
-1975.000000
31
0.000000
0
LINE
8
0
39
0
62
7
10
-1200.000000
20
-1375.000000
30
0.000000
11
-375.000000
21
-1375.000000
31
0.000000
0
LINE
8
0
39
0
62
7
10
-1375.000000
20
-1375.000000
30
0.000000
11
-1425.000000
21
-1425.000000
31
0.000000
0
LINE
8
0
39
0
62
7
10
-475.000000
20
-2000.000000
30
0.000000
11
-475.000000
21
-1950.000000
31
0.000000
0
LINE
8
0
39
0
62
7
10
-2925.000000
20
-1950.000000
30
0.000000
11
-2925.000000
21
-2000.000000
31
0.000000
0
LINE
8
0
39
0
62
7
10
-475.000000
20
-1300.000000
30
0.000000
11
-500.000000
21
-1300.000000
31
0.000000
0
LINE
8
0
39
0
62
7
10
-2925.000000
20
-700.000000
30
0.000000
11
-2925.000000
21
-750.000000
31
0.000000
0
LINE
8
0
39
0
62
7
10
-475.000000
20
-1350.000000
30
0.000000
11
-475.000000
21
-1300.000000
31
0.000000
0
LINE
8
0
39
0
62
7
10
-1975.000000
20
-2000.000000
30
0.000000
11
-1975.000000
21
-1950.000000
31
0.000000
0
LINE
8
0
39
0
62
7
10
-475.000000
20
-700.000000
30
0.000000
11
-500.000000
21
-700.000000
31
0.000000
0
LINE
8
0
39
0
62
7
10
-2675.000000
20
1200.000000
30
0.000000
11
-3075.000000
21
1200.000000
31
0.000000
0
LINE
8
0
39
0
62
7
10
-475.000000
20
-750.000000
30
0.000000
11
-475.000000
21
-700.000000
31
0.000000
0
LINE
8
0
39
0
62
7
10
-1750.000000
20
1425.000000
30
0.000000
11
-1425.000000
21
1425.000000
31
0.000000
0
LINE
8
0
39
0
62
7
10
-1975.000000
20
-750.000000
30
0.000000
11
-1975.000000
21
-700.000000
31
0.000000
0
LINE
8
0
39
0
62
7
10
-3450.000000
20
-1375.000000
30
0.000000
11
-3450.000000
21
-1600.000000
31
0.000000
0
LINE
8
0
39
0
62
7
10
-1925.000000
20
-700.000000
30
0.000000
11
-1950.000000
21
-700.000000
31
0.000000
0
LINE
8
0
39
0
62
7
10
-2925.000000
20
-750.000000
30
0.000000
11
-2900.000000
21
-750.000000
31
0.000000
0
LINE
8
0
39
0
62
7
10
-1800.000000
20
175.000000
30
0.000000
11
-1925.000000
21
175.000000
31
0.000000
0
LINE
8
0
39
0
62
7
10
-475.000000
20
-1950.000000
30
0.000000
11
-500.000000
21
-1950.000000
31
0.000000
0
LINE
8
0
39
0
62
7
10
-1425.000000
20
800.000000
30
0.000000
11
-1800.000000
21
800.000000
31
0.000000
0
LINE
8
0
39
0
62
7
10
-1425.000000
20
-1425.000000
30
0.000000
11
-1350.000000
21
-1425.000000
31
0.000000
0
LINE
8
0
39
0
62
7
10
325.000000
20
1475.000000
30
0.000000
11
1075.000000
21
1475.000000
31
0.000000
0
LINE
8
0
39
0
62
7
10
-1975.000000
20
-1950.000000
30
0.000000
11
-2000.000000
21
-1950.000000
31
0.000000
0
LINE
8
0
39
0
62
7
10
1075.000000
20
1475.000000
30
0.000000
11
1625.000000
21
1475.000000
31
0.000000
0
LINE
8
0
39
0
62
7
10
-2925.000000
20
-2000.000000
30
0.000000
11
-2900.000000
21
-2000.000000
31
0.000000
0
LINE
8
0
39
0
62
7
10
1075.000000
20
1850.000000
30
0.000000
11
1625.000000
21
1850.000000
31
0.000000
0
LINE
8
0
39
0
62
7
10
-850.000000
20
800.000000
30
0.000000
11
-750.000000
21
800.000000
31
0.000000
0
LINE
8
0
39
0
62
7
10
-1525.000000
20
1975.000000
30
0.000000
11
1625.000000
21
1975.000000
31
0.000000
0
ENDSEC
0
EOF
