0
SECTION
2
HEADER
9
$EXTMIN
10
-3825.000000
20
-2625.000000
9
$EXTMAX
10
3843.000000
20
2621.000000
0
ENDSEC
0
SECTION
2
TABLES
0
TABLE
2
LTYPE
70
4
0
LTYPE
2
CONTINUOUS
70
64
3
Solid line
72
65
73
0
40
0.0
0
LTYPE
2
DASHED
70
64
3
Dashed line
72
65
73
2
40
0.8
49
0.5
49
-0.3
0
LTYPE
2
DOT
70
64
3
Dotted line
72
65
73
2
40
0.2
49
0.1
49
-0.1
0
LTYPE
2
DASHDOT
70
64
3
Dotted line
72
65
73
4
40
1
49
0.5
49
-0.2
49
0.1
49
-0.2
0
LTYPE
2
SMALLDOT
70
64
3
Small dotted
72
65
73
2
40
0.1
49
0
49
-0.1
0
LTYPE
2
CENTER
70
64
3
Centerline
72
65
73
4
40
1.1
49
0.8
49
-0.1
49
0.1
49
-0.1
0
ENDTAB
0
TABLE
2
STYLE
70
2
0
STYLE
2
STANDARD
70
64
40
0
41
1
50
0
71
0
3
TXT
42
1
4
 
0
STYLE
2
ROMAN
70
64
40
0
41
1
50
0
71
0
3
ROMANS.SHX
42
1
4
 
0
STYLE
2
TECHNIC
70
64
40
0
41
1
50
0
71
0
3
te______.pfb
42
1
4
 
0
STYLE
2
BLUEPRINT
70
64
40
0
41
1
50
0
71
0
3
cibt____.pfb
42
1
4
 
0
ENDTAB
0
TABLE
2
LAYER
70
1
0
LAYER
2
0
70
0
62
7
6
CONTINUOUS
0
LAYER
2
1
70
0
62
7
6
DASHED
0
LAYER
2
2
70
0
62
7
6
DASHDOT
0
LAYER
2
3
70
0
62
7
6
DOT
0
LAYER
2
4
70
0
62
3
6
CONTINUOUS
0
ENDTAB
0
TABLE
2
VIEW
70
0
0
ENDTAB
0
ENDSEC
0
SECTION
2
ENTITIES
0
POLYLINE
8
0
40
4.000000
41
4.000000
66
1
62
216
10
0
20
0
30
0
70
1
0
VERTEX
8
0
10
-75.000000
20
625.000000
30
0.000000
0
VERTEX
8
0
10
-75.000000
20
-225.000000
30
0.000000
0
VERTEX
8
0
10
525.000000
20
-225.000000
30
0.000000
0
VERTEX
8
0
10
525.000000
20
625.000000
30
0.000000
0
VERTEX
8
0
10
-75.000000
20
625.000000
30
0.000000
0
SEQEND
0
POLYLINE
8
0
40
1.000000
41
1.000000
66
1
62
136
10
0
20
0
30
0
70
0
0
VERTEX
8
0
10
615.000000
20
565.000000
30
0.000000
0
VERTEX
8
0
10
625.000000
20
575.000000
30
0.000000
0
VERTEX
8
0
10
615.000000
20
585.000000
30
0.000000
0
SEQEND
0
POLYLINE
8
0
40
1.000000
41
1.000000
66
1
62
136
10
0
20
0
30
0
70
0
0
VERTEX
8
0
10
605.000000
20
565.000000
30
0.000000
0
VERTEX
8
0
10
595.000000
20
575.000000
30
0.000000
0
VERTEX
8
0
10
605.000000
20
585.000000
30
0.000000
0
SEQEND
0
POLYLINE
8
0
40
1.000000
41
1.000000
66
1
62
136
10
0
20
0
30
0
70
0
0
VERTEX
8
0
10
525.000000
20
575.000000
30
0.000000
0
VERTEX
8
0
10
575.000000
20
575.000000
30
0.000000
0
SEQEND
0
POLYLINE
8
0
40
1.000000
41
1.000000
66
1
62
136
10
0
20
0
30
0
70
0
0
VERTEX
8
0
10
615.000000
20
515.000000
30
0.000000
0
VERTEX
8
0
10
625.000000
20
525.000000
30
0.000000
0
VERTEX
8
0
10
615.000000
20
535.000000
30
0.000000
0
SEQEND
0
POLYLINE
8
0
40
1.000000
41
1.000000
66
1
62
136
10
0
20
0
30
0
70
0
0
VERTEX
8
0
10
605.000000
20
515.000000
30
0.000000
0
VERTEX
8
0
10
595.000000
20
525.000000
30
0.000000
0
VERTEX
8
0
10
605.000000
20
535.000000
30
0.000000
0
SEQEND
0
POLYLINE
8
0
40
1.000000
41
1.000000
66
1
62
136
10
0
20
0
30
0
70
0
0
VERTEX
8
0
10
525.000000
20
525.000000
30
0.000000
0
VERTEX
8
0
10
575.000000
20
525.000000
30
0.000000
0
SEQEND
0
POLYLINE
8
0
40
1.000000
41
1.000000
66
1
62
136
10
0
20
0
30
0
70
0
0
VERTEX
8
0
10
615.000000
20
465.000000
30
0.000000
0
VERTEX
8
0
10
625.000000
20
475.000000
30
0.000000
0
VERTEX
8
0
10
615.000000
20
485.000000
30
0.000000
0
SEQEND
0
POLYLINE
8
0
40
1.000000
41
1.000000
66
1
62
136
10
0
20
0
30
0
70
0
0
VERTEX
8
0
10
605.000000
20
465.000000
30
0.000000
0
VERTEX
8
0
10
595.000000
20
475.000000
30
0.000000
0
VERTEX
8
0
10
605.000000
20
485.000000
30
0.000000
0
SEQEND
0
POLYLINE
8
0
40
1.000000
41
1.000000
66
1
62
136
10
0
20
0
30
0
70
0
0
VERTEX
8
0
10
525.000000
20
475.000000
30
0.000000
0
VERTEX
8
0
10
575.000000
20
475.000000
30
0.000000
0
SEQEND
0
POLYLINE
8
0
40
1.000000
41
1.000000
66
1
62
136
10
0
20
0
30
0
70
0
0
VERTEX
8
0
10
615.000000
20
415.000000
30
0.000000
0
VERTEX
8
0
10
625.000000
20
425.000000
30
0.000000
0
VERTEX
8
0
10
615.000000
20
435.000000
30
0.000000
0
SEQEND
0
POLYLINE
8
0
40
1.000000
41
1.000000
66
1
62
136
10
0
20
0
30
0
70
0
0
VERTEX
8
0
10
605.000000
20
415.000000
30
0.000000
0
VERTEX
8
0
10
595.000000
20
425.000000
30
0.000000
0
VERTEX
8
0
10
605.000000
20
435.000000
30
0.000000
0
SEQEND
0
POLYLINE
8
0
40
1.000000
41
1.000000
66
1
62
136
10
0
20
0
30
0
70
0
0
VERTEX
8
0
10
525.000000
20
425.000000
30
0.000000
0
VERTEX
8
0
10
575.000000
20
425.000000
30
0.000000
0
SEQEND
0
POLYLINE
8
0
40
1.000000
41
1.000000
66
1
62
136
10
0
20
0
30
0
70
0
0
VERTEX
8
0
10
615.000000
20
365.000000
30
0.000000
0
VERTEX
8
0
10
625.000000
20
375.000000
30
0.000000
0
VERTEX
8
0
10
615.000000
20
385.000000
30
0.000000
0
SEQEND
0
POLYLINE
8
0
40
1.000000
41
1.000000
66
1
62
136
10
0
20
0
30
0
70
0
0
VERTEX
8
0
10
605.000000
20
365.000000
30
0.000000
0
VERTEX
8
0
10
595.000000
20
375.000000
30
0.000000
0
VERTEX
8
0
10
605.000000
20
385.000000
30
0.000000
0
SEQEND
0
POLYLINE
8
0
40
1.000000
41
1.000000
66
1
62
136
10
0
20
0
30
0
70
0
0
VERTEX
8
0
10
525.000000
20
375.000000
30
0.000000
0
VERTEX
8
0
10
575.000000
20
375.000000
30
0.000000
0
SEQEND
0
POLYLINE
8
0
40
1.000000
41
1.000000
66
1
62
136
10
0
20
0
30
0
70
0
0
VERTEX
8
0
10
615.000000
20
315.000000
30
0.000000
0
VERTEX
8
0
10
625.000000
20
325.000000
30
0.000000
0
VERTEX
8
0
10
615.000000
20
335.000000
30
0.000000
0
SEQEND
0
POLYLINE
8
0
40
1.000000
41
1.000000
66
1
62
136
10
0
20
0
30
0
70
0
0
VERTEX
8
0
10
605.000000
20
315.000000
30
0.000000
0
VERTEX
8
0
10
595.000000
20
325.000000
30
0.000000
0
VERTEX
8
0
10
605.000000
20
335.000000
30
0.000000
0
SEQEND
0
POLYLINE
8
0
40
1.000000
41
1.000000
66
1
62
136
10
0
20
0
30
0
70
0
0
VERTEX
8
0
10
525.000000
20
325.000000
30
0.000000
0
VERTEX
8
0
10
575.000000
20
325.000000
30
0.000000
0
SEQEND
0
POLYLINE
8
0
40
1.000000
41
1.000000
66
1
62
136
10
0
20
0
30
0
70
0
0
VERTEX
8
0
10
615.000000
20
265.000000
30
0.000000
0
VERTEX
8
0
10
625.000000
20
275.000000
30
0.000000
0
VERTEX
8
0
10
615.000000
20
285.000000
30
0.000000
0
SEQEND
0
POLYLINE
8
0
40
1.000000
41
1.000000
66
1
62
136
10
0
20
0
30
0
70
0
0
VERTEX
8
0
10
605.000000
20
265.000000
30
0.000000
0
VERTEX
8
0
10
595.000000
20
275.000000
30
0.000000
0
VERTEX
8
0
10
605.000000
20
285.000000
30
0.000000
0
SEQEND
0
POLYLINE
8
0
40
1.000000
41
1.000000
66
1
62
136
10
0
20
0
30
0
70
0
0
VERTEX
8
0
10
525.000000
20
275.000000
30
0.000000
0
VERTEX
8
0
10
575.000000
20
275.000000
30
0.000000
0
SEQEND
0
POLYLINE
8
0
40
1.000000
41
1.000000
66
1
62
136
10
0
20
0
30
0
70
0
0
VERTEX
8
0
10
615.000000
20
215.000000
30
0.000000
0
VERTEX
8
0
10
625.000000
20
225.000000
30
0.000000
0
VERTEX
8
0
10
615.000000
20
235.000000
30
0.000000
0
SEQEND
0
POLYLINE
8
0
40
1.000000
41
1.000000
66
1
62
136
10
0
20
0
30
0
70
0
0
VERTEX
8
0
10
605.000000
20
215.000000
30
0.000000
0
VERTEX
8
0
10
595.000000
20
225.000000
30
0.000000
0
VERTEX
8
0
10
605.000000
20
235.000000
30
0.000000
0
SEQEND
0
POLYLINE
8
0
40
1.000000
41
1.000000
66
1
62
136
10
0
20
0
30
0
70
0
0
VERTEX
8
0
10
525.000000
20
225.000000
30
0.000000
0
VERTEX
8
0
10
575.000000
20
225.000000
30
0.000000
0
SEQEND
0
POLYLINE
8
0
40
1.000000
41
1.000000
66
1
62
136
10
0
20
0
30
0
70
0
0
VERTEX
8
0
10
615.000000
20
165.000000
30
0.000000
0
VERTEX
8
0
10
625.000000
20
175.000000
30
0.000000
0
VERTEX
8
0
10
615.000000
20
185.000000
30
0.000000
0
SEQEND
0
POLYLINE
8
0
40
1.000000
41
1.000000
66
1
62
136
10
0
20
0
30
0
70
0
0
VERTEX
8
0
10
605.000000
20
165.000000
30
0.000000
0
VERTEX
8
0
10
595.000000
20
175.000000
30
0.000000
0
VERTEX
8
0
10
605.000000
20
185.000000
30
0.000000
0
SEQEND
0
POLYLINE
8
0
40
1.000000
41
1.000000
66
1
62
136
10
0
20
0
30
0
70
0
0
VERTEX
8
0
10
525.000000
20
175.000000
30
0.000000
0
VERTEX
8
0
10
575.000000
20
175.000000
30
0.000000
0
SEQEND
0
POLYLINE
8
0
40
1.000000
41
1.000000
66
1
62
136
10
0
20
0
30
0
70
0
0
VERTEX
8
0
10
615.000000
20
115.000000
30
0.000000
0
VERTEX
8
0
10
625.000000
20
125.000000
30
0.000000
0
VERTEX
8
0
10
615.000000
20
135.000000
30
0.000000
0
SEQEND
0
POLYLINE
8
0
40
1.000000
41
1.000000
66
1
62
136
10
0
20
0
30
0
70
0
0
VERTEX
8
0
10
605.000000
20
115.000000
30
0.000000
0
VERTEX
8
0
10
595.000000
20
125.000000
30
0.000000
0
VERTEX
8
0
10
605.000000
20
135.000000
30
0.000000
0
SEQEND
0
POLYLINE
8
0
40
1.000000
41
1.000000
66
1
62
136
10
0
20
0
30
0
70
0
0
VERTEX
8
0
10
525.000000
20
125.000000
30
0.000000
0
VERTEX
8
0
10
575.000000
20
125.000000
30
0.000000
0
SEQEND
0
POLYLINE
8
0
40
1.000000
41
1.000000
66
1
62
136
10
0
20
0
30
0
70
0
0
VERTEX
8
0
10
615.000000
20
65.000000
30
0.000000
0
VERTEX
8
0
10
625.000000
20
75.000000
30
0.000000
0
VERTEX
8
0
10
615.000000
20
85.000000
30
0.000000
0
SEQEND
0
POLYLINE
8
0
40
1.000000
41
1.000000
66
1
62
136
10
0
20
0
30
0
70
0
0
VERTEX
8
0
10
605.000000
20
65.000000
30
0.000000
0
VERTEX
8
0
10
595.000000
20
75.000000
30
0.000000
0
VERTEX
8
0
10
605.000000
20
85.000000
30
0.000000
0
SEQEND
0
POLYLINE
8
0
40
1.000000
41
1.000000
66
1
62
136
10
0
20
0
30
0
70
0
0
VERTEX
8
0
10
525.000000
20
75.000000
30
0.000000
0
VERTEX
8
0
10
575.000000
20
75.000000
30
0.000000
0
SEQEND
0
POLYLINE
8
0
40
1.000000
41
1.000000
66
1
62
136
10
0
20
0
30
0
70
0
0
VERTEX
8
0
10
615.000000
20
15.000000
30
0.000000
0
VERTEX
8
0
10
625.000000
20
25.000000
30
0.000000
0
VERTEX
8
0
10
615.000000
20
35.000000
30
0.000000
0
SEQEND
0
POLYLINE
8
0
40
1.000000
41
1.000000
66
1
62
136
10
0
20
0
30
0
70
0
0
VERTEX
8
0
10
605.000000
20
15.000000
30
0.000000
0
VERTEX
8
0
10
595.000000
20
25.000000
30
0.000000
0
VERTEX
8
0
10
605.000000
20
35.000000
30
0.000000
0
SEQEND
0
POLYLINE
8
0
40
1.000000
41
1.000000
66
1
62
136
10
0
20
0
30
0
70
0
0
VERTEX
8
0
10
525.000000
20
25.000000
30
0.000000
0
VERTEX
8
0
10
575.000000
20
25.000000
30
0.000000
0
SEQEND
0
POLYLINE
8
0
40
1.000000
41
1.000000
66
1
62
136
10
0
20
0
30
0
70
0
0
VERTEX
8
0
10
615.000000
20
-35.000000
30
0.000000
0
VERTEX
8
0
10
625.000000
20
-25.000000
30
0.000000
0
VERTEX
8
0
10
615.000000
20
-15.000000
30
0.000000
0
SEQEND
0
POLYLINE
8
0
40
1.000000
41
1.000000
66
1
62
136
10
0
20
0
30
0
70
0
0
VERTEX
8
0
10
605.000000
20
-35.000000
30
0.000000
0
VERTEX
8
0
10
595.000000
20
-25.000000
30
0.000000
0
VERTEX
8
0
10
605.000000
20
-15.000000
30
0.000000
0
SEQEND
0
POLYLINE
8
0
40
1.000000
41
1.000000
66
1
62
136
10
0
20
0
30
0
70
0
0
VERTEX
8
0
10
525.000000
20
-25.000000
30
0.000000
0
VERTEX
8
0
10
575.000000
20
-25.000000
30
0.000000
0
SEQEND
0
POLYLINE
8
0
40
1.000000
41
1.000000
66
1
62
136
10
0
20
0
30
0
70
0
0
VERTEX
8
0
10
615.000000
20
-85.000000
30
0.000000
0
VERTEX
8
0
10
625.000000
20
-75.000000
30
0.000000
0
VERTEX
8
0
10
615.000000
20
-65.000000
30
0.000000
0
SEQEND
0
POLYLINE
8
0
40
1.000000
41
1.000000
66
1
62
136
10
0
20
0
30
0
70
0
0
VERTEX
8
0
10
605.000000
20
-85.000000
30
0.000000
0
VERTEX
8
0
10
595.000000
20
-75.000000
30
0.000000
0
VERTEX
8
0
10
605.000000
20
-65.000000
30
0.000000
0
SEQEND
0
POLYLINE
8
0
40
1.000000
41
1.000000
66
1
62
136
10
0
20
0
30
0
70
0
0
VERTEX
8
0
10
525.000000
20
-75.000000
30
0.000000
0
VERTEX
8
0
10
575.000000
20
-75.000000
30
0.000000
0
SEQEND
0
POLYLINE
8
0
40
1.000000
41
1.000000
66
1
62
136
10
0
20
0
30
0
70
0
0
VERTEX
8
0
10
175.000000
20
-225.000000
30
0.000000
0
VERTEX
8
0
10
175.000000
20
-275.000000
30
0.000000
0
SEQEND
0
POLYLINE
8
0
40
1.000000
41
1.000000
66
1
62
136
10
0
20
0
30
0
70
0
0
VERTEX
8
0
10
225.000000
20
-225.000000
30
0.000000
0
VERTEX
8
0
10
225.000000
20
-275.000000
30
0.000000
0
SEQEND
0
POLYLINE
8
0
40
1.000000
41
1.000000
66
1
62
136
10
0
20
0
30
0
70
0
0
VERTEX
8
0
10
275.000000
20
-225.000000
30
0.000000
0
VERTEX
8
0
10
275.000000
20
-275.000000
30
0.000000
0
SEQEND
0
POLYLINE
8
0
40
1.000000
41
1.000000
66
1
62
136
10
0
20
0
30
0
70
0
0
VERTEX
8
0
10
75.000000
20
625.000000
30
0.000000
0
VERTEX
8
0
10
75.000000
20
675.000000
30
0.000000
0
SEQEND
0
POLYLINE
8
0
40
1.000000
41
1.000000
66
1
62
136
10
0
20
0
30
0
70
0
0
VERTEX
8
0
10
125.000000
20
625.000000
30
0.000000
0
VERTEX
8
0
10
125.000000
20
675.000000
30
0.000000
0
SEQEND
0
POLYLINE
8
0
40
1.000000
41
1.000000
66
1
62
136
10
0
20
0
30
0
70
0
0
VERTEX
8
0
10
275.000000
20
625.000000
30
0.000000
0
VERTEX
8
0
10
275.000000
20
675.000000
30
0.000000
0
SEQEND
0
POLYLINE
8
0
40
1.000000
41
1.000000
66
1
62
136
10
0
20
0
30
0
70
0
0
VERTEX
8
0
10
615.000000
20
-135.000000
30
0.000000
0
VERTEX
8
0
10
625.000000
20
-125.000000
30
0.000000
0
VERTEX
8
0
10
615.000000
20
-115.000000
30
0.000000
0
SEQEND
0
POLYLINE
8
0
40
1.000000
41
1.000000
66
1
62
136
10
0
20
0
30
0
70
0
0
VERTEX
8
0
10
605.000000
20
-135.000000
30
0.000000
0
VERTEX
8
0
10
595.000000
20
-125.000000
30
0.000000
0
VERTEX
8
0
10
605.000000
20
-115.000000
30
0.000000
0
SEQEND
0
POLYLINE
8
0
40
1.000000
41
1.000000
66
1
62
136
10
0
20
0
30
0
70
0
0
VERTEX
8
0
10
525.000000
20
-125.000000
30
0.000000
0
VERTEX
8
0
10
575.000000
20
-125.000000
30
0.000000
0
SEQEND
0
POLYLINE
8
0
40
1.000000
41
1.000000
66
1
62
136
10
0
20
0
30
0
70
0
0
VERTEX
8
0
10
615.000000
20
-185.000000
30
0.000000
0
VERTEX
8
0
10
625.000000
20
-175.000000
30
0.000000
0
VERTEX
8
0
10
615.000000
20
-165.000000
30
0.000000
0
SEQEND
0
POLYLINE
8
0
40
1.000000
41
1.000000
66
1
62
136
10
0
20
0
30
0
70
0
0
VERTEX
8
0
10
605.000000
20
-185.000000
30
0.000000
0
VERTEX
8
0
10
595.000000
20
-175.000000
30
0.000000
0
VERTEX
8
0
10
605.000000
20
-165.000000
30
0.000000
0
SEQEND
0
POLYLINE
8
0
40
1.000000
41
1.000000
66
1
62
136
10
0
20
0
30
0
70
0
0
VERTEX
8
0
10
525.000000
20
-175.000000
30
0.000000
0
VERTEX
8
0
10
575.000000
20
-175.000000
30
0.000000
0
SEQEND
0
POLYLINE
8
0
40
1.000000
41
1.000000
66
1
62
136
10
0
20
0
30
0
70
0
0
VERTEX
8
0
10
-75.000000
20
-25.000000
30
0.000000
0
VERTEX
8
0
10
-125.000000
20
-25.000000
30
0.000000
0
SEQEND
0
POLYLINE
8
0
40
1.000000
41
1.000000
66
1
62
136
10
0
20
0
30
0
70
0
0
VERTEX
8
0
10
-165.000000
20
-135.000000
30
0.000000
0
VERTEX
8
0
10
-175.000000
20
-125.000000
30
0.000000
0
VERTEX
8
0
10
-165.000000
20
-115.000000
30
0.000000
0
SEQEND
0
POLYLINE
8
0
40
1.000000
41
1.000000
66
1
62
136
10
0
20
0
30
0
70
0
0
VERTEX
8
0
10
-155.000000
20
-135.000000
30
0.000000
0
VERTEX
8
0
10
-145.000000
20
-125.000000
30
0.000000
0
VERTEX
8
0
10
-155.000000
20
-115.000000
30
0.000000
0
SEQEND
0
POLYLINE
8
0
40
1.000000
41
1.000000
66
1
62
136
10
0
20
0
30
0
70
0
0
VERTEX
8
0
10
-75.000000
20
-125.000000
30
0.000000
0
VERTEX
8
0
10
-125.000000
20
-125.000000
30
0.000000
0
SEQEND
0
POLYLINE
8
0
40
1.000000
41
1.000000
66
1
62
136
10
0
20
0
30
0
70
0
0
VERTEX
8
0
10
-165.000000
20
15.000000
30
0.000000
0
VERTEX
8
0
10
-175.000000
20
25.000000
30
0.000000
0
VERTEX
8
0
10
-165.000000
20
35.000000
30
0.000000
0
SEQEND
0
POLYLINE
8
0
40
1.000000
41
1.000000
66
1
62
136
10
0
20
0
30
0
70
0
0
VERTEX
8
0
10
-155.000000
20
15.000000
30
0.000000
0
VERTEX
8
0
10
-145.000000
20
25.000000
30
0.000000
0
VERTEX
8
0
10
-155.000000
20
35.000000
30
0.000000
0
SEQEND
0
POLYLINE
8
0
40
1.000000
41
1.000000
66
1
62
136
10
0
20
0
30
0
70
0
0
VERTEX
8
0
10
-75.000000
20
25.000000
30
0.000000
0
VERTEX
8
0
10
-125.000000
20
25.000000
30
0.000000
0
SEQEND
0
POLYLINE
8
0
40
1.000000
41
1.000000
66
1
62
136
10
0
20
0
30
0
70
0
0
VERTEX
8
0
10
-165.000000
20
415.000000
30
0.000000
0
VERTEX
8
0
10
-175.000000
20
425.000000
30
0.000000
0
VERTEX
8
0
10
-165.000000
20
435.000000
30
0.000000
0
SEQEND
0
POLYLINE
8
0
40
1.000000
41
1.000000
66
1
62
136
10
0
20
0
30
0
70
0
0
VERTEX
8
0
10
-155.000000
20
415.000000
30
0.000000
0
VERTEX
8
0
10
-145.000000
20
425.000000
30
0.000000
0
VERTEX
8
0
10
-155.000000
20
435.000000
30
0.000000
0
SEQEND
0
POLYLINE
8
0
40
1.000000
41
1.000000
66
1
62
136
10
0
20
0
30
0
70
0
0
VERTEX
8
0
10
-75.000000
20
425.000000
30
0.000000
0
VERTEX
8
0
10
-125.000000
20
425.000000
30
0.000000
0
SEQEND
0
POLYLINE
8
0
40
1.000000
41
1.000000
66
1
62
136
10
0
20
0
30
0
70
0
0
VERTEX
8
0
10
-165.000000
20
365.000000
30
0.000000
0
VERTEX
8
0
10
-175.000000
20
375.000000
30
0.000000
0
VERTEX
8
0
10
-165.000000
20
385.000000
30
0.000000
0
SEQEND
0
POLYLINE
8
0
40
1.000000
41
1.000000
66
1
62
136
10
0
20
0
30
0
70
0
0
VERTEX
8
0
10
-155.000000
20
365.000000
30
0.000000
0
VERTEX
8
0
10
-145.000000
20
375.000000
30
0.000000
0
VERTEX
8
0
10
-155.000000
20
385.000000
30
0.000000
0
SEQEND
0
POLYLINE
8
0
40
1.000000
41
1.000000
66
1
62
136
10
0
20
0
30
0
70
0
0
VERTEX
8
0
10
-75.000000
20
375.000000
30
0.000000
0
VERTEX
8
0
10
-125.000000
20
375.000000
30
0.000000
0
SEQEND
0
POLYLINE
8
0
40
1.000000
41
1.000000
66
1
62
136
10
0
20
0
30
0
70
0
0
VERTEX
8
0
10
-165.000000
20
315.000000
30
0.000000
0
VERTEX
8
0
10
-175.000000
20
325.000000
30
0.000000
0
VERTEX
8
0
10
-165.000000
20
335.000000
30
0.000000
0
SEQEND
0
POLYLINE
8
0
40
1.000000
41
1.000000
66
1
62
136
10
0
20
0
30
0
70
0
0
VERTEX
8
0
10
-155.000000
20
315.000000
30
0.000000
0
VERTEX
8
0
10
-145.000000
20
325.000000
30
0.000000
0
VERTEX
8
0
10
-155.000000
20
335.000000
30
0.000000
0
SEQEND
0
POLYLINE
8
0
40
1.000000
41
1.000000
66
1
62
136
10
0
20
0
30
0
70
0
0
VERTEX
8
0
10
-75.000000
20
325.000000
30
0.000000
0
VERTEX
8
0
10
-125.000000
20
325.000000
30
0.000000
0
SEQEND
0
POLYLINE
8
0
40
1.000000
41
1.000000
66
1
62
136
10
0
20
0
30
0
70
0
0
VERTEX
8
0
10
-165.000000
20
265.000000
30
0.000000
0
VERTEX
8
0
10
-175.000000
20
275.000000
30
0.000000
0
VERTEX
8
0
10
-165.000000
20
285.000000
30
0.000000
0
SEQEND
0
POLYLINE
8
0
40
1.000000
41
1.000000
66
1
62
136
10
0
20
0
30
0
70
0
0
VERTEX
8
0
10
-155.000000
20
265.000000
30
0.000000
0
VERTEX
8
0
10
-145.000000
20
275.000000
30
0.000000
0
VERTEX
8
0
10
-155.000000
20
285.000000
30
0.000000
0
SEQEND
0
POLYLINE
8
0
40
1.000000
41
1.000000
66
1
62
136
10
0
20
0
30
0
70
0
0
VERTEX
8
0
10
-75.000000
20
275.000000
30
0.000000
0
VERTEX
8
0
10
-125.000000
20
275.000000
30
0.000000
0
SEQEND
0
POLYLINE
8
0
40
1.000000
41
1.000000
66
1
62
136
10
0
20
0
30
0
70
0
0
VERTEX
8
0
10
-165.000000
20
115.000000
30
0.000000
0
VERTEX
8
0
10
-175.000000
20
125.000000
30
0.000000
0
VERTEX
8
0
10
-165.000000
20
135.000000
30
0.000000
0
SEQEND
0
POLYLINE
8
0
40
1.000000
41
1.000000
66
1
62
136
10
0
20
0
30
0
70
0
0
VERTEX
8
0
10
-155.000000
20
115.000000
30
0.000000
0
VERTEX
8
0
10
-145.000000
20
125.000000
30
0.000000
0
VERTEX
8
0
10
-155.000000
20
135.000000
30
0.000000
0
SEQEND
0
POLYLINE
8
0
40
1.000000
41
1.000000
66
1
62
136
10
0
20
0
30
0
70
0
0
VERTEX
8
0
10
-75.000000
20
125.000000
30
0.000000
0
VERTEX
8
0
10
-125.000000
20
125.000000
30
0.000000
0
SEQEND
0
POLYLINE
8
0
40
1.000000
41
1.000000
66
1
62
136
10
0
20
0
30
0
70
0
0
VERTEX
8
0
10
-165.000000
20
215.000000
30
0.000000
0
VERTEX
8
0
10
-175.000000
20
225.000000
30
0.000000
0
VERTEX
8
0
10
-165.000000
20
235.000000
30
0.000000
0
SEQEND
0
POLYLINE
8
0
40
1.000000
41
1.000000
66
1
62
136
10
0
20
0
30
0
70
0
0
VERTEX
8
0
10
-155.000000
20
215.000000
30
0.000000
0
VERTEX
8
0
10
-145.000000
20
225.000000
30
0.000000
0
VERTEX
8
0
10
-155.000000
20
235.000000
30
0.000000
0
SEQEND
0
POLYLINE
8
0
40
1.000000
41
1.000000
66
1
62
136
10
0
20
0
30
0
70
0
0
VERTEX
8
0
10
-75.000000
20
225.000000
30
0.000000
0
VERTEX
8
0
10
-125.000000
20
225.000000
30
0.000000
0
SEQEND
0
POLYLINE
8
0
40
1.000000
41
1.000000
66
1
62
136
10
0
20
0
30
0
70
0
0
VERTEX
8
0
10
-165.000000
20
165.000000
30
0.000000
0
VERTEX
8
0
10
-175.000000
20
175.000000
30
0.000000
0
VERTEX
8
0
10
-165.000000
20
185.000000
30
0.000000
0
SEQEND
0
POLYLINE
8
0
40
1.000000
41
1.000000
66
1
62
136
10
0
20
0
30
0
70
0
0
VERTEX
8
0
10
-155.000000
20
165.000000
30
0.000000
0
VERTEX
8
0
10
-145.000000
20
175.000000
30
0.000000
0
VERTEX
8
0
10
-155.000000
20
185.000000
30
0.000000
0
SEQEND
0
POLYLINE
8
0
40
1.000000
41
1.000000
66
1
62
136
10
0
20
0
30
0
70
0
0
VERTEX
8
0
10
-75.000000
20
175.000000
30
0.000000
0
VERTEX
8
0
10
-125.000000
20
175.000000
30
0.000000
0
SEQEND
0
TEXT
8
0
39
10
62
2
10
175.000000
20
225.000000
30
0.000000
11
175.000000
21
225.000000
31
0.000000
40
37.000000
50
0.000000
1
U1
72
0
73
0
0
TEXT
8
0
39
10
62
7
10
125.000000
20
375.000000
30
0.000000
11
125.000000
21
375.000000
31
0.000000
40
37.000000
50
0.000000
1
ATM88P
72
0
73
0
0
TEXT
8
0
39
10
62
136
10
575.000000
20
575.000000
30
0.000000
11
575.000000
21
575.000000
31
0.000000
40
33.000000
50
0.000000
1
30
72
2
73
0
0
TEXT
8
0
39
10
62
96
10
525.000000
20
575.000000
30
0.000000
11
525.000000
21
575.000000
31
0.000000
40
33.000000
50
0.000000
1
PD0/RX
72
2
73
2
0
TEXT
8
0
39
10
62
136
10
575.000000
20
525.000000
30
0.000000
11
575.000000
21
525.000000
31
0.000000
40
33.000000
50
0.000000
1
31
72
2
73
0
0
TEXT
8
0
39
10
62
96
10
525.000000
20
525.000000
30
0.000000
11
525.000000
21
525.000000
31
0.000000
40
33.000000
50
0.000000
1
PD1/TX
72
2
73
2
0
TEXT
8
0
39
10
62
136
10
575.000000
20
475.000000
30
0.000000
11
575.000000
21
475.000000
31
0.000000
40
33.000000
50
0.000000
1
32
72
2
73
0
0
TEXT
8
0
39
10
62
96
10
525.000000
20
475.000000
30
0.000000
11
525.000000
21
475.000000
31
0.000000
40
33.000000
50
0.000000
1
PD2
72
2
73
2
0
TEXT
8
0
39
10
62
136
10
575.000000
20
425.000000
30
0.000000
11
575.000000
21
425.000000
31
0.000000
40
33.000000
50
0.000000
1
1
72
2
73
0
0
TEXT
8
0
39
10
62
96
10
525.000000
20
425.000000
30
0.000000
11
525.000000
21
425.000000
31
0.000000
40
33.000000
50
0.000000
1
PD3
72
2
73
2
0
TEXT
8
0
39
10
62
136
10
575.000000
20
375.000000
30
0.000000
11
575.000000
21
375.000000
31
0.000000
40
33.000000
50
0.000000
1
2
72
2
73
0
0
TEXT
8
0
39
10
62
96
10
525.000000
20
375.000000
30
0.000000
11
525.000000
21
375.000000
31
0.000000
40
33.000000
50
0.000000
1
PD4
72
2
73
2
0
TEXT
8
0
39
10
62
136
10
575.000000
20
325.000000
30
0.000000
11
575.000000
21
325.000000
31
0.000000
40
33.000000
50
0.000000
1
9
72
2
73
0
0
TEXT
8
0
39
10
62
96
10
525.000000
20
325.000000
30
0.000000
11
525.000000
21
325.000000
31
0.000000
40
33.000000
50
0.000000
1
PD5
72
2
73
2
0
TEXT
8
0
39
10
62
136
10
575.000000
20
275.000000
30
0.000000
11
575.000000
21
275.000000
31
0.000000
40
33.000000
50
0.000000
1
10
72
2
73
0
0
TEXT
8
0
39
10
62
96
10
525.000000
20
275.000000
30
0.000000
11
525.000000
21
275.000000
31
0.000000
40
33.000000
50
0.000000
1
PD6
72
2
73
2
0
TEXT
8
0
39
10
62
136
10
575.000000
20
225.000000
30
0.000000
11
575.000000
21
225.000000
31
0.000000
40
33.000000
50
0.000000
1
11
72
2
73
0
0
TEXT
8
0
39
10
62
96
10
525.000000
20
225.000000
30
0.000000
11
525.000000
21
225.000000
31
0.000000
40
33.000000
50
0.000000
1
PD7
72
2
73
2
0
TEXT
8
0
39
10
62
136
10
575.000000
20
175.000000
30
0.000000
11
575.000000
21
175.000000
31
0.000000
40
33.000000
50
0.000000
1
12
72
2
73
0
0
TEXT
8
0
39
10
62
96
10
525.000000
20
175.000000
30
0.000000
11
525.000000
21
175.000000
31
0.000000
40
33.000000
50
0.000000
1
PB0
72
2
73
2
0
TEXT
8
0
39
10
62
136
10
575.000000
20
125.000000
30
0.000000
11
575.000000
21
125.000000
31
0.000000
40
33.000000
50
0.000000
1
13
72
2
73
0
0
TEXT
8
0
39
10
62
96
10
525.000000
20
125.000000
30
0.000000
11
525.000000
21
125.000000
31
0.000000
40
33.000000
50
0.000000
1
PB1
72
2
73
2
0
TEXT
8
0
39
10
62
136
10
575.000000
20
75.000000
30
0.000000
11
575.000000
21
75.000000
31
0.000000
40
33.000000
50
0.000000
1
14
72
2
73
0
0
TEXT
8
0
39
10
62
96
10
525.000000
20
75.000000
30
0.000000
11
525.000000
21
75.000000
31
0.000000
40
33.000000
50
0.000000
1
PB2
72
2
73
2
0
TEXT
8
0
39
10
62
136
10
575.000000
20
25.000000
30
0.000000
11
575.000000
21
25.000000
31
0.000000
40
33.000000
50
0.000000
1
15
72
2
73
0
0
TEXT
8
0
39
10
62
96
10
525.000000
20
25.000000
30
0.000000
11
525.000000
21
25.000000
31
0.000000
40
33.000000
50
0.000000
1
MOSI/PB3
72
2
73
2
0
TEXT
8
0
39
10
62
136
10
575.000000
20
-25.000000
30
0.000000
11
575.000000
21
-25.000000
31
0.000000
40
33.000000
50
0.000000
1
16
72
2
73
0
0
TEXT
8
0
39
10
62
96
10
525.000000
20
-25.000000
30
0.000000
11
525.000000
21
-25.000000
31
0.000000
40
33.000000
50
0.000000
1
MISO/PB4
72
2
73
2
0
TEXT
8
0
39
10
62
136
10
575.000000
20
-75.000000
30
0.000000
11
575.000000
21
-75.000000
31
0.000000
40
33.000000
50
0.000000
1
17
72
2
73
0
0
TEXT
8
0
39
10
62
96
10
525.000000
20
-75.000000
30
0.000000
11
525.000000
21
-75.000000
31
0.000000
40
33.000000
50
0.000000
1
SCK/PB5
72
2
73
2
0
TEXT
8
0
39
10
62
136
10
175.000000
20
-275.000000
30
0.000000
11
175.000000
21
-275.000000
31
0.000000
40
33.000000
50
90.000000
1
3
72
0
73
0
0
TEXT
8
0
39
10
62
136
10
225.000000
20
-275.000000
30
0.000000
11
225.000000
21
-275.000000
31
0.000000
40
33.000000
50
90.000000
1
5
72
0
73
0
0
TEXT
8
0
39
10
62
96
10
175.000000
20
-175.000000
30
0.000000
11
175.000000
21
-175.000000
31
0.000000
40
33.000000
50
0.000000
1
GND
72
0
73
2
0
TEXT
8
0
39
10
62
136
10
275.000000
20
-275.000000
30
0.000000
11
275.000000
21
-275.000000
31
0.000000
40
33.000000
50
90.000000
1
21
72
0
73
0
0
TEXT
8
0
39
10
62
136
10
75.000000
20
675.000000
30
0.000000
11
75.000000
21
675.000000
31
0.000000
40
33.000000
50
90.000000
1
4
72
2
73
0
0
TEXT
8
0
39
10
62
136
10
125.000000
20
675.000000
30
0.000000
11
125.000000
21
675.000000
31
0.000000
40
33.000000
50
90.000000
1
6
72
2
73
0
0
TEXT
8
0
39
10
62
96
10
125.000000
20
575.000000
30
0.000000
11
125.000000
21
575.000000
31
0.000000
40
33.000000
50
0.000000
1
VCC
72
2
73
2
0
TEXT
8
0
39
10
62
136
10
275.000000
20
675.000000
30
0.000000
11
275.000000
21
675.000000
31
0.000000
40
33.000000
50
90.000000
1
18
72
2
73
0
0
TEXT
8
0
39
10
62
96
10
325.000000
20
575.000000
30
0.000000
11
325.000000
21
575.000000
31
0.000000
40
33.000000
50
0.000000
1
AVCC
72
2
73
2
0
TEXT
8
0
39
10
62
136
10
575.000000
20
-125.000000
30
0.000000
11
575.000000
21
-125.000000
31
0.000000
40
33.000000
50
0.000000
1
7
72
2
73
0
0
TEXT
8
0
39
10
62
96
10
525.000000
20
-125.000000
30
0.000000
11
525.000000
21
-125.000000
31
0.000000
40
33.000000
50
0.000000
1
XTAL/PB6
72
2
73
2
0
TEXT
8
0
39
10
62
136
10
575.000000
20
-175.000000
30
0.000000
11
575.000000
21
-175.000000
31
0.000000
40
33.000000
50
0.000000
1
8
72
2
73
0
0
TEXT
8
0
39
10
62
96
10
525.000000
20
-175.000000
30
0.000000
11
525.000000
21
-175.000000
31
0.000000
40
33.000000
50
0.000000
1
XTAL/PB7
72
2
73
2
0
TEXT
8
0
39
10
62
136
10
-125.000000
20
-25.000000
30
0.000000
11
-125.000000
21
-25.000000
31
0.000000
40
33.000000
50
0.000000
1
19
72
0
73
0
0
TEXT
8
0
39
10
62
96
10
-75.000000
20
-25.000000
30
0.000000
11
-75.000000
21
-25.000000
31
0.000000
40
33.000000
50
0.000000
1
ADC6
72
0
73
2
0
TEXT
8
0
39
10
62
136
10
-125.000000
20
-125.000000
30
0.000000
11
-125.000000
21
-125.000000
31
0.000000
40
33.000000
50
0.000000
1
20
72
0
73
0
0
TEXT
8
0
39
10
62
96
10
-75.000000
20
-125.000000
30
0.000000
11
-75.000000
21
-125.000000
31
0.000000
40
33.000000
50
0.000000
1
AREF
72
0
73
2
0
TEXT
8
0
39
10
62
136
10
-125.000000
20
25.000000
30
0.000000
11
-125.000000
21
25.000000
31
0.000000
40
33.000000
50
0.000000
1
22
72
0
73
0
0
TEXT
8
0
39
10
62
96
10
-75.000000
20
25.000000
30
0.000000
11
-75.000000
21
25.000000
31
0.000000
40
33.000000
50
0.000000
1
ADC7
72
0
73
2
0
TEXT
8
0
39
10
62
136
10
-125.000000
20
425.000000
30
0.000000
11
-125.000000
21
425.000000
31
0.000000
40
33.000000
50
0.000000
1
23
72
0
73
0
0
TEXT
8
0
39
10
62
96
10
-75.000000
20
425.000000
30
0.000000
11
-75.000000
21
425.000000
31
0.000000
40
33.000000
50
0.000000
1
PC0
72
0
73
2
0
TEXT
8
0
39
10
62
136
10
-125.000000
20
375.000000
30
0.000000
11
-125.000000
21
375.000000
31
0.000000
40
33.000000
50
0.000000
1
24
72
0
73
0
0
TEXT
8
0
39
10
62
96
10
-75.000000
20
375.000000
30
0.000000
11
-75.000000
21
375.000000
31
0.000000
40
33.000000
50
0.000000
1
PC1
72
0
73
2
0
TEXT
8
0
39
10
62
136
10
-125.000000
20
325.000000
30
0.000000
11
-125.000000
21
325.000000
31
0.000000
40
33.000000
50
0.000000
1
25
72
0
73
0
0
TEXT
8
0
39
10
62
96
10
-75.000000
20
325.000000
30
0.000000
11
-75.000000
21
325.000000
31
0.000000
40
33.000000
50
0.000000
1
PC2
72
0
73
2
0
TEXT
8
0
39
10
62
136
10
-125.000000
20
275.000000
30
0.000000
11
-125.000000
21
275.000000
31
0.000000
40
33.000000
50
0.000000
1
26
72
0
73
0
0
TEXT
8
0
39
10
62
96
10
-75.000000
20
275.000000
30
0.000000
11
-75.000000
21
275.000000
31
0.000000
40
33.000000
50
0.000000
1
PC3
72
0
73
2
0
TEXT
8
0
39
10
62
136
10
-125.000000
20
125.000000
30
0.000000
11
-125.000000
21
125.000000
31
0.000000
40
33.000000
50
0.000000
1
29
72
0
73
0
0
LINE
8
0
39
1
62
96
10
613065984.000000
20
144.000000
30
0.000000
11
156.000000
21
144.000000
31
0.000000
0
TEXT
8
0
39
10
62
96
10
-75.000000
20
125.000000
30
0.000000
11
-75.000000
21
125.000000
31
0.000000
40
33.000000
50
0.000000
1
PC6/RES
72
0
73
2
0
TEXT
8
0
39
10
62
136
10
-125.000000
20
225.000000
30
0.000000
11
-125.000000
21
225.000000
31
0.000000
40
33.000000
50
0.000000
1
27
72
0
73
0
0
TEXT
8
0
39
10
62
96
10
-75.000000
20
225.000000
30
0.000000
11
-75.000000
21
225.000000
31
0.000000
40
33.000000
50
0.000000
1
PC4/SDA
72
0
73
2
0
TEXT
8
0
39
10
62
136
10
-125.000000
20
175.000000
30
0.000000
11
-125.000000
21
175.000000
31
0.000000
40
33.000000
50
0.000000
1
28
72
0
73
0
0
TEXT
8
0
39
10
62
96
10
-75.000000
20
175.000000
30
0.000000
11
-75.000000
21
175.000000
31
0.000000
40
33.000000
50
0.000000
1
PC5/SCL
72
0
73
2
0
POLYLINE
8
0
40
1.000000
41
1.000000
66
1
62
216
10
0
20
0
30
0
70
1
0
VERTEX
8
0
10
-200.000000
20
-2336.000000
30
0.000000
0
VERTEX
8
0
10
-200.000000
20
-2324.000000
30
0.000000
0
VERTEX
8
0
10
-300.000000
20
-2324.000000
30
0.000000
0
VERTEX
8
0
10
-300.000000
20
-2336.000000
30
0.000000
0
VERTEX
8
0
10
-200.000000
20
-2336.000000
30
0.000000
0
SEQEND
0
POLYLINE
8
0
40
1.000000
41
1.000000
66
1
62
216
10
0
20
0
30
0
70
1
0
VERTEX
8
0
10
-200.000000
20
-2366.000000
30
0.000000
0
VERTEX
8
0
10
-200.000000
20
-2354.000000
30
0.000000
0
VERTEX
8
0
10
-300.000000
20
-2354.000000
30
0.000000
0
VERTEX
8
0
10
-300.000000
20
-2366.000000
30
0.000000
0
VERTEX
8
0
10
-200.000000
20
-2366.000000
30
0.000000
0
SEQEND
0
POLYLINE
8
0
40
1.000000
41
1.000000
66
1
62
136
10
0
20
0
30
0
70
0
0
VERTEX
8
0
10
-250.000000
20
-2365.000000
30
0.000000
0
VERTEX
8
0
10
-250.000000
20
-2450.000000
30
0.000000
0
SEQEND
0
POLYLINE
8
0
40
1.000000
41
1.000000
66
1
62
136
10
0
20
0
30
0
70
0
0
VERTEX
8
0
10
-250.000000
20
-2322.000000
30
0.000000
0
VERTEX
8
0
10
-250.000000
20
-2250.000000
30
0.000000
0
SEQEND
0
TEXT
8
0
39
10
62
2
10
-250.000000
20
-2425.000000
30
0.000000
11
-250.000000
21
-2425.000000
31
0.000000
40
33.000000
50
0.000000
1
C5
72
0
73
0
0
TEXT
8
0
39
10
62
2
10
-250.000000
20
-2325.000000
30
0.000000
11
-250.000000
21
-2325.000000
31
0.000000
40
34.000000
50
0.000000
1
100nF
72
0
73
0
0
POLYLINE
8
0
40
4.000000
41
4.000000
66
1
62
216
10
0
20
0
30
0
70
0
0
VERTEX
8
0
10
926.000000
20
725.000000
30
0.000000
0
VERTEX
8
0
10
976.000000
20
725.000000
30
0.000000
0
SEQEND
0
POLYLINE
8
0
40
4.000000
41
4.000000
66
1
62
216
10
0
20
0
30
0
70
0
0
VERTEX
8
0
10
950.000000
20
725.000000
30
0.000000
0
VERTEX
8
0
10
926.000000
20
775.000000
30
0.000000
0
VERTEX
8
0
10
976.000000
20
775.000000
30
0.000000
0
VERTEX
8
0
10
950.000000
20
725.000000
30
0.000000
0
SEQEND
0
POLYLINE
8
0
40
4.000000
41
4.000000
66
1
62
216
10
0
20
0
30
0
70
0
0
VERTEX
8
0
10
940.000000
20
715.000000
30
0.000000
0
VERTEX
8
0
10
910.000000
20
685.000000
30
0.000000
0
VERTEX
8
0
10
900.000000
20
675.000000
30
0.000000
0
SEQEND
0
POLYLINE
8
0
40
4.000000
41
4.000000
66
1
62
216
10
0
20
0
30
0
70
0
0
VERTEX
8
0
10
940.000000
20
685.000000
30
0.000000
0
VERTEX
8
0
10
900.000000
20
645.000000
30
0.000000
0
SEQEND
0
POLYLINE
8
0
40
4.000000
41
4.000000
66
1
62
216
10
0
20
0
30
0
70
0
0
VERTEX
8
0
10
900.000000
20
675.000000
30
0.000000
0
VERTEX
8
0
10
900.000000
20
699.000000
30
0.000000
0
SEQEND
0
POLYLINE
8
0
40
4.000000
41
4.000000
66
1
62
216
10
0
20
0
30
0
70
0
0
VERTEX
8
0
10
900.000000
20
675.000000
30
0.000000
0
VERTEX
8
0
10
920.000000
20
675.000000
30
0.000000
0
VERTEX
8
0
10
900.000000
20
695.000000
30
0.000000
0
SEQEND
0
POLYLINE
8
0
40
4.000000
41
4.000000
66
1
62
216
10
0
20
0
30
0
70
0
0
VERTEX
8
0
10
900.000000
20
645.000000
30
0.000000
0
VERTEX
8
0
10
920.000000
20
645.000000
30
0.000000
0
VERTEX
8
0
10
900.000000
20
665.000000
30
0.000000
0
VERTEX
8
0
10
900.000000
20
645.000000
30
0.000000
0
SEQEND
0
POLYLINE
8
0
40
1.000000
41
1.000000
66
1
62
136
10
0
20
0
30
0
70
0
0
VERTEX
8
0
10
950.000000
20
725.000000
30
0.000000
0
VERTEX
8
0
10
950.000000
20
625.000000
30
0.000000
0
SEQEND
0
POLYLINE
8
0
40
1.000000
41
1.000000
66
1
62
136
10
0
20
0
30
0
70
0
0
VERTEX
8
0
10
950.000000
20
775.000000
30
0.000000
0
VERTEX
8
0
10
950.000000
20
875.000000
30
0.000000
0
SEQEND
0
TEXT
8
0
39
10
62
2
10
1025.000000
20
775.000000
30
0.000000
11
1025.000000
21
775.000000
31
0.000000
40
33.000000
50
0.000000
1
D1
72
2
73
0
0
TEXT
8
0
39
10
62
2
10
975.000000
20
650.000000
30
0.000000
11
975.000000
21
650.000000
31
0.000000
40
34.000000
50
0.000000
1
gr
72
1
73
0
0
POLYLINE
8
0
40
4.000000
41
4.000000
66
1
62
216
10
0
20
0
30
0
70
0
0
VERTEX
8
0
10
925.000000
20
950.000000
30
0.000000
0
VERTEX
8
0
10
975.000000
20
950.000000
30
0.000000
0
VERTEX
8
0
10
975.000000
20
1100.000000
30
0.000000
0
VERTEX
8
0
10
925.000000
20
1100.000000
30
0.000000
0
VERTEX
8
0
10
925.000000
20
950.000000
30
0.000000
0
SEQEND
0
POLYLINE
8
0
40
1.000000
41
1.000000
66
1
62
136
10
0
20
0
30
0
70
0
0
VERTEX
8
0
10
950.000000
20
950.000000
30
0.000000
0
VERTEX
8
0
10
950.000000
20
900.000000
30
0.000000
0
SEQEND
0
POLYLINE
8
0
40
1.000000
41
1.000000
66
1
62
136
10
0
20
0
30
0
70
0
0
VERTEX
8
0
10
950.000000
20
1100.000000
30
0.000000
0
VERTEX
8
0
10
950.000000
20
1150.000000
30
0.000000
0
SEQEND
0
TEXT
8
0
39
10
62
2
10
875.000000
20
975.000000
30
0.000000
11
875.000000
21
975.000000
31
0.000000
40
33.000000
50
90.000000
1
R3
72
0
73
3
0
TEXT
8
0
39
10
62
2
10
951.000000
20
1025.000000
30
0.000000
11
951.000000
21
1025.000000
31
0.000000
40
34.000000
50
90.000000
1
1K
72
1
73
2
0
POLYLINE
8
0
40
1.000000
41
1.000000
66
1
62
216
10
0
20
0
30
0
70
1
0
VERTEX
8
0
10
75.000000
20
-2336.000000
30
0.000000
0
VERTEX
8
0
10
75.000000
20
-2324.000000
30
0.000000
0
VERTEX
8
0
10
-25.000000
20
-2324.000000
30
0.000000
0
VERTEX
8
0
10
-25.000000
20
-2336.000000
30
0.000000
0
VERTEX
8
0
10
75.000000
20
-2336.000000
30
0.000000
0
SEQEND
0
POLYLINE
8
0
40
1.000000
41
1.000000
66
1
62
216
10
0
20
0
30
0
70
1
0
VERTEX
8
0
10
75.000000
20
-2366.000000
30
0.000000
0
VERTEX
8
0
10
75.000000
20
-2354.000000
30
0.000000
0
VERTEX
8
0
10
-25.000000
20
-2354.000000
30
0.000000
0
VERTEX
8
0
10
-25.000000
20
-2366.000000
30
0.000000
0
VERTEX
8
0
10
75.000000
20
-2366.000000
30
0.000000
0
SEQEND
0
POLYLINE
8
0
40
1.000000
41
1.000000
66
1
62
136
10
0
20
0
30
0
70
0
0
VERTEX
8
0
10
25.000000
20
-2365.000000
30
0.000000
0
VERTEX
8
0
10
25.000000
20
-2450.000000
30
0.000000
0
SEQEND
0
POLYLINE
8
0
40
1.000000
41
1.000000
66
1
62
136
10
0
20
0
30
0
70
0
0
VERTEX
8
0
10
25.000000
20
-2322.000000
30
0.000000
0
VERTEX
8
0
10
25.000000
20
-2250.000000
30
0.000000
0
SEQEND
0
TEXT
8
0
39
10
62
2
10
25.000000
20
-2425.000000
30
0.000000
11
25.000000
21
-2425.000000
31
0.000000
40
33.000000
50
0.000000
1
C6
72
0
73
0
0
TEXT
8
0
39
10
62
2
10
25.000000
20
-2325.000000
30
0.000000
11
25.000000
21
-2325.000000
31
0.000000
40
34.000000
50
0.000000
1
100nF
72
0
73
0
0
POLYLINE
8
0
40
4.000000
41
4.000000
66
1
62
216
10
0
20
0
30
0
70
0
0
VERTEX
8
0
10
-2599.000000
20
-1376.000000
30
0.000000
0
VERTEX
8
0
10
-2599.000000
20
-1676.000000
30
0.000000
0
VERTEX
8
0
10
-2675.000000
20
-1676.000000
30
0.000000
0
VERTEX
8
0
10
-2675.000000
20
-1376.000000
30
0.000000
0
VERTEX
8
0
10
-2599.000000
20
-1376.000000
30
0.000000
0
SEQEND
0
POLYLINE
8
0
40
1.000000
41
1.000000
66
1
62
136
10
0
20
0
30
0
70
0
0
VERTEX
8
0
10
-2675.000000
20
-1400.000000
30
0.000000
0
VERTEX
8
0
10
-2825.000000
20
-1400.000000
30
0.000000
0
SEQEND
0
POLYLINE
8
0
40
1.000000
41
1.000000
66
1
62
136
10
0
20
0
30
0
70
0
0
VERTEX
8
0
10
-2675.000000
20
-1450.000000
30
0.000000
0
VERTEX
8
0
10
-2825.000000
20
-1450.000000
30
0.000000
0
SEQEND
0
POLYLINE
8
0
40
1.000000
41
1.000000
66
1
62
136
10
0
20
0
30
0
70
0
0
VERTEX
8
0
10
-2675.000000
20
-1500.000000
30
0.000000
0
VERTEX
8
0
10
-2825.000000
20
-1500.000000
30
0.000000
0
SEQEND
0
POLYLINE
8
0
40
1.000000
41
1.000000
66
1
62
136
10
0
20
0
30
0
70
0
0
VERTEX
8
0
10
-2675.000000
20
-1550.000000
30
0.000000
0
VERTEX
8
0
10
-2825.000000
20
-1550.000000
30
0.000000
0
SEQEND
0
POLYLINE
8
0
40
1.000000
41
1.000000
66
1
62
136
10
0
20
0
30
0
70
0
0
VERTEX
8
0
10
-2675.000000
20
-1600.000000
30
0.000000
0
VERTEX
8
0
10
-2825.000000
20
-1600.000000
30
0.000000
0
SEQEND
0
POLYLINE
8
0
40
1.000000
41
1.000000
66
1
62
136
10
0
20
0
30
0
70
0
0
VERTEX
8
0
10
-2675.000000
20
-1650.000000
30
0.000000
0
VERTEX
8
0
10
-2825.000000
20
-1650.000000
30
0.000000
0
SEQEND
0
TEXT
8
0
39
10
62
2
10
-2700.000000
20
-1350.000000
30
0.000000
11
-2700.000000
21
-1350.000000
31
0.000000
40
34.000000
50
0.000000
1
J1
72
1
73
2
0
TEXT
8
0
39
10
62
12
10
-2825.000000
20
-1400.000000
30
0.000000
11
-2825.000000
21
-1400.000000
31
0.000000
40
34.000000
50
0.000000
1
1
72
0
73
0
0
TEXT
8
0
39
10
62
12
10
-2825.000000
20
-1450.000000
30
0.000000
11
-2825.000000
21
-1450.000000
31
0.000000
40
34.000000
50
0.000000
1
2
72
0
73
0
0
TEXT
8
0
39
10
62
12
10
-2825.000000
20
-1500.000000
30
0.000000
11
-2825.000000
21
-1500.000000
31
0.000000
40
34.000000
50
0.000000
1
3
72
0
73
0
0
TEXT
8
0
39
10
62
12
10
-2825.000000
20
-1550.000000
30
0.000000
11
-2825.000000
21
-1550.000000
31
0.000000
40
34.000000
50
0.000000
1
4
72
0
73
0
0
TEXT
8
0
39
10
62
12
10
-2825.000000
20
-1600.000000
30
0.000000
11
-2825.000000
21
-1600.000000
31
0.000000
40
34.000000
50
0.000000
1
5
72
0
73
0
0
TEXT
8
0
39
10
62
12
10
-2825.000000
20
-1650.000000
30
0.000000
11
-2825.000000
21
-1650.000000
31
0.000000
40
34.000000
50
0.000000
1
6
72
0
73
0
0
POLYLINE
8
0
40
1.000000
41
1.000000
66
1
62
216
10
0
20
0
30
0
70
1
0
VERTEX
8
0
10
-400.000000
20
-2336.000000
30
0.000000
0
VERTEX
8
0
10
-400.000000
20
-2324.000000
30
0.000000
0
VERTEX
8
0
10
-500.000000
20
-2324.000000
30
0.000000
0
VERTEX
8
0
10
-500.000000
20
-2336.000000
30
0.000000
0
VERTEX
8
0
10
-400.000000
20
-2336.000000
30
0.000000
0
SEQEND
0
POLYLINE
8
0
40
1.000000
41
1.000000
66
1
62
216
10
0
20
0
30
0
70
1
0
VERTEX
8
0
10
-400.000000
20
-2366.000000
30
0.000000
0
VERTEX
8
0
10
-400.000000
20
-2354.000000
30
0.000000
0
VERTEX
8
0
10
-500.000000
20
-2354.000000
30
0.000000
0
VERTEX
8
0
10
-500.000000
20
-2366.000000
30
0.000000
0
VERTEX
8
0
10
-400.000000
20
-2366.000000
30
0.000000
0
SEQEND
0
POLYLINE
8
0
40
1.000000
41
1.000000
66
1
62
136
10
0
20
0
30
0
70
0
0
VERTEX
8
0
10
-450.000000
20
-2365.000000
30
0.000000
0
VERTEX
8
0
10
-450.000000
20
-2450.000000
30
0.000000
0
SEQEND
0
POLYLINE
8
0
40
1.000000
41
1.000000
66
1
62
136
10
0
20
0
30
0
70
0
0
VERTEX
8
0
10
-450.000000
20
-2322.000000
30
0.000000
0
VERTEX
8
0
10
-450.000000
20
-2250.000000
30
0.000000
0
SEQEND
0
TEXT
8
0
39
10
62
2
10
-450.000000
20
-2425.000000
30
0.000000
11
-450.000000
21
-2425.000000
31
0.000000
40
33.000000
50
0.000000
1
C4
72
0
73
0
0
TEXT
8
0
39
10
62
2
10
-450.000000
20
-2325.000000
30
0.000000
11
-450.000000
21
-2325.000000
31
0.000000
40
34.000000
50
0.000000
1
2µ2
72
0
73
0
0
POLYLINE
8
0
40
1.000000
41
1.000000
66
1
62
216
10
0
20
0
30
0
70
1
0
VERTEX
8
0
10
-600.000000
20
-2336.000000
30
0.000000
0
VERTEX
8
0
10
-600.000000
20
-2324.000000
30
0.000000
0
VERTEX
8
0
10
-700.000000
20
-2324.000000
30
0.000000
0
VERTEX
8
0
10
-700.000000
20
-2336.000000
30
0.000000
0
VERTEX
8
0
10
-600.000000
20
-2336.000000
30
0.000000
0
SEQEND
0
POLYLINE
8
0
40
1.000000
41
1.000000
66
1
62
216
10
0
20
0
30
0
70
1
0
VERTEX
8
0
10
-600.000000
20
-2366.000000
30
0.000000
0
VERTEX
8
0
10
-600.000000
20
-2354.000000
30
0.000000
0
VERTEX
8
0
10
-700.000000
20
-2354.000000
30
0.000000
0
VERTEX
8
0
10
-700.000000
20
-2366.000000
30
0.000000
0
VERTEX
8
0
10
-600.000000
20
-2366.000000
30
0.000000
0
SEQEND
0
POLYLINE
8
0
40
1.000000
41
1.000000
66
1
62
136
10
0
20
0
30
0
70
0
0
VERTEX
8
0
10
-650.000000
20
-2365.000000
30
0.000000
0
VERTEX
8
0
10
-650.000000
20
-2450.000000
30
0.000000
0
SEQEND
0
POLYLINE
8
0
40
1.000000
41
1.000000
66
1
62
136
10
0
20
0
30
0
70
0
0
VERTEX
8
0
10
-650.000000
20
-2322.000000
30
0.000000
0
VERTEX
8
0
10
-650.000000
20
-2250.000000
30
0.000000
0
SEQEND
0
TEXT
8
0
39
10
62
2
10
-650.000000
20
-2425.000000
30
0.000000
11
-650.000000
21
-2425.000000
31
0.000000
40
33.000000
50
0.000000
1
C3
72
0
73
0
0
TEXT
8
0
39
10
62
2
10
-650.000000
20
-2325.000000
30
0.000000
11
-650.000000
21
-2325.000000
31
0.000000
40
34.000000
50
0.000000
1
2µ2
72
0
73
0
0
POLYLINE
8
0
40
1.000000
41
1.000000
66
1
62
216
10
0
20
0
30
0
70
1
0
VERTEX
8
0
10
-3200.000000
20
-1711.000000
30
0.000000
0
VERTEX
8
0
10
-3200.000000
20
-1699.000000
30
0.000000
0
VERTEX
8
0
10
-3300.000000
20
-1699.000000
30
0.000000
0
VERTEX
8
0
10
-3300.000000
20
-1711.000000
30
0.000000
0
VERTEX
8
0
10
-3200.000000
20
-1711.000000
30
0.000000
0
SEQEND
0
POLYLINE
8
0
40
1.000000
41
1.000000
66
1
62
216
10
0
20
0
30
0
70
1
0
VERTEX
8
0
10
-3200.000000
20
-1741.000000
30
0.000000
0
VERTEX
8
0
10
-3200.000000
20
-1729.000000
30
0.000000
0
VERTEX
8
0
10
-3300.000000
20
-1729.000000
30
0.000000
0
VERTEX
8
0
10
-3300.000000
20
-1741.000000
30
0.000000
0
VERTEX
8
0
10
-3200.000000
20
-1741.000000
30
0.000000
0
SEQEND
0
POLYLINE
8
0
40
1.000000
41
1.000000
66
1
62
136
10
0
20
0
30
0
70
0
0
VERTEX
8
0
10
-3250.000000
20
-1740.000000
30
0.000000
0
VERTEX
8
0
10
-3250.000000
20
-1825.000000
30
0.000000
0
SEQEND
0
POLYLINE
8
0
40
1.000000
41
1.000000
66
1
62
136
10
0
20
0
30
0
70
0
0
VERTEX
8
0
10
-3250.000000
20
-1697.000000
30
0.000000
0
VERTEX
8
0
10
-3250.000000
20
-1625.000000
30
0.000000
0
SEQEND
0
TEXT
8
0
39
10
62
2
10
-3250.000000
20
-1800.000000
30
0.000000
11
-3250.000000
21
-1800.000000
31
0.000000
40
33.000000
50
0.000000
1
C1
72
0
73
0
0
TEXT
8
0
39
10
62
2
10
-3250.000000
20
-1700.000000
30
0.000000
11
-3250.000000
21
-1700.000000
31
0.000000
40
34.000000
50
0.000000
1
100nF
72
0
73
0
0
POLYLINE
8
0
40
4.000000
41
4.000000
66
1
62
216
10
0
20
0
30
0
70
0
0
VERTEX
8
0
10
-3275.000000
20
-1550.000000
30
0.000000
0
VERTEX
8
0
10
-3225.000000
20
-1550.000000
30
0.000000
0
VERTEX
8
0
10
-3225.000000
20
-1400.000000
30
0.000000
0
VERTEX
8
0
10
-3275.000000
20
-1400.000000
30
0.000000
0
VERTEX
8
0
10
-3275.000000
20
-1550.000000
30
0.000000
0
SEQEND
0
POLYLINE
8
0
40
1.000000
41
1.000000
66
1
62
136
10
0
20
0
30
0
70
0
0
VERTEX
8
0
10
-3250.000000
20
-1550.000000
30
0.000000
0
VERTEX
8
0
10
-3250.000000
20
-1600.000000
30
0.000000
0
SEQEND
0
POLYLINE
8
0
40
1.000000
41
1.000000
66
1
62
136
10
0
20
0
30
0
70
0
0
VERTEX
8
0
10
-3250.000000
20
-1400.000000
30
0.000000
0
VERTEX
8
0
10
-3250.000000
20
-1350.000000
30
0.000000
0
SEQEND
0
TEXT
8
0
39
10
62
2
10
-3325.000000
20
-1525.000000
30
0.000000
11
-3325.000000
21
-1525.000000
31
0.000000
40
33.000000
50
90.000000
1
R1
72
0
73
3
0
TEXT
8
0
39
10
62
2
10
-3249.000000
20
-1475.000000
30
0.000000
11
-3249.000000
21
-1475.000000
31
0.000000
40
34.000000
50
90.000000
1
10K
72
1
73
2
0
POLYLINE
8
0
40
4.000000
41
4.000000
66
1
62
216
10
0
20
0
30
0
70
0
0
VERTEX
8
0
10
3000.000000
20
500.000000
30
0.000000
0
VERTEX
8
0
10
3000.000000
20
550.000000
30
0.000000
0
VERTEX
8
0
10
2850.000000
20
550.000000
30
0.000000
0
VERTEX
8
0
10
2850.000000
20
500.000000
30
0.000000
0
VERTEX
8
0
10
3000.000000
20
500.000000
30
0.000000
0
SEQEND
0
POLYLINE
8
0
40
1.000000
41
1.000000
66
1
62
136
10
0
20
0
30
0
70
0
0
VERTEX
8
0
10
3000.000000
20
525.000000
30
0.000000
0
VERTEX
8
0
10
3050.000000
20
525.000000
30
0.000000
0
SEQEND
0
POLYLINE
8
0
40
1.000000
41
1.000000
66
1
62
136
10
0
20
0
30
0
70
0
0
VERTEX
8
0
10
2850.000000
20
525.000000
30
0.000000
0
VERTEX
8
0
10
2800.000000
20
525.000000
30
0.000000
0
SEQEND
0
TEXT
8
0
39
10
62
2
10
3100.000000
20
525.000000
30
0.000000
11
3100.000000
21
525.000000
31
0.000000
40
33.000000
50
0.000000
1
R2
72
2
73
0
0
TEXT
8
0
39
10
62
2
10
2925.000000
20
526.000000
30
0.000000
11
2925.000000
21
526.000000
31
0.000000
40
34.000000
50
0.000000
1
120
72
1
73
2
0
POLYLINE
8
0
40
4.000000
41
4.000000
66
1
62
216
10
0
20
0
30
0
70
1
0
VERTEX
8
0
10
2050.000000
20
725.000000
30
0.000000
0
VERTEX
8
0
10
2050.000000
20
225.000000
30
0.000000
0
VERTEX
8
0
10
2450.000000
20
225.000000
30
0.000000
0
VERTEX
8
0
10
2450.000000
20
725.000000
30
0.000000
0
VERTEX
8
0
10
2050.000000
20
725.000000
30
0.000000
0
SEQEND
0
POLYLINE
8
0
40
1.000000
41
1.000000
66
1
62
136
10
0
20
0
30
0
70
0
0
VERTEX
8
0
10
2050.000000
20
675.000000
30
0.000000
0
VERTEX
8
0
10
2000.000000
20
675.000000
30
0.000000
0
SEQEND
0
POLYLINE
8
0
40
1.000000
41
1.000000
66
1
62
136
10
0
20
0
30
0
70
0
0
VERTEX
8
0
10
1980.000000
20
565.000000
30
0.000000
0
VERTEX
8
0
10
1970.000000
20
575.000000
30
0.000000
0
VERTEX
8
0
10
1980.000000
20
585.000000
30
0.000000
0
SEQEND
0
POLYLINE
8
0
40
1.000000
41
1.000000
66
1
62
136
10
0
20
0
30
0
70
0
0
VERTEX
8
0
10
2050.000000
20
575.000000
30
0.000000
0
VERTEX
8
0
10
2000.000000
20
575.000000
30
0.000000
0
SEQEND
0
POLYLINE
8
0
40
1.000000
41
1.000000
66
1
62
136
10
0
20
0
30
0
70
0
0
VERTEX
8
0
10
2050.000000
20
475.000000
30
0.000000
0
VERTEX
8
0
10
2000.000000
20
475.000000
30
0.000000
0
SEQEND
0
POLYLINE
8
0
40
1.000000
41
1.000000
66
1
62
136
10
0
20
0
30
0
70
0
0
VERTEX
8
0
10
2050.000000
20
375.000000
30
0.000000
0
VERTEX
8
0
10
2000.000000
20
375.000000
30
0.000000
0
SEQEND
0
POLYLINE
8
0
40
1.000000
41
1.000000
66
1
62
136
10
0
20
0
30
0
70
0
0
VERTEX
8
0
10
2050.000000
20
275.000000
30
0.000000
0
VERTEX
8
0
10
2000.000000
20
275.000000
30
0.000000
0
SEQEND
0
POLYLINE
8
0
40
1.000000
41
1.000000
66
1
62
136
10
0
20
0
30
0
70
0
0
VERTEX
8
0
10
2450.000000
20
275.000000
30
0.000000
0
VERTEX
8
0
10
2500.000000
20
275.000000
30
0.000000
0
SEQEND
0
POLYLINE
8
0
40
1.000000
41
1.000000
66
1
62
136
10
0
20
0
30
0
70
0
0
VERTEX
8
0
10
2450.000000
20
375.000000
30
0.000000
0
VERTEX
8
0
10
2500.000000
20
375.000000
30
0.000000
0
SEQEND
0
POLYLINE
8
0
40
1.000000
41
1.000000
66
1
62
136
10
0
20
0
30
0
70
0
0
VERTEX
8
0
10
2450.000000
20
475.000000
30
0.000000
0
VERTEX
8
0
10
2500.000000
20
475.000000
30
0.000000
0
SEQEND
0
POLYLINE
8
0
40
1.000000
41
1.000000
66
1
62
136
10
0
20
0
30
0
70
0
0
VERTEX
8
0
10
2450.000000
20
575.000000
30
0.000000
0
VERTEX
8
0
10
2500.000000
20
575.000000
30
0.000000
0
SEQEND
0
POLYLINE
8
0
40
1.000000
41
1.000000
66
1
62
136
10
0
20
0
30
0
70
0
0
VERTEX
8
0
10
2450.000000
20
675.000000
30
0.000000
0
VERTEX
8
0
10
2500.000000
20
675.000000
30
0.000000
0
SEQEND
0
TEXT
8
0
39
10
62
2
10
2200.000000
20
725.000000
30
0.000000
11
2200.000000
21
725.000000
31
0.000000
40
37.000000
50
0.000000
1
U2
72
0
73
0
0
TEXT
8
0
39
10
62
7
10
2150.000000
20
525.000000
30
0.000000
11
2150.000000
21
525.000000
31
0.000000
40
37.000000
50
0.000000
1
MAX13430
72
0
73
0
0
TEXT
8
0
39
10
62
136
10
2000.000000
20
675.000000
30
0.000000
11
2000.000000
21
675.000000
31
0.000000
40
33.000000
50
0.000000
1
1
72
0
73
0
0
TEXT
8
0
39
10
62
96
10
2050.000000
20
675.000000
30
0.000000
11
2050.000000
21
675.000000
31
0.000000
40
33.000000
50
0.000000
1
VL
72
0
73
2
0
TEXT
8
0
39
10
62
136
10
2000.000000
20
575.000000
30
0.000000
11
2000.000000
21
575.000000
31
0.000000
40
33.000000
50
0.000000
1
2
72
0
73
0
0
TEXT
8
0
39
10
62
96
10
2050.000000
20
575.000000
30
0.000000
11
2050.000000
21
575.000000
31
0.000000
40
33.000000
50
0.000000
1
RO
72
0
73
2
0
TEXT
8
0
39
10
62
136
10
2000.000000
20
475.000000
30
0.000000
11
2000.000000
21
475.000000
31
0.000000
40
33.000000
50
0.000000
1
3
72
0
73
0
0
TEXT
8
0
39
10
62
96
10
2050.000000
20
475.000000
30
0.000000
11
2050.000000
21
475.000000
31
0.000000
40
33.000000
50
0.000000
1
DE
72
0
73
2
0
TEXT
8
0
39
10
62
136
10
2000.000000
20
375.000000
30
0.000000
11
2000.000000
21
375.000000
31
0.000000
40
33.000000
50
0.000000
1
4
72
0
73
0
0
LINE
8
0
39
1
62
96
10
2050.000000
20
394.000000
30
0.000000
11
2116.000000
21
394.000000
31
0.000000
0
TEXT
8
0
39
10
62
96
10
2050.000000
20
375.000000
30
0.000000
11
2050.000000
21
375.000000
31
0.000000
40
33.000000
50
0.000000
1
RE
72
0
73
2
0
TEXT
8
0
39
10
62
136
10
2000.000000
20
275.000000
30
0.000000
11
2000.000000
21
275.000000
31
0.000000
40
33.000000
50
0.000000
1
5
72
0
73
0
0
TEXT
8
0
39
10
62
96
10
2050.000000
20
275.000000
30
0.000000
11
2050.000000
21
275.000000
31
0.000000
40
33.000000
50
0.000000
1
DI
72
0
73
2
0
TEXT
8
0
39
10
62
136
10
2500.000000
20
275.000000
30
0.000000
11
2500.000000
21
275.000000
31
0.000000
40
33.000000
50
0.000000
1
6
72
2
73
0
0
TEXT
8
0
39
10
62
96
10
2450.000000
20
275.000000
30
0.000000
11
2450.000000
21
275.000000
31
0.000000
40
33.000000
50
0.000000
1
GND
72
2
73
2
0
TEXT
8
0
39
10
62
136
10
2500.000000
20
375.000000
30
0.000000
11
2500.000000
21
375.000000
31
0.000000
40
33.000000
50
0.000000
1
7
72
2
73
0
0
TEXT
8
0
39
10
62
96
10
2450.000000
20
375.000000
30
0.000000
11
2450.000000
21
375.000000
31
0.000000
40
33.000000
50
0.000000
1
NC
72
2
73
2
0
TEXT
8
0
39
10
62
136
10
2500.000000
20
475.000000
30
0.000000
11
2500.000000
21
475.000000
31
0.000000
40
33.000000
50
0.000000
1
8
72
2
73
0
0
TEXT
8
0
39
10
62
96
10
2450.000000
20
475.000000
30
0.000000
11
2450.000000
21
475.000000
31
0.000000
40
33.000000
50
0.000000
1
A
72
2
73
2
0
TEXT
8
0
39
10
62
136
10
2500.000000
20
575.000000
30
0.000000
11
2500.000000
21
575.000000
31
0.000000
40
33.000000
50
0.000000
1
9
72
2
73
0
0
TEXT
8
0
39
10
62
96
10
2450.000000
20
575.000000
30
0.000000
11
2450.000000
21
575.000000
31
0.000000
40
33.000000
50
0.000000
1
B
72
2
73
2
0
TEXT
8
0
39
10
62
136
10
2500.000000
20
675.000000
30
0.000000
11
2500.000000
21
675.000000
31
0.000000
40
33.000000
50
0.000000
1
10
72
2
73
0
0
TEXT
8
0
39
10
62
96
10
2450.000000
20
675.000000
30
0.000000
11
2450.000000
21
675.000000
31
0.000000
40
33.000000
50
0.000000
1
VCC
72
2
73
2
0
POLYLINE
8
0
40
4.000000
41
4.000000
66
1
62
136
10
0
20
0
30
0
70
0
0
VERTEX
8
0
10
-3325.000000
20
-2351.000000
30
0.000000
0
VERTEX
8
0
10
-3351.000000
20
-2375.000000
30
0.000000
0
VERTEX
8
0
10
-3325.000000
20
-2401.000000
30
0.000000
0
SEQEND
0
POLYLINE
8
0
40
4.000000
41
4.000000
66
1
62
136
10
0
20
0
30
0
70
0
0
VERTEX
8
0
10
-3301.000000
20
-2401.000000
30
0.000000
0
VERTEX
8
0
10
-3275.000000
20
-2375.000000
30
0.000000
0
VERTEX
8
0
10
-3301.000000
20
-2351.000000
30
0.000000
0
SEQEND
0
POLYLINE
8
0
40
10.000000
41
10.000000
66
1
62
136
10
0
20
0
30
0
70
0
0
VERTEX
8
0
10
-3275.000000
20
-2375.000000
30
0.000000
0
VERTEX
8
0
10
-3225.000000
20
-2375.000000
30
0.000000
0
SEQEND
0
TEXT
8
0
39
10
62
96
10
-3375.000000
20
-2375.000000
30
0.000000
11
-3375.000000
21
-2375.000000
31
0.000000
40
33.000000
50
0.000000
1
POWER
72
2
73
2
0
POLYLINE
8
0
40
4.000000
41
4.000000
66
1
62
136
10
0
20
0
30
0
70
0
0
VERTEX
8
0
10
-1975.000000
20
-2351.000000
30
0.000000
0
VERTEX
8
0
10
-2001.000000
20
-2375.000000
30
0.000000
0
VERTEX
8
0
10
-1975.000000
20
-2401.000000
30
0.000000
0
SEQEND
0
POLYLINE
8
0
40
4.000000
41
4.000000
66
1
62
136
10
0
20
0
30
0
70
0
0
VERTEX
8
0
10
-1951.000000
20
-2401.000000
30
0.000000
0
VERTEX
8
0
10
-1925.000000
20
-2375.000000
30
0.000000
0
VERTEX
8
0
10
-1951.000000
20
-2351.000000
30
0.000000
0
SEQEND
0
POLYLINE
8
0
40
10.000000
41
10.000000
66
1
62
136
10
0
20
0
30
0
70
0
0
VERTEX
8
0
10
-1925.000000
20
-2375.000000
30
0.000000
0
VERTEX
8
0
10
-1875.000000
20
-2375.000000
30
0.000000
0
SEQEND
0
TEXT
8
0
39
10
62
96
10
-2025.000000
20
-2375.000000
30
0.000000
11
-2025.000000
21
-2375.000000
31
0.000000
40
33.000000
50
0.000000
1
CONTROL
72
2
73
2
0
LINE
8
0
39
4
62
216
10
-1950.000000
20
25.000000
30
0.000000
11
-1950.000000
21
225.000000
31
0.000000
0
LINE
8
0
39
4
62
216
10
-1750.000000
20
125.000000
30
0.000000
11
-1950.000000
21
225.000000
31
0.000000
0
LINE
8
0
39
4
62
216
10
-1950.000000
20
25.000000
30
0.000000
11
-1750.000000
21
125.000000
31
0.000000
0
POLYLINE
8
0
40
1.000000
41
1.000000
66
1
62
136
10
0
20
0
30
0
70
0
0
VERTEX
8
0
10
-1750.000000
20
125.000000
30
0.000000
0
VERTEX
8
0
10
-1650.000000
20
125.000000
30
0.000000
0
SEQEND
0
POLYLINE
8
0
40
1.000000
41
1.000000
66
1
62
136
10
0
20
0
30
0
70
0
0
VERTEX
8
0
10
-1850.000000
20
175.000000
30
0.000000
0
VERTEX
8
0
10
-1850.000000
20
275.000000
30
0.000000
0
SEQEND
0
POLYLINE
8
0
40
1.000000
41
1.000000
66
1
62
136
10
0
20
0
30
0
70
0
0
VERTEX
8
0
10
-1950.000000
20
175.000000
30
0.000000
0
VERTEX
8
0
10
-2050.000000
20
175.000000
30
0.000000
0
SEQEND
0
POLYLINE
8
0
40
1.000000
41
1.000000
66
1
62
136
10
0
20
0
30
0
70
0
0
VERTEX
8
0
10
-1950.000000
20
75.000000
30
0.000000
0
VERTEX
8
0
10
-2050.000000
20
75.000000
30
0.000000
0
SEQEND
0
POLYLINE
8
0
40
1.000000
41
1.000000
66
1
62
136
10
0
20
0
30
0
70
0
0
VERTEX
8
0
10
-1850.000000
20
75.000000
30
0.000000
0
VERTEX
8
0
10
-1850.000000
20
-25.000000
30
0.000000
0
SEQEND
0
TEXT
8
0
39
10
62
2
10
-1900.000000
20
150.000000
30
0.000000
11
-1900.000000
21
150.000000
31
0.000000
40
37.000000
50
0.000000
1
U3
72
0
73
3
0
TEXT
8
0
39
10
62
7
10
-1800.000000
20
250.000000
30
0.000000
11
-1800.000000
21
250.000000
31
0.000000
40
37.000000
50
0.000000
1
MAX4040
72
0
73
3
0
TEXT
8
0
39
10
62
136
10
-1650.000000
20
125.000000
30
0.000000
11
-1650.000000
21
125.000000
31
0.000000
40
33.000000
50
0.000000
1
1
72
2
73
3
0
TEXT
8
0
39
10
62
136
10
-1875.000000
20
275.000000
30
0.000000
11
-1875.000000
21
275.000000
31
0.000000
40
33.000000
50
0.000000
1
2
72
0
73
3
0
TEXT
8
0
39
10
62
136
10
-2050.000000
20
175.000000
30
0.000000
11
-2050.000000
21
175.000000
31
0.000000
40
33.000000
50
0.000000
1
3
72
0
73
3
0
TEXT
8
0
39
10
62
96
10
-1950.000000
20
175.000000
30
0.000000
11
-1950.000000
21
175.000000
31
0.000000
40
33.000000
50
0.000000
1
+
72
0
73
2
0
TEXT
8
0
39
10
62
136
10
-2050.000000
20
75.000000
30
0.000000
11
-2050.000000
21
75.000000
31
0.000000
40
33.000000
50
0.000000
1
4
72
0
73
3
0
TEXT
8
0
39
10
62
96
10
-1950.000000
20
75.000000
30
0.000000
11
-1950.000000
21
75.000000
31
0.000000
40
33.000000
50
0.000000
1
-
72
0
73
2
0
TEXT
8
0
39
10
62
136
10
-1850.000000
20
25.000000
30
0.000000
11
-1850.000000
21
25.000000
31
0.000000
40
33.000000
50
0.000000
1
5
72
2
73
3
0
POLYLINE
8
0
40
4.000000
41
4.000000
66
1
62
216
10
0
20
0
30
0
70
0
0
VERTEX
8
0
10
-1775.000000
20
-175.000000
30
0.000000
0
VERTEX
8
0
10
-1775.000000
20
-125.000000
30
0.000000
0
VERTEX
8
0
10
-1925.000000
20
-125.000000
30
0.000000
0
VERTEX
8
0
10
-1925.000000
20
-175.000000
30
0.000000
0
VERTEX
8
0
10
-1775.000000
20
-175.000000
30
0.000000
0
SEQEND
0
POLYLINE
8
0
40
1.000000
41
1.000000
66
1
62
136
10
0
20
0
30
0
70
0
0
VERTEX
8
0
10
-1775.000000
20
-150.000000
30
0.000000
0
VERTEX
8
0
10
-1725.000000
20
-150.000000
30
0.000000
0
SEQEND
0
POLYLINE
8
0
40
1.000000
41
1.000000
66
1
62
136
10
0
20
0
30
0
70
0
0
VERTEX
8
0
10
-1925.000000
20
-150.000000
30
0.000000
0
VERTEX
8
0
10
-1975.000000
20
-150.000000
30
0.000000
0
SEQEND
0
TEXT
8
0
39
10
62
2
10
-1700.000000
20
-200.000000
30
0.000000
11
-1700.000000
21
-200.000000
31
0.000000
40
33.000000
50
0.000000
1
R9
72
2
73
0
0
TEXT
8
0
39
10
62
2
10
-1850.000000
20
-149.000000
30
0.000000
11
-1850.000000
21
-149.000000
31
0.000000
40
34.000000
50
0.000000
1
100K
72
1
73
2
0
POLYLINE
8
0
40
4.000000
41
4.000000
66
1
62
216
10
0
20
0
30
0
70
0
0
VERTEX
8
0
10
-2200.000000
20
150.000000
30
0.000000
0
VERTEX
8
0
10
-2200.000000
20
200.000000
30
0.000000
0
VERTEX
8
0
10
-2350.000000
20
200.000000
30
0.000000
0
VERTEX
8
0
10
-2350.000000
20
150.000000
30
0.000000
0
VERTEX
8
0
10
-2200.000000
20
150.000000
30
0.000000
0
SEQEND
0
POLYLINE
8
0
40
1.000000
41
1.000000
66
1
62
136
10
0
20
0
30
0
70
0
0
VERTEX
8
0
10
-2200.000000
20
175.000000
30
0.000000
0
VERTEX
8
0
10
-2150.000000
20
175.000000
30
0.000000
0
SEQEND
0
POLYLINE
8
0
40
1.000000
41
1.000000
66
1
62
136
10
0
20
0
30
0
70
0
0
VERTEX
8
0
10
-2350.000000
20
175.000000
30
0.000000
0
VERTEX
8
0
10
-2400.000000
20
175.000000
30
0.000000
0
SEQEND
0
TEXT
8
0
39
10
62
2
10
-2225.000000
20
100.000000
30
0.000000
11
-2225.000000
21
100.000000
31
0.000000
40
33.000000
50
0.000000
1
R8
72
2
73
0
0
TEXT
8
0
39
10
62
2
10
-2275.000000
20
176.000000
30
0.000000
11
-2275.000000
21
176.000000
31
0.000000
40
34.000000
50
0.000000
1
47
72
1
73
2
0
POLYLINE
8
0
40
4.000000
41
4.000000
66
1
62
216
10
0
20
0
30
0
70
0
0
VERTEX
8
0
10
-2750.000000
20
325.000000
30
0.000000
0
VERTEX
8
0
10
-2700.000000
20
325.000000
30
0.000000
0
VERTEX
8
0
10
-2700.000000
20
475.000000
30
0.000000
0
VERTEX
8
0
10
-2750.000000
20
475.000000
30
0.000000
0
VERTEX
8
0
10
-2750.000000
20
325.000000
30
0.000000
0
SEQEND
0
POLYLINE
8
0
40
1.000000
41
1.000000
66
1
62
136
10
0
20
0
30
0
70
0
0
VERTEX
8
0
10
-2725.000000
20
325.000000
30
0.000000
0
VERTEX
8
0
10
-2725.000000
20
275.000000
30
0.000000
0
SEQEND
0
POLYLINE
8
0
40
1.000000
41
1.000000
66
1
62
136
10
0
20
0
30
0
70
0
0
VERTEX
8
0
10
-2725.000000
20
475.000000
30
0.000000
0
VERTEX
8
0
10
-2725.000000
20
525.000000
30
0.000000
0
SEQEND
0
TEXT
8
0
39
10
62
2
10
-2800.000000
20
350.000000
30
0.000000
11
-2800.000000
21
350.000000
31
0.000000
40
33.000000
50
90.000000
1
R5
72
0
73
3
0
TEXT
8
0
39
10
62
2
10
-2724.000000
20
400.000000
30
0.000000
11
-2724.000000
21
400.000000
31
0.000000
40
34.000000
50
90.000000
1
3K3
72
1
73
2
0
POLYLINE
8
0
40
4.000000
41
4.000000
66
1
62
216
10
0
20
0
30
0
70
0
0
VERTEX
8
0
10
-2750.000000
20
-425.000000
30
0.000000
0
VERTEX
8
0
10
-2700.000000
20
-425.000000
30
0.000000
0
VERTEX
8
0
10
-2700.000000
20
-275.000000
30
0.000000
0
VERTEX
8
0
10
-2750.000000
20
-275.000000
30
0.000000
0
VERTEX
8
0
10
-2750.000000
20
-425.000000
30
0.000000
0
SEQEND
0
POLYLINE
8
0
40
1.000000
41
1.000000
66
1
62
136
10
0
20
0
30
0
70
0
0
VERTEX
8
0
10
-2725.000000
20
-425.000000
30
0.000000
0
VERTEX
8
0
10
-2725.000000
20
-475.000000
30
0.000000
0
SEQEND
0
POLYLINE
8
0
40
1.000000
41
1.000000
66
1
62
136
10
0
20
0
30
0
70
0
0
VERTEX
8
0
10
-2725.000000
20
-275.000000
30
0.000000
0
VERTEX
8
0
10
-2725.000000
20
-225.000000
30
0.000000
0
SEQEND
0
TEXT
8
0
39
10
62
2
10
-2800.000000
20
-400.000000
30
0.000000
11
-2800.000000
21
-400.000000
31
0.000000
40
33.000000
50
90.000000
1
R10
72
0
73
3
0
TEXT
8
0
39
10
62
2
10
-2724.000000
20
-350.000000
30
0.000000
11
-2724.000000
21
-350.000000
31
0.000000
40
34.000000
50
90.000000
1
PT100
72
1
73
2
0
POLYLINE
8
0
40
4.000000
41
4.000000
66
1
62
216
10
0
20
0
30
0
70
0
0
VERTEX
8
0
10
-2500.000000
20
325.000000
30
0.000000
0
VERTEX
8
0
10
-2450.000000
20
325.000000
30
0.000000
0
VERTEX
8
0
10
-2450.000000
20
475.000000
30
0.000000
0
VERTEX
8
0
10
-2500.000000
20
475.000000
30
0.000000
0
VERTEX
8
0
10
-2500.000000
20
325.000000
30
0.000000
0
SEQEND
0
POLYLINE
8
0
40
1.000000
41
1.000000
66
1
62
136
10
0
20
0
30
0
70
0
0
VERTEX
8
0
10
-2475.000000
20
325.000000
30
0.000000
0
VERTEX
8
0
10
-2475.000000
20
275.000000
30
0.000000
0
SEQEND
0
POLYLINE
8
0
40
1.000000
41
1.000000
66
1
62
136
10
0
20
0
30
0
70
0
0
VERTEX
8
0
10
-2475.000000
20
475.000000
30
0.000000
0
VERTEX
8
0
10
-2475.000000
20
525.000000
30
0.000000
0
SEQEND
0
TEXT
8
0
39
10
62
2
10
-2550.000000
20
350.000000
30
0.000000
11
-2550.000000
21
350.000000
31
0.000000
40
33.000000
50
90.000000
1
R6
72
0
73
3
0
TEXT
8
0
39
10
62
2
10
-2474.000000
20
400.000000
30
0.000000
11
-2474.000000
21
400.000000
31
0.000000
40
34.000000
50
90.000000
1
47K
72
1
73
2
0
POLYLINE
8
0
40
4.000000
41
4.000000
66
1
62
216
10
0
20
0
30
0
70
0
0
VERTEX
8
0
10
-2500.000000
20
-425.000000
30
0.000000
0
VERTEX
8
0
10
-2450.000000
20
-425.000000
30
0.000000
0
VERTEX
8
0
10
-2450.000000
20
-275.000000
30
0.000000
0
VERTEX
8
0
10
-2500.000000
20
-275.000000
30
0.000000
0
VERTEX
8
0
10
-2500.000000
20
-425.000000
30
0.000000
0
SEQEND
0
POLYLINE
8
0
40
1.000000
41
1.000000
66
1
62
136
10
0
20
0
30
0
70
0
0
VERTEX
8
0
10
-2475.000000
20
-425.000000
30
0.000000
0
VERTEX
8
0
10
-2475.000000
20
-475.000000
30
0.000000
0
SEQEND
0
POLYLINE
8
0
40
1.000000
41
1.000000
66
1
62
136
10
0
20
0
30
0
70
0
0
VERTEX
8
0
10
-2475.000000
20
-275.000000
30
0.000000
0
VERTEX
8
0
10
-2475.000000
20
-225.000000
30
0.000000
0
SEQEND
0
TEXT
8
0
39
10
62
2
10
-2550.000000
20
-400.000000
30
0.000000
11
-2550.000000
21
-400.000000
31
0.000000
40
33.000000
50
90.000000
1
R11
72
0
73
3
0
TEXT
8
0
39
10
62
2
10
-2474.000000
20
-350.000000
30
0.000000
11
-2474.000000
21
-350.000000
31
0.000000
40
34.000000
50
90.000000
1
1K2
72
1
73
2
0
POLYLINE
8
0
40
4.000000
41
4.000000
66
1
62
216
10
0
20
0
30
0
70
0
0
VERTEX
8
0
10
-1800.000000
20
400.000000
30
0.000000
0
VERTEX
8
0
10
-1800.000000
20
450.000000
30
0.000000
0
VERTEX
8
0
10
-1950.000000
20
450.000000
30
0.000000
0
VERTEX
8
0
10
-1950.000000
20
400.000000
30
0.000000
0
VERTEX
8
0
10
-1800.000000
20
400.000000
30
0.000000
0
SEQEND
0
POLYLINE
8
0
40
1.000000
41
1.000000
66
1
62
136
10
0
20
0
30
0
70
0
0
VERTEX
8
0
10
-1800.000000
20
425.000000
30
0.000000
0
VERTEX
8
0
10
-1750.000000
20
425.000000
30
0.000000
0
SEQEND
0
POLYLINE
8
0
40
1.000000
41
1.000000
66
1
62
136
10
0
20
0
30
0
70
0
0
VERTEX
8
0
10
-1950.000000
20
425.000000
30
0.000000
0
VERTEX
8
0
10
-2000.000000
20
425.000000
30
0.000000
0
SEQEND
0
TEXT
8
0
39
10
62
2
10
-1825.000000
20
350.000000
30
0.000000
11
-1825.000000
21
350.000000
31
0.000000
40
33.000000
50
0.000000
1
R7
72
2
73
0
0
TEXT
8
0
39
10
62
2
10
-1875.000000
20
426.000000
30
0.000000
11
-1875.000000
21
426.000000
31
0.000000
40
34.000000
50
0.000000
1
1M
72
1
73
2
0
POLYLINE
8
0
40
1.000000
41
1.000000
66
1
62
216
10
0
20
0
30
0
70
1
0
VERTEX
8
0
10
-1839.000000
20
-350.000000
30
0.000000
0
VERTEX
8
0
10
-1851.000000
20
-350.000000
30
0.000000
0
VERTEX
8
0
10
-1851.000000
20
-450.000000
30
0.000000
0
VERTEX
8
0
10
-1839.000000
20
-450.000000
30
0.000000
0
VERTEX
8
0
10
-1839.000000
20
-350.000000
30
0.000000
0
SEQEND
0
POLYLINE
8
0
40
1.000000
41
1.000000
66
1
62
216
10
0
20
0
30
0
70
1
0
VERTEX
8
0
10
-1809.000000
20
-350.000000
30
0.000000
0
VERTEX
8
0
10
-1821.000000
20
-350.000000
30
0.000000
0
VERTEX
8
0
10
-1821.000000
20
-450.000000
30
0.000000
0
VERTEX
8
0
10
-1809.000000
20
-450.000000
30
0.000000
0
VERTEX
8
0
10
-1809.000000
20
-350.000000
30
0.000000
0
SEQEND
0
POLYLINE
8
0
40
1.000000
41
1.000000
66
1
62
136
10
0
20
0
30
0
70
0
0
VERTEX
8
0
10
-1810.000000
20
-400.000000
30
0.000000
0
VERTEX
8
0
10
-1725.000000
20
-400.000000
30
0.000000
0
SEQEND
0
POLYLINE
8
0
40
1.000000
41
1.000000
66
1
62
136
10
0
20
0
30
0
70
0
0
VERTEX
8
0
10
-1853.000000
20
-400.000000
30
0.000000
0
VERTEX
8
0
10
-1925.000000
20
-400.000000
30
0.000000
0
SEQEND
0
TEXT
8
0
39
10
62
2
10
-1725.000000
20
-350.000000
30
0.000000
11
-1725.000000
21
-350.000000
31
0.000000
40
33.000000
50
0.000000
1
C2
72
2
73
3
0
TEXT
8
0
39
10
62
2
10
-1875.000000
20
-350.000000
30
0.000000
11
-1875.000000
21
-350.000000
31
0.000000
40
34.000000
50
0.000000
1
100nF
72
2
73
3
0
POLYLINE
8
0
40
4.000000
41
4.000000
66
1
62
216
10
0
20
0
30
0
70
0
0
VERTEX
8
0
10
-1074.000000
20
-1451.000000
30
0.000000
0
VERTEX
8
0
10
-1074.000000
20
-1751.000000
30
0.000000
0
VERTEX
8
0
10
-1150.000000
20
-1751.000000
30
0.000000
0
VERTEX
8
0
10
-1150.000000
20
-1451.000000
30
0.000000
0
VERTEX
8
0
10
-1074.000000
20
-1451.000000
30
0.000000
0
SEQEND
0
POLYLINE
8
0
40
1.000000
41
1.000000
66
1
62
136
10
0
20
0
30
0
70
0
0
VERTEX
8
0
10
-1150.000000
20
-1475.000000
30
0.000000
0
VERTEX
8
0
10
-1300.000000
20
-1475.000000
30
0.000000
0
SEQEND
0
POLYLINE
8
0
40
1.000000
41
1.000000
66
1
62
136
10
0
20
0
30
0
70
0
0
VERTEX
8
0
10
-1150.000000
20
-1525.000000
30
0.000000
0
VERTEX
8
0
10
-1300.000000
20
-1525.000000
30
0.000000
0
SEQEND
0
POLYLINE
8
0
40
1.000000
41
1.000000
66
1
62
136
10
0
20
0
30
0
70
0
0
VERTEX
8
0
10
-1150.000000
20
-1575.000000
30
0.000000
0
VERTEX
8
0
10
-1300.000000
20
-1575.000000
30
0.000000
0
SEQEND
0
POLYLINE
8
0
40
1.000000
41
1.000000
66
1
62
136
10
0
20
0
30
0
70
0
0
VERTEX
8
0
10
-1150.000000
20
-1625.000000
30
0.000000
0
VERTEX
8
0
10
-1300.000000
20
-1625.000000
30
0.000000
0
SEQEND
0
POLYLINE
8
0
40
1.000000
41
1.000000
66
1
62
136
10
0
20
0
30
0
70
0
0
VERTEX
8
0
10
-1150.000000
20
-1675.000000
30
0.000000
0
VERTEX
8
0
10
-1300.000000
20
-1675.000000
30
0.000000
0
SEQEND
0
POLYLINE
8
0
40
1.000000
41
1.000000
66
1
62
136
10
0
20
0
30
0
70
0
0
VERTEX
8
0
10
-1150.000000
20
-1725.000000
30
0.000000
0
VERTEX
8
0
10
-1300.000000
20
-1725.000000
30
0.000000
0
SEQEND
0
TEXT
8
0
39
10
62
2
10
-1175.000000
20
-1425.000000
30
0.000000
11
-1175.000000
21
-1425.000000
31
0.000000
40
34.000000
50
0.000000
1
J2
72
1
73
2
0
TEXT
8
0
39
10
62
12
10
-1300.000000
20
-1475.000000
30
0.000000
11
-1300.000000
21
-1475.000000
31
0.000000
40
34.000000
50
0.000000
1
1
72
0
73
0
0
TEXT
8
0
39
10
62
12
10
-1300.000000
20
-1525.000000
30
0.000000
11
-1300.000000
21
-1525.000000
31
0.000000
40
34.000000
50
0.000000
1
2
72
0
73
0
0
TEXT
8
0
39
10
62
12
10
-1300.000000
20
-1575.000000
30
0.000000
11
-1300.000000
21
-1575.000000
31
0.000000
40
34.000000
50
0.000000
1
3
72
0
73
0
0
TEXT
8
0
39
10
62
12
10
-1300.000000
20
-1625.000000
30
0.000000
11
-1300.000000
21
-1625.000000
31
0.000000
40
34.000000
50
0.000000
1
4
72
0
73
0
0
TEXT
8
0
39
10
62
12
10
-1300.000000
20
-1675.000000
30
0.000000
11
-1300.000000
21
-1675.000000
31
0.000000
40
34.000000
50
0.000000
1
5
72
0
73
0
0
TEXT
8
0
39
10
62
12
10
-1300.000000
20
-1725.000000
30
0.000000
11
-1300.000000
21
-1725.000000
31
0.000000
40
34.000000
50
0.000000
1
6
72
0
73
0
0
POLYLINE
8
0
40
4.000000
41
4.000000
66
1
62
216
10
0
20
0
30
0
70
0
0
VERTEX
8
0
10
-1275.000000
20
400.000000
30
0.000000
0
VERTEX
8
0
10
-1275.000000
20
450.000000
30
0.000000
0
VERTEX
8
0
10
-1425.000000
20
450.000000
30
0.000000
0
VERTEX
8
0
10
-1425.000000
20
400.000000
30
0.000000
0
VERTEX
8
0
10
-1275.000000
20
400.000000
30
0.000000
0
SEQEND
0
POLYLINE
8
0
40
1.000000
41
1.000000
66
1
62
136
10
0
20
0
30
0
70
0
0
VERTEX
8
0
10
-1275.000000
20
425.000000
30
0.000000
0
VERTEX
8
0
10
-1225.000000
20
425.000000
30
0.000000
0
SEQEND
0
POLYLINE
8
0
40
1.000000
41
1.000000
66
1
62
136
10
0
20
0
30
0
70
0
0
VERTEX
8
0
10
-1425.000000
20
425.000000
30
0.000000
0
VERTEX
8
0
10
-1475.000000
20
425.000000
30
0.000000
0
SEQEND
0
TEXT
8
0
39
10
62
2
10
-1300.000000
20
350.000000
30
0.000000
11
-1300.000000
21
350.000000
31
0.000000
40
33.000000
50
0.000000
1
R4
72
2
73
0
0
TEXT
8
0
39
10
62
2
10
-1350.000000
20
426.000000
30
0.000000
11
-1350.000000
21
426.000000
31
0.000000
40
34.000000
50
0.000000
1
470
72
1
73
2
0
LINE
8
0
39
4
62
216
10
-725.000000
20
-275.000000
30
0.000000
11
-725.000000
21
-75.000000
31
0.000000
0
LINE
8
0
39
4
62
216
10
-925.000000
20
-175.000000
30
0.000000
11
-725.000000
21
-75.000000
31
0.000000
0
LINE
8
0
39
4
62
216
10
-725.000000
20
-275.000000
30
0.000000
11
-925.000000
21
-175.000000
31
0.000000
0
POLYLINE
8
0
40
1.000000
41
1.000000
66
1
62
136
10
0
20
0
30
0
70
0
0
VERTEX
8
0
10
-995.000000
20
-185.000000
30
0.000000
0
VERTEX
8
0
10
-1005.000000
20
-175.000000
30
0.000000
0
VERTEX
8
0
10
-995.000000
20
-165.000000
30
0.000000
0
SEQEND
0
POLYLINE
8
0
40
1.000000
41
1.000000
66
1
62
136
10
0
20
0
30
0
70
0
0
VERTEX
8
0
10
-925.000000
20
-175.000000
30
0.000000
0
VERTEX
8
0
10
-1025.000000
20
-175.000000
30
0.000000
0
SEQEND
0
POLYLINE
8
0
40
1.000000
41
1.000000
66
1
62
136
10
0
20
0
30
0
70
0
0
VERTEX
8
0
10
-825.000000
20
-125.000000
30
0.000000
0
VERTEX
8
0
10
-825.000000
20
-25.000000
30
0.000000
0
SEQEND
0
POLYLINE
8
0
40
1.000000
41
1.000000
66
1
62
136
10
0
20
0
30
0
70
0
0
VERTEX
8
0
10
-645.000000
20
-135.000000
30
0.000000
0
VERTEX
8
0
10
-655.000000
20
-125.000000
30
0.000000
0
VERTEX
8
0
10
-645.000000
20
-115.000000
30
0.000000
0
SEQEND
0
POLYLINE
8
0
40
1.000000
41
1.000000
66
1
62
136
10
0
20
0
30
0
70
0
0
VERTEX
8
0
10
-725.000000
20
-125.000000
30
0.000000
0
VERTEX
8
0
10
-625.000000
20
-125.000000
30
0.000000
0
SEQEND
0
POLYLINE
8
0
40
1.000000
41
1.000000
66
1
62
136
10
0
20
0
30
0
70
0
0
VERTEX
8
0
10
-645.000000
20
-235.000000
30
0.000000
0
VERTEX
8
0
10
-655.000000
20
-225.000000
30
0.000000
0
VERTEX
8
0
10
-645.000000
20
-215.000000
30
0.000000
0
SEQEND
0
POLYLINE
8
0
40
1.000000
41
1.000000
66
1
62
136
10
0
20
0
30
0
70
0
0
VERTEX
8
0
10
-725.000000
20
-225.000000
30
0.000000
0
VERTEX
8
0
10
-625.000000
20
-225.000000
30
0.000000
0
SEQEND
0
POLYLINE
8
0
40
1.000000
41
1.000000
66
1
62
136
10
0
20
0
30
0
70
0
0
VERTEX
8
0
10
-825.000000
20
-225.000000
30
0.000000
0
VERTEX
8
0
10
-825.000000
20
-325.000000
30
0.000000
0
SEQEND
0
TEXT
8
0
39
10
62
2
10
-775.000000
20
-150.000000
30
0.000000
11
-775.000000
21
-150.000000
31
0.000000
40
37.000000
50
0.000000
1
U11
72
2
73
3
0
TEXT
8
0
39
10
62
7
10
-625.000000
20
-25.000000
30
0.000000
11
-625.000000
21
-25.000000
31
0.000000
40
37.000000
50
0.000000
1
MAX4040
72
2
73
3
0
TEXT
8
0
39
10
62
136
10
-1025.000000
20
-175.000000
30
0.000000
11
-1025.000000
21
-175.000000
31
0.000000
40
33.000000
50
0.000000
1
1
72
0
73
3
0
TEXT
8
0
39
10
62
136
10
-800.000000
20
-25.000000
30
0.000000
11
-800.000000
21
-25.000000
31
0.000000
40
33.000000
50
0.000000
1
2
72
2
73
3
0
TEXT
8
0
39
10
62
136
10
-650.000000
20
-125.000000
30
0.000000
11
-650.000000
21
-125.000000
31
0.000000
40
33.000000
50
0.000000
1
3
72
2
73
3
0
TEXT
8
0
39
10
62
96
10
-725.000000
20
-125.000000
30
0.000000
11
-725.000000
21
-125.000000
31
0.000000
40
33.000000
50
0.000000
1
+
72
2
73
2
0
TEXT
8
0
39
10
62
136
10
-650.000000
20
-225.000000
30
0.000000
11
-650.000000
21
-225.000000
31
0.000000
40
33.000000
50
0.000000
1
4
72
2
73
3
0
TEXT
8
0
39
10
62
96
10
-725.000000
20
-225.000000
30
0.000000
11
-725.000000
21
-225.000000
31
0.000000
40
33.000000
50
0.000000
1
-
72
2
73
2
0
TEXT
8
0
39
10
62
136
10
-825.000000
20
-275.000000
30
0.000000
11
-825.000000
21
-275.000000
31
0.000000
40
33.000000
50
0.000000
1
5
72
0
73
3
0
POLYLINE
8
0
40
1.000000
41
1.000000
66
1
62
216
10
0
20
0
30
0
70
1
0
VERTEX
8
0
10
-225.000000
20
-261.000000
30
0.000000
0
VERTEX
8
0
10
-225.000000
20
-249.000000
30
0.000000
0
VERTEX
8
0
10
-325.000000
20
-249.000000
30
0.000000
0
VERTEX
8
0
10
-325.000000
20
-261.000000
30
0.000000
0
VERTEX
8
0
10
-225.000000
20
-261.000000
30
0.000000
0
SEQEND
0
POLYLINE
8
0
40
1.000000
41
1.000000
66
1
62
216
10
0
20
0
30
0
70
1
0
VERTEX
8
0
10
-225.000000
20
-291.000000
30
0.000000
0
VERTEX
8
0
10
-225.000000
20
-279.000000
30
0.000000
0
VERTEX
8
0
10
-325.000000
20
-279.000000
30
0.000000
0
VERTEX
8
0
10
-325.000000
20
-291.000000
30
0.000000
0
VERTEX
8
0
10
-225.000000
20
-291.000000
30
0.000000
0
SEQEND
0
POLYLINE
8
0
40
1.000000
41
1.000000
66
1
62
136
10
0
20
0
30
0
70
0
0
VERTEX
8
0
10
-275.000000
20
-290.000000
30
0.000000
0
VERTEX
8
0
10
-275.000000
20
-375.000000
30
0.000000
0
SEQEND
0
POLYLINE
8
0
40
1.000000
41
1.000000
66
1
62
136
10
0
20
0
30
0
70
0
0
VERTEX
8
0
10
-275.000000
20
-247.000000
30
0.000000
0
VERTEX
8
0
10
-275.000000
20
-175.000000
30
0.000000
0
SEQEND
0
TEXT
8
0
39
10
62
2
10
-275.000000
20
-350.000000
30
0.000000
11
-275.000000
21
-350.000000
31
0.000000
40
33.000000
50
0.000000
1
C36
72
0
73
0
0
TEXT
8
0
39
10
62
2
10
-275.000000
20
-250.000000
30
0.000000
11
-275.000000
21
-250.000000
31
0.000000
40
34.000000
50
0.000000
1
100nF
72
0
73
0
0
POLYLINE
8
0
40
1.000000
41
1.000000
66
1
62
216
10
0
20
0
30
0
70
1
0
VERTEX
8
0
10
350.000000
20
-2336.000000
30
0.000000
0
VERTEX
8
0
10
350.000000
20
-2324.000000
30
0.000000
0
VERTEX
8
0
10
250.000000
20
-2324.000000
30
0.000000
0
VERTEX
8
0
10
250.000000
20
-2336.000000
30
0.000000
0
VERTEX
8
0
10
350.000000
20
-2336.000000
30
0.000000
0
SEQEND
0
POLYLINE
8
0
40
1.000000
41
1.000000
66
1
62
216
10
0
20
0
30
0
70
1
0
VERTEX
8
0
10
350.000000
20
-2366.000000
30
0.000000
0
VERTEX
8
0
10
350.000000
20
-2354.000000
30
0.000000
0
VERTEX
8
0
10
250.000000
20
-2354.000000
30
0.000000
0
VERTEX
8
0
10
250.000000
20
-2366.000000
30
0.000000
0
VERTEX
8
0
10
350.000000
20
-2366.000000
30
0.000000
0
SEQEND
0
POLYLINE
8
0
40
1.000000
41
1.000000
66
1
62
136
10
0
20
0
30
0
70
0
0
VERTEX
8
0
10
300.000000
20
-2365.000000
30
0.000000
0
VERTEX
8
0
10
300.000000
20
-2450.000000
30
0.000000
0
SEQEND
0
POLYLINE
8
0
40
1.000000
41
1.000000
66
1
62
136
10
0
20
0
30
0
70
0
0
VERTEX
8
0
10
300.000000
20
-2322.000000
30
0.000000
0
VERTEX
8
0
10
300.000000
20
-2250.000000
30
0.000000
0
SEQEND
0
TEXT
8
0
39
10
62
2
10
300.000000
20
-2425.000000
30
0.000000
11
300.000000
21
-2425.000000
31
0.000000
40
33.000000
50
0.000000
1
C37
72
0
73
0
0
TEXT
8
0
39
10
62
2
10
300.000000
20
-2325.000000
30
0.000000
11
300.000000
21
-2325.000000
31
0.000000
40
34.000000
50
0.000000
1
100nF
72
0
73
0
0
POLYLINE
8
0
40
4.000000
41
4.000000
66
1
62
216
10
0
20
0
30
0
70
0
0
VERTEX
8
0
10
-2525.000000
20
-550.000000
30
0.000000
0
VERTEX
8
0
10
-2525.000000
20
-500.000000
30
0.000000
0
VERTEX
8
0
10
-2675.000000
20
-500.000000
30
0.000000
0
VERTEX
8
0
10
-2675.000000
20
-550.000000
30
0.000000
0
VERTEX
8
0
10
-2525.000000
20
-550.000000
30
0.000000
0
SEQEND
0
POLYLINE
8
0
40
1.000000
41
1.000000
66
1
62
136
10
0
20
0
30
0
70
0
0
VERTEX
8
0
10
-2525.000000
20
-525.000000
30
0.000000
0
VERTEX
8
0
10
-2475.000000
20
-525.000000
30
0.000000
0
SEQEND
0
POLYLINE
8
0
40
1.000000
41
1.000000
66
1
62
136
10
0
20
0
30
0
70
0
0
VERTEX
8
0
10
-2675.000000
20
-525.000000
30
0.000000
0
VERTEX
8
0
10
-2725.000000
20
-525.000000
30
0.000000
0
SEQEND
0
TEXT
8
0
39
10
62
2
10
-2550.000000
20
-600.000000
30
0.000000
11
-2550.000000
21
-600.000000
31
0.000000
40
33.000000
50
0.000000
1
R62
72
2
73
0
0
TEXT
8
0
39
10
62
2
10
-2600.000000
20
-524.000000
30
0.000000
11
-2600.000000
21
-524.000000
31
0.000000
40
34.000000
50
0.000000
1
0
72
1
73
2
0
POLYLINE
8
0
40
1.000000
41
1.000000
66
1
62
136
10
0
20
0
30
0
70
1
0
VERTEX
8
0
10
2048.000000
20
-2445.000000
30
0.000000
0
VERTEX
8
0
10
2048.000000
20
-2457.000000
30
0.000000
0
VERTEX
8
0
10
3800.000000
20
-2456.000000
30
0.000000
0
VERTEX
8
0
10
3800.000000
20
-2444.000000
30
0.000000
0
VERTEX
8
0
10
2048.000000
20
-2445.000000
30
0.000000
0
SEQEND
0
POLYLINE
8
0
40
1.000000
41
1.000000
66
1
62
136
10
0
20
0
30
0
70
1
0
VERTEX
8
0
10
2944.000000
20
-2451.000000
30
0.000000
0
VERTEX
8
0
10
2956.000000
20
-2451.000000
30
0.000000
0
VERTEX
8
0
10
2956.000000
20
-2550.000000
30
0.000000
0
VERTEX
8
0
10
2944.000000
20
-2550.000000
30
0.000000
0
VERTEX
8
0
10
2944.000000
20
-2451.000000
30
0.000000
0
SEQEND
0
POLYLINE
8
0
40
1.000000
41
1.000000
66
1
62
136
10
0
20
0
30
0
70
1
0
VERTEX
8
0
10
3294.000000
20
-2451.000000
30
0.000000
0
VERTEX
8
0
10
3306.000000
20
-2451.000000
30
0.000000
0
VERTEX
8
0
10
3306.000000
20
-2550.000000
30
0.000000
0
VERTEX
8
0
10
3294.000000
20
-2550.000000
30
0.000000
0
VERTEX
8
0
10
3294.000000
20
-2451.000000
30
0.000000
0
SEQEND
0
POLYLINE
8
0
40
1.000000
41
1.000000
66
1
62
136
10
0
20
0
30
0
70
1
0
VERTEX
8
0
10
2050.000000
20
-2195.000000
30
0.000000
0
VERTEX
8
0
10
2050.000000
20
-2207.000000
30
0.000000
0
VERTEX
8
0
10
3800.000000
20
-2206.000000
30
0.000000
0
VERTEX
8
0
10
3800.000000
20
-2194.000000
30
0.000000
0
VERTEX
8
0
10
2050.000000
20
-2195.000000
30
0.000000
0
SEQEND
0
POLYLINE
8
0
40
1.000000
41
1.000000
66
1
62
136
10
0
20
0
30
0
70
1
0
VERTEX
8
0
10
2050.000000
20
-2095.000000
30
0.000000
0
VERTEX
8
0
10
2050.000000
20
-2107.000000
30
0.000000
0
VERTEX
8
0
10
3800.000000
20
-2106.000000
30
0.000000
0
VERTEX
8
0
10
3800.000000
20
-2094.000000
30
0.000000
0
VERTEX
8
0
10
2050.000000
20
-2095.000000
30
0.000000
0
SEQEND
0
POLYLINE
8
0
40
1.000000
41
1.000000
66
1
62
136
10
0
20
0
30
0
70
1
0
VERTEX
8
0
10
2344.000000
20
-2001.000000
30
0.000000
0
VERTEX
8
0
10
2356.000000
20
-2001.000000
30
0.000000
0
VERTEX
8
0
10
2356.000000
20
-2101.000000
30
0.000000
0
VERTEX
8
0
10
2344.000000
20
-2101.000000
30
0.000000
0
VERTEX
8
0
10
2344.000000
20
-2001.000000
30
0.000000
0
SEQEND
0
POLYLINE
8
0
40
1.000000
41
1.000000
66
1
62
136
10
0
20
0
30
0
70
1
0
VERTEX
8
0
10
3044.000000
20
-2001.000000
30
0.000000
0
VERTEX
8
0
10
3056.000000
20
-2001.000000
30
0.000000
0
VERTEX
8
0
10
3056.000000
20
-2101.000000
30
0.000000
0
VERTEX
8
0
10
3044.000000
20
-2101.000000
30
0.000000
0
VERTEX
8
0
10
3044.000000
20
-2001.000000
30
0.000000
0
SEQEND
0
POLYLINE
8
0
40
1.000000
41
1.000000
66
1
62
136
10
0
20
0
30
0
70
1
0
VERTEX
8
0
10
2044.000000
20
-1976.000000
30
0.000000
0
VERTEX
8
0
10
2056.000000
20
-1976.000000
30
0.000000
0
VERTEX
8
0
10
2056.000000
20
-2550.000000
30
0.000000
0
VERTEX
8
0
10
2044.000000
20
-2550.000000
30
0.000000
0
VERTEX
8
0
10
2044.000000
20
-1976.000000
30
0.000000
0
SEQEND
0
POLYLINE
8
0
40
1.000000
41
1.000000
66
1
62
136
10
0
20
0
30
0
70
1
0
VERTEX
8
0
10
2050.000000
20
-2556.000000
30
0.000000
0
VERTEX
8
0
10
2050.000000
20
-2544.000000
30
0.000000
0
VERTEX
8
0
10
3800.000000
20
-2544.000000
30
0.000000
0
VERTEX
8
0
10
3800.000000
20
-2556.000000
30
0.000000
0
VERTEX
8
0
10
2050.000000
20
-2556.000000
30
0.000000
0
SEQEND
0
POLYLINE
8
0
40
1.000000
41
1.000000
66
1
62
136
10
0
20
0
30
0
70
1
0
VERTEX
8
0
10
3794.000000
20
-2550.000000
30
0.000000
0
VERTEX
8
0
10
3806.000000
20
-2550.000000
30
0.000000
0
VERTEX
8
0
10
3806.000000
20
-1976.000000
30
0.000000
0
VERTEX
8
0
10
3794.000000
20
-1976.000000
30
0.000000
0
VERTEX
8
0
10
3794.000000
20
-2550.000000
30
0.000000
0
SEQEND
0
POLYLINE
8
0
40
1.000000
41
1.000000
66
1
62
136
10
0
20
0
30
0
70
1
0
VERTEX
8
0
10
3800.000000
20
-2006.000000
30
0.000000
0
VERTEX
8
0
10
3800.000000
20
-1994.000000
30
0.000000
0
VERTEX
8
0
10
2050.000000
20
-1994.000000
30
0.000000
0
VERTEX
8
0
10
2050.000000
20
-2006.000000
30
0.000000
0
VERTEX
8
0
10
3800.000000
20
-2006.000000
30
0.000000
0
SEQEND
0
LINE
8
0
39
10
62
136
10
3380.000000
20
-2100.000000
30
0.000000
11
3380.000000
21
-2190.000000
31
0.000000
0
TEXT
8
0
39
10
62
136
10
2075.000000
20
-2500.000000
30
0.000000
11
2075.000000
21
-2500.000000
31
0.000000
40
34.000000
50
0.000000
1
INITIAL
72
0
73
2
0
TEXT
8
0
39
10
62
136
10
2975.000000
20
-2500.000000
30
0.000000
11
2975.000000
21
-2500.000000
31
0.000000
40
34.000000
50
0.000000
1
PAGE:
72
0
73
2
0
TEXT
8
0
39
10
62
136
10
3320.000000
20
-2500.000000
30
0.000000
11
3320.000000
21
-2500.000000
31
0.000000
40
34.000000
50
0.000000
1
OF:
72
0
73
2
0
TEXT
8
0
39
10
62
136
10
2075.000000
20
-2250.000000
30
0.000000
11
2075.000000
21
-2250.000000
31
0.000000
40
34.000000
50
0.000000
1
COMPANY:
72
0
73
2
0
TEXT
8
0
39
10
62
136
10
2075.000000
20
-2400.000000
30
0.000000
11
2075.000000
21
-2400.000000
31
0.000000
40
34.000000
50
0.000000
1
COUNTRY:
72
0
73
2
0
TEXT
8
0
39
10
62
136
10
2550.000000
20
-2500.000000
30
0.000000
11
2550.000000
21
-2500.000000
31
0.000000
40
34.000000
50
0.000000
1
28.05.2011
72
0
73
2
0
TEXT
8
0
39
10
62
136
10
2575.000000
20
-2050.000000
30
0.000000
11
2575.000000
21
-2050.000000
31
0.000000
40
34.000000
50
0.000000
1
19.07.2011
72
0
73
2
0
TEXT
8
0
39
10
62
136
10
2375.000000
20
-2150.000000
30
0.000000
11
2375.000000
21
-2150.000000
31
0.000000
40
34.000000
50
0.000000
1
SIPM CONTROLLER DUO
72
0
73
2
0
TEXT
8
0
39
10
62
136
10
3175.000000
20
-2500.000000
30
0.000000
11
3175.000000
21
-2500.000000
31
0.000000
40
34.000000
50
0.000000
1
1
72
0
73
2
0
TEXT
8
0
39
10
62
136
10
3450.000000
20
-2500.000000
30
0.000000
11
3450.000000
21
-2500.000000
31
0.000000
40
34.000000
50
0.000000
1
4
72
0
73
2
0
TEXT
8
0
39
10
62
136
10
2225.000000
20
-2050.000000
30
0.000000
11
2225.000000
21
-2050.000000
31
0.000000
40
34.000000
50
0.000000
1
1.0
72
0
73
2
0
TEXT
8
0
39
10
62
136
10
2375.000000
20
-2250.000000
30
0.000000
11
2375.000000
21
-2250.000000
31
0.000000
40
34.000000
50
0.000000
1
III. PHHYSIKALISCHES  INST. B
72
0
73
2
0
TEXT
8
0
39
10
62
136
10
2375.000000
20
-2300.000000
30
0.000000
11
2375.000000
21
-2300.000000
31
0.000000
40
34.000000
50
0.000000
1
OTTO-BLUMENTHAL-STR.
72
0
73
2
0
TEXT
8
0
39
10
62
136
10
2375.000000
20
-2350.000000
30
0.000000
11
2375.000000
21
-2350.000000
31
0.000000
40
34.000000
50
0.000000
1
52074  AACHEN
72
0
73
2
0
TEXT
8
0
39
10
62
136
10
2375.000000
20
-2400.000000
30
0.000000
11
2375.000000
21
-2400.000000
31
0.000000
40
34.000000
50
0.000000
1
GERMANY
72
0
73
2
0
TEXT
8
0
39
10
62
136
10
3225.000000
20
-2050.000000
30
0.000000
11
3225.000000
21
-2050.000000
31
0.000000
40
34.000000
50
0.000000
1
F. BEIßEL
72
0
73
2
0
TEXT
8
0
39
10
62
136
10
2075.000000
20
-2350.000000
30
0.000000
11
2075.000000
21
-2350.000000
31
0.000000
40
34.000000
50
0.000000
1
CITY
72
0
73
2
0
TEXT
8
0
39
10
62
136
10
2075.000000
20
-2150.000000
30
0.000000
11
2075.000000
21
-2150.000000
31
0.000000
40
34.000000
50
0.000000
1
PROJECT:
72
0
73
2
0
TEXT
8
0
39
10
62
136
10
2075.000000
20
-2050.000000
30
0.000000
11
2075.000000
21
-2050.000000
31
0.000000
40
34.000000
50
0.000000
1
REV:
72
0
73
2
0
TEXT
8
0
39
10
62
136
10
2375.000000
20
-2050.000000
30
0.000000
11
2375.000000
21
-2050.000000
31
0.000000
40
34.000000
50
0.000000
1
DATE:
72
0
73
2
0
TEXT
8
0
39
10
62
136
10
3075.000000
20
-2050.000000
30
0.000000
11
3075.000000
21
-2050.000000
31
0.000000
40
34.000000
50
0.000000
1
ENG:
72
0
73
2
0
TEXT
8
0
39
10
62
136
10
2075.000000
20
-2300.000000
30
0.000000
11
2075.000000
21
-2300.000000
31
0.000000
40
34.000000
50
0.000000
1
ADDRESS:
72
0
73
2
0
TEXT
8
0
39
10
62
136
10
3405.000000
20
-2120.000000
30
0.000000
11
3405.000000
21
-2120.000000
31
0.000000
40
33.000000
50
0.000000
1
NO.
72
0
73
3
0
TEXT
8
0
39
10
62
136
10
3590.000000
20
-2125.000000
30
0.000000
11
3590.000000
21
-2125.000000
31
0.000000
40
33.000000
50
0.000000
1
911
72
0
73
3
0
TEXT
8
0
39
10
62
2
10
1325.000000
20
525.000000
30
0.000000
11
1325.000000
21
525.000000
31
0.000000
40
37.000000
50
0.000000
1
TX
72
0
73
0
0
TEXT
8
0
39
10
62
2
10
-1500.000000
20
-1625.000000
30
0.000000
11
-1500.000000
21
-1625.000000
31
0.000000
40
37.000000
50
0.000000
1
GND
72
0
73
0
0
TEXT
8
0
39
10
62
2
10
-1500.000000
20
-1575.000000
30
0.000000
11
-1500.000000
21
-1575.000000
31
0.000000
40
37.000000
50
0.000000
1
VCC
72
0
73
0
0
TEXT
8
0
39
10
62
2
10
-1500.000000
20
-1525.000000
30
0.000000
11
-1500.000000
21
-1525.000000
31
0.000000
40
37.000000
50
0.000000
1
VEE
72
0
73
0
0
TEXT
8
0
39
10
62
2
10
-1600.000000
20
-1475.000000
30
0.000000
11
-1600.000000
21
-1475.000000
31
0.000000
40
37.000000
50
0.000000
1
VBIN
72
0
73
0
0
TEXT
8
0
39
10
62
2
10
-2950.000000
20
-1650.000000
30
0.000000
11
-2950.000000
21
-1650.000000
31
0.000000
40
37.000000
50
0.000000
1
GND
72
2
73
0
0
TEXT
8
0
39
10
62
2
10
-175.000000
20
-2175.000000
30
0.000000
11
-175.000000
21
-2175.000000
31
0.000000
40
37.000000
50
0.000000
1
VCC
72
0
73
0
0
TEXT
8
0
39
10
62
2
10
1325.000000
20
575.000000
30
0.000000
11
1325.000000
21
575.000000
31
0.000000
40
37.000000
50
0.000000
1
RX
72
0
73
0
0
TEXT
8
0
39
10
62
2
10
-175.000000
20
-2525.000000
30
0.000000
11
-175.000000
21
-2525.000000
31
0.000000
40
37.000000
50
0.000000
1
GND
72
0
73
0
0
TEXT
8
0
39
10
62
2
10
750.000000
20
-75.000000
30
0.000000
11
750.000000
21
-75.000000
31
0.000000
40
37.000000
50
0.000000
1
SCK
72
2
73
0
0
TEXT
8
0
39
10
62
2
10
-2950.000000
20
-1550.000000
30
0.000000
11
-2950.000000
21
-1550.000000
31
0.000000
40
37.000000
50
0.000000
1
MOSI
72
2
73
0
0
TEXT
8
0
39
10
62
2
10
-2950.000000
20
-1500.000000
30
0.000000
11
-2950.000000
21
-1500.000000
31
0.000000
40
37.000000
50
0.000000
1
SCK
72
2
73
0
0
TEXT
8
0
39
10
62
2
10
-2950.000000
20
-1400.000000
30
0.000000
11
-2950.000000
21
-1400.000000
31
0.000000
40
37.000000
50
0.000000
1
MISO
72
2
73
0
0
TEXT
8
0
39
10
62
2
10
750.000000
20
-25.000000
30
0.000000
11
750.000000
21
-25.000000
31
0.000000
40
37.000000
50
0.000000
1
MISO
72
2
73
0
0
LINE
8
0
39
1
62
2
10
-2950.000000
20
-1560.000000
30
0.000000
11
-3061.000000
21
-1560.000000
31
0.000000
0
TEXT
8
0
39
10
62
2
10
-2950.000000
20
-1600.000000
30
0.000000
11
-2950.000000
21
-1600.000000
31
0.000000
40
37.000000
50
0.000000
1
RES
72
2
73
0
0
TEXT
8
0
39
10
62
2
10
-2950.000000
20
-1450.000000
30
0.000000
11
-2950.000000
21
-1450.000000
31
0.000000
40
37.000000
50
0.000000
1
VCC
72
2
73
0
0
TEXT
8
0
39
10
62
2
10
750.000000
20
25.000000
30
0.000000
11
750.000000
21
25.000000
31
0.000000
40
37.000000
50
0.000000
1
MOSI
72
2
73
0
0
LINE
8
0
39
1
62
2
10
-175.000000
20
165.000000
30
0.000000
11
-175.000000
21
165.000000
31
0.000000
0
TEXT
8
0
39
10
62
2
10
-175.000000
20
125.000000
30
0.000000
11
-175.000000
21
125.000000
31
0.000000
40
37.000000
50
0.000000
1
RES
72
2
73
0
0
TEXT
8
0
39
10
62
2
10
2550.000000
20
275.000000
30
0.000000
11
2550.000000
21
275.000000
31
0.000000
40
37.000000
50
0.000000
1
GND
72
0
73
0
0
TEXT
8
0
39
10
62
2
10
3150.000000
20
575.000000
30
0.000000
11
3150.000000
21
575.000000
31
0.000000
40
37.000000
50
0.000000
1
RTX-
72
0
73
0
0
TEXT
8
0
39
10
62
2
10
3150.000000
20
475.000000
30
0.000000
11
3150.000000
21
475.000000
31
0.000000
40
37.000000
50
0.000000
1
RTX+
72
0
73
0
0
TEXT
8
0
39
10
62
7
10
-2963.000000
20
-2300.000000
30
0.000000
11
-2963.000000
21
-2300.000000
31
0.000000
40
37.000000
50
90.000000
1
GND
72
0
73
0
0
TEXT
8
0
39
10
62
7
10
-2763.000000
20
-2300.000000
30
0.000000
11
-2763.000000
21
-2300.000000
31
0.000000
40
37.000000
50
90.000000
1
VB_2
72
0
73
0
0
TEXT
8
0
39
10
62
7
10
-3063.000000
20
-2300.000000
30
0.000000
11
-3063.000000
21
-2300.000000
31
0.000000
40
37.000000
50
90.000000
1
VEE
72
0
73
0
0
TEXT
8
0
39
10
62
7
10
-2863.000000
20
-2300.000000
30
0.000000
11
-2863.000000
21
-2300.000000
31
0.000000
40
37.000000
50
90.000000
1
VB_1
72
0
73
0
0
TEXT
8
0
39
10
62
7
10
-3163.000000
20
-2300.000000
30
0.000000
11
-3163.000000
21
-2300.000000
31
0.000000
40
37.000000
50
90.000000
1
VCC
72
0
73
0
0
TEXT
8
0
39
10
62
7
10
-2663.000000
20
-2300.000000
30
0.000000
11
-2663.000000
21
-2300.000000
31
0.000000
40
37.000000
50
90.000000
1
VBIN
72
0
73
0
0
TEXT
8
0
39
10
62
7
10
-1788.000000
20
-2300.000000
30
0.000000
11
-1788.000000
21
-2300.000000
31
0.000000
40
37.000000
50
90.000000
1
MISO
72
0
73
0
0
TEXT
8
0
39
10
62
7
10
-1688.000000
20
-2300.000000
30
0.000000
11
-1688.000000
21
-2300.000000
31
0.000000
40
37.000000
50
90.000000
1
MOSI
72
0
73
0
0
TEXT
8
0
39
10
62
7
10
-1588.000000
20
-2275.000000
30
0.000000
11
-1588.000000
21
-2275.000000
31
0.000000
40
37.000000
50
90.000000
1
SCK
72
0
73
0
0
LINE
8
0
39
1
62
7
10
-1553.000000
20
-2300.000000
30
0.000000
11
-1553.000000
21
-2300.000000
31
0.000000
0
LINE
8
0
39
1
62
7
10
-1553.000000
20
-2300.000000
30
0.000000
11
-1553.000000
21
-2189.000000
31
0.000000
0
TEXT
8
0
39
10
62
7
10
-1513.000000
20
-2300.000000
30
0.000000
11
-1513.000000
21
-2300.000000
31
0.000000
40
37.000000
50
90.000000
1
CS1
72
0
73
0
0
TEXT
8
0
39
10
62
2
10
-2800.000000
20
-575.000000
30
0.000000
11
-2800.000000
21
-575.000000
31
0.000000
40
37.000000
50
0.000000
1
PT-
72
0
73
0
0
TEXT
8
0
39
10
62
2
10
-2475.000000
20
-575.000000
30
0.000000
11
-2475.000000
21
-575.000000
31
0.000000
40
37.000000
50
0.000000
1
GND
72
0
73
0
0
TEXT
8
0
39
10
62
2
10
-2725.000000
20
-125.000000
30
0.000000
11
-2725.000000
21
-125.000000
31
0.000000
40
37.000000
50
90.000000
1
PT+
72
0
73
0
0
TEXT
8
0
39
10
62
2
10
-2600.000000
20
625.000000
30
0.000000
11
-2600.000000
21
625.000000
31
0.000000
40
37.000000
50
0.000000
1
REF
72
0
73
0
0
LINE
8
0
39
1
62
2
10
750.000000
20
115.000000
30
0.000000
11
750.000000
21
115.000000
31
0.000000
0
TEXT
8
0
39
10
62
2
10
750.000000
20
75.000000
30
0.000000
11
750.000000
21
75.000000
31
0.000000
40
37.000000
50
0.000000
1
CS1
72
2
73
0
0
TEXT
8
0
39
10
62
2
10
175.000000
20
750.000000
30
0.000000
11
175.000000
21
750.000000
31
0.000000
40
37.000000
50
0.000000
1
VCC
72
0
73
0
0
TEXT
8
0
39
10
62
2
10
-1800.000000
20
-75.000000
30
0.000000
11
-1800.000000
21
-75.000000
31
0.000000
40
37.000000
50
0.000000
1
VCC
72
0
73
0
0
TEXT
8
0
39
10
62
2
10
-1775.000000
20
300.000000
30
0.000000
11
-1775.000000
21
300.000000
31
0.000000
40
37.000000
50
0.000000
1
GND
72
0
73
0
0
TEXT
8
0
39
10
62
2
10
-1125.000000
20
-175.000000
30
0.000000
11
-1125.000000
21
-175.000000
31
0.000000
40
37.000000
50
0.000000
1
REF
72
0
73
0
0
TEXT
8
0
39
10
62
2
10
-175.000000
20
-2175.000000
30
0.000000
11
-175.000000
21
-2175.000000
31
0.000000
40
37.000000
50
0.000000
1
VCC
72
0
73
0
0
TEXT
8
0
39
10
62
2
10
-175.000000
20
-2175.000000
30
0.000000
11
-175.000000
21
-2175.000000
31
0.000000
40
37.000000
50
0.000000
1
VCC
72
0
73
0
0
TEXT
8
0
39
10
62
2
10
-175.000000
20
-2525.000000
30
0.000000
11
-175.000000
21
-2525.000000
31
0.000000
40
37.000000
50
0.000000
1
GND
72
0
73
0
0
TEXT
8
0
39
10
62
2
10
-175.000000
20
-2525.000000
30
0.000000
11
-175.000000
21
-2525.000000
31
0.000000
40
37.000000
50
0.000000
1
GND
72
0
73
0
0
TEXT
8
0
39
10
62
7
10
-1438.000000
20
-2275.000000
30
0.000000
11
-1438.000000
21
-2275.000000
31
0.000000
40
37.000000
50
90.000000
1
REF
72
0
73
0
0
TEXT
8
0
39
10
62
7
10
-1338.000000
20
-2250.000000
30
0.000000
11
-1338.000000
21
-2250.000000
31
0.000000
40
37.000000
50
90.000000
1
I1
72
0
73
0
0
TEXT
8
0
39
10
62
7
10
-1263.000000
20
-2250.000000
30
0.000000
11
-1263.000000
21
-2250.000000
31
0.000000
40
37.000000
50
90.000000
1
I2
72
0
73
0
0
TEXT
8
0
39
10
62
2
10
-75.000000
20
-400.000000
30
0.000000
11
-75.000000
21
-400.000000
31
0.000000
40
37.000000
50
0.000000
1
GND
72
0
73
0
0
TEXT
8
0
39
10
62
2
10
-825.000000
20
0.000000
30
0.000000
11
-825.000000
21
0.000000
31
0.000000
40
37.000000
50
0.000000
1
GND
72
0
73
0
0
TEXT
8
0
39
10
62
2
10
-825.000000
20
-375.000000
30
0.000000
11
-825.000000
21
-375.000000
31
0.000000
40
37.000000
50
0.000000
1
VCC
72
0
73
0
0
TEXT
8
0
39
10
62
2
10
-400.000000
20
375.000000
30
0.000000
11
-400.000000
21
375.000000
31
0.000000
40
37.000000
50
0.000000
1
I1
72
0
73
0
0
TEXT
8
0
39
10
62
2
10
-400.000000
20
325.000000
30
0.000000
11
-400.000000
21
325.000000
31
0.000000
40
37.000000
50
0.000000
1
I2
72
0
73
0
0
TEXT
8
0
39
10
62
7
10
-1188.000000
20
-2275.000000
30
0.000000
11
-1188.000000
21
-2275.000000
31
0.000000
40
37.000000
50
90.000000
1
PT+
72
0
73
0
0
TEXT
8
0
39
10
62
7
10
-1113.000000
20
-2275.000000
30
0.000000
11
-1113.000000
21
-2275.000000
31
0.000000
40
37.000000
50
90.000000
1
PT-
72
0
73
0
0
TEXT
8
0
39
10
62
2
10
675.000000
20
-125.000000
30
0.000000
11
675.000000
21
-125.000000
31
0.000000
40
37.000000
50
0.000000
1
X1
72
0
73
0
0
TEXT
8
0
39
10
62
2
10
2150.000000
20
850.000000
30
0.000000
11
2150.000000
21
850.000000
31
0.000000
40
37.000000
50
0.000000
1
VCC
72
0
73
0
0
TEXT
8
0
39
10
62
2
10
1025.000000
20
1275.000000
30
0.000000
11
1025.000000
21
1275.000000
31
0.000000
40
37.000000
50
0.000000
1
VCC
72
2
73
3
0
TEXT
8
0
39
10
62
2
10
-1550.000000
20
-1675.000000
30
0.000000
11
-1550.000000
21
-1675.000000
31
0.000000
40
37.000000
50
0.000000
1
RTX+
72
0
73
0
0
TEXT
8
0
39
10
62
2
10
-1550.000000
20
-1725.000000
30
0.000000
11
-1550.000000
21
-1725.000000
31
0.000000
40
37.000000
50
0.000000
1
RTX-
72
0
73
0
0
TEXT
8
0
39
10
62
7
10
-1625.000000
20
-1350.000000
30
0.000000
11
-1625.000000
21
-1350.000000
31
0.000000
40
37.000000
50
0.000000
1
POWER AND SLOW CONTROL
72
0
73
0
0
TEXT
8
0
39
10
62
7
10
-3225.000000
20
-1325.000000
30
0.000000
11
-3225.000000
21
-1325.000000
31
0.000000
40
37.000000
50
0.000000
1
MCU PROGRAMMIG SOCKET
72
0
73
0
0
TEXT
8
0
39
10
62
7
10
-1025.000000
20
-1650.000000
30
0.000000
11
-1025.000000
21
-1650.000000
31
0.000000
40
37.000000
50
0.000000
1
36MA@-3,3V
72
0
73
0
0
TEXT
8
0
39
10
62
7
10
-1025.000000
20
-1575.000000
30
0.000000
11
-1025.000000
21
-1575.000000
31
0.000000
40
37.000000
50
0.000000
1
46MA@3,3V
72
0
73
0
0
LINE
8
0
62
1
39
1
10
-650.000000
20
-2250.000000
30
0.000000
11
-650.000000
21
-2175.000000
31
0.000000
0
LINE
8
0
62
1
39
1
10
25.000000
20
-2450.000000
30
0.000000
11
25.000000
21
-2525.000000
31
0.000000
0
LINE
8
0
62
1
39
1
10
-250.000000
20
-2525.000000
30
0.000000
11
-250.000000
21
-2450.000000
31
0.000000
0
LINE
8
0
62
1
39
1
10
25.000000
20
-2250.000000
30
0.000000
11
25.000000
21
-2175.000000
31
0.000000
0
LINE
8
0
62
1
39
1
10
-250.000000
20
-2175.000000
30
0.000000
11
-250.000000
21
-2250.000000
31
0.000000
0
LINE
8
0
62
1
39
1
10
575.000000
20
525.000000
30
0.000000
11
1575.000000
21
525.000000
31
0.000000
0
LINE
8
0
62
1
39
1
10
-1300.000000
20
-1625.000000
30
0.000000
11
-1550.000000
21
-1625.000000
31
0.000000
0
LINE
8
0
62
1
39
1
10
125.000000
20
750.000000
30
0.000000
11
125.000000
21
675.000000
31
0.000000
0
LINE
8
0
62
1
39
1
10
75.000000
20
750.000000
30
0.000000
11
75.000000
21
675.000000
31
0.000000
0
LINE
8
0
62
1
39
1
10
-1300.000000
20
-1575.000000
30
0.000000
11
-1550.000000
21
-1575.000000
31
0.000000
0
LINE
8
0
62
1
39
1
10
-1550.000000
20
-1525.000000
30
0.000000
11
-1300.000000
21
-1525.000000
31
0.000000
0
LINE
8
0
62
1
39
1
10
-1675.000000
20
-1475.000000
30
0.000000
11
-1300.000000
21
-1475.000000
31
0.000000
0
LINE
8
0
62
1
39
1
10
-3100.000000
20
-1650.000000
30
0.000000
11
-2825.000000
21
-1650.000000
31
0.000000
0
LINE
8
0
62
1
39
1
10
-3100.000000
20
-1825.000000
30
0.000000
11
-3250.000000
21
-1825.000000
31
0.000000
0
LINE
8
0
62
1
39
1
10
-450.000000
20
-2175.000000
30
0.000000
11
-450.000000
21
-2250.000000
31
0.000000
0
LINE
8
0
62
1
39
1
10
575.000000
20
575.000000
30
0.000000
11
2000.000000
21
575.000000
31
0.000000
0
LINE
8
0
62
1
39
1
10
-450.000000
20
-2525.000000
30
0.000000
11
-450.000000
21
-2450.000000
31
0.000000
0
LINE
8
0
62
1
39
1
10
-650.000000
20
-2525.000000
30
0.000000
11
-650.000000
21
-2450.000000
31
0.000000
0
LINE
8
0
62
1
39
1
10
275.000000
20
675.000000
30
0.000000
11
275.000000
21
750.000000
31
0.000000
0
LINE
8
0
62
1
39
1
10
750.000000
20
-75.000000
30
0.000000
11
575.000000
21
-75.000000
31
0.000000
0
LINE
8
0
62
1
39
1
10
-3025.000000
20
-1550.000000
30
0.000000
11
-2825.000000
21
-1550.000000
31
0.000000
0
LINE
8
0
62
1
39
1
10
-3025.000000
20
-1500.000000
30
0.000000
11
-2825.000000
21
-1500.000000
31
0.000000
0
LINE
8
0
62
1
39
1
10
-3025.000000
20
-1400.000000
30
0.000000
11
-2825.000000
21
-1400.000000
31
0.000000
0
LINE
8
0
62
1
39
1
10
750.000000
20
-25.000000
30
0.000000
11
575.000000
21
-25.000000
31
0.000000
0
LINE
8
0
62
1
39
1
10
-2825.000000
20
-1600.000000
30
0.000000
11
-3250.000000
21
-1600.000000
31
0.000000
0
LINE
8
0
62
1
39
1
10
-2825.000000
20
-1450.000000
30
0.000000
11
-3125.000000
21
-1450.000000
31
0.000000
0
LINE
8
0
62
1
39
1
10
-3250.000000
20
-1350.000000
30
0.000000
11
-3125.000000
21
-1350.000000
31
0.000000
0
LINE
8
0
62
1
39
1
10
750.000000
20
25.000000
30
0.000000
11
575.000000
21
25.000000
31
0.000000
0
LINE
8
0
62
1
39
1
10
-3125.000000
20
-1350.000000
30
0.000000
11
-3125.000000
21
-1450.000000
31
0.000000
0
LINE
8
0
62
1
39
1
10
-3100.000000
20
-1650.000000
30
0.000000
11
-3100.000000
21
-1825.000000
31
0.000000
0
LINE
8
0
62
1
39
1
10
-3250.000000
20
-1600.000000
30
0.000000
11
-3250.000000
21
-1625.000000
31
0.000000
0
LINE
8
0
62
1
39
1
10
-275.000000
20
125.000000
30
0.000000
11
-125.000000
21
125.000000
31
0.000000
0
LINE
8
0
62
1
39
1
10
1575.000000
20
275.000000
30
0.000000
11
2000.000000
21
275.000000
31
0.000000
0
LINE
8
0
62
1
39
1
10
1575.000000
20
275.000000
30
0.000000
11
1575.000000
21
525.000000
31
0.000000
0
LINE
8
0
62
1
39
1
10
2600.000000
20
275.000000
30
0.000000
11
2500.000000
21
275.000000
31
0.000000
0
LINE
8
0
62
1
39
1
10
3050.000000
20
475.000000
30
0.000000
11
3050.000000
21
525.000000
31
0.000000
0
LINE
8
0
62
1
39
1
10
2800.000000
20
575.000000
30
0.000000
11
2800.000000
21
525.000000
31
0.000000
0
LINE
8
0
62
1
39
1
10
2500.000000
20
575.000000
30
0.000000
11
3200.000000
21
575.000000
31
0.000000
0
LINE
8
0
62
1
39
1
10
2500.000000
20
475.000000
30
0.000000
11
3200.000000
21
475.000000
31
0.000000
0
LINE
8
0
62
1
39
1
10
-2975.000000
20
-2200.000000
30
0.000000
11
-2975.000000
21
-2375.000000
31
0.000000
0
LINE
8
0
62
1
39
1
10
-2775.000000
20
-2375.000000
30
0.000000
11
-2775.000000
21
-2200.000000
31
0.000000
0
LINE
8
0
62
1
39
1
10
-3075.000000
20
-2200.000000
30
0.000000
11
-3075.000000
21
-2375.000000
31
0.000000
0
LINE
8
0
62
1
39
1
10
-2875.000000
20
-2200.000000
30
0.000000
11
-2875.000000
21
-2375.000000
31
0.000000
0
LINE
8
0
62
1
39
1
10
-3175.000000
20
-2200.000000
30
0.000000
11
-3175.000000
21
-2375.000000
31
0.000000
0
LINE
8
0
62
1
39
1
10
-2675.000000
20
-2375.000000
30
0.000000
11
-2675.000000
21
-2200.000000
31
0.000000
0
LINE
8
0
62
1
39
1
10
-1800.000000
20
-2375.000000
30
0.000000
11
-1800.000000
21
-2200.000000
31
0.000000
0
LINE
8
0
62
1
39
1
10
-1700.000000
20
-2375.000000
30
0.000000
11
-1700.000000
21
-2200.000000
31
0.000000
0
LINE
8
0
62
1
39
1
10
-1600.000000
20
-2375.000000
30
0.000000
11
-1600.000000
21
-2200.000000
31
0.000000
0
LINE
8
0
62
1
39
1
10
-1525.000000
20
-2375.000000
30
0.000000
11
-1525.000000
21
-2200.000000
31
0.000000
0
LINE
8
0
62
1
39
1
10
-2725.000000
20
-525.000000
30
0.000000
11
-2725.000000
21
-475.000000
31
0.000000
0
LINE
8
0
62
1
39
1
10
-2475.000000
20
-475.000000
30
0.000000
11
-2475.000000
21
-525.000000
31
0.000000
0
LINE
8
0
62
1
39
1
10
-2475.000000
20
275.000000
30
0.000000
11
-2475.000000
21
-225.000000
31
0.000000
0
LINE
8
0
62
1
39
1
10
-2725.000000
20
275.000000
30
0.000000
11
-2725.000000
21
-225.000000
31
0.000000
0
LINE
8
0
62
1
39
1
10
-2725.000000
20
625.000000
30
0.000000
11
-2725.000000
21
525.000000
31
0.000000
0
LINE
8
0
62
1
39
1
10
-2725.000000
20
625.000000
30
0.000000
11
-2475.000000
21
625.000000
31
0.000000
0
LINE
8
0
62
1
39
1
10
-2475.000000
20
525.000000
30
0.000000
11
-2475.000000
21
625.000000
31
0.000000
0
LINE
8
0
62
1
39
1
10
-2100.000000
20
75.000000
30
0.000000
11
-2050.000000
21
75.000000
31
0.000000
0
LINE
8
0
62
1
39
1
10
-2475.000000
20
-150.000000
30
0.000000
11
-1975.000000
21
-150.000000
31
0.000000
0
LINE
8
0
62
1
39
1
10
-1500.000000
20
-150.000000
30
0.000000
11
-1725.000000
21
-150.000000
31
0.000000
0
LINE
8
0
62
1
39
1
10
-1650.000000
20
125.000000
30
0.000000
11
-1500.000000
21
125.000000
31
0.000000
0
LINE
8
0
62
1
39
1
10
-2150.000000
20
175.000000
30
0.000000
11
-2050.000000
21
175.000000
31
0.000000
0
LINE
8
0
62
1
39
1
10
-2725.000000
20
175.000000
30
0.000000
11
-2400.000000
21
175.000000
31
0.000000
0
LINE
8
0
62
1
39
1
10
-2100.000000
20
175.000000
30
0.000000
11
-2100.000000
21
425.000000
31
0.000000
0
LINE
8
0
62
1
39
1
10
-2100.000000
20
425.000000
30
0.000000
11
-2000.000000
21
425.000000
31
0.000000
0
LINE
8
0
62
1
39
1
10
-1500.000000
20
-400.000000
30
0.000000
11
-1725.000000
21
-400.000000
31
0.000000
0
LINE
8
0
62
1
39
1
10
-2100.000000
20
-400.000000
30
0.000000
11
-1925.000000
21
-400.000000
31
0.000000
0
LINE
8
0
62
1
39
1
10
-2100.000000
20
-400.000000
30
0.000000
11
-2100.000000
21
75.000000
31
0.000000
0
LINE
8
0
62
1
39
1
10
575.000000
20
75.000000
30
0.000000
11
750.000000
21
75.000000
31
0.000000
0
LINE
8
0
62
1
39
1
10
275.000000
20
750.000000
30
0.000000
11
75.000000
21
750.000000
31
0.000000
0
LINE
8
0
62
1
39
1
10
-1725.000000
20
-75.000000
30
0.000000
11
-1850.000000
21
-75.000000
31
0.000000
0
LINE
8
0
62
1
39
1
10
-1850.000000
20
-75.000000
30
0.000000
11
-1850.000000
21
-25.000000
31
0.000000
0
LINE
8
0
62
1
39
1
10
-1850.000000
20
300.000000
30
0.000000
11
-1850.000000
21
275.000000
31
0.000000
0
LINE
8
0
62
1
39
1
10
-1725.000000
20
300.000000
30
0.000000
11
-1850.000000
21
300.000000
31
0.000000
0
LINE
8
0
62
1
39
1
10
-1500.000000
20
425.000000
30
0.000000
11
-1500.000000
21
-400.000000
31
0.000000
0
LINE
8
0
62
1
39
1
10
-1750.000000
20
425.000000
30
0.000000
11
-1475.000000
21
425.000000
31
0.000000
0
LINE
8
0
62
1
39
1
10
-550.000000
20
-425.000000
30
0.000000
11
-550.000000
21
-225.000000
31
0.000000
0
LINE
8
0
62
1
39
1
10
-550.000000
20
-225.000000
30
0.000000
11
-625.000000
21
-225.000000
31
0.000000
0
LINE
8
0
62
1
39
1
10
-1125.000000
20
-425.000000
30
0.000000
11
-550.000000
21
-425.000000
31
0.000000
0
LINE
8
0
62
1
39
1
10
-1025.000000
20
-175.000000
30
0.000000
11
-1125.000000
21
-175.000000
31
0.000000
0
LINE
8
0
62
1
39
1
10
-1125.000000
20
-175.000000
30
0.000000
11
-1125.000000
21
-425.000000
31
0.000000
0
LINE
8
0
62
1
39
1
10
-650.000000
20
-2175.000000
30
0.000000
11
300.000000
21
-2175.000000
31
0.000000
0
LINE
8
0
62
1
39
1
10
300.000000
20
-2175.000000
30
0.000000
11
300.000000
21
-2250.000000
31
0.000000
0
LINE
8
0
62
1
39
1
10
-650.000000
20
-2525.000000
30
0.000000
11
300.000000
21
-2525.000000
31
0.000000
0
LINE
8
0
62
1
39
1
10
300.000000
20
-2525.000000
30
0.000000
11
300.000000
21
-2450.000000
31
0.000000
0
LINE
8
0
62
1
39
1
10
-1450.000000
20
-2375.000000
30
0.000000
11
-1450.000000
21
-2200.000000
31
0.000000
0
LINE
8
0
62
1
39
1
10
-1350.000000
20
-2375.000000
30
0.000000
11
-1350.000000
21
-2200.000000
31
0.000000
0
LINE
8
0
62
1
39
1
10
-1275.000000
20
-2375.000000
30
0.000000
11
-1275.000000
21
-2200.000000
31
0.000000
0
LINE
8
0
62
1
39
1
10
-275.000000
20
-400.000000
30
0.000000
11
275.000000
21
-400.000000
31
0.000000
0
LINE
8
0
62
1
39
1
10
-825.000000
20
50.000000
30
0.000000
11
-825.000000
21
-25.000000
31
0.000000
0
LINE
8
0
62
1
39
1
10
-825.000000
20
-400.000000
30
0.000000
11
-825.000000
21
-325.000000
31
0.000000
0
LINE
8
0
62
1
39
1
10
1750.000000
20
375.000000
30
0.000000
11
1750.000000
21
475.000000
31
0.000000
0
LINE
8
0
62
1
39
1
10
1750.000000
20
475.000000
30
0.000000
11
2000.000000
21
475.000000
31
0.000000
0
LINE
8
0
62
1
39
1
10
575.000000
20
375.000000
30
0.000000
11
2000.000000
21
375.000000
31
0.000000
0
LINE
8
0
62
1
39
1
10
-400.000000
20
375.000000
30
0.000000
11
-125.000000
21
375.000000
31
0.000000
0
LINE
8
0
62
1
39
1
10
-400.000000
20
325.000000
30
0.000000
11
-125.000000
21
325.000000
31
0.000000
0
LINE
8
0
62
1
39
1
10
-1200.000000
20
-2375.000000
30
0.000000
11
-1200.000000
21
-2200.000000
31
0.000000
0
LINE
8
0
62
1
39
1
10
-1125.000000
20
-2375.000000
30
0.000000
11
-1125.000000
21
-2200.000000
31
0.000000
0
LINE
8
0
62
1
39
1
10
725.000000
20
-125.000000
30
0.000000
11
575.000000
21
-125.000000
31
0.000000
0
LINE
8
0
62
1
39
1
10
-125.000000
20
425.000000
30
0.000000
11
-1225.000000
21
425.000000
31
0.000000
0
LINE
8
0
62
1
39
1
10
-125.000000
20
-125.000000
30
0.000000
11
-625.000000
21
-125.000000
31
0.000000
0
LINE
8
0
62
1
39
1
10
-275.000000
20
-125.000000
30
0.000000
11
-275.000000
21
-175.000000
31
0.000000
0
LINE
8
0
62
1
39
1
10
175.000000
20
-400.000000
30
0.000000
11
175.000000
21
-275.000000
31
0.000000
0
LINE
8
0
62
1
39
1
10
275.000000
20
-400.000000
30
0.000000
11
275.000000
21
-275.000000
31
0.000000
0
LINE
8
0
62
1
39
1
10
-275.000000
20
-400.000000
30
0.000000
11
-275.000000
21
-375.000000
31
0.000000
0
LINE
8
0
62
1
39
1
10
225.000000
20
-400.000000
30
0.000000
11
225.000000
21
-275.000000
31
0.000000
0
LINE
8
0
62
1
39
1
10
575.000000
20
325.000000
30
0.000000
11
950.000000
21
325.000000
31
0.000000
0
LINE
8
0
62
1
39
1
10
950.000000
20
325.000000
30
0.000000
11
950.000000
21
625.000000
31
0.000000
0
LINE
8
0
62
1
39
1
10
950.000000
20
875.000000
30
0.000000
11
950.000000
21
900.000000
31
0.000000
0
LINE
8
0
62
1
39
1
10
2000.000000
20
675.000000
30
0.000000
11
1950.000000
21
675.000000
31
0.000000
0
LINE
8
0
62
1
39
1
10
1950.000000
20
850.000000
30
0.000000
11
1950.000000
21
675.000000
31
0.000000
0
LINE
8
0
62
1
39
1
10
2525.000000
20
675.000000
30
0.000000
11
2525.000000
21
850.000000
31
0.000000
0
LINE
8
0
62
1
39
1
10
1950.000000
20
850.000000
30
0.000000
11
2525.000000
21
850.000000
31
0.000000
0
LINE
8
0
62
1
39
1
10
2500.000000
20
675.000000
30
0.000000
11
2525.000000
21
675.000000
31
0.000000
0
LINE
8
0
62
1
39
1
10
950.000000
20
1150.000000
30
0.000000
11
950.000000
21
1225.000000
31
0.000000
0
LINE
8
0
62
1
39
1
10
-1300.000000
20
-1675.000000
30
0.000000
11
-1675.000000
21
-1675.000000
31
0.000000
0
LINE
8
0
62
1
39
1
10
-1300.000000
20
-1725.000000
30
0.000000
11
-1675.000000
21
-1725.000000
31
0.000000
0
POLYLINE
8
0
40
12.000000
41
12.000000
66
1
62
5
10
0
20
0
30
0
70
0
0
VERTEX
8
0
10
-2400.000000
20
-2375.000000
30
0.000000
0
VERTEX
8
0
10
-3225.000000
20
-2375.000000
30
0.000000
0
SEQEND
0
POLYLINE
8
0
40
12.000000
41
12.000000
66
1
62
5
10
0
20
0
30
0
70
0
0
VERTEX
8
0
10
-1875.000000
20
-2375.000000
30
0.000000
0
VERTEX
8
0
10
-1075.000000
20
-2375.000000
30
0.000000
0
SEQEND
0
SOLID
8
4
10
-2980.000000
20
-2380.000000
30
0.000000
11
-2970.000000
21
-2380.000000
31
0.000000
12
-2980.000000
22
-2370.000000
32
0.000000
13
-2970.000000
23
-2370.000000
33
0.000000
0
SOLID
8
4
10
-2780.000000
20
-2380.000000
30
0.000000
11
-2770.000000
21
-2380.000000
31
0.000000
12
-2780.000000
22
-2370.000000
32
0.000000
13
-2770.000000
23
-2370.000000
33
0.000000
0
SOLID
8
4
10
-3080.000000
20
-2380.000000
30
0.000000
11
-3070.000000
21
-2380.000000
31
0.000000
12
-3080.000000
22
-2370.000000
32
0.000000
13
-3070.000000
23
-2370.000000
33
0.000000
0
SOLID
8
4
10
-2880.000000
20
-2380.000000
30
0.000000
11
-2870.000000
21
-2380.000000
31
0.000000
12
-2880.000000
22
-2370.000000
32
0.000000
13
-2870.000000
23
-2370.000000
33
0.000000
0
SOLID
8
4
10
-3180.000000
20
-2380.000000
30
0.000000
11
-3170.000000
21
-2380.000000
31
0.000000
12
-3180.000000
22
-2370.000000
32
0.000000
13
-3170.000000
23
-2370.000000
33
0.000000
0
SOLID
8
4
10
-2680.000000
20
-2380.000000
30
0.000000
11
-2670.000000
21
-2380.000000
31
0.000000
12
-2680.000000
22
-2370.000000
32
0.000000
13
-2670.000000
23
-2370.000000
33
0.000000
0
SOLID
8
4
10
-1805.000000
20
-2380.000000
30
0.000000
11
-1795.000000
21
-2380.000000
31
0.000000
12
-1805.000000
22
-2370.000000
32
0.000000
13
-1795.000000
23
-2370.000000
33
0.000000
0
SOLID
8
4
10
-1705.000000
20
-2380.000000
30
0.000000
11
-1695.000000
21
-2380.000000
31
0.000000
12
-1705.000000
22
-2370.000000
32
0.000000
13
-1695.000000
23
-2370.000000
33
0.000000
0
SOLID
8
4
10
-1605.000000
20
-2380.000000
30
0.000000
11
-1595.000000
21
-2380.000000
31
0.000000
12
-1605.000000
22
-2370.000000
32
0.000000
13
-1595.000000
23
-2370.000000
33
0.000000
0
SOLID
8
4
10
-1530.000000
20
-2380.000000
30
0.000000
11
-1520.000000
21
-2380.000000
31
0.000000
12
-1530.000000
22
-2370.000000
32
0.000000
13
-1520.000000
23
-2370.000000
33
0.000000
0
SOLID
8
4
10
3045.000000
20
470.000000
30
0.000000
11
3055.000000
21
470.000000
31
0.000000
12
3045.000000
22
480.000000
32
0.000000
13
3055.000000
23
480.000000
33
0.000000
0
SOLID
8
4
10
2795.000000
20
570.000000
30
0.000000
11
2805.000000
21
570.000000
31
0.000000
12
2795.000000
22
580.000000
32
0.000000
13
2805.000000
23
580.000000
33
0.000000
0
SOLID
8
4
10
120.000000
20
745.000000
30
0.000000
11
130.000000
21
745.000000
31
0.000000
12
120.000000
22
755.000000
32
0.000000
13
130.000000
23
755.000000
33
0.000000
0
SOLID
8
4
10
-1455.000000
20
-2380.000000
30
0.000000
11
-1445.000000
21
-2380.000000
31
0.000000
12
-1455.000000
22
-2370.000000
32
0.000000
13
-1445.000000
23
-2370.000000
33
0.000000
0
SOLID
8
4
10
-1355.000000
20
-2380.000000
30
0.000000
11
-1345.000000
21
-2380.000000
31
0.000000
12
-1355.000000
22
-2370.000000
32
0.000000
13
-1345.000000
23
-2370.000000
33
0.000000
0
SOLID
8
4
10
-1280.000000
20
-2380.000000
30
0.000000
11
-1270.000000
21
-2380.000000
31
0.000000
12
-1280.000000
22
-2370.000000
32
0.000000
13
-1270.000000
23
-2370.000000
33
0.000000
0
SOLID
8
4
10
1745.000000
20
370.000000
30
0.000000
11
1755.000000
21
370.000000
31
0.000000
12
1745.000000
22
380.000000
32
0.000000
13
1755.000000
23
380.000000
33
0.000000
0
SOLID
8
4
10
-1205.000000
20
-2380.000000
30
0.000000
11
-1195.000000
21
-2380.000000
31
0.000000
12
-1205.000000
22
-2370.000000
32
0.000000
13
-1195.000000
23
-2370.000000
33
0.000000
0
SOLID
8
4
10
-1130.000000
20
-2380.000000
30
0.000000
11
-1120.000000
21
-2380.000000
31
0.000000
12
-1130.000000
22
-2370.000000
32
0.000000
13
-1120.000000
23
-2370.000000
33
0.000000
0
SOLID
8
4
10
-1505.000000
20
120.000000
30
0.000000
11
-1495.000000
21
120.000000
31
0.000000
12
-1505.000000
22
130.000000
32
0.000000
13
-1495.000000
23
130.000000
33
0.000000
0
SOLID
8
4
10
-2730.000000
20
170.000000
30
0.000000
11
-2720.000000
21
170.000000
31
0.000000
12
-2730.000000
22
180.000000
32
0.000000
13
-2720.000000
23
180.000000
33
0.000000
0
SOLID
8
4
10
-2480.000000
20
-155.000000
30
0.000000
11
-2470.000000
21
-155.000000
31
0.000000
12
-2480.000000
22
-145.000000
32
0.000000
13
-2470.000000
23
-145.000000
33
0.000000
0
SOLID
8
4
10
-2105.000000
20
170.000000
30
0.000000
11
-2095.000000
21
170.000000
31
0.000000
12
-2105.000000
22
180.000000
32
0.000000
13
-2095.000000
23
180.000000
33
0.000000
0
SOLID
8
4
10
-1505.000000
20
-155.000000
30
0.000000
11
-1495.000000
21
-155.000000
31
0.000000
12
-1505.000000
22
-145.000000
32
0.000000
13
-1495.000000
23
-145.000000
33
0.000000
0
SOLID
8
4
10
-1505.000000
20
420.000000
30
0.000000
11
-1495.000000
21
420.000000
31
0.000000
12
-1505.000000
22
430.000000
32
0.000000
13
-1495.000000
23
430.000000
33
0.000000
0
SOLID
8
4
10
-2105.000000
20
-155.000000
30
0.000000
11
-2095.000000
21
-155.000000
31
0.000000
12
-2105.000000
22
-145.000000
32
0.000000
13
-2095.000000
23
-145.000000
33
0.000000
0
SOLID
8
4
10
-280.000000
20
-130.000000
30
0.000000
11
-270.000000
21
-130.000000
31
0.000000
12
-280.000000
22
-120.000000
32
0.000000
13
-270.000000
23
-120.000000
33
0.000000
0
SOLID
8
4
10
170.000000
20
-405.000000
30
0.000000
11
180.000000
21
-405.000000
31
0.000000
12
170.000000
22
-395.000000
32
0.000000
13
180.000000
23
-395.000000
33
0.000000
0
SOLID
8
4
10
220.000000
20
-405.000000
30
0.000000
11
230.000000
21
-405.000000
31
0.000000
12
220.000000
22
-395.000000
32
0.000000
13
230.000000
23
-395.000000
33
0.000000
0
SOLID
8
4
10
-3255.000000
20
-1605.000000
30
0.000000
11
-3245.000000
21
-1605.000000
31
0.000000
12
-3255.000000
22
-1595.000000
32
0.000000
13
-3245.000000
23
-1595.000000
33
0.000000
0
SOLID
8
4
10
-255.000000
20
-2180.000000
30
0.000000
11
-245.000000
21
-2180.000000
31
0.000000
12
-255.000000
22
-2170.000000
32
0.000000
13
-245.000000
23
-2170.000000
33
0.000000
0
SOLID
8
4
10
20.000000
20
-2180.000000
30
0.000000
11
30.000000
21
-2180.000000
31
0.000000
12
20.000000
22
-2170.000000
32
0.000000
13
30.000000
23
-2170.000000
33
0.000000
0
SOLID
8
4
10
-255.000000
20
-2530.000000
30
0.000000
11
-245.000000
21
-2530.000000
31
0.000000
12
-255.000000
22
-2520.000000
32
0.000000
13
-245.000000
23
-2520.000000
33
0.000000
0
SOLID
8
4
10
-455.000000
20
-2530.000000
30
0.000000
11
-445.000000
21
-2530.000000
31
0.000000
12
-455.000000
22
-2520.000000
32
0.000000
13
-445.000000
23
-2520.000000
33
0.000000
0
SOLID
8
4
10
-455.000000
20
-2180.000000
30
0.000000
11
-445.000000
21
-2180.000000
31
0.000000
12
-455.000000
22
-2170.000000
32
0.000000
13
-445.000000
23
-2170.000000
33
0.000000
0
SOLID
8
4
10
20.000000
20
-2530.000000
30
0.000000
11
30.000000
21
-2530.000000
31
0.000000
12
20.000000
22
-2520.000000
32
0.000000
13
30.000000
23
-2520.000000
33
0.000000
0
ENDSEC
0
EOF
