0
SECTION
2
HEADER
9
$EXTMIN
10
-3825.000000
20
-2625.000000
9
$EXTMAX
10
3843.000000
20
2621.000000
0
ENDSEC
0
SECTION
2
TABLES
0
TABLE
2
LTYPE
70
4
0
LTYPE
2
CONTINUOUS
70
64
3
Solid line
72
65
73
0
40
0.0
0
LTYPE
2
DASHED
70
64
3
Dashed line
72
65
73
2
40
0.8
49
0.5
49
-0.3
0
LTYPE
2
DOT
70
64
3
Dotted line
72
65
73
2
40
0.2
49
0.1
49
-0.1
0
LTYPE
2
DASHDOT
70
64
3
Dotted line
72
65
73
4
40
1
49
0.5
49
-0.2
49
0.1
49
-0.2
0
LTYPE
2
SMALLDOT
70
64
3
Small dotted
72
65
73
2
40
0.1
49
0
49
-0.1
0
LTYPE
2
CENTER
70
64
3
Centerline
72
65
73
4
40
1.1
49
0.8
49
-0.1
49
0.1
49
-0.1
0
ENDTAB
0
TABLE
2
STYLE
70
2
0
STYLE
2
STANDARD
70
64
40
0
41
1
50
0
71
0
3
TXT
42
1
4
 
0
STYLE
2
ROMAN
70
64
40
0
41
1
50
0
71
0
3
ROMANS.SHX
42
1
4
 
0
STYLE
2
TECHNIC
70
64
40
0
41
1
50
0
71
0
3
te______.pfb
42
1
4
 
0
STYLE
2
BLUEPRINT
70
64
40
0
41
1
50
0
71
0
3
cibt____.pfb
42
1
4
 
0
ENDTAB
0
TABLE
2
LAYER
70
1
0
LAYER
2
0
70
0
62
7
6
CONTINUOUS
0
LAYER
2
1
70
0
62
7
6
DASHED
0
LAYER
2
2
70
0
62
7
6
DASHDOT
0
LAYER
2
3
70
0
62
7
6
DOT
0
LAYER
2
4
70
0
62
3
6
CONTINUOUS
0
ENDTAB
0
TABLE
2
VIEW
70
0
0
ENDTAB
0
ENDSEC
0
SECTION
2
ENTITIES
0
POLYLINE
8
0
40
4.000000
41
4.000000
66
1
62
1
10
0
20
0
30
0
70
1
0
VERTEX
8
0
10
1500.000000
20
1475.000000
30
0.000000
0
VERTEX
8
0
10
1500.000000
20
875.000000
30
0.000000
0
VERTEX
8
0
10
1905.000000
20
875.000000
30
0.000000
0
VERTEX
8
0
10
1905.000000
20
1475.000000
30
0.000000
0
VERTEX
8
0
10
1500.000000
20
1475.000000
30
0.000000
0
SEQEND
0
POLYLINE
8
0
40
10.000000
41
10.000000
66
1
62
136
10
0
20
0
30
0
70
0
0
VERTEX
8
0
10
1500.000000
20
1425.000000
30
0.000000
0
VERTEX
8
0
10
1400.000000
20
1425.000000
30
0.000000
0
SEQEND
0
POLYLINE
8
0
40
10.000000
41
10.000000
66
1
62
136
10
0
20
0
30
0
70
0
0
VERTEX
8
0
10
1500.000000
20
1325.000000
30
0.000000
0
VERTEX
8
0
10
1400.000000
20
1325.000000
30
0.000000
0
SEQEND
0
POLYLINE
8
0
40
10.000000
41
10.000000
66
1
62
136
10
0
20
0
30
0
70
0
0
VERTEX
8
0
10
1500.000000
20
1225.000000
30
0.000000
0
VERTEX
8
0
10
1400.000000
20
1225.000000
30
0.000000
0
SEQEND
0
POLYLINE
8
0
40
1.000000
41
1.000000
66
1
62
136
10
0
20
0
30
0
70
0
0
VERTEX
8
0
10
1500.000000
20
925.000000
30
0.000000
0
VERTEX
8
0
10
1400.000000
20
925.000000
30
0.000000
0
SEQEND
0
POLYLINE
8
0
40
1.000000
41
1.000000
66
1
62
136
10
0
20
0
30
0
70
0
0
VERTEX
8
0
10
1500.000000
20
1025.000000
30
0.000000
0
VERTEX
8
0
10
1400.000000
20
1025.000000
30
0.000000
0
SEQEND
0
POLYLINE
8
0
40
10.000000
41
10.000000
66
1
62
136
10
0
20
0
30
0
70
0
0
VERTEX
8
0
10
1900.000000
20
1425.000000
30
0.000000
0
VERTEX
8
0
10
1980.000000
20
1425.000000
30
0.000000
0
SEQEND
0
POLYLINE
8
0
40
10.000000
41
10.000000
66
1
62
136
10
0
20
0
30
0
70
0
0
VERTEX
8
0
10
1900.000000
20
1375.000000
30
0.000000
0
VERTEX
8
0
10
1980.000000
20
1375.000000
30
0.000000
0
SEQEND
0
TEXT
8
0
39
10
62
136
10
1400.000000
20
1445.000000
30
0.000000
11
1400.000000
21
1445.000000
31
0.000000
40
33.000000
50
0.000000
1
1
72
0
73
0
0
TEXT
8
0
39
10
62
96
10
1635.000000
20
1420.000000
30
0.000000
11
1635.000000
21
1420.000000
31
0.000000
40
33.000000
50
0.000000
1
POWER
72
2
73
2
0
TEXT
8
0
39
10
62
136
10
1400.000000
20
1320.000000
30
0.000000
11
1400.000000
21
1320.000000
31
0.000000
40
33.000000
50
0.000000
1
2
72
0
73
0
0
TEXT
8
0
39
10
62
96
10
1705.000000
20
1325.000000
30
0.000000
11
1705.000000
21
1325.000000
31
0.000000
40
33.000000
50
0.000000
1
CONTROL
72
2
73
2
0
TEXT
8
0
39
10
62
136
10
1400.000000
20
1230.000000
30
0.000000
11
1400.000000
21
1230.000000
31
0.000000
40
33.000000
50
0.000000
1
3
72
0
73
0
0
TEXT
8
0
39
10
62
96
10
1675.000000
20
1220.000000
30
0.000000
11
1675.000000
21
1220.000000
31
0.000000
40
33.000000
50
0.000000
1
I/O BUS
72
2
73
2
0
TEXT
8
0
39
10
62
136
10
1415.000000
20
935.000000
30
0.000000
11
1415.000000
21
935.000000
31
0.000000
40
33.000000
50
0.000000
1
4
72
0
73
0
0
TEXT
8
0
39
10
62
96
10
1500.000000
20
925.000000
30
0.000000
11
1500.000000
21
925.000000
31
0.000000
40
33.000000
50
0.000000
1
VCC
72
0
73
2
0
TEXT
8
0
39
10
62
136
10
1400.000000
20
1025.000000
30
0.000000
11
1400.000000
21
1025.000000
31
0.000000
40
33.000000
50
0.000000
1
5
72
0
73
0
0
TEXT
8
0
39
10
62
96
10
1500.000000
20
1025.000000
30
0.000000
11
1500.000000
21
1025.000000
31
0.000000
40
33.000000
50
0.000000
1
GND
72
0
73
2
0
TEXT
8
0
39
10
62
136
10
1980.000000
20
1425.000000
30
0.000000
11
1980.000000
21
1425.000000
31
0.000000
40
33.000000
50
0.000000
1
6
72
2
73
0
0
TEXT
8
0
39
10
62
96
10
1770.000000
20
1435.000000
30
0.000000
11
1770.000000
21
1435.000000
31
0.000000
40
33.000000
50
0.000000
1
OUT 1
72
0
73
2
0
TEXT
8
0
39
10
62
136
10
1980.000000
20
1375.000000
30
0.000000
11
1980.000000
21
1375.000000
31
0.000000
40
33.000000
50
0.000000
1
7
72
2
73
0
0
TEXT
8
0
39
10
62
96
10
1765.000000
20
1375.000000
30
0.000000
11
1765.000000
21
1375.000000
31
0.000000
40
33.000000
50
0.000000
1
OUT 2
72
0
73
2
0
POLYLINE
8
0
40
4.000000
41
4.000000
66
1
62
1
10
0
20
0
30
0
70
1
0
VERTEX
8
0
10
-375.000000
20
1500.000000
30
0.000000
0
VERTEX
8
0
10
-375.000000
20
900.000000
30
0.000000
0
VERTEX
8
0
10
30.000000
20
900.000000
30
0.000000
0
VERTEX
8
0
10
30.000000
20
1500.000000
30
0.000000
0
VERTEX
8
0
10
-375.000000
20
1500.000000
30
0.000000
0
SEQEND
0
POLYLINE
8
0
40
10.000000
41
10.000000
66
1
62
136
10
0
20
0
30
0
70
0
0
VERTEX
8
0
10
-375.000000
20
1450.000000
30
0.000000
0
VERTEX
8
0
10
-475.000000
20
1450.000000
30
0.000000
0
SEQEND
0
POLYLINE
8
0
40
10.000000
41
10.000000
66
1
62
136
10
0
20
0
30
0
70
0
0
VERTEX
8
0
10
-375.000000
20
1350.000000
30
0.000000
0
VERTEX
8
0
10
-475.000000
20
1350.000000
30
0.000000
0
SEQEND
0
POLYLINE
8
0
40
10.000000
41
10.000000
66
1
62
136
10
0
20
0
30
0
70
0
0
VERTEX
8
0
10
-375.000000
20
1250.000000
30
0.000000
0
VERTEX
8
0
10
-475.000000
20
1250.000000
30
0.000000
0
SEQEND
0
POLYLINE
8
0
40
1.000000
41
1.000000
66
1
62
136
10
0
20
0
30
0
70
0
0
VERTEX
8
0
10
-375.000000
20
950.000000
30
0.000000
0
VERTEX
8
0
10
-475.000000
20
950.000000
30
0.000000
0
SEQEND
0
POLYLINE
8
0
40
1.000000
41
1.000000
66
1
62
136
10
0
20
0
30
0
70
0
0
VERTEX
8
0
10
-375.000000
20
1050.000000
30
0.000000
0
VERTEX
8
0
10
-475.000000
20
1050.000000
30
0.000000
0
SEQEND
0
POLYLINE
8
0
40
10.000000
41
10.000000
66
1
62
136
10
0
20
0
30
0
70
0
0
VERTEX
8
0
10
25.000000
20
1450.000000
30
0.000000
0
VERTEX
8
0
10
105.000000
20
1450.000000
30
0.000000
0
SEQEND
0
POLYLINE
8
0
40
10.000000
41
10.000000
66
1
62
136
10
0
20
0
30
0
70
0
0
VERTEX
8
0
10
25.000000
20
1400.000000
30
0.000000
0
VERTEX
8
0
10
105.000000
20
1400.000000
30
0.000000
0
SEQEND
0
TEXT
8
0
39
10
62
136
10
-475.000000
20
1470.000000
30
0.000000
11
-475.000000
21
1470.000000
31
0.000000
40
33.000000
50
0.000000
1
1
72
0
73
0
0
TEXT
8
0
39
10
62
96
10
-240.000000
20
1445.000000
30
0.000000
11
-240.000000
21
1445.000000
31
0.000000
40
33.000000
50
0.000000
1
POWER
72
2
73
2
0
TEXT
8
0
39
10
62
136
10
-475.000000
20
1345.000000
30
0.000000
11
-475.000000
21
1345.000000
31
0.000000
40
33.000000
50
0.000000
1
2
72
0
73
0
0
TEXT
8
0
39
10
62
96
10
-120.000000
20
1350.000000
30
0.000000
11
-120.000000
21
1350.000000
31
0.000000
40
33.000000
50
0.000000
1
CONTROL
72
2
73
2
0
TEXT
8
0
39
10
62
136
10
-475.000000
20
1255.000000
30
0.000000
11
-475.000000
21
1255.000000
31
0.000000
40
33.000000
50
0.000000
1
3
72
0
73
0
0
TEXT
8
0
39
10
62
96
10
-200.000000
20
1245.000000
30
0.000000
11
-200.000000
21
1245.000000
31
0.000000
40
33.000000
50
0.000000
1
I/O BUS
72
2
73
2
0
TEXT
8
0
39
10
62
136
10
-460.000000
20
960.000000
30
0.000000
11
-460.000000
21
960.000000
31
0.000000
40
33.000000
50
0.000000
1
4
72
0
73
0
0
TEXT
8
0
39
10
62
96
10
-375.000000
20
950.000000
30
0.000000
11
-375.000000
21
950.000000
31
0.000000
40
33.000000
50
0.000000
1
VCC
72
0
73
2
0
TEXT
8
0
39
10
62
136
10
-475.000000
20
1050.000000
30
0.000000
11
-475.000000
21
1050.000000
31
0.000000
40
33.000000
50
0.000000
1
5
72
0
73
0
0
TEXT
8
0
39
10
62
96
10
-375.000000
20
1050.000000
30
0.000000
11
-375.000000
21
1050.000000
31
0.000000
40
33.000000
50
0.000000
1
GND
72
0
73
2
0
TEXT
8
0
39
10
62
136
10
105.000000
20
1450.000000
30
0.000000
11
105.000000
21
1450.000000
31
0.000000
40
33.000000
50
0.000000
1
6
72
2
73
0
0
TEXT
8
0
39
10
62
96
10
-105.000000
20
1460.000000
30
0.000000
11
-105.000000
21
1460.000000
31
0.000000
40
33.000000
50
0.000000
1
OUT 1
72
0
73
2
0
TEXT
8
0
39
10
62
136
10
105.000000
20
1400.000000
30
0.000000
11
105.000000
21
1400.000000
31
0.000000
40
33.000000
50
0.000000
1
7
72
2
73
0
0
TEXT
8
0
39
10
62
96
10
-110.000000
20
1400.000000
30
0.000000
11
-110.000000
21
1400.000000
31
0.000000
40
33.000000
50
0.000000
1
OUT 2
72
0
73
2
0
POLYLINE
8
0
40
4.000000
41
4.000000
66
1
62
1
10
0
20
0
30
0
70
1
0
VERTEX
8
0
10
-2050.000000
20
1475.000000
30
0.000000
0
VERTEX
8
0
10
-2050.000000
20
875.000000
30
0.000000
0
VERTEX
8
0
10
-1645.000000
20
875.000000
30
0.000000
0
VERTEX
8
0
10
-1645.000000
20
1475.000000
30
0.000000
0
VERTEX
8
0
10
-2050.000000
20
1475.000000
30
0.000000
0
SEQEND
0
POLYLINE
8
0
40
10.000000
41
10.000000
66
1
62
136
10
0
20
0
30
0
70
0
0
VERTEX
8
0
10
-2050.000000
20
1425.000000
30
0.000000
0
VERTEX
8
0
10
-2150.000000
20
1425.000000
30
0.000000
0
SEQEND
0
POLYLINE
8
0
40
10.000000
41
10.000000
66
1
62
136
10
0
20
0
30
0
70
0
0
VERTEX
8
0
10
-2050.000000
20
1325.000000
30
0.000000
0
VERTEX
8
0
10
-2150.000000
20
1325.000000
30
0.000000
0
SEQEND
0
POLYLINE
8
0
40
10.000000
41
10.000000
66
1
62
136
10
0
20
0
30
0
70
0
0
VERTEX
8
0
10
-2050.000000
20
1225.000000
30
0.000000
0
VERTEX
8
0
10
-2150.000000
20
1225.000000
30
0.000000
0
SEQEND
0
POLYLINE
8
0
40
1.000000
41
1.000000
66
1
62
136
10
0
20
0
30
0
70
0
0
VERTEX
8
0
10
-2050.000000
20
925.000000
30
0.000000
0
VERTEX
8
0
10
-2150.000000
20
925.000000
30
0.000000
0
SEQEND
0
POLYLINE
8
0
40
1.000000
41
1.000000
66
1
62
136
10
0
20
0
30
0
70
0
0
VERTEX
8
0
10
-2050.000000
20
1025.000000
30
0.000000
0
VERTEX
8
0
10
-2150.000000
20
1025.000000
30
0.000000
0
SEQEND
0
POLYLINE
8
0
40
10.000000
41
10.000000
66
1
62
136
10
0
20
0
30
0
70
0
0
VERTEX
8
0
10
-1650.000000
20
1425.000000
30
0.000000
0
VERTEX
8
0
10
-1570.000000
20
1425.000000
30
0.000000
0
SEQEND
0
POLYLINE
8
0
40
10.000000
41
10.000000
66
1
62
136
10
0
20
0
30
0
70
0
0
VERTEX
8
0
10
-1650.000000
20
1375.000000
30
0.000000
0
VERTEX
8
0
10
-1570.000000
20
1375.000000
30
0.000000
0
SEQEND
0
TEXT
8
0
39
10
62
136
10
-2150.000000
20
1445.000000
30
0.000000
11
-2150.000000
21
1445.000000
31
0.000000
40
33.000000
50
0.000000
1
1
72
0
73
0
0
TEXT
8
0
39
10
62
96
10
-1915.000000
20
1420.000000
30
0.000000
11
-1915.000000
21
1420.000000
31
0.000000
40
33.000000
50
0.000000
1
POWER
72
2
73
2
0
TEXT
8
0
39
10
62
136
10
-2150.000000
20
1320.000000
30
0.000000
11
-2150.000000
21
1320.000000
31
0.000000
40
33.000000
50
0.000000
1
2
72
0
73
0
0
TEXT
8
0
39
10
62
96
10
-1745.000000
20
1325.000000
30
0.000000
11
-1745.000000
21
1325.000000
31
0.000000
40
33.000000
50
0.000000
1
CONTROL
72
2
73
2
0
TEXT
8
0
39
10
62
136
10
-2150.000000
20
1230.000000
30
0.000000
11
-2150.000000
21
1230.000000
31
0.000000
40
33.000000
50
0.000000
1
3
72
0
73
0
0
TEXT
8
0
39
10
62
96
10
-1875.000000
20
1220.000000
30
0.000000
11
-1875.000000
21
1220.000000
31
0.000000
40
33.000000
50
0.000000
1
I/O BUS
72
2
73
2
0
TEXT
8
0
39
10
62
136
10
-2135.000000
20
935.000000
30
0.000000
11
-2135.000000
21
935.000000
31
0.000000
40
33.000000
50
0.000000
1
4
72
0
73
0
0
TEXT
8
0
39
10
62
96
10
-2050.000000
20
925.000000
30
0.000000
11
-2050.000000
21
925.000000
31
0.000000
40
33.000000
50
0.000000
1
VCC
72
0
73
2
0
TEXT
8
0
39
10
62
136
10
-2150.000000
20
1025.000000
30
0.000000
11
-2150.000000
21
1025.000000
31
0.000000
40
33.000000
50
0.000000
1
5
72
0
73
0
0
TEXT
8
0
39
10
62
96
10
-2050.000000
20
1025.000000
30
0.000000
11
-2050.000000
21
1025.000000
31
0.000000
40
33.000000
50
0.000000
1
GND
72
0
73
2
0
TEXT
8
0
39
10
62
136
10
-1570.000000
20
1425.000000
30
0.000000
11
-1570.000000
21
1425.000000
31
0.000000
40
33.000000
50
0.000000
1
6
72
2
73
0
0
TEXT
8
0
39
10
62
96
10
-1780.000000
20
1435.000000
30
0.000000
11
-1780.000000
21
1435.000000
31
0.000000
40
33.000000
50
0.000000
1
OUT 1
72
0
73
2
0
TEXT
8
0
39
10
62
136
10
-1570.000000
20
1375.000000
30
0.000000
11
-1570.000000
21
1375.000000
31
0.000000
40
33.000000
50
0.000000
1
7
72
2
73
0
0
TEXT
8
0
39
10
62
96
10
-1785.000000
20
1375.000000
30
0.000000
11
-1785.000000
21
1375.000000
31
0.000000
40
33.000000
50
0.000000
1
OUT 2
72
0
73
2
0
POLYLINE
8
0
40
4.000000
41
4.000000
66
1
62
1
10
0
20
0
30
0
70
1
0
VERTEX
8
0
10
-2050.000000
20
275.000000
30
0.000000
0
VERTEX
8
0
10
-2050.000000
20
-325.000000
30
0.000000
0
VERTEX
8
0
10
-1645.000000
20
-325.000000
30
0.000000
0
VERTEX
8
0
10
-1645.000000
20
275.000000
30
0.000000
0
VERTEX
8
0
10
-2050.000000
20
275.000000
30
0.000000
0
SEQEND
0
POLYLINE
8
0
40
10.000000
41
10.000000
66
1
62
136
10
0
20
0
30
0
70
0
0
VERTEX
8
0
10
-2050.000000
20
225.000000
30
0.000000
0
VERTEX
8
0
10
-2150.000000
20
225.000000
30
0.000000
0
SEQEND
0
POLYLINE
8
0
40
10.000000
41
10.000000
66
1
62
136
10
0
20
0
30
0
70
0
0
VERTEX
8
0
10
-2050.000000
20
125.000000
30
0.000000
0
VERTEX
8
0
10
-2150.000000
20
125.000000
30
0.000000
0
SEQEND
0
POLYLINE
8
0
40
10.000000
41
10.000000
66
1
62
136
10
0
20
0
30
0
70
0
0
VERTEX
8
0
10
-2050.000000
20
25.000000
30
0.000000
0
VERTEX
8
0
10
-2150.000000
20
25.000000
30
0.000000
0
SEQEND
0
POLYLINE
8
0
40
1.000000
41
1.000000
66
1
62
136
10
0
20
0
30
0
70
0
0
VERTEX
8
0
10
-2050.000000
20
-275.000000
30
0.000000
0
VERTEX
8
0
10
-2150.000000
20
-275.000000
30
0.000000
0
SEQEND
0
POLYLINE
8
0
40
1.000000
41
1.000000
66
1
62
136
10
0
20
0
30
0
70
0
0
VERTEX
8
0
10
-2050.000000
20
-175.000000
30
0.000000
0
VERTEX
8
0
10
-2150.000000
20
-175.000000
30
0.000000
0
SEQEND
0
POLYLINE
8
0
40
10.000000
41
10.000000
66
1
62
136
10
0
20
0
30
0
70
0
0
VERTEX
8
0
10
-1650.000000
20
225.000000
30
0.000000
0
VERTEX
8
0
10
-1570.000000
20
225.000000
30
0.000000
0
SEQEND
0
POLYLINE
8
0
40
10.000000
41
10.000000
66
1
62
136
10
0
20
0
30
0
70
0
0
VERTEX
8
0
10
-1650.000000
20
175.000000
30
0.000000
0
VERTEX
8
0
10
-1570.000000
20
175.000000
30
0.000000
0
SEQEND
0
TEXT
8
0
39
10
62
136
10
-2150.000000
20
245.000000
30
0.000000
11
-2150.000000
21
245.000000
31
0.000000
40
33.000000
50
0.000000
1
1
72
0
73
0
0
TEXT
8
0
39
10
62
96
10
-1840.000000
20
220.000000
30
0.000000
11
-1840.000000
21
220.000000
31
0.000000
40
33.000000
50
0.000000
1
DATABUS
72
2
73
2
0
TEXT
8
0
39
10
62
136
10
-2150.000000
20
120.000000
30
0.000000
11
-2150.000000
21
120.000000
31
0.000000
40
33.000000
50
0.000000
1
2
72
0
73
0
0
TEXT
8
0
39
10
62
96
10
-1745.000000
20
125.000000
30
0.000000
11
-1745.000000
21
125.000000
31
0.000000
40
33.000000
50
0.000000
1
CONTROLBUS
72
2
73
2
0
TEXT
8
0
39
10
62
136
10
-2150.000000
20
30.000000
30
0.000000
11
-2150.000000
21
30.000000
31
0.000000
40
33.000000
50
0.000000
1
3
72
0
73
0
0
TEXT
8
0
39
10
62
96
10
-1875.000000
20
20.000000
30
0.000000
11
-1875.000000
21
20.000000
31
0.000000
40
33.000000
50
0.000000
1
I/O BUS
72
2
73
2
0
TEXT
8
0
39
10
62
136
10
-2135.000000
20
-265.000000
30
0.000000
11
-2135.000000
21
-265.000000
31
0.000000
40
33.000000
50
0.000000
1
4
72
0
73
0
0
TEXT
8
0
39
10
62
96
10
-2050.000000
20
-275.000000
30
0.000000
11
-2050.000000
21
-275.000000
31
0.000000
40
33.000000
50
0.000000
1
VCC
72
0
73
2
0
TEXT
8
0
39
10
62
136
10
-2150.000000
20
-175.000000
30
0.000000
11
-2150.000000
21
-175.000000
31
0.000000
40
33.000000
50
0.000000
1
5
72
0
73
0
0
TEXT
8
0
39
10
62
96
10
-2050.000000
20
-175.000000
30
0.000000
11
-2050.000000
21
-175.000000
31
0.000000
40
33.000000
50
0.000000
1
GND
72
0
73
2
0
TEXT
8
0
39
10
62
136
10
-1570.000000
20
225.000000
30
0.000000
11
-1570.000000
21
225.000000
31
0.000000
40
33.000000
50
0.000000
1
6
72
2
73
0
0
TEXT
8
0
39
10
62
96
10
-1780.000000
20
235.000000
30
0.000000
11
-1780.000000
21
235.000000
31
0.000000
40
33.000000
50
0.000000
1
OUT 1
72
0
73
2
0
TEXT
8
0
39
10
62
136
10
-1570.000000
20
175.000000
30
0.000000
11
-1570.000000
21
175.000000
31
0.000000
40
33.000000
50
0.000000
1
7
72
2
73
0
0
TEXT
8
0
39
10
62
96
10
-1785.000000
20
175.000000
30
0.000000
11
-1785.000000
21
175.000000
31
0.000000
40
33.000000
50
0.000000
1
OUT 2
72
0
73
2
0
POLYLINE
8
0
40
1.000000
41
1.000000
66
1
62
136
10
0
20
0
30
0
70
1
0
VERTEX
8
0
10
2048.000000
20
-2445.000000
30
0.000000
0
VERTEX
8
0
10
2048.000000
20
-2457.000000
30
0.000000
0
VERTEX
8
0
10
3800.000000
20
-2456.000000
30
0.000000
0
VERTEX
8
0
10
3800.000000
20
-2444.000000
30
0.000000
0
VERTEX
8
0
10
2048.000000
20
-2445.000000
30
0.000000
0
SEQEND
0
POLYLINE
8
0
40
1.000000
41
1.000000
66
1
62
136
10
0
20
0
30
0
70
1
0
VERTEX
8
0
10
2944.000000
20
-2451.000000
30
0.000000
0
VERTEX
8
0
10
2956.000000
20
-2451.000000
30
0.000000
0
VERTEX
8
0
10
2956.000000
20
-2550.000000
30
0.000000
0
VERTEX
8
0
10
2944.000000
20
-2550.000000
30
0.000000
0
VERTEX
8
0
10
2944.000000
20
-2451.000000
30
0.000000
0
SEQEND
0
POLYLINE
8
0
40
1.000000
41
1.000000
66
1
62
136
10
0
20
0
30
0
70
1
0
VERTEX
8
0
10
3294.000000
20
-2451.000000
30
0.000000
0
VERTEX
8
0
10
3306.000000
20
-2451.000000
30
0.000000
0
VERTEX
8
0
10
3306.000000
20
-2550.000000
30
0.000000
0
VERTEX
8
0
10
3294.000000
20
-2550.000000
30
0.000000
0
VERTEX
8
0
10
3294.000000
20
-2451.000000
30
0.000000
0
SEQEND
0
POLYLINE
8
0
40
1.000000
41
1.000000
66
1
62
136
10
0
20
0
30
0
70
1
0
VERTEX
8
0
10
2050.000000
20
-2195.000000
30
0.000000
0
VERTEX
8
0
10
2050.000000
20
-2207.000000
30
0.000000
0
VERTEX
8
0
10
3800.000000
20
-2206.000000
30
0.000000
0
VERTEX
8
0
10
3800.000000
20
-2194.000000
30
0.000000
0
VERTEX
8
0
10
2050.000000
20
-2195.000000
30
0.000000
0
SEQEND
0
POLYLINE
8
0
40
1.000000
41
1.000000
66
1
62
136
10
0
20
0
30
0
70
1
0
VERTEX
8
0
10
2050.000000
20
-2095.000000
30
0.000000
0
VERTEX
8
0
10
2050.000000
20
-2107.000000
30
0.000000
0
VERTEX
8
0
10
3800.000000
20
-2106.000000
30
0.000000
0
VERTEX
8
0
10
3800.000000
20
-2094.000000
30
0.000000
0
VERTEX
8
0
10
2050.000000
20
-2095.000000
30
0.000000
0
SEQEND
0
POLYLINE
8
0
40
1.000000
41
1.000000
66
1
62
136
10
0
20
0
30
0
70
1
0
VERTEX
8
0
10
2344.000000
20
-2001.000000
30
0.000000
0
VERTEX
8
0
10
2356.000000
20
-2001.000000
30
0.000000
0
VERTEX
8
0
10
2356.000000
20
-2101.000000
30
0.000000
0
VERTEX
8
0
10
2344.000000
20
-2101.000000
30
0.000000
0
VERTEX
8
0
10
2344.000000
20
-2001.000000
30
0.000000
0
SEQEND
0
POLYLINE
8
0
40
1.000000
41
1.000000
66
1
62
136
10
0
20
0
30
0
70
1
0
VERTEX
8
0
10
3044.000000
20
-2001.000000
30
0.000000
0
VERTEX
8
0
10
3056.000000
20
-2001.000000
30
0.000000
0
VERTEX
8
0
10
3056.000000
20
-2101.000000
30
0.000000
0
VERTEX
8
0
10
3044.000000
20
-2101.000000
30
0.000000
0
VERTEX
8
0
10
3044.000000
20
-2001.000000
30
0.000000
0
SEQEND
0
POLYLINE
8
0
40
1.000000
41
1.000000
66
1
62
136
10
0
20
0
30
0
70
1
0
VERTEX
8
0
10
2044.000000
20
-1976.000000
30
0.000000
0
VERTEX
8
0
10
2056.000000
20
-1976.000000
30
0.000000
0
VERTEX
8
0
10
2056.000000
20
-2550.000000
30
0.000000
0
VERTEX
8
0
10
2044.000000
20
-2550.000000
30
0.000000
0
VERTEX
8
0
10
2044.000000
20
-1976.000000
30
0.000000
0
SEQEND
0
POLYLINE
8
0
40
1.000000
41
1.000000
66
1
62
136
10
0
20
0
30
0
70
1
0
VERTEX
8
0
10
2050.000000
20
-2556.000000
30
0.000000
0
VERTEX
8
0
10
2050.000000
20
-2544.000000
30
0.000000
0
VERTEX
8
0
10
3800.000000
20
-2544.000000
30
0.000000
0
VERTEX
8
0
10
3800.000000
20
-2556.000000
30
0.000000
0
VERTEX
8
0
10
2050.000000
20
-2556.000000
30
0.000000
0
SEQEND
0
POLYLINE
8
0
40
1.000000
41
1.000000
66
1
62
136
10
0
20
0
30
0
70
1
0
VERTEX
8
0
10
3794.000000
20
-2550.000000
30
0.000000
0
VERTEX
8
0
10
3806.000000
20
-2550.000000
30
0.000000
0
VERTEX
8
0
10
3806.000000
20
-1976.000000
30
0.000000
0
VERTEX
8
0
10
3794.000000
20
-1976.000000
30
0.000000
0
VERTEX
8
0
10
3794.000000
20
-2550.000000
30
0.000000
0
SEQEND
0
POLYLINE
8
0
40
1.000000
41
1.000000
66
1
62
136
10
0
20
0
30
0
70
1
0
VERTEX
8
0
10
3800.000000
20
-2006.000000
30
0.000000
0
VERTEX
8
0
10
3800.000000
20
-1994.000000
30
0.000000
0
VERTEX
8
0
10
2050.000000
20
-1994.000000
30
0.000000
0
VERTEX
8
0
10
2050.000000
20
-2006.000000
30
0.000000
0
VERTEX
8
0
10
3800.000000
20
-2006.000000
30
0.000000
0
SEQEND
0
LINE
8
0
39
10
62
136
10
3380.000000
20
-2100.000000
30
0.000000
11
3380.000000
21
-2190.000000
31
0.000000
0
TEXT
8
0
39
10
62
136
10
2075.000000
20
-2500.000000
30
0.000000
11
2075.000000
21
-2500.000000
31
0.000000
40
34.000000
50
0.000000
1
INITIAL
72
0
73
2
0
TEXT
8
0
39
10
62
136
10
2975.000000
20
-2500.000000
30
0.000000
11
2975.000000
21
-2500.000000
31
0.000000
40
34.000000
50
0.000000
1
PAGE:
72
0
73
2
0
TEXT
8
0
39
10
62
136
10
3320.000000
20
-2500.000000
30
0.000000
11
3320.000000
21
-2500.000000
31
0.000000
40
34.000000
50
0.000000
1
OF:
72
0
73
2
0
TEXT
8
0
39
10
62
136
10
2075.000000
20
-2250.000000
30
0.000000
11
2075.000000
21
-2250.000000
31
0.000000
40
34.000000
50
0.000000
1
COMPANY:
72
0
73
2
0
TEXT
8
0
39
10
62
136
10
2075.000000
20
-2400.000000
30
0.000000
11
2075.000000
21
-2400.000000
31
0.000000
40
34.000000
50
0.000000
1
COUNTRY:
72
0
73
2
0
TEXT
8
0
39
10
62
136
10
2550.000000
20
-2500.000000
30
0.000000
11
2550.000000
21
-2500.000000
31
0.000000
40
34.000000
50
0.000000
1
28.05.2011
72
0
73
2
0
TEXT
8
0
39
10
62
136
10
2575.000000
20
-2050.000000
30
0.000000
11
2575.000000
21
-2050.000000
31
0.000000
40
34.000000
50
0.000000
1
19.07.2011
72
0
73
2
0
TEXT
8
0
39
10
62
136
10
2375.000000
20
-2150.000000
30
0.000000
11
2375.000000
21
-2150.000000
31
0.000000
40
34.000000
50
0.000000
1
SIPM CONTROLLER DUO
72
0
73
2
0
TEXT
8
0
39
10
62
136
10
3175.000000
20
-2500.000000
30
0.000000
11
3175.000000
21
-2500.000000
31
0.000000
40
34.000000
50
0.000000
1
0
72
0
73
2
0
TEXT
8
0
39
10
62
136
10
3450.000000
20
-2500.000000
30
0.000000
11
3450.000000
21
-2500.000000
31
0.000000
40
34.000000
50
0.000000
1
4
72
0
73
2
0
TEXT
8
0
39
10
62
136
10
2225.000000
20
-2050.000000
30
0.000000
11
2225.000000
21
-2050.000000
31
0.000000
40
34.000000
50
0.000000
1
1.0
72
0
73
2
0
TEXT
8
0
39
10
62
136
10
2375.000000
20
-2250.000000
30
0.000000
11
2375.000000
21
-2250.000000
31
0.000000
40
34.000000
50
0.000000
1
III. PHHYSIKALISCHES  INST. B
72
0
73
2
0
TEXT
8
0
39
10
62
136
10
2375.000000
20
-2300.000000
30
0.000000
11
2375.000000
21
-2300.000000
31
0.000000
40
34.000000
50
0.000000
1
OTTO-BLUMENTHAL-STR.
72
0
73
2
0
TEXT
8
0
39
10
62
136
10
2375.000000
20
-2350.000000
30
0.000000
11
2375.000000
21
-2350.000000
31
0.000000
40
34.000000
50
0.000000
1
52074  AACHEN
72
0
73
2
0
TEXT
8
0
39
10
62
136
10
2375.000000
20
-2400.000000
30
0.000000
11
2375.000000
21
-2400.000000
31
0.000000
40
34.000000
50
0.000000
1
GERMANY
72
0
73
2
0
TEXT
8
0
39
10
62
136
10
3225.000000
20
-2050.000000
30
0.000000
11
3225.000000
21
-2050.000000
31
0.000000
40
34.000000
50
0.000000
1
F. BEIßEL
72
0
73
2
0
TEXT
8
0
39
10
62
136
10
2075.000000
20
-2350.000000
30
0.000000
11
2075.000000
21
-2350.000000
31
0.000000
40
34.000000
50
0.000000
1
CITY
72
0
73
2
0
TEXT
8
0
39
10
62
136
10
2075.000000
20
-2150.000000
30
0.000000
11
2075.000000
21
-2150.000000
31
0.000000
40
34.000000
50
0.000000
1
PROJECT:
72
0
73
2
0
TEXT
8
0
39
10
62
136
10
2075.000000
20
-2050.000000
30
0.000000
11
2075.000000
21
-2050.000000
31
0.000000
40
34.000000
50
0.000000
1
REV:
72
0
73
2
0
TEXT
8
0
39
10
62
136
10
2375.000000
20
-2050.000000
30
0.000000
11
2375.000000
21
-2050.000000
31
0.000000
40
34.000000
50
0.000000
1
DATE:
72
0
73
2
0
TEXT
8
0
39
10
62
136
10
3075.000000
20
-2050.000000
30
0.000000
11
3075.000000
21
-2050.000000
31
0.000000
40
34.000000
50
0.000000
1
ENG:
72
0
73
2
0
TEXT
8
0
39
10
62
136
10
2075.000000
20
-2300.000000
30
0.000000
11
2075.000000
21
-2300.000000
31
0.000000
40
34.000000
50
0.000000
1
ADDRESS:
72
0
73
2
0
TEXT
8
0
39
10
62
136
10
3405.000000
20
-2120.000000
30
0.000000
11
3405.000000
21
-2120.000000
31
0.000000
40
33.000000
50
0.000000
1
NO.
72
0
73
3
0
TEXT
8
0
39
10
62
136
10
3590.000000
20
-2125.000000
30
0.000000
11
3590.000000
21
-2125.000000
31
0.000000
40
33.000000
50
0.000000
1
911
72
0
73
3
0
TEXT
8
0
39
10
62
7
10
50.000000
20
-425.000000
30
0.000000
11
50.000000
21
-425.000000
31
0.000000
40
37.000000
50
0.000000
1
60MA @ 5,1V
72
0
73
0
0
TEXT
8
0
39
10
62
7
10
50.000000
20
-500.000000
30
0.000000
11
50.000000
21
-500.000000
31
0.000000
40
37.000000
50
0.000000
1
40MA @ -5,1V
72
0
73
0
0
TEXT
8
0
39
10
62
7
10
50.000000
20
-575.000000
30
0.000000
11
50.000000
21
-575.000000
31
0.000000
40
37.000000
50
0.000000
1
0,5MA @ 85V
72
0
73
0
0
TEXT
8
0
39
10
62
7
10
675.000000
20
-425.000000
30
0.000000
11
675.000000
21
-425.000000
31
0.000000
40
37.000000
50
0.000000
1
46MA@3,3V
72
0
73
0
0
TEXT
8
0
39
10
62
7
10
675.000000
20
-500.000000
30
0.000000
11
675.000000
21
-500.000000
31
0.000000
40
37.000000
50
0.000000
1
36MA@-3,3V
72
0
73
0
0
TEXT
8
0
39
10
62
7
10
675.000000
20
-350.000000
30
0.000000
11
675.000000
21
-350.000000
31
0.000000
40
37.000000
50
0.000000
1
~270MW@+/-3,3V
72
0
73
0
0
TEXT
8
0
39
10
62
7
10
50.000000
20
-350.000000
30
0.000000
11
50.000000
21
-350.000000
31
0.000000
40
37.000000
50
0.000000
1
~500MW@+/-5V
72
0
73
0
0
ENDSEC
0
EOF
