0
SECTION
2
HEADER
9
$EXTMIN
10
-3825.000000
20
-2625.000000
9
$EXTMAX
10
3843.000000
20
2621.000000
0
ENDSEC
0
SECTION
2
TABLES
0
TABLE
2
LTYPE
70
4
0
LTYPE
2
CONTINUOUS
70
64
3
Solid line
72
65
73
0
40
0.0
0
LTYPE
2
DASHED
70
64
3
Dashed line
72
65
73
2
40
0.8
49
0.5
49
-0.3
0
LTYPE
2
DOT
70
64
3
Dotted line
72
65
73
2
40
0.2
49
0.1
49
-0.1
0
LTYPE
2
DASHDOT
70
64
3
Dotted line
72
65
73
4
40
1
49
0.5
49
-0.2
49
0.1
49
-0.2
0
LTYPE
2
SMALLDOT
70
64
3
Small dotted
72
65
73
2
40
0.1
49
0
49
-0.1
0
LTYPE
2
CENTER
70
64
3
Centerline
72
65
73
4
40
1.1
49
0.8
49
-0.1
49
0.1
49
-0.1
0
ENDTAB
0
TABLE
2
STYLE
70
2
0
STYLE
2
STANDARD
70
64
40
0
41
1
50
0
71
0
3
TXT
42
1
4
 
0
STYLE
2
ROMAN
70
64
40
0
41
1
50
0
71
0
3
ROMANS.SHX
42
1
4
 
0
STYLE
2
TECHNIC
70
64
40
0
41
1
50
0
71
0
3
te______.pfb
42
1
4
 
0
STYLE
2
BLUEPRINT
70
64
40
0
41
1
50
0
71
0
3
cibt____.pfb
42
1
4
 
0
ENDTAB
0
TABLE
2
LAYER
70
1
0
LAYER
2
0
70
0
62
7
6
CONTINUOUS
0
LAYER
2
1
70
0
62
7
6
DASHED
0
LAYER
2
2
70
0
62
7
6
DASHDOT
0
LAYER
2
3
70
0
62
7
6
DOT
0
LAYER
2
4
70
0
62
3
6
CONTINUOUS
0
ENDTAB
0
TABLE
2
VIEW
70
0
0
ENDTAB
0
ENDSEC
0
SECTION
2
ENTITIES
0
LINE
8
0
39
4
62
216
10
-2075.000000
20
1750.000000
30
0.000000
11
-2030.000000
21
1750.000000
31
0.000000
0
LINE
8
0
39
4
62
216
10
-2050.000000
20
1750.000000
30
0.000000
11
-2075.000000
21
1705.000000
31
0.000000
0
LINE
8
0
39
4
62
216
10
-2030.000000
20
1750.000000
30
0.000000
11
-2025.000000
21
1750.000000
31
0.000000
0
LINE
8
0
39
4
62
216
10
-2050.000000
20
1750.000000
30
0.000000
11
-2050.000000
21
1775.000000
31
0.000000
0
LINE
8
0
39
4
62
216
10
-2050.000000
20
1675.000000
30
0.000000
11
-2050.000000
21
1705.000000
31
0.000000
0
LINE
8
0
39
4
62
216
10
-2050.000000
20
1750.000000
30
0.000000
11
-2025.000000
21
1705.000000
31
0.000000
0
LINE
8
0
39
4
62
216
10
-2075.000000
20
1705.000000
30
0.000000
11
-2025.000000
21
1705.000000
31
0.000000
0
POLYLINE
8
0
40
1.000000
41
1.000000
66
1
62
136
10
0
20
0
30
0
70
0
0
VERTEX
8
0
10
-2050.000000
20
1675.000000
30
0.000000
0
VERTEX
8
0
10
-2050.000000
20
1625.000000
30
0.000000
0
SEQEND
0
POLYLINE
8
0
40
1.000000
41
1.000000
66
1
62
136
10
0
20
0
30
0
70
0
0
VERTEX
8
0
10
-2050.000000
20
1775.000000
30
0.000000
0
VERTEX
8
0
10
-2050.000000
20
1825.000000
30
0.000000
0
SEQEND
0
POLYLINE
8
0
40
1.000000
41
1.000000
66
1
62
136
10
0
20
0
30
0
70
0
0
VERTEX
8
0
10
-2000.000000
20
1725.000000
30
0.000000
0
VERTEX
8
0
10
-1950.000000
20
1725.000000
30
0.000000
0
SEQEND
0
ARC
8
0
39
0
62
216
10
-2050.000000
20
1725.000000
30
0.000000
40
50.000000
50
-90.000000
51
-90.000000
0
TEXT
8
0
39
10
62
2
10
-2155.000000
20
1645.000000
30
0.000000
11
-2155.000000
21
1645.000000
31
0.000000
40
37.000000
50
0.000000
1
D2
72
0
73
0
0
TEXT
8
0
39
10
62
96
10
-2035.000000
20
1645.000000
30
0.000000
11
-2035.000000
21
1645.000000
31
0.000000
40
33.000000
50
0.000000
1
A
72
0
73
2
0
TEXT
8
0
39
10
62
96
10
-2005.000000
20
1806.000000
30
0.000000
11
-2005.000000
21
1806.000000
31
0.000000
40
33.000000
50
0.000000
1
K
72
2
73
2
0
TEXT
8
0
39
10
62
96
10
-1930.000000
20
1756.000000
30
0.000000
11
-1930.000000
21
1756.000000
31
0.000000
40
33.000000
50
0.000000
1
CA
72
2
73
2
0
POLYLINE
8
0
40
1.000000
41
1.000000
66
1
62
216
10
0
20
0
30
0
70
1
0
VERTEX
8
0
10
-1100.000000
20
-2364.000000
30
0.000000
0
VERTEX
8
0
10
-1100.000000
20
-2376.000000
30
0.000000
0
VERTEX
8
0
10
-1000.000000
20
-2376.000000
30
0.000000
0
VERTEX
8
0
10
-1000.000000
20
-2364.000000
30
0.000000
0
VERTEX
8
0
10
-1100.000000
20
-2364.000000
30
0.000000
0
SEQEND
0
POLYLINE
8
0
40
1.000000
41
1.000000
66
1
62
216
10
0
20
0
30
0
70
1
0
VERTEX
8
0
10
-1100.000000
20
-2334.000000
30
0.000000
0
VERTEX
8
0
10
-1100.000000
20
-2346.000000
30
0.000000
0
VERTEX
8
0
10
-1000.000000
20
-2346.000000
30
0.000000
0
VERTEX
8
0
10
-1000.000000
20
-2334.000000
30
0.000000
0
VERTEX
8
0
10
-1100.000000
20
-2334.000000
30
0.000000
0
SEQEND
0
POLYLINE
8
0
40
1.000000
41
1.000000
66
1
62
136
10
0
20
0
30
0
70
0
0
VERTEX
8
0
10
-1050.000000
20
-2335.000000
30
0.000000
0
VERTEX
8
0
10
-1050.000000
20
-2250.000000
30
0.000000
0
SEQEND
0
POLYLINE
8
0
40
1.000000
41
1.000000
66
1
62
136
10
0
20
0
30
0
70
0
0
VERTEX
8
0
10
-1050.000000
20
-2378.000000
30
0.000000
0
VERTEX
8
0
10
-1050.000000
20
-2450.000000
30
0.000000
0
SEQEND
0
TEXT
8
0
39
10
62
2
10
-1050.000000
20
-2275.000000
30
0.000000
11
-1050.000000
21
-2275.000000
31
0.000000
40
33.000000
50
0.000000
1
C13
72
2
73
3
0
TEXT
8
0
39
10
62
2
10
-925.000000
20
-2375.000000
30
0.000000
11
-925.000000
21
-2375.000000
31
0.000000
40
34.000000
50
0.000000
1
100nF
72
2
73
3
0
POLYLINE
8
0
40
1.000000
41
1.000000
66
1
62
216
10
0
20
0
30
0
70
1
0
VERTEX
8
0
10
-925.000000
20
-2364.000000
30
0.000000
0
VERTEX
8
0
10
-925.000000
20
-2376.000000
30
0.000000
0
VERTEX
8
0
10
-825.000000
20
-2376.000000
30
0.000000
0
VERTEX
8
0
10
-825.000000
20
-2364.000000
30
0.000000
0
VERTEX
8
0
10
-925.000000
20
-2364.000000
30
0.000000
0
SEQEND
0
POLYLINE
8
0
40
1.000000
41
1.000000
66
1
62
216
10
0
20
0
30
0
70
1
0
VERTEX
8
0
10
-925.000000
20
-2334.000000
30
0.000000
0
VERTEX
8
0
10
-925.000000
20
-2346.000000
30
0.000000
0
VERTEX
8
0
10
-825.000000
20
-2346.000000
30
0.000000
0
VERTEX
8
0
10
-825.000000
20
-2334.000000
30
0.000000
0
VERTEX
8
0
10
-925.000000
20
-2334.000000
30
0.000000
0
SEQEND
0
POLYLINE
8
0
40
1.000000
41
1.000000
66
1
62
136
10
0
20
0
30
0
70
0
0
VERTEX
8
0
10
-875.000000
20
-2335.000000
30
0.000000
0
VERTEX
8
0
10
-875.000000
20
-2250.000000
30
0.000000
0
SEQEND
0
POLYLINE
8
0
40
1.000000
41
1.000000
66
1
62
136
10
0
20
0
30
0
70
0
0
VERTEX
8
0
10
-875.000000
20
-2378.000000
30
0.000000
0
VERTEX
8
0
10
-875.000000
20
-2450.000000
30
0.000000
0
SEQEND
0
TEXT
8
0
39
10
62
2
10
-875.000000
20
-2275.000000
30
0.000000
11
-875.000000
21
-2275.000000
31
0.000000
40
33.000000
50
0.000000
1
C14
72
2
73
3
0
TEXT
8
0
39
10
62
2
10
-750.000000
20
-2375.000000
30
0.000000
11
-750.000000
21
-2375.000000
31
0.000000
40
34.000000
50
0.000000
1
100nF
72
2
73
3
0
POLYLINE
8
0
40
1.000000
41
1.000000
66
1
62
216
10
0
20
0
30
0
70
1
0
VERTEX
8
0
10
-2375.000000
20
1511.000000
30
0.000000
0
VERTEX
8
0
10
-2375.000000
20
1499.000000
30
0.000000
0
VERTEX
8
0
10
-2275.000000
20
1499.000000
30
0.000000
0
VERTEX
8
0
10
-2275.000000
20
1511.000000
30
0.000000
0
VERTEX
8
0
10
-2375.000000
20
1511.000000
30
0.000000
0
SEQEND
0
POLYLINE
8
0
40
1.000000
41
1.000000
66
1
62
216
10
0
20
0
30
0
70
1
0
VERTEX
8
0
10
-2375.000000
20
1541.000000
30
0.000000
0
VERTEX
8
0
10
-2375.000000
20
1529.000000
30
0.000000
0
VERTEX
8
0
10
-2275.000000
20
1529.000000
30
0.000000
0
VERTEX
8
0
10
-2275.000000
20
1541.000000
30
0.000000
0
VERTEX
8
0
10
-2375.000000
20
1541.000000
30
0.000000
0
SEQEND
0
POLYLINE
8
0
40
1.000000
41
1.000000
66
1
62
136
10
0
20
0
30
0
70
0
0
VERTEX
8
0
10
-2325.000000
20
1540.000000
30
0.000000
0
VERTEX
8
0
10
-2325.000000
20
1625.000000
30
0.000000
0
SEQEND
0
POLYLINE
8
0
40
1.000000
41
1.000000
66
1
62
136
10
0
20
0
30
0
70
0
0
VERTEX
8
0
10
-2325.000000
20
1497.000000
30
0.000000
0
VERTEX
8
0
10
-2325.000000
20
1425.000000
30
0.000000
0
SEQEND
0
TEXT
8
0
39
10
62
2
10
-2325.000000
20
1600.000000
30
0.000000
11
-2325.000000
21
1600.000000
31
0.000000
40
33.000000
50
0.000000
1
C7
72
2
73
3
0
TEXT
8
0
39
10
62
2
10
-2325.000000
20
1500.000000
30
0.000000
11
-2325.000000
21
1500.000000
31
0.000000
40
34.000000
50
0.000000
1
22nF/100V
72
2
73
3
0
POLYLINE
8
0
40
4.000000
41
4.000000
66
1
62
216
10
0
20
0
30
0
70
0
0
VERTEX
8
0
10
-1650.000000
20
1375.000000
30
0.000000
0
VERTEX
8
0
10
-1650.000000
20
1425.000000
30
0.000000
0
VERTEX
8
0
10
-1800.000000
20
1425.000000
30
0.000000
0
VERTEX
8
0
10
-1800.000000
20
1375.000000
30
0.000000
0
VERTEX
8
0
10
-1650.000000
20
1375.000000
30
0.000000
0
SEQEND
0
POLYLINE
8
0
40
1.000000
41
1.000000
66
1
62
136
10
0
20
0
30
0
70
0
0
VERTEX
8
0
10
-1650.000000
20
1400.000000
30
0.000000
0
VERTEX
8
0
10
-1600.000000
20
1400.000000
30
0.000000
0
SEQEND
0
POLYLINE
8
0
40
1.000000
41
1.000000
66
1
62
136
10
0
20
0
30
0
70
0
0
VERTEX
8
0
10
-1800.000000
20
1400.000000
30
0.000000
0
VERTEX
8
0
10
-1850.000000
20
1400.000000
30
0.000000
0
SEQEND
0
TEXT
8
0
39
10
62
2
10
-1700.000000
20
1425.000000
30
0.000000
11
-1700.000000
21
1425.000000
31
0.000000
40
33.000000
50
0.000000
1
R13
72
2
73
0
0
TEXT
8
0
39
10
62
2
10
-1725.000000
20
1401.000000
30
0.000000
11
-1725.000000
21
1401.000000
31
0.000000
40
34.000000
50
0.000000
1
10
72
1
73
2
0
POLYLINE
8
0
40
4.000000
41
4.000000
66
1
62
216
10
0
20
0
30
0
70
0
0
VERTEX
8
0
10
-1225.000000
20
1375.000000
30
0.000000
0
VERTEX
8
0
10
-1225.000000
20
1425.000000
30
0.000000
0
VERTEX
8
0
10
-1375.000000
20
1425.000000
30
0.000000
0
VERTEX
8
0
10
-1375.000000
20
1375.000000
30
0.000000
0
VERTEX
8
0
10
-1225.000000
20
1375.000000
30
0.000000
0
SEQEND
0
POLYLINE
8
0
40
1.000000
41
1.000000
66
1
62
136
10
0
20
0
30
0
70
0
0
VERTEX
8
0
10
-1225.000000
20
1400.000000
30
0.000000
0
VERTEX
8
0
10
-1175.000000
20
1400.000000
30
0.000000
0
SEQEND
0
POLYLINE
8
0
40
1.000000
41
1.000000
66
1
62
136
10
0
20
0
30
0
70
0
0
VERTEX
8
0
10
-1375.000000
20
1400.000000
30
0.000000
0
VERTEX
8
0
10
-1425.000000
20
1400.000000
30
0.000000
0
SEQEND
0
TEXT
8
0
39
10
62
2
10
-1275.000000
20
1425.000000
30
0.000000
11
-1275.000000
21
1425.000000
31
0.000000
40
33.000000
50
0.000000
1
R14
72
2
73
0
0
TEXT
8
0
39
10
62
2
10
-1300.000000
20
1401.000000
30
0.000000
11
-1300.000000
21
1401.000000
31
0.000000
40
34.000000
50
0.000000
1
1K
72
1
73
2
0
POLYLINE
8
0
40
4.000000
41
4.000000
66
1
62
216
10
0
20
0
30
0
70
0
0
VERTEX
8
0
10
-2025.000000
20
1275.000000
30
0.000000
0
VERTEX
8
0
10
-2075.000000
20
1275.000000
30
0.000000
0
VERTEX
8
0
10
-2075.000000
20
1125.000000
30
0.000000
0
VERTEX
8
0
10
-2025.000000
20
1125.000000
30
0.000000
0
VERTEX
8
0
10
-2025.000000
20
1275.000000
30
0.000000
0
SEQEND
0
POLYLINE
8
0
40
1.000000
41
1.000000
66
1
62
136
10
0
20
0
30
0
70
0
0
VERTEX
8
0
10
-2050.000000
20
1275.000000
30
0.000000
0
VERTEX
8
0
10
-2050.000000
20
1325.000000
30
0.000000
0
SEQEND
0
POLYLINE
8
0
40
1.000000
41
1.000000
66
1
62
136
10
0
20
0
30
0
70
0
0
VERTEX
8
0
10
-2050.000000
20
1125.000000
30
0.000000
0
VERTEX
8
0
10
-2050.000000
20
1075.000000
30
0.000000
0
SEQEND
0
TEXT
8
0
39
10
62
2
10
-2075.000000
20
1250.000000
30
0.000000
11
-2075.000000
21
1250.000000
31
0.000000
40
33.000000
50
90.000000
1
R15
72
2
73
0
0
TEXT
8
0
39
10
62
2
10
-2051.000000
20
1200.000000
30
0.000000
11
-2051.000000
21
1200.000000
31
0.000000
40
34.000000
50
90.000000
1
10K
72
1
73
2
0
POLYLINE
8
0
40
4.000000
41
4.000000
66
1
62
216
10
0
20
0
30
0
70
0
0
VERTEX
8
0
10
-725.000000
20
1275.000000
30
0.000000
0
VERTEX
8
0
10
-725.000000
20
1325.000000
30
0.000000
0
VERTEX
8
0
10
-875.000000
20
1325.000000
30
0.000000
0
VERTEX
8
0
10
-875.000000
20
1275.000000
30
0.000000
0
VERTEX
8
0
10
-725.000000
20
1275.000000
30
0.000000
0
SEQEND
0
POLYLINE
8
0
40
1.000000
41
1.000000
66
1
62
136
10
0
20
0
30
0
70
0
0
VERTEX
8
0
10
-725.000000
20
1300.000000
30
0.000000
0
VERTEX
8
0
10
-675.000000
20
1300.000000
30
0.000000
0
SEQEND
0
POLYLINE
8
0
40
1.000000
41
1.000000
66
1
62
136
10
0
20
0
30
0
70
0
0
VERTEX
8
0
10
-875.000000
20
1300.000000
30
0.000000
0
VERTEX
8
0
10
-925.000000
20
1300.000000
30
0.000000
0
SEQEND
0
TEXT
8
0
39
10
62
2
10
-775.000000
20
1325.000000
30
0.000000
11
-775.000000
21
1325.000000
31
0.000000
40
33.000000
50
0.000000
1
R16
72
2
73
0
0
TEXT
8
0
39
10
62
2
10
-800.000000
20
1301.000000
30
0.000000
11
-800.000000
21
1301.000000
31
0.000000
40
34.000000
50
0.000000
1
100
72
1
73
2
0
POLYLINE
8
0
40
4.000000
41
4.000000
66
1
62
136
10
0
20
0
30
0
70
0
0
VERTEX
8
0
10
-3550.000000
20
-2226.000000
30
0.000000
0
VERTEX
8
0
10
-3576.000000
20
-2250.000000
30
0.000000
0
VERTEX
8
0
10
-3550.000000
20
-2276.000000
30
0.000000
0
SEQEND
0
POLYLINE
8
0
40
4.000000
41
4.000000
66
1
62
136
10
0
20
0
30
0
70
0
0
VERTEX
8
0
10
-3526.000000
20
-2276.000000
30
0.000000
0
VERTEX
8
0
10
-3500.000000
20
-2250.000000
30
0.000000
0
VERTEX
8
0
10
-3526.000000
20
-2226.000000
30
0.000000
0
SEQEND
0
POLYLINE
8
0
40
10.000000
41
10.000000
66
1
62
136
10
0
20
0
30
0
70
0
0
VERTEX
8
0
10
-3500.000000
20
-2250.000000
30
0.000000
0
VERTEX
8
0
10
-3450.000000
20
-2250.000000
30
0.000000
0
SEQEND
0
TEXT
8
0
39
10
62
96
10
-3600.000000
20
-2250.000000
30
0.000000
11
-3600.000000
21
-2250.000000
31
0.000000
40
33.000000
50
0.000000
1
POWER
72
2
73
2
0
POLYLINE
8
0
40
4.000000
41
4.000000
66
1
62
136
10
0
20
0
30
0
70
0
0
VERTEX
8
0
10
-2550.000000
20
-2226.000000
30
0.000000
0
VERTEX
8
0
10
-2576.000000
20
-2250.000000
30
0.000000
0
VERTEX
8
0
10
-2550.000000
20
-2276.000000
30
0.000000
0
SEQEND
0
POLYLINE
8
0
40
4.000000
41
4.000000
66
1
62
136
10
0
20
0
30
0
70
0
0
VERTEX
8
0
10
-2526.000000
20
-2276.000000
30
0.000000
0
VERTEX
8
0
10
-2500.000000
20
-2250.000000
30
0.000000
0
VERTEX
8
0
10
-2526.000000
20
-2226.000000
30
0.000000
0
SEQEND
0
POLYLINE
8
0
40
10.000000
41
10.000000
66
1
62
136
10
0
20
0
30
0
70
0
0
VERTEX
8
0
10
-2500.000000
20
-2250.000000
30
0.000000
0
VERTEX
8
0
10
-2450.000000
20
-2250.000000
30
0.000000
0
SEQEND
0
TEXT
8
0
39
10
62
96
10
-2600.000000
20
-2250.000000
30
0.000000
11
-2600.000000
21
-2250.000000
31
0.000000
40
33.000000
50
0.000000
1
CONTROL
72
2
73
2
0
LINE
8
0
39
4
62
216
10
-1350.000000
20
1775.000000
30
0.000000
11
-1350.000000
21
1575.000000
31
0.000000
0
LINE
8
0
39
4
62
216
10
-1350.000000
20
1775.000000
30
0.000000
11
-1150.000000
21
1675.000000
31
0.000000
0
LINE
8
0
39
4
62
216
10
-1150.000000
20
1675.000000
30
0.000000
11
-1350.000000
21
1575.000000
31
0.000000
0
LINE
8
0
39
4
62
216
10
-1300.000000
20
1825.000000
30
0.000000
11
-1300.000000
21
1750.000000
31
0.000000
0
LINE
8
0
39
4
62
216
10
-1200.000000
20
1775.000000
30
0.000000
11
-1200.000000
21
1700.000000
31
0.000000
0
LINE
8
0
39
4
62
216
10
-1200.000000
20
1575.000000
30
0.000000
11
-1200.000000
21
1650.000000
31
0.000000
0
POLYLINE
8
0
40
1.000000
41
1.000000
66
1
62
136
10
0
20
0
30
0
70
0
0
VERTEX
8
0
10
-1200.000000
20
1775.000000
30
0.000000
0
VERTEX
8
0
10
-1200.000000
20
1850.000000
30
0.000000
0
SEQEND
0
POLYLINE
8
0
40
1.000000
41
1.000000
66
1
62
136
10
0
20
0
30
0
70
0
0
VERTEX
8
0
10
-1200.000000
20
1575.000000
30
0.000000
0
VERTEX
8
0
10
-1200.000000
20
1525.000000
30
0.000000
0
SEQEND
0
POLYLINE
8
0
40
1.000000
41
1.000000
66
1
62
136
10
0
20
0
30
0
70
0
0
VERTEX
8
0
10
-1150.000000
20
1675.000000
30
0.000000
0
VERTEX
8
0
10
-1100.000000
20
1675.000000
30
0.000000
0
SEQEND
0
POLYLINE
8
0
40
1.000000
41
1.000000
66
1
62
136
10
0
20
0
30
0
70
0
0
VERTEX
8
0
10
-1350.000000
20
1625.000000
30
0.000000
0
VERTEX
8
0
10
-1400.000000
20
1625.000000
30
0.000000
0
SEQEND
0
POLYLINE
8
0
40
1.000000
41
1.000000
66
1
62
136
10
0
20
0
30
0
70
0
0
VERTEX
8
0
10
-1350.000000
20
1725.000000
30
0.000000
0
VERTEX
8
0
10
-1400.000000
20
1725.000000
30
0.000000
0
SEQEND
0
POLYLINE
8
0
40
1.000000
41
1.000000
66
1
62
136
10
0
20
0
30
0
70
0
0
VERTEX
8
0
10
-1300.000000
20
1825.000000
30
0.000000
0
VERTEX
8
0
10
-1300.000000
20
1850.000000
30
0.000000
0
SEQEND
0
TEXT
8
0
39
10
62
2
10
-1375.000000
20
1500.000000
30
0.000000
11
-1375.000000
21
1500.000000
31
0.000000
40
37.000000
50
0.000000
1
U4A
72
0
73
0
0
TEXT
8
0
39
10
62
7
10
-1175.000000
20
1750.000000
30
0.000000
11
-1175.000000
21
1750.000000
31
0.000000
40
37.000000
50
0.000000
1
MAX4228EUB
72
0
73
0
0
TEXT
8
0
39
10
62
136
10
-1200.000000
20
1775.000000
30
0.000000
11
-1200.000000
21
1775.000000
31
0.000000
40
33.000000
50
0.000000
1
10
72
2
73
0
0
TEXT
8
0
39
10
62
136
10
-1225.000000
20
1525.000000
30
0.000000
11
-1225.000000
21
1525.000000
31
0.000000
40
33.000000
50
0.000000
1
4
72
0
73
0
0
TEXT
8
0
39
10
62
136
10
-1100.000000
20
1675.000000
30
0.000000
11
-1100.000000
21
1675.000000
31
0.000000
40
33.000000
50
0.000000
1
1
72
2
73
0
0
TEXT
8
0
39
10
62
136
10
-1400.000000
20
1625.000000
30
0.000000
11
-1400.000000
21
1625.000000
31
0.000000
40
33.000000
50
0.000000
1
2
72
0
73
0
0
TEXT
8
0
39
10
62
96
10
-1325.000000
20
1625.000000
30
0.000000
11
-1325.000000
21
1625.000000
31
0.000000
40
33.000000
50
0.000000
1
-
72
0
73
2
0
TEXT
8
0
39
10
62
136
10
-1400.000000
20
1725.000000
30
0.000000
11
-1400.000000
21
1725.000000
31
0.000000
40
33.000000
50
0.000000
1
3
72
0
73
0
0
TEXT
8
0
39
10
62
96
10
-1325.000000
20
1725.000000
30
0.000000
11
-1325.000000
21
1725.000000
31
0.000000
40
33.000000
50
0.000000
1
+
72
0
73
2
0
TEXT
8
0
39
10
62
136
10
-1325.000000
20
1800.000000
30
0.000000
11
-1325.000000
21
1800.000000
31
0.000000
40
33.000000
50
0.000000
1
5
72
0
73
0
0
LINE
8
0
39
4
62
216
10
-575.000000
20
1725.000000
30
0.000000
11
-575.000000
21
1525.000000
31
0.000000
0
LINE
8
0
39
4
62
216
10
-575.000000
20
1725.000000
30
0.000000
11
-375.000000
21
1625.000000
31
0.000000
0
LINE
8
0
39
4
62
216
10
-375.000000
20
1625.000000
30
0.000000
11
-575.000000
21
1525.000000
31
0.000000
0
LINE
8
0
39
4
62
216
10
-525.000000
20
1775.000000
30
0.000000
11
-525.000000
21
1700.000000
31
0.000000
0
LINE
8
0
39
4
62
216
10
-425.000000
20
1725.000000
30
0.000000
11
-425.000000
21
1650.000000
31
0.000000
0
LINE
8
0
39
4
62
216
10
-425.000000
20
1525.000000
30
0.000000
11
-425.000000
21
1600.000000
31
0.000000
0
POLYLINE
8
0
40
1.000000
41
1.000000
66
1
62
136
10
0
20
0
30
0
70
0
0
VERTEX
8
0
10
-425.000000
20
1725.000000
30
0.000000
0
VERTEX
8
0
10
-425.000000
20
1800.000000
30
0.000000
0
SEQEND
0
POLYLINE
8
0
40
1.000000
41
1.000000
66
1
62
136
10
0
20
0
30
0
70
0
0
VERTEX
8
0
10
-425.000000
20
1525.000000
30
0.000000
0
VERTEX
8
0
10
-425.000000
20
1475.000000
30
0.000000
0
SEQEND
0
POLYLINE
8
0
40
1.000000
41
1.000000
66
1
62
136
10
0
20
0
30
0
70
0
0
VERTEX
8
0
10
-375.000000
20
1625.000000
30
0.000000
0
VERTEX
8
0
10
-325.000000
20
1625.000000
30
0.000000
0
SEQEND
0
POLYLINE
8
0
40
1.000000
41
1.000000
66
1
62
136
10
0
20
0
30
0
70
0
0
VERTEX
8
0
10
-575.000000
20
1575.000000
30
0.000000
0
VERTEX
8
0
10
-625.000000
20
1575.000000
30
0.000000
0
SEQEND
0
POLYLINE
8
0
40
1.000000
41
1.000000
66
1
62
136
10
0
20
0
30
0
70
0
0
VERTEX
8
0
10
-575.000000
20
1675.000000
30
0.000000
0
VERTEX
8
0
10
-625.000000
20
1675.000000
30
0.000000
0
SEQEND
0
POLYLINE
8
0
40
1.000000
41
1.000000
66
1
62
136
10
0
20
0
30
0
70
0
0
VERTEX
8
0
10
-525.000000
20
1775.000000
30
0.000000
0
VERTEX
8
0
10
-525.000000
20
1800.000000
30
0.000000
0
SEQEND
0
TEXT
8
0
39
10
62
2
10
-600.000000
20
1450.000000
30
0.000000
11
-600.000000
21
1450.000000
31
0.000000
40
37.000000
50
0.000000
1
U4B
72
0
73
0
0
TEXT
8
0
39
10
62
136
10
-425.000000
20
1725.000000
30
0.000000
11
-425.000000
21
1725.000000
31
0.000000
40
33.000000
50
0.000000
1
10
72
2
73
0
0
TEXT
8
0
39
10
62
136
10
-450.000000
20
1475.000000
30
0.000000
11
-450.000000
21
1475.000000
31
0.000000
40
33.000000
50
0.000000
1
4
72
0
73
0
0
TEXT
8
0
39
10
62
136
10
-325.000000
20
1625.000000
30
0.000000
11
-325.000000
21
1625.000000
31
0.000000
40
33.000000
50
0.000000
1
9
72
2
73
0
0
TEXT
8
0
39
10
62
136
10
-625.000000
20
1575.000000
30
0.000000
11
-625.000000
21
1575.000000
31
0.000000
40
33.000000
50
0.000000
1
8
72
0
73
0
0
TEXT
8
0
39
10
62
96
10
-550.000000
20
1575.000000
30
0.000000
11
-550.000000
21
1575.000000
31
0.000000
40
33.000000
50
0.000000
1
-
72
0
73
2
0
TEXT
8
0
39
10
62
136
10
-625.000000
20
1675.000000
30
0.000000
11
-625.000000
21
1675.000000
31
0.000000
40
33.000000
50
0.000000
1
7
72
0
73
0
0
TEXT
8
0
39
10
62
96
10
-550.000000
20
1675.000000
30
0.000000
11
-550.000000
21
1675.000000
31
0.000000
40
33.000000
50
0.000000
1
+
72
0
73
2
0
TEXT
8
0
39
10
62
136
10
-550.000000
20
1750.000000
30
0.000000
11
-550.000000
21
1750.000000
31
0.000000
40
33.000000
50
0.000000
1
6
72
0
73
0
0
POLYLINE
8
0
40
4.000000
41
4.000000
66
1
62
216
10
0
20
0
30
0
70
0
0
VERTEX
8
0
10
-400.000000
20
1275.000000
30
0.000000
0
VERTEX
8
0
10
-400.000000
20
1325.000000
30
0.000000
0
VERTEX
8
0
10
-550.000000
20
1325.000000
30
0.000000
0
VERTEX
8
0
10
-550.000000
20
1275.000000
30
0.000000
0
VERTEX
8
0
10
-400.000000
20
1275.000000
30
0.000000
0
SEQEND
0
POLYLINE
8
0
40
1.000000
41
1.000000
66
1
62
136
10
0
20
0
30
0
70
0
0
VERTEX
8
0
10
-400.000000
20
1300.000000
30
0.000000
0
VERTEX
8
0
10
-350.000000
20
1300.000000
30
0.000000
0
SEQEND
0
POLYLINE
8
0
40
1.000000
41
1.000000
66
1
62
136
10
0
20
0
30
0
70
0
0
VERTEX
8
0
10
-550.000000
20
1300.000000
30
0.000000
0
VERTEX
8
0
10
-600.000000
20
1300.000000
30
0.000000
0
SEQEND
0
TEXT
8
0
39
10
62
2
10
-450.000000
20
1325.000000
30
0.000000
11
-450.000000
21
1325.000000
31
0.000000
40
33.000000
50
0.000000
1
R17
72
2
73
0
0
TEXT
8
0
39
10
62
2
10
-475.000000
20
1301.000000
30
0.000000
11
-475.000000
21
1301.000000
31
0.000000
40
34.000000
50
0.000000
1
470
72
1
73
2
0
POLYLINE
8
0
40
4.000000
41
4.000000
66
1
62
216
10
0
20
0
30
0
70
0
0
VERTEX
8
0
10
275.000000
20
1600.000000
30
0.000000
0
VERTEX
8
0
10
275.000000
20
1650.000000
30
0.000000
0
VERTEX
8
0
10
125.000000
20
1650.000000
30
0.000000
0
VERTEX
8
0
10
125.000000
20
1600.000000
30
0.000000
0
VERTEX
8
0
10
275.000000
20
1600.000000
30
0.000000
0
SEQEND
0
POLYLINE
8
0
40
1.000000
41
1.000000
66
1
62
136
10
0
20
0
30
0
70
0
0
VERTEX
8
0
10
275.000000
20
1625.000000
30
0.000000
0
VERTEX
8
0
10
325.000000
20
1625.000000
30
0.000000
0
SEQEND
0
POLYLINE
8
0
40
1.000000
41
1.000000
66
1
62
136
10
0
20
0
30
0
70
0
0
VERTEX
8
0
10
125.000000
20
1625.000000
30
0.000000
0
VERTEX
8
0
10
75.000000
20
1625.000000
30
0.000000
0
SEQEND
0
TEXT
8
0
39
10
62
2
10
225.000000
20
1650.000000
30
0.000000
11
225.000000
21
1650.000000
31
0.000000
40
33.000000
50
0.000000
1
R12
72
2
73
0
0
TEXT
8
0
39
10
62
2
10
200.000000
20
1626.000000
30
0.000000
11
200.000000
21
1626.000000
31
0.000000
40
34.000000
50
0.000000
1
47
72
1
73
2
0
POLYLINE
8
0
40
1.000000
41
1.000000
66
1
62
216
10
0
20
0
30
0
70
1
0
VERTEX
8
0
10
-89.000000
20
1675.000000
30
0.000000
0
VERTEX
8
0
10
-101.000000
20
1675.000000
30
0.000000
0
VERTEX
8
0
10
-101.000000
20
1575.000000
30
0.000000
0
VERTEX
8
0
10
-89.000000
20
1575.000000
30
0.000000
0
VERTEX
8
0
10
-89.000000
20
1675.000000
30
0.000000
0
SEQEND
0
POLYLINE
8
0
40
1.000000
41
1.000000
66
1
62
216
10
0
20
0
30
0
70
1
0
VERTEX
8
0
10
-59.000000
20
1675.000000
30
0.000000
0
VERTEX
8
0
10
-71.000000
20
1675.000000
30
0.000000
0
VERTEX
8
0
10
-71.000000
20
1575.000000
30
0.000000
0
VERTEX
8
0
10
-59.000000
20
1575.000000
30
0.000000
0
VERTEX
8
0
10
-59.000000
20
1675.000000
30
0.000000
0
SEQEND
0
POLYLINE
8
0
40
1.000000
41
1.000000
66
1
62
136
10
0
20
0
30
0
70
0
0
VERTEX
8
0
10
-60.000000
20
1625.000000
30
0.000000
0
VERTEX
8
0
10
25.000000
20
1625.000000
30
0.000000
0
SEQEND
0
POLYLINE
8
0
40
1.000000
41
1.000000
66
1
62
136
10
0
20
0
30
0
70
0
0
VERTEX
8
0
10
-103.000000
20
1625.000000
30
0.000000
0
VERTEX
8
0
10
-175.000000
20
1625.000000
30
0.000000
0
SEQEND
0
TEXT
8
0
39
10
62
2
10
-25.000000
20
1625.000000
30
0.000000
11
-25.000000
21
1625.000000
31
0.000000
40
33.000000
50
0.000000
1
C8
72
0
73
0
0
TEXT
8
0
39
10
62
2
10
-225.000000
20
1625.000000
30
0.000000
11
-225.000000
21
1625.000000
31
0.000000
40
34.000000
50
0.000000
1
100nF
72
0
73
0
0
POLYLINE
8
0
40
4.000000
41
4.000000
66
1
62
216
10
0
20
0
30
0
70
0
0
VERTEX
8
0
10
501.000000
20
1625.000000
30
0.000000
0
VERTEX
8
0
10
401.000000
20
1625.000000
30
0.000000
0
SEQEND
0
POLYLINE
8
0
40
1.000000
41
1.000000
66
1
62
136
10
0
20
0
30
0
70
0
0
VERTEX
8
0
10
310.000000
20
1615.000000
30
0.000000
0
VERTEX
8
0
10
300.000000
20
1625.000000
30
0.000000
0
VERTEX
8
0
10
310.000000
20
1635.000000
30
0.000000
0
SEQEND
0
POLYLINE
8
0
40
1.000000
41
1.000000
66
1
62
136
10
0
20
0
30
0
70
0
0
VERTEX
8
0
10
320.000000
20
1615.000000
30
0.000000
0
VERTEX
8
0
10
330.000000
20
1625.000000
30
0.000000
0
VERTEX
8
0
10
320.000000
20
1635.000000
30
0.000000
0
SEQEND
0
POLYLINE
8
0
40
1.000000
41
1.000000
66
1
62
136
10
0
20
0
30
0
70
0
0
VERTEX
8
0
10
400.000000
20
1625.000000
30
0.000000
0
VERTEX
8
0
10
375.000000
20
1625.000000
30
0.000000
0
SEQEND
0
POLYLINE
8
0
40
1.000000
41
1.000000
66
1
62
136
10
0
20
0
30
0
70
0
0
VERTEX
8
0
10
475.000000
20
1575.000000
30
0.000000
0
VERTEX
8
0
10
475.000000
20
1525.000000
30
0.000000
0
SEQEND
0
ARC
8
0
39
0
62
216
10
500.000000
20
1625.000000
30
0.000000
40
50.000000
50
90.000000
51
-90.000000
0
TEXT
8
0
39
10
62
2
10
550.000000
20
1625.000000
30
0.000000
11
550.000000
21
1625.000000
31
0.000000
40
34.000000
50
0.000000
1
J3
72
1
73
2
0
LINE
8
0
39
4
62
216
10
-2075.000000
20
50.000000
30
0.000000
11
-2030.000000
21
50.000000
31
0.000000
0
LINE
8
0
39
4
62
216
10
-2050.000000
20
50.000000
30
0.000000
11
-2075.000000
21
5.000000
31
0.000000
0
LINE
8
0
39
4
62
216
10
-2030.000000
20
50.000000
30
0.000000
11
-2025.000000
21
50.000000
31
0.000000
0
LINE
8
0
39
4
62
216
10
-2050.000000
20
50.000000
30
0.000000
11
-2050.000000
21
75.000000
31
0.000000
0
LINE
8
0
39
4
62
216
10
-2050.000000
20
-25.000000
30
0.000000
11
-2050.000000
21
5.000000
31
0.000000
0
LINE
8
0
39
4
62
216
10
-2050.000000
20
50.000000
30
0.000000
11
-2025.000000
21
5.000000
31
0.000000
0
LINE
8
0
39
4
62
216
10
-2075.000000
20
5.000000
30
0.000000
11
-2025.000000
21
5.000000
31
0.000000
0
POLYLINE
8
0
40
1.000000
41
1.000000
66
1
62
136
10
0
20
0
30
0
70
0
0
VERTEX
8
0
10
-2050.000000
20
-25.000000
30
0.000000
0
VERTEX
8
0
10
-2050.000000
20
-75.000000
30
0.000000
0
SEQEND
0
POLYLINE
8
0
40
1.000000
41
1.000000
66
1
62
136
10
0
20
0
30
0
70
0
0
VERTEX
8
0
10
-2050.000000
20
75.000000
30
0.000000
0
VERTEX
8
0
10
-2050.000000
20
125.000000
30
0.000000
0
SEQEND
0
POLYLINE
8
0
40
1.000000
41
1.000000
66
1
62
136
10
0
20
0
30
0
70
0
0
VERTEX
8
0
10
-2000.000000
20
25.000000
30
0.000000
0
VERTEX
8
0
10
-1950.000000
20
25.000000
30
0.000000
0
SEQEND
0
ARC
8
0
39
0
62
216
10
-2050.000000
20
25.000000
30
0.000000
40
50.000000
50
-90.000000
51
-90.000000
0
TEXT
8
0
39
10
62
2
10
-2155.000000
20
-55.000000
30
0.000000
11
-2155.000000
21
-55.000000
31
0.000000
40
37.000000
50
0.000000
1
D3
72
0
73
0
0
TEXT
8
0
39
10
62
96
10
-2035.000000
20
-55.000000
30
0.000000
11
-2035.000000
21
-55.000000
31
0.000000
40
33.000000
50
0.000000
1
A
72
0
73
2
0
TEXT
8
0
39
10
62
96
10
-2005.000000
20
106.000000
30
0.000000
11
-2005.000000
21
106.000000
31
0.000000
40
33.000000
50
0.000000
1
K
72
2
73
2
0
TEXT
8
0
39
10
62
96
10
-1930.000000
20
56.000000
30
0.000000
11
-1930.000000
21
56.000000
31
0.000000
40
33.000000
50
0.000000
1
CA
72
2
73
2
0
POLYLINE
8
0
40
4.000000
41
4.000000
66
1
62
216
10
0
20
0
30
0
70
0
0
VERTEX
8
0
10
501.000000
20
-75.000000
30
0.000000
0
VERTEX
8
0
10
401.000000
20
-75.000000
30
0.000000
0
SEQEND
0
POLYLINE
8
0
40
1.000000
41
1.000000
66
1
62
136
10
0
20
0
30
0
70
0
0
VERTEX
8
0
10
310.000000
20
-85.000000
30
0.000000
0
VERTEX
8
0
10
300.000000
20
-75.000000
30
0.000000
0
VERTEX
8
0
10
310.000000
20
-65.000000
30
0.000000
0
SEQEND
0
POLYLINE
8
0
40
1.000000
41
1.000000
66
1
62
136
10
0
20
0
30
0
70
0
0
VERTEX
8
0
10
320.000000
20
-85.000000
30
0.000000
0
VERTEX
8
0
10
330.000000
20
-75.000000
30
0.000000
0
VERTEX
8
0
10
320.000000
20
-65.000000
30
0.000000
0
SEQEND
0
POLYLINE
8
0
40
1.000000
41
1.000000
66
1
62
136
10
0
20
0
30
0
70
0
0
VERTEX
8
0
10
400.000000
20
-75.000000
30
0.000000
0
VERTEX
8
0
10
375.000000
20
-75.000000
30
0.000000
0
SEQEND
0
POLYLINE
8
0
40
1.000000
41
1.000000
66
1
62
136
10
0
20
0
30
0
70
0
0
VERTEX
8
0
10
475.000000
20
-125.000000
30
0.000000
0
VERTEX
8
0
10
475.000000
20
-175.000000
30
0.000000
0
SEQEND
0
ARC
8
0
39
0
62
216
10
500.000000
20
-75.000000
30
0.000000
40
50.000000
50
90.000000
51
-90.000000
0
TEXT
8
0
39
10
62
2
10
550.000000
20
-75.000000
30
0.000000
11
550.000000
21
-75.000000
31
0.000000
40
34.000000
50
0.000000
1
J4
72
1
73
2
0
POLYLINE
8
0
40
4.000000
41
4.000000
66
1
62
216
10
0
20
0
30
0
70
0
0
VERTEX
8
0
10
-400.000000
20
-425.000000
30
0.000000
0
VERTEX
8
0
10
-400.000000
20
-375.000000
30
0.000000
0
VERTEX
8
0
10
-550.000000
20
-375.000000
30
0.000000
0
VERTEX
8
0
10
-550.000000
20
-425.000000
30
0.000000
0
VERTEX
8
0
10
-400.000000
20
-425.000000
30
0.000000
0
SEQEND
0
POLYLINE
8
0
40
1.000000
41
1.000000
66
1
62
136
10
0
20
0
30
0
70
0
0
VERTEX
8
0
10
-400.000000
20
-400.000000
30
0.000000
0
VERTEX
8
0
10
-350.000000
20
-400.000000
30
0.000000
0
SEQEND
0
POLYLINE
8
0
40
1.000000
41
1.000000
66
1
62
136
10
0
20
0
30
0
70
0
0
VERTEX
8
0
10
-550.000000
20
-400.000000
30
0.000000
0
VERTEX
8
0
10
-600.000000
20
-400.000000
30
0.000000
0
SEQEND
0
TEXT
8
0
39
10
62
2
10
-450.000000
20
-375.000000
30
0.000000
11
-450.000000
21
-375.000000
31
0.000000
40
33.000000
50
0.000000
1
R23
72
2
73
0
0
TEXT
8
0
39
10
62
2
10
-475.000000
20
-399.000000
30
0.000000
11
-475.000000
21
-399.000000
31
0.000000
40
34.000000
50
0.000000
1
470
72
1
73
2
0
LINE
8
0
39
4
62
216
10
-1350.000000
20
75.000000
30
0.000000
11
-1350.000000
21
-125.000000
31
0.000000
0
LINE
8
0
39
4
62
216
10
-1350.000000
20
75.000000
30
0.000000
11
-1150.000000
21
-25.000000
31
0.000000
0
LINE
8
0
39
4
62
216
10
-1150.000000
20
-25.000000
30
0.000000
11
-1350.000000
21
-125.000000
31
0.000000
0
LINE
8
0
39
4
62
216
10
-1300.000000
20
125.000000
30
0.000000
11
-1300.000000
21
50.000000
31
0.000000
0
LINE
8
0
39
4
62
216
10
-1200.000000
20
75.000000
30
0.000000
11
-1200.000000
21
0.000000
31
0.000000
0
LINE
8
0
39
4
62
216
10
-1200.000000
20
-125.000000
30
0.000000
11
-1200.000000
21
-50.000000
31
0.000000
0
POLYLINE
8
0
40
1.000000
41
1.000000
66
1
62
136
10
0
20
0
30
0
70
0
0
VERTEX
8
0
10
-1200.000000
20
75.000000
30
0.000000
0
VERTEX
8
0
10
-1200.000000
20
150.000000
30
0.000000
0
SEQEND
0
POLYLINE
8
0
40
1.000000
41
1.000000
66
1
62
136
10
0
20
0
30
0
70
0
0
VERTEX
8
0
10
-1200.000000
20
-125.000000
30
0.000000
0
VERTEX
8
0
10
-1200.000000
20
-175.000000
30
0.000000
0
SEQEND
0
POLYLINE
8
0
40
1.000000
41
1.000000
66
1
62
136
10
0
20
0
30
0
70
0
0
VERTEX
8
0
10
-1150.000000
20
-25.000000
30
0.000000
0
VERTEX
8
0
10
-1100.000000
20
-25.000000
30
0.000000
0
SEQEND
0
POLYLINE
8
0
40
1.000000
41
1.000000
66
1
62
136
10
0
20
0
30
0
70
0
0
VERTEX
8
0
10
-1350.000000
20
-75.000000
30
0.000000
0
VERTEX
8
0
10
-1400.000000
20
-75.000000
30
0.000000
0
SEQEND
0
POLYLINE
8
0
40
1.000000
41
1.000000
66
1
62
136
10
0
20
0
30
0
70
0
0
VERTEX
8
0
10
-1350.000000
20
25.000000
30
0.000000
0
VERTEX
8
0
10
-1400.000000
20
25.000000
30
0.000000
0
SEQEND
0
POLYLINE
8
0
40
1.000000
41
1.000000
66
1
62
136
10
0
20
0
30
0
70
0
0
VERTEX
8
0
10
-1300.000000
20
125.000000
30
0.000000
0
VERTEX
8
0
10
-1300.000000
20
150.000000
30
0.000000
0
SEQEND
0
TEXT
8
0
39
10
62
2
10
-1375.000000
20
-200.000000
30
0.000000
11
-1375.000000
21
-200.000000
31
0.000000
40
37.000000
50
0.000000
1
U5A
72
0
73
0
0
TEXT
8
0
39
10
62
7
10
-1025.000000
20
100.000000
30
0.000000
11
-1025.000000
21
100.000000
31
0.000000
40
37.000000
50
0.000000
1
MAX4228EUB
72
0
73
0
0
TEXT
8
0
39
10
62
136
10
-1200.000000
20
75.000000
30
0.000000
11
-1200.000000
21
75.000000
31
0.000000
40
33.000000
50
0.000000
1
10
72
2
73
0
0
TEXT
8
0
39
10
62
136
10
-1225.000000
20
-175.000000
30
0.000000
11
-1225.000000
21
-175.000000
31
0.000000
40
33.000000
50
0.000000
1
4
72
0
73
0
0
TEXT
8
0
39
10
62
136
10
-1100.000000
20
-25.000000
30
0.000000
11
-1100.000000
21
-25.000000
31
0.000000
40
33.000000
50
0.000000
1
1
72
2
73
0
0
TEXT
8
0
39
10
62
136
10
-1400.000000
20
-75.000000
30
0.000000
11
-1400.000000
21
-75.000000
31
0.000000
40
33.000000
50
0.000000
1
2
72
0
73
0
0
TEXT
8
0
39
10
62
96
10
-1325.000000
20
-75.000000
30
0.000000
11
-1325.000000
21
-75.000000
31
0.000000
40
33.000000
50
0.000000
1
-
72
0
73
2
0
TEXT
8
0
39
10
62
136
10
-1400.000000
20
25.000000
30
0.000000
11
-1400.000000
21
25.000000
31
0.000000
40
33.000000
50
0.000000
1
3
72
0
73
0
0
TEXT
8
0
39
10
62
96
10
-1325.000000
20
25.000000
30
0.000000
11
-1325.000000
21
25.000000
31
0.000000
40
33.000000
50
0.000000
1
+
72
0
73
2
0
TEXT
8
0
39
10
62
136
10
-1325.000000
20
100.000000
30
0.000000
11
-1325.000000
21
100.000000
31
0.000000
40
33.000000
50
0.000000
1
5
72
0
73
0
0
LINE
8
0
39
4
62
216
10
-575.000000
20
25.000000
30
0.000000
11
-575.000000
21
-175.000000
31
0.000000
0
LINE
8
0
39
4
62
216
10
-575.000000
20
25.000000
30
0.000000
11
-375.000000
21
-75.000000
31
0.000000
0
LINE
8
0
39
4
62
216
10
-375.000000
20
-75.000000
30
0.000000
11
-575.000000
21
-175.000000
31
0.000000
0
LINE
8
0
39
4
62
216
10
-525.000000
20
75.000000
30
0.000000
11
-525.000000
21
0.000000
31
0.000000
0
LINE
8
0
39
4
62
216
10
-425.000000
20
25.000000
30
0.000000
11
-425.000000
21
-50.000000
31
0.000000
0
LINE
8
0
39
4
62
216
10
-425.000000
20
-175.000000
30
0.000000
11
-425.000000
21
-100.000000
31
0.000000
0
POLYLINE
8
0
40
1.000000
41
1.000000
66
1
62
136
10
0
20
0
30
0
70
0
0
VERTEX
8
0
10
-425.000000
20
25.000000
30
0.000000
0
VERTEX
8
0
10
-425.000000
20
100.000000
30
0.000000
0
SEQEND
0
POLYLINE
8
0
40
1.000000
41
1.000000
66
1
62
136
10
0
20
0
30
0
70
0
0
VERTEX
8
0
10
-425.000000
20
-175.000000
30
0.000000
0
VERTEX
8
0
10
-425.000000
20
-225.000000
30
0.000000
0
SEQEND
0
POLYLINE
8
0
40
1.000000
41
1.000000
66
1
62
136
10
0
20
0
30
0
70
0
0
VERTEX
8
0
10
-375.000000
20
-75.000000
30
0.000000
0
VERTEX
8
0
10
-325.000000
20
-75.000000
30
0.000000
0
SEQEND
0
POLYLINE
8
0
40
1.000000
41
1.000000
66
1
62
136
10
0
20
0
30
0
70
0
0
VERTEX
8
0
10
-575.000000
20
-125.000000
30
0.000000
0
VERTEX
8
0
10
-625.000000
20
-125.000000
30
0.000000
0
SEQEND
0
POLYLINE
8
0
40
1.000000
41
1.000000
66
1
62
136
10
0
20
0
30
0
70
0
0
VERTEX
8
0
10
-575.000000
20
-25.000000
30
0.000000
0
VERTEX
8
0
10
-625.000000
20
-25.000000
30
0.000000
0
SEQEND
0
POLYLINE
8
0
40
1.000000
41
1.000000
66
1
62
136
10
0
20
0
30
0
70
0
0
VERTEX
8
0
10
-525.000000
20
75.000000
30
0.000000
0
VERTEX
8
0
10
-525.000000
20
100.000000
30
0.000000
0
SEQEND
0
TEXT
8
0
39
10
62
2
10
-600.000000
20
-250.000000
30
0.000000
11
-600.000000
21
-250.000000
31
0.000000
40
37.000000
50
0.000000
1
U5B
72
0
73
0
0
TEXT
8
0
39
10
62
136
10
-425.000000
20
25.000000
30
0.000000
11
-425.000000
21
25.000000
31
0.000000
40
33.000000
50
0.000000
1
10
72
2
73
0
0
TEXT
8
0
39
10
62
136
10
-450.000000
20
-225.000000
30
0.000000
11
-450.000000
21
-225.000000
31
0.000000
40
33.000000
50
0.000000
1
4
72
0
73
0
0
TEXT
8
0
39
10
62
136
10
-325.000000
20
-75.000000
30
0.000000
11
-325.000000
21
-75.000000
31
0.000000
40
33.000000
50
0.000000
1
9
72
2
73
0
0
TEXT
8
0
39
10
62
136
10
-625.000000
20
-125.000000
30
0.000000
11
-625.000000
21
-125.000000
31
0.000000
40
33.000000
50
0.000000
1
8
72
0
73
0
0
TEXT
8
0
39
10
62
96
10
-550.000000
20
-125.000000
30
0.000000
11
-550.000000
21
-125.000000
31
0.000000
40
33.000000
50
0.000000
1
-
72
0
73
2
0
TEXT
8
0
39
10
62
136
10
-625.000000
20
-25.000000
30
0.000000
11
-625.000000
21
-25.000000
31
0.000000
40
33.000000
50
0.000000
1
7
72
0
73
0
0
TEXT
8
0
39
10
62
96
10
-550.000000
20
-25.000000
30
0.000000
11
-550.000000
21
-25.000000
31
0.000000
40
33.000000
50
0.000000
1
+
72
0
73
2
0
TEXT
8
0
39
10
62
136
10
-550.000000
20
50.000000
30
0.000000
11
-550.000000
21
50.000000
31
0.000000
40
33.000000
50
0.000000
1
6
72
0
73
0
0
POLYLINE
8
0
40
4.000000
41
4.000000
66
1
62
216
10
0
20
0
30
0
70
0
0
VERTEX
8
0
10
275.000000
20
-100.000000
30
0.000000
0
VERTEX
8
0
10
275.000000
20
-50.000000
30
0.000000
0
VERTEX
8
0
10
125.000000
20
-50.000000
30
0.000000
0
VERTEX
8
0
10
125.000000
20
-100.000000
30
0.000000
0
VERTEX
8
0
10
275.000000
20
-100.000000
30
0.000000
0
SEQEND
0
POLYLINE
8
0
40
1.000000
41
1.000000
66
1
62
136
10
0
20
0
30
0
70
0
0
VERTEX
8
0
10
275.000000
20
-75.000000
30
0.000000
0
VERTEX
8
0
10
325.000000
20
-75.000000
30
0.000000
0
SEQEND
0
POLYLINE
8
0
40
1.000000
41
1.000000
66
1
62
136
10
0
20
0
30
0
70
0
0
VERTEX
8
0
10
125.000000
20
-75.000000
30
0.000000
0
VERTEX
8
0
10
75.000000
20
-75.000000
30
0.000000
0
SEQEND
0
TEXT
8
0
39
10
62
2
10
225.000000
20
-50.000000
30
0.000000
11
225.000000
21
-50.000000
31
0.000000
40
33.000000
50
0.000000
1
R18
72
2
73
0
0
TEXT
8
0
39
10
62
2
10
200.000000
20
-74.000000
30
0.000000
11
200.000000
21
-74.000000
31
0.000000
40
34.000000
50
0.000000
1
47
72
1
73
2
0
POLYLINE
8
0
40
1.000000
41
1.000000
66
1
62
216
10
0
20
0
30
0
70
1
0
VERTEX
8
0
10
-2375.000000
20
-189.000000
30
0.000000
0
VERTEX
8
0
10
-2375.000000
20
-201.000000
30
0.000000
0
VERTEX
8
0
10
-2275.000000
20
-201.000000
30
0.000000
0
VERTEX
8
0
10
-2275.000000
20
-189.000000
30
0.000000
0
VERTEX
8
0
10
-2375.000000
20
-189.000000
30
0.000000
0
SEQEND
0
POLYLINE
8
0
40
1.000000
41
1.000000
66
1
62
216
10
0
20
0
30
0
70
1
0
VERTEX
8
0
10
-2375.000000
20
-159.000000
30
0.000000
0
VERTEX
8
0
10
-2375.000000
20
-171.000000
30
0.000000
0
VERTEX
8
0
10
-2275.000000
20
-171.000000
30
0.000000
0
VERTEX
8
0
10
-2275.000000
20
-159.000000
30
0.000000
0
VERTEX
8
0
10
-2375.000000
20
-159.000000
30
0.000000
0
SEQEND
0
POLYLINE
8
0
40
1.000000
41
1.000000
66
1
62
136
10
0
20
0
30
0
70
0
0
VERTEX
8
0
10
-2325.000000
20
-160.000000
30
0.000000
0
VERTEX
8
0
10
-2325.000000
20
-75.000000
30
0.000000
0
SEQEND
0
POLYLINE
8
0
40
1.000000
41
1.000000
66
1
62
136
10
0
20
0
30
0
70
0
0
VERTEX
8
0
10
-2325.000000
20
-203.000000
30
0.000000
0
VERTEX
8
0
10
-2325.000000
20
-275.000000
30
0.000000
0
SEQEND
0
TEXT
8
0
39
10
62
2
10
-2325.000000
20
-100.000000
30
0.000000
11
-2325.000000
21
-100.000000
31
0.000000
40
33.000000
50
0.000000
1
C9
72
2
73
3
0
TEXT
8
0
39
10
62
2
10
-2325.000000
20
-200.000000
30
0.000000
11
-2325.000000
21
-200.000000
31
0.000000
40
34.000000
50
0.000000
1
22nF/100V
72
2
73
3
0
POLYLINE
8
0
40
1.000000
41
1.000000
66
1
62
216
10
0
20
0
30
0
70
1
0
VERTEX
8
0
10
-89.000000
20
-25.000000
30
0.000000
0
VERTEX
8
0
10
-101.000000
20
-25.000000
30
0.000000
0
VERTEX
8
0
10
-101.000000
20
-125.000000
30
0.000000
0
VERTEX
8
0
10
-89.000000
20
-125.000000
30
0.000000
0
VERTEX
8
0
10
-89.000000
20
-25.000000
30
0.000000
0
SEQEND
0
POLYLINE
8
0
40
1.000000
41
1.000000
66
1
62
216
10
0
20
0
30
0
70
1
0
VERTEX
8
0
10
-59.000000
20
-25.000000
30
0.000000
0
VERTEX
8
0
10
-71.000000
20
-25.000000
30
0.000000
0
VERTEX
8
0
10
-71.000000
20
-125.000000
30
0.000000
0
VERTEX
8
0
10
-59.000000
20
-125.000000
30
0.000000
0
VERTEX
8
0
10
-59.000000
20
-25.000000
30
0.000000
0
SEQEND
0
POLYLINE
8
0
40
1.000000
41
1.000000
66
1
62
136
10
0
20
0
30
0
70
0
0
VERTEX
8
0
10
-60.000000
20
-75.000000
30
0.000000
0
VERTEX
8
0
10
25.000000
20
-75.000000
30
0.000000
0
SEQEND
0
POLYLINE
8
0
40
1.000000
41
1.000000
66
1
62
136
10
0
20
0
30
0
70
0
0
VERTEX
8
0
10
-103.000000
20
-75.000000
30
0.000000
0
VERTEX
8
0
10
-175.000000
20
-75.000000
30
0.000000
0
SEQEND
0
TEXT
8
0
39
10
62
2
10
-25.000000
20
-75.000000
30
0.000000
11
-25.000000
21
-75.000000
31
0.000000
40
33.000000
50
0.000000
1
C10
72
0
73
0
0
TEXT
8
0
39
10
62
2
10
-225.000000
20
-75.000000
30
0.000000
11
-225.000000
21
-75.000000
31
0.000000
40
34.000000
50
0.000000
1
100nF
72
0
73
0
0
POLYLINE
8
0
40
4.000000
41
4.000000
66
1
62
216
10
0
20
0
30
0
70
0
0
VERTEX
8
0
10
-1650.000000
20
-325.000000
30
0.000000
0
VERTEX
8
0
10
-1650.000000
20
-275.000000
30
0.000000
0
VERTEX
8
0
10
-1800.000000
20
-275.000000
30
0.000000
0
VERTEX
8
0
10
-1800.000000
20
-325.000000
30
0.000000
0
VERTEX
8
0
10
-1650.000000
20
-325.000000
30
0.000000
0
SEQEND
0
POLYLINE
8
0
40
1.000000
41
1.000000
66
1
62
136
10
0
20
0
30
0
70
0
0
VERTEX
8
0
10
-1650.000000
20
-300.000000
30
0.000000
0
VERTEX
8
0
10
-1600.000000
20
-300.000000
30
0.000000
0
SEQEND
0
POLYLINE
8
0
40
1.000000
41
1.000000
66
1
62
136
10
0
20
0
30
0
70
0
0
VERTEX
8
0
10
-1800.000000
20
-300.000000
30
0.000000
0
VERTEX
8
0
10
-1850.000000
20
-300.000000
30
0.000000
0
SEQEND
0
TEXT
8
0
39
10
62
2
10
-1700.000000
20
-275.000000
30
0.000000
11
-1700.000000
21
-275.000000
31
0.000000
40
33.000000
50
0.000000
1
R19
72
2
73
0
0
TEXT
8
0
39
10
62
2
10
-1725.000000
20
-299.000000
30
0.000000
11
-1725.000000
21
-299.000000
31
0.000000
40
34.000000
50
0.000000
1
10
72
1
73
2
0
POLYLINE
8
0
40
4.000000
41
4.000000
66
1
62
216
10
0
20
0
30
0
70
0
0
VERTEX
8
0
10
-1225.000000
20
-325.000000
30
0.000000
0
VERTEX
8
0
10
-1225.000000
20
-275.000000
30
0.000000
0
VERTEX
8
0
10
-1375.000000
20
-275.000000
30
0.000000
0
VERTEX
8
0
10
-1375.000000
20
-325.000000
30
0.000000
0
VERTEX
8
0
10
-1225.000000
20
-325.000000
30
0.000000
0
SEQEND
0
POLYLINE
8
0
40
1.000000
41
1.000000
66
1
62
136
10
0
20
0
30
0
70
0
0
VERTEX
8
0
10
-1225.000000
20
-300.000000
30
0.000000
0
VERTEX
8
0
10
-1175.000000
20
-300.000000
30
0.000000
0
SEQEND
0
POLYLINE
8
0
40
1.000000
41
1.000000
66
1
62
136
10
0
20
0
30
0
70
0
0
VERTEX
8
0
10
-1375.000000
20
-300.000000
30
0.000000
0
VERTEX
8
0
10
-1425.000000
20
-300.000000
30
0.000000
0
SEQEND
0
TEXT
8
0
39
10
62
2
10
-1275.000000
20
-275.000000
30
0.000000
11
-1275.000000
21
-275.000000
31
0.000000
40
33.000000
50
0.000000
1
R20
72
2
73
0
0
TEXT
8
0
39
10
62
2
10
-1300.000000
20
-299.000000
30
0.000000
11
-1300.000000
21
-299.000000
31
0.000000
40
34.000000
50
0.000000
1
1K
72
1
73
2
0
POLYLINE
8
0
40
4.000000
41
4.000000
66
1
62
216
10
0
20
0
30
0
70
0
0
VERTEX
8
0
10
-2025.000000
20
-425.000000
30
0.000000
0
VERTEX
8
0
10
-2075.000000
20
-425.000000
30
0.000000
0
VERTEX
8
0
10
-2075.000000
20
-575.000000
30
0.000000
0
VERTEX
8
0
10
-2025.000000
20
-575.000000
30
0.000000
0
VERTEX
8
0
10
-2025.000000
20
-425.000000
30
0.000000
0
SEQEND
0
POLYLINE
8
0
40
1.000000
41
1.000000
66
1
62
136
10
0
20
0
30
0
70
0
0
VERTEX
8
0
10
-2050.000000
20
-425.000000
30
0.000000
0
VERTEX
8
0
10
-2050.000000
20
-375.000000
30
0.000000
0
SEQEND
0
POLYLINE
8
0
40
1.000000
41
1.000000
66
1
62
136
10
0
20
0
30
0
70
0
0
VERTEX
8
0
10
-2050.000000
20
-575.000000
30
0.000000
0
VERTEX
8
0
10
-2050.000000
20
-625.000000
30
0.000000
0
SEQEND
0
TEXT
8
0
39
10
62
2
10
-2100.000000
20
-475.000000
30
0.000000
11
-2100.000000
21
-475.000000
31
0.000000
40
33.000000
50
90.000000
1
R21
72
2
73
0
0
TEXT
8
0
39
10
62
2
10
-2051.000000
20
-500.000000
30
0.000000
11
-2051.000000
21
-500.000000
31
0.000000
40
34.000000
50
90.000000
1
10K
72
1
73
2
0
POLYLINE
8
0
40
4.000000
41
4.000000
66
1
62
216
10
0
20
0
30
0
70
0
0
VERTEX
8
0
10
-725.000000
20
-425.000000
30
0.000000
0
VERTEX
8
0
10
-725.000000
20
-375.000000
30
0.000000
0
VERTEX
8
0
10
-875.000000
20
-375.000000
30
0.000000
0
VERTEX
8
0
10
-875.000000
20
-425.000000
30
0.000000
0
VERTEX
8
0
10
-725.000000
20
-425.000000
30
0.000000
0
SEQEND
0
POLYLINE
8
0
40
1.000000
41
1.000000
66
1
62
136
10
0
20
0
30
0
70
0
0
VERTEX
8
0
10
-725.000000
20
-400.000000
30
0.000000
0
VERTEX
8
0
10
-675.000000
20
-400.000000
30
0.000000
0
SEQEND
0
POLYLINE
8
0
40
1.000000
41
1.000000
66
1
62
136
10
0
20
0
30
0
70
0
0
VERTEX
8
0
10
-875.000000
20
-400.000000
30
0.000000
0
VERTEX
8
0
10
-925.000000
20
-400.000000
30
0.000000
0
SEQEND
0
TEXT
8
0
39
10
62
2
10
-775.000000
20
-375.000000
30
0.000000
11
-775.000000
21
-375.000000
31
0.000000
40
33.000000
50
0.000000
1
R22
72
2
73
0
0
TEXT
8
0
39
10
62
2
10
-800.000000
20
-399.000000
30
0.000000
11
-800.000000
21
-399.000000
31
0.000000
40
34.000000
50
0.000000
1
100
72
1
73
2
0
POLYLINE
8
0
40
1.000000
41
1.000000
66
1
62
216
10
0
20
0
30
0
70
1
0
VERTEX
8
0
10
-1100.000000
20
-2114.000000
30
0.000000
0
VERTEX
8
0
10
-1100.000000
20
-2126.000000
30
0.000000
0
VERTEX
8
0
10
-1000.000000
20
-2126.000000
30
0.000000
0
VERTEX
8
0
10
-1000.000000
20
-2114.000000
30
0.000000
0
VERTEX
8
0
10
-1100.000000
20
-2114.000000
30
0.000000
0
SEQEND
0
POLYLINE
8
0
40
1.000000
41
1.000000
66
1
62
216
10
0
20
0
30
0
70
1
0
VERTEX
8
0
10
-1100.000000
20
-2084.000000
30
0.000000
0
VERTEX
8
0
10
-1100.000000
20
-2096.000000
30
0.000000
0
VERTEX
8
0
10
-1000.000000
20
-2096.000000
30
0.000000
0
VERTEX
8
0
10
-1000.000000
20
-2084.000000
30
0.000000
0
VERTEX
8
0
10
-1100.000000
20
-2084.000000
30
0.000000
0
SEQEND
0
POLYLINE
8
0
40
1.000000
41
1.000000
66
1
62
136
10
0
20
0
30
0
70
0
0
VERTEX
8
0
10
-1050.000000
20
-2085.000000
30
0.000000
0
VERTEX
8
0
10
-1050.000000
20
-2000.000000
30
0.000000
0
SEQEND
0
POLYLINE
8
0
40
1.000000
41
1.000000
66
1
62
136
10
0
20
0
30
0
70
0
0
VERTEX
8
0
10
-1050.000000
20
-2128.000000
30
0.000000
0
VERTEX
8
0
10
-1050.000000
20
-2200.000000
30
0.000000
0
SEQEND
0
TEXT
8
0
39
10
62
2
10
-1050.000000
20
-2025.000000
30
0.000000
11
-1050.000000
21
-2025.000000
31
0.000000
40
33.000000
50
0.000000
1
C11
72
2
73
3
0
TEXT
8
0
39
10
62
2
10
-925.000000
20
-2125.000000
30
0.000000
11
-925.000000
21
-2125.000000
31
0.000000
40
34.000000
50
0.000000
1
100nF
72
2
73
3
0
POLYLINE
8
0
40
1.000000
41
1.000000
66
1
62
216
10
0
20
0
30
0
70
1
0
VERTEX
8
0
10
-925.000000
20
-2114.000000
30
0.000000
0
VERTEX
8
0
10
-925.000000
20
-2126.000000
30
0.000000
0
VERTEX
8
0
10
-825.000000
20
-2126.000000
30
0.000000
0
VERTEX
8
0
10
-825.000000
20
-2114.000000
30
0.000000
0
VERTEX
8
0
10
-925.000000
20
-2114.000000
30
0.000000
0
SEQEND
0
POLYLINE
8
0
40
1.000000
41
1.000000
66
1
62
216
10
0
20
0
30
0
70
1
0
VERTEX
8
0
10
-925.000000
20
-2084.000000
30
0.000000
0
VERTEX
8
0
10
-925.000000
20
-2096.000000
30
0.000000
0
VERTEX
8
0
10
-825.000000
20
-2096.000000
30
0.000000
0
VERTEX
8
0
10
-825.000000
20
-2084.000000
30
0.000000
0
VERTEX
8
0
10
-925.000000
20
-2084.000000
30
0.000000
0
SEQEND
0
POLYLINE
8
0
40
1.000000
41
1.000000
66
1
62
136
10
0
20
0
30
0
70
0
0
VERTEX
8
0
10
-875.000000
20
-2085.000000
30
0.000000
0
VERTEX
8
0
10
-875.000000
20
-2000.000000
30
0.000000
0
SEQEND
0
POLYLINE
8
0
40
1.000000
41
1.000000
66
1
62
136
10
0
20
0
30
0
70
0
0
VERTEX
8
0
10
-875.000000
20
-2128.000000
30
0.000000
0
VERTEX
8
0
10
-875.000000
20
-2200.000000
30
0.000000
0
SEQEND
0
TEXT
8
0
39
10
62
2
10
-875.000000
20
-2025.000000
30
0.000000
11
-875.000000
21
-2025.000000
31
0.000000
40
33.000000
50
0.000000
1
C12
72
2
73
3
0
TEXT
8
0
39
10
62
2
10
-750.000000
20
-2125.000000
30
0.000000
11
-750.000000
21
-2125.000000
31
0.000000
40
34.000000
50
0.000000
1
100nF
72
2
73
3
0
POLYLINE
8
0
40
4.000000
41
4.000000
66
1
62
216
10
0
20
0
30
0
70
0
0
VERTEX
8
0
10
1376.000000
20
825.000000
30
0.000000
0
VERTEX
8
0
10
1276.000000
20
825.000000
30
0.000000
0
SEQEND
0
POLYLINE
8
0
40
1.000000
41
1.000000
66
1
62
136
10
0
20
0
30
0
70
0
0
VERTEX
8
0
10
1185.000000
20
815.000000
30
0.000000
0
VERTEX
8
0
10
1175.000000
20
825.000000
30
0.000000
0
VERTEX
8
0
10
1185.000000
20
835.000000
30
0.000000
0
SEQEND
0
POLYLINE
8
0
40
1.000000
41
1.000000
66
1
62
136
10
0
20
0
30
0
70
0
0
VERTEX
8
0
10
1195.000000
20
815.000000
30
0.000000
0
VERTEX
8
0
10
1205.000000
20
825.000000
30
0.000000
0
VERTEX
8
0
10
1195.000000
20
835.000000
30
0.000000
0
SEQEND
0
POLYLINE
8
0
40
1.000000
41
1.000000
66
1
62
136
10
0
20
0
30
0
70
0
0
VERTEX
8
0
10
1275.000000
20
825.000000
30
0.000000
0
VERTEX
8
0
10
1250.000000
20
825.000000
30
0.000000
0
SEQEND
0
POLYLINE
8
0
40
1.000000
41
1.000000
66
1
62
136
10
0
20
0
30
0
70
0
0
VERTEX
8
0
10
1350.000000
20
775.000000
30
0.000000
0
VERTEX
8
0
10
1350.000000
20
725.000000
30
0.000000
0
SEQEND
0
ARC
8
0
39
0
62
216
10
1375.000000
20
825.000000
30
0.000000
40
50.000000
50
90.000000
51
-90.000000
0
TEXT
8
0
39
10
62
2
10
1425.000000
20
825.000000
30
0.000000
11
1425.000000
21
825.000000
31
0.000000
40
34.000000
50
0.000000
1
J7
72
1
73
2
0
LINE
8
0
39
4
62
216
10
-525.000000
20
875.000000
30
0.000000
11
-525.000000
21
675.000000
31
0.000000
0
LINE
8
0
39
4
62
216
10
-525.000000
20
875.000000
30
0.000000
11
-325.000000
21
775.000000
31
0.000000
0
LINE
8
0
39
4
62
216
10
-325.000000
20
775.000000
30
0.000000
11
-525.000000
21
675.000000
31
0.000000
0
LINE
8
0
39
4
62
216
10
-475.000000
20
925.000000
30
0.000000
11
-475.000000
21
850.000000
31
0.000000
0
LINE
8
0
39
4
62
216
10
-375.000000
20
875.000000
30
0.000000
11
-375.000000
21
800.000000
31
0.000000
0
LINE
8
0
39
4
62
216
10
-375.000000
20
675.000000
30
0.000000
11
-375.000000
21
750.000000
31
0.000000
0
POLYLINE
8
0
40
1.000000
41
1.000000
66
1
62
136
10
0
20
0
30
0
70
0
0
VERTEX
8
0
10
-375.000000
20
875.000000
30
0.000000
0
VERTEX
8
0
10
-375.000000
20
950.000000
30
0.000000
0
SEQEND
0
POLYLINE
8
0
40
1.000000
41
1.000000
66
1
62
136
10
0
20
0
30
0
70
0
0
VERTEX
8
0
10
-375.000000
20
675.000000
30
0.000000
0
VERTEX
8
0
10
-375.000000
20
625.000000
30
0.000000
0
SEQEND
0
POLYLINE
8
0
40
1.000000
41
1.000000
66
1
62
136
10
0
20
0
30
0
70
0
0
VERTEX
8
0
10
-325.000000
20
775.000000
30
0.000000
0
VERTEX
8
0
10
-275.000000
20
775.000000
30
0.000000
0
SEQEND
0
POLYLINE
8
0
40
1.000000
41
1.000000
66
1
62
136
10
0
20
0
30
0
70
0
0
VERTEX
8
0
10
-525.000000
20
725.000000
30
0.000000
0
VERTEX
8
0
10
-575.000000
20
725.000000
30
0.000000
0
SEQEND
0
POLYLINE
8
0
40
1.000000
41
1.000000
66
1
62
136
10
0
20
0
30
0
70
0
0
VERTEX
8
0
10
-525.000000
20
825.000000
30
0.000000
0
VERTEX
8
0
10
-575.000000
20
825.000000
30
0.000000
0
SEQEND
0
POLYLINE
8
0
40
1.000000
41
1.000000
66
1
62
136
10
0
20
0
30
0
70
0
0
VERTEX
8
0
10
-475.000000
20
925.000000
30
0.000000
0
VERTEX
8
0
10
-475.000000
20
950.000000
30
0.000000
0
SEQEND
0
TEXT
8
0
39
10
62
2
10
-550.000000
20
600.000000
30
0.000000
11
-550.000000
21
600.000000
31
0.000000
40
37.000000
50
0.000000
1
U9A
72
0
73
0
0
TEXT
8
0
39
10
62
7
10
-125.000000
20
600.000000
30
0.000000
11
-125.000000
21
600.000000
31
0.000000
40
37.000000
50
0.000000
1
MAX4228EUB
72
0
73
0
0
TEXT
8
0
39
10
62
136
10
-375.000000
20
875.000000
30
0.000000
11
-375.000000
21
875.000000
31
0.000000
40
33.000000
50
0.000000
1
10
72
2
73
0
0
TEXT
8
0
39
10
62
136
10
-400.000000
20
625.000000
30
0.000000
11
-400.000000
21
625.000000
31
0.000000
40
33.000000
50
0.000000
1
4
72
0
73
0
0
TEXT
8
0
39
10
62
136
10
-275.000000
20
775.000000
30
0.000000
11
-275.000000
21
775.000000
31
0.000000
40
33.000000
50
0.000000
1
1
72
2
73
0
0
TEXT
8
0
39
10
62
136
10
-575.000000
20
725.000000
30
0.000000
11
-575.000000
21
725.000000
31
0.000000
40
33.000000
50
0.000000
1
2
72
0
73
0
0
TEXT
8
0
39
10
62
96
10
-500.000000
20
725.000000
30
0.000000
11
-500.000000
21
725.000000
31
0.000000
40
33.000000
50
0.000000
1
-
72
0
73
2
0
TEXT
8
0
39
10
62
136
10
-575.000000
20
825.000000
30
0.000000
11
-575.000000
21
825.000000
31
0.000000
40
33.000000
50
0.000000
1
3
72
0
73
0
0
TEXT
8
0
39
10
62
96
10
-500.000000
20
825.000000
30
0.000000
11
-500.000000
21
825.000000
31
0.000000
40
33.000000
50
0.000000
1
+
72
0
73
2
0
TEXT
8
0
39
10
62
136
10
-500.000000
20
900.000000
30
0.000000
11
-500.000000
21
900.000000
31
0.000000
40
33.000000
50
0.000000
1
5
72
0
73
0
0
LINE
8
0
39
4
62
216
10
300.000000
20
925.000000
30
0.000000
11
300.000000
21
725.000000
31
0.000000
0
LINE
8
0
39
4
62
216
10
300.000000
20
925.000000
30
0.000000
11
500.000000
21
825.000000
31
0.000000
0
LINE
8
0
39
4
62
216
10
500.000000
20
825.000000
30
0.000000
11
300.000000
21
725.000000
31
0.000000
0
LINE
8
0
39
4
62
216
10
350.000000
20
975.000000
30
0.000000
11
350.000000
21
900.000000
31
0.000000
0
LINE
8
0
39
4
62
216
10
450.000000
20
925.000000
30
0.000000
11
450.000000
21
850.000000
31
0.000000
0
LINE
8
0
39
4
62
216
10
450.000000
20
725.000000
30
0.000000
11
450.000000
21
800.000000
31
0.000000
0
POLYLINE
8
0
40
1.000000
41
1.000000
66
1
62
136
10
0
20
0
30
0
70
0
0
VERTEX
8
0
10
450.000000
20
925.000000
30
0.000000
0
VERTEX
8
0
10
450.000000
20
1000.000000
30
0.000000
0
SEQEND
0
POLYLINE
8
0
40
1.000000
41
1.000000
66
1
62
136
10
0
20
0
30
0
70
0
0
VERTEX
8
0
10
450.000000
20
725.000000
30
0.000000
0
VERTEX
8
0
10
450.000000
20
675.000000
30
0.000000
0
SEQEND
0
POLYLINE
8
0
40
1.000000
41
1.000000
66
1
62
136
10
0
20
0
30
0
70
0
0
VERTEX
8
0
10
500.000000
20
825.000000
30
0.000000
0
VERTEX
8
0
10
550.000000
20
825.000000
30
0.000000
0
SEQEND
0
POLYLINE
8
0
40
1.000000
41
1.000000
66
1
62
136
10
0
20
0
30
0
70
0
0
VERTEX
8
0
10
300.000000
20
775.000000
30
0.000000
0
VERTEX
8
0
10
250.000000
20
775.000000
30
0.000000
0
SEQEND
0
POLYLINE
8
0
40
1.000000
41
1.000000
66
1
62
136
10
0
20
0
30
0
70
0
0
VERTEX
8
0
10
300.000000
20
875.000000
30
0.000000
0
VERTEX
8
0
10
250.000000
20
875.000000
30
0.000000
0
SEQEND
0
POLYLINE
8
0
40
1.000000
41
1.000000
66
1
62
136
10
0
20
0
30
0
70
0
0
VERTEX
8
0
10
350.000000
20
975.000000
30
0.000000
0
VERTEX
8
0
10
350.000000
20
1000.000000
30
0.000000
0
SEQEND
0
TEXT
8
0
39
10
62
2
10
275.000000
20
650.000000
30
0.000000
11
275.000000
21
650.000000
31
0.000000
40
37.000000
50
0.000000
1
U9B
72
0
73
0
0
TEXT
8
0
39
10
62
136
10
450.000000
20
925.000000
30
0.000000
11
450.000000
21
925.000000
31
0.000000
40
33.000000
50
0.000000
1
10
72
2
73
0
0
TEXT
8
0
39
10
62
136
10
425.000000
20
675.000000
30
0.000000
11
425.000000
21
675.000000
31
0.000000
40
33.000000
50
0.000000
1
4
72
0
73
0
0
TEXT
8
0
39
10
62
136
10
550.000000
20
825.000000
30
0.000000
11
550.000000
21
825.000000
31
0.000000
40
33.000000
50
0.000000
1
9
72
2
73
0
0
TEXT
8
0
39
10
62
136
10
250.000000
20
775.000000
30
0.000000
11
250.000000
21
775.000000
31
0.000000
40
33.000000
50
0.000000
1
8
72
0
73
0
0
TEXT
8
0
39
10
62
96
10
325.000000
20
775.000000
30
0.000000
11
325.000000
21
775.000000
31
0.000000
40
33.000000
50
0.000000
1
-
72
0
73
2
0
TEXT
8
0
39
10
62
136
10
250.000000
20
875.000000
30
0.000000
11
250.000000
21
875.000000
31
0.000000
40
33.000000
50
0.000000
1
7
72
0
73
0
0
TEXT
8
0
39
10
62
96
10
325.000000
20
875.000000
30
0.000000
11
325.000000
21
875.000000
31
0.000000
40
33.000000
50
0.000000
1
+
72
0
73
2
0
TEXT
8
0
39
10
62
136
10
325.000000
20
950.000000
30
0.000000
11
325.000000
21
950.000000
31
0.000000
40
33.000000
50
0.000000
1
6
72
0
73
0
0
POLYLINE
8
0
40
1.000000
41
1.000000
66
1
62
216
10
0
20
0
30
0
70
1
0
VERTEX
8
0
10
786.000000
20
875.000000
30
0.000000
0
VERTEX
8
0
10
774.000000
20
875.000000
30
0.000000
0
VERTEX
8
0
10
774.000000
20
775.000000
30
0.000000
0
VERTEX
8
0
10
786.000000
20
775.000000
30
0.000000
0
VERTEX
8
0
10
786.000000
20
875.000000
30
0.000000
0
SEQEND
0
POLYLINE
8
0
40
1.000000
41
1.000000
66
1
62
216
10
0
20
0
30
0
70
1
0
VERTEX
8
0
10
816.000000
20
875.000000
30
0.000000
0
VERTEX
8
0
10
804.000000
20
875.000000
30
0.000000
0
VERTEX
8
0
10
804.000000
20
775.000000
30
0.000000
0
VERTEX
8
0
10
816.000000
20
775.000000
30
0.000000
0
VERTEX
8
0
10
816.000000
20
875.000000
30
0.000000
0
SEQEND
0
POLYLINE
8
0
40
1.000000
41
1.000000
66
1
62
136
10
0
20
0
30
0
70
0
0
VERTEX
8
0
10
815.000000
20
825.000000
30
0.000000
0
VERTEX
8
0
10
900.000000
20
825.000000
30
0.000000
0
SEQEND
0
POLYLINE
8
0
40
1.000000
41
1.000000
66
1
62
136
10
0
20
0
30
0
70
0
0
VERTEX
8
0
10
772.000000
20
825.000000
30
0.000000
0
VERTEX
8
0
10
700.000000
20
825.000000
30
0.000000
0
SEQEND
0
TEXT
8
0
39
10
62
2
10
850.000000
20
825.000000
30
0.000000
11
850.000000
21
825.000000
31
0.000000
40
33.000000
50
0.000000
1
C30
72
0
73
0
0
TEXT
8
0
39
10
62
2
10
650.000000
20
825.000000
30
0.000000
11
650.000000
21
825.000000
31
0.000000
40
34.000000
50
0.000000
1
100nF
72
0
73
0
0
POLYLINE
8
0
40
4.000000
41
4.000000
66
1
62
216
10
0
20
0
30
0
70
0
0
VERTEX
8
0
10
1150.000000
20
800.000000
30
0.000000
0
VERTEX
8
0
10
1150.000000
20
850.000000
30
0.000000
0
VERTEX
8
0
10
1000.000000
20
850.000000
30
0.000000
0
VERTEX
8
0
10
1000.000000
20
800.000000
30
0.000000
0
VERTEX
8
0
10
1150.000000
20
800.000000
30
0.000000
0
SEQEND
0
POLYLINE
8
0
40
1.000000
41
1.000000
66
1
62
136
10
0
20
0
30
0
70
0
0
VERTEX
8
0
10
1150.000000
20
825.000000
30
0.000000
0
VERTEX
8
0
10
1200.000000
20
825.000000
30
0.000000
0
SEQEND
0
POLYLINE
8
0
40
1.000000
41
1.000000
66
1
62
136
10
0
20
0
30
0
70
0
0
VERTEX
8
0
10
1000.000000
20
825.000000
30
0.000000
0
VERTEX
8
0
10
950.000000
20
825.000000
30
0.000000
0
SEQEND
0
TEXT
8
0
39
10
62
2
10
1100.000000
20
850.000000
30
0.000000
11
1100.000000
21
850.000000
31
0.000000
40
33.000000
50
0.000000
1
R44
72
2
73
0
0
TEXT
8
0
39
10
62
2
10
1075.000000
20
826.000000
30
0.000000
11
1075.000000
21
826.000000
31
0.000000
40
34.000000
50
0.000000
1
47
72
1
73
2
0
POLYLINE
8
0
40
4.000000
41
4.000000
66
1
62
216
10
0
20
0
30
0
70
0
0
VERTEX
8
0
10
-825.000000
20
475.000000
30
0.000000
0
VERTEX
8
0
10
-825.000000
20
525.000000
30
0.000000
0
VERTEX
8
0
10
-975.000000
20
525.000000
30
0.000000
0
VERTEX
8
0
10
-975.000000
20
475.000000
30
0.000000
0
VERTEX
8
0
10
-825.000000
20
475.000000
30
0.000000
0
SEQEND
0
POLYLINE
8
0
40
1.000000
41
1.000000
66
1
62
136
10
0
20
0
30
0
70
0
0
VERTEX
8
0
10
-825.000000
20
500.000000
30
0.000000
0
VERTEX
8
0
10
-775.000000
20
500.000000
30
0.000000
0
SEQEND
0
POLYLINE
8
0
40
1.000000
41
1.000000
66
1
62
136
10
0
20
0
30
0
70
0
0
VERTEX
8
0
10
-975.000000
20
500.000000
30
0.000000
0
VERTEX
8
0
10
-1025.000000
20
500.000000
30
0.000000
0
SEQEND
0
TEXT
8
0
39
10
62
2
10
-875.000000
20
525.000000
30
0.000000
11
-875.000000
21
525.000000
31
0.000000
40
33.000000
50
0.000000
1
R45
72
2
73
0
0
TEXT
8
0
39
10
62
2
10
-900.000000
20
501.000000
30
0.000000
11
-900.000000
21
501.000000
31
0.000000
40
34.000000
50
0.000000
1
220
72
1
73
2
0
POLYLINE
8
0
40
4.000000
41
4.000000
66
1
62
216
10
0
20
0
30
0
70
0
0
VERTEX
8
0
10
-400.000000
20
475.000000
30
0.000000
0
VERTEX
8
0
10
-400.000000
20
525.000000
30
0.000000
0
VERTEX
8
0
10
-550.000000
20
525.000000
30
0.000000
0
VERTEX
8
0
10
-550.000000
20
475.000000
30
0.000000
0
VERTEX
8
0
10
-400.000000
20
475.000000
30
0.000000
0
SEQEND
0
POLYLINE
8
0
40
1.000000
41
1.000000
66
1
62
136
10
0
20
0
30
0
70
0
0
VERTEX
8
0
10
-400.000000
20
500.000000
30
0.000000
0
VERTEX
8
0
10
-350.000000
20
500.000000
30
0.000000
0
SEQEND
0
POLYLINE
8
0
40
1.000000
41
1.000000
66
1
62
136
10
0
20
0
30
0
70
0
0
VERTEX
8
0
10
-550.000000
20
500.000000
30
0.000000
0
VERTEX
8
0
10
-600.000000
20
500.000000
30
0.000000
0
SEQEND
0
TEXT
8
0
39
10
62
2
10
-450.000000
20
525.000000
30
0.000000
11
-450.000000
21
525.000000
31
0.000000
40
33.000000
50
0.000000
1
R46
72
2
73
0
0
TEXT
8
0
39
10
62
2
10
-475.000000
20
501.000000
30
0.000000
11
-475.000000
21
501.000000
31
0.000000
40
34.000000
50
0.000000
1
470
72
1
73
2
0
POLYLINE
8
0
40
4.000000
41
4.000000
66
1
62
216
10
0
20
0
30
0
70
0
0
VERTEX
8
0
10
100.000000
20
750.000000
30
0.000000
0
VERTEX
8
0
10
100.000000
20
800.000000
30
0.000000
0
VERTEX
8
0
10
-50.000000
20
800.000000
30
0.000000
0
VERTEX
8
0
10
-50.000000
20
750.000000
30
0.000000
0
VERTEX
8
0
10
100.000000
20
750.000000
30
0.000000
0
SEQEND
0
POLYLINE
8
0
40
1.000000
41
1.000000
66
1
62
136
10
0
20
0
30
0
70
0
0
VERTEX
8
0
10
100.000000
20
775.000000
30
0.000000
0
VERTEX
8
0
10
150.000000
20
775.000000
30
0.000000
0
SEQEND
0
POLYLINE
8
0
40
1.000000
41
1.000000
66
1
62
136
10
0
20
0
30
0
70
0
0
VERTEX
8
0
10
-50.000000
20
775.000000
30
0.000000
0
VERTEX
8
0
10
-100.000000
20
775.000000
30
0.000000
0
SEQEND
0
TEXT
8
0
39
10
62
2
10
50.000000
20
800.000000
30
0.000000
11
50.000000
21
800.000000
31
0.000000
40
33.000000
50
0.000000
1
R47
72
2
73
0
0
TEXT
8
0
39
10
62
2
10
25.000000
20
776.000000
30
0.000000
11
25.000000
21
776.000000
31
0.000000
40
34.000000
50
0.000000
1
220
72
1
73
2
0
POLYLINE
8
0
40
4.000000
41
4.000000
66
1
62
216
10
0
20
0
30
0
70
0
0
VERTEX
8
0
10
475.000000
20
475.000000
30
0.000000
0
VERTEX
8
0
10
475.000000
20
525.000000
30
0.000000
0
VERTEX
8
0
10
325.000000
20
525.000000
30
0.000000
0
VERTEX
8
0
10
325.000000
20
475.000000
30
0.000000
0
VERTEX
8
0
10
475.000000
20
475.000000
30
0.000000
0
SEQEND
0
POLYLINE
8
0
40
1.000000
41
1.000000
66
1
62
136
10
0
20
0
30
0
70
0
0
VERTEX
8
0
10
475.000000
20
500.000000
30
0.000000
0
VERTEX
8
0
10
525.000000
20
500.000000
30
0.000000
0
SEQEND
0
POLYLINE
8
0
40
1.000000
41
1.000000
66
1
62
136
10
0
20
0
30
0
70
0
0
VERTEX
8
0
10
325.000000
20
500.000000
30
0.000000
0
VERTEX
8
0
10
275.000000
20
500.000000
30
0.000000
0
SEQEND
0
TEXT
8
0
39
10
62
2
10
425.000000
20
525.000000
30
0.000000
11
425.000000
21
525.000000
31
0.000000
40
33.000000
50
0.000000
1
R48
72
2
73
0
0
TEXT
8
0
39
10
62
2
10
400.000000
20
501.000000
30
0.000000
11
400.000000
21
501.000000
31
0.000000
40
34.000000
50
0.000000
1
470
72
1
73
2
0
POLYLINE
8
0
40
4.000000
41
4.000000
66
1
62
216
10
0
20
0
30
0
70
0
0
VERTEX
8
0
10
-825.000000
20
700.000000
30
0.000000
0
VERTEX
8
0
10
-825.000000
20
750.000000
30
0.000000
0
VERTEX
8
0
10
-975.000000
20
750.000000
30
0.000000
0
VERTEX
8
0
10
-975.000000
20
700.000000
30
0.000000
0
VERTEX
8
0
10
-825.000000
20
700.000000
30
0.000000
0
SEQEND
0
POLYLINE
8
0
40
1.000000
41
1.000000
66
1
62
136
10
0
20
0
30
0
70
0
0
VERTEX
8
0
10
-825.000000
20
725.000000
30
0.000000
0
VERTEX
8
0
10
-775.000000
20
725.000000
30
0.000000
0
SEQEND
0
POLYLINE
8
0
40
1.000000
41
1.000000
66
1
62
136
10
0
20
0
30
0
70
0
0
VERTEX
8
0
10
-975.000000
20
725.000000
30
0.000000
0
VERTEX
8
0
10
-1025.000000
20
725.000000
30
0.000000
0
SEQEND
0
TEXT
8
0
39
10
62
2
10
-875.000000
20
750.000000
30
0.000000
11
-875.000000
21
750.000000
31
0.000000
40
33.000000
50
0.000000
1
R49
72
2
73
0
0
TEXT
8
0
39
10
62
2
10
-900.000000
20
726.000000
30
0.000000
11
-900.000000
21
726.000000
31
0.000000
40
34.000000
50
0.000000
1
220
72
1
73
2
0
POLYLINE
8
0
40
1.000000
41
1.000000
66
1
62
216
10
0
20
0
30
0
70
1
0
VERTEX
8
0
10
-650.000000
20
-2114.000000
30
0.000000
0
VERTEX
8
0
10
-650.000000
20
-2126.000000
30
0.000000
0
VERTEX
8
0
10
-550.000000
20
-2126.000000
30
0.000000
0
VERTEX
8
0
10
-550.000000
20
-2114.000000
30
0.000000
0
VERTEX
8
0
10
-650.000000
20
-2114.000000
30
0.000000
0
SEQEND
0
POLYLINE
8
0
40
1.000000
41
1.000000
66
1
62
216
10
0
20
0
30
0
70
1
0
VERTEX
8
0
10
-650.000000
20
-2084.000000
30
0.000000
0
VERTEX
8
0
10
-650.000000
20
-2096.000000
30
0.000000
0
VERTEX
8
0
10
-550.000000
20
-2096.000000
30
0.000000
0
VERTEX
8
0
10
-550.000000
20
-2084.000000
30
0.000000
0
VERTEX
8
0
10
-650.000000
20
-2084.000000
30
0.000000
0
SEQEND
0
POLYLINE
8
0
40
1.000000
41
1.000000
66
1
62
136
10
0
20
0
30
0
70
0
0
VERTEX
8
0
10
-600.000000
20
-2085.000000
30
0.000000
0
VERTEX
8
0
10
-600.000000
20
-2000.000000
30
0.000000
0
SEQEND
0
POLYLINE
8
0
40
1.000000
41
1.000000
66
1
62
136
10
0
20
0
30
0
70
0
0
VERTEX
8
0
10
-600.000000
20
-2128.000000
30
0.000000
0
VERTEX
8
0
10
-600.000000
20
-2200.000000
30
0.000000
0
SEQEND
0
TEXT
8
0
39
10
62
2
10
-600.000000
20
-2025.000000
30
0.000000
11
-600.000000
21
-2025.000000
31
0.000000
40
33.000000
50
0.000000
1
C31
72
2
73
3
0
TEXT
8
0
39
10
62
2
10
-475.000000
20
-2125.000000
30
0.000000
11
-475.000000
21
-2125.000000
31
0.000000
40
34.000000
50
0.000000
1
100nF
72
2
73
3
0
POLYLINE
8
0
40
1.000000
41
1.000000
66
1
62
216
10
0
20
0
30
0
70
1
0
VERTEX
8
0
10
-650.000000
20
-2364.000000
30
0.000000
0
VERTEX
8
0
10
-650.000000
20
-2376.000000
30
0.000000
0
VERTEX
8
0
10
-550.000000
20
-2376.000000
30
0.000000
0
VERTEX
8
0
10
-550.000000
20
-2364.000000
30
0.000000
0
VERTEX
8
0
10
-650.000000
20
-2364.000000
30
0.000000
0
SEQEND
0
POLYLINE
8
0
40
1.000000
41
1.000000
66
1
62
216
10
0
20
0
30
0
70
1
0
VERTEX
8
0
10
-650.000000
20
-2334.000000
30
0.000000
0
VERTEX
8
0
10
-650.000000
20
-2346.000000
30
0.000000
0
VERTEX
8
0
10
-550.000000
20
-2346.000000
30
0.000000
0
VERTEX
8
0
10
-550.000000
20
-2334.000000
30
0.000000
0
VERTEX
8
0
10
-650.000000
20
-2334.000000
30
0.000000
0
SEQEND
0
POLYLINE
8
0
40
1.000000
41
1.000000
66
1
62
136
10
0
20
0
30
0
70
0
0
VERTEX
8
0
10
-600.000000
20
-2335.000000
30
0.000000
0
VERTEX
8
0
10
-600.000000
20
-2250.000000
30
0.000000
0
SEQEND
0
POLYLINE
8
0
40
1.000000
41
1.000000
66
1
62
136
10
0
20
0
30
0
70
0
0
VERTEX
8
0
10
-600.000000
20
-2378.000000
30
0.000000
0
VERTEX
8
0
10
-600.000000
20
-2450.000000
30
0.000000
0
SEQEND
0
TEXT
8
0
39
10
62
2
10
-600.000000
20
-2275.000000
30
0.000000
11
-600.000000
21
-2275.000000
31
0.000000
40
33.000000
50
0.000000
1
C32
72
2
73
3
0
TEXT
8
0
39
10
62
2
10
-475.000000
20
-2375.000000
30
0.000000
11
-475.000000
21
-2375.000000
31
0.000000
40
34.000000
50
0.000000
1
100nF
72
2
73
3
0
POLYLINE
8
0
40
1.000000
41
1.000000
66
1
62
216
10
0
20
0
30
0
70
1
0
VERTEX
8
0
10
-425.000000
20
-2114.000000
30
0.000000
0
VERTEX
8
0
10
-425.000000
20
-2126.000000
30
0.000000
0
VERTEX
8
0
10
-325.000000
20
-2126.000000
30
0.000000
0
VERTEX
8
0
10
-325.000000
20
-2114.000000
30
0.000000
0
VERTEX
8
0
10
-425.000000
20
-2114.000000
30
0.000000
0
SEQEND
0
POLYLINE
8
0
40
1.000000
41
1.000000
66
1
62
216
10
0
20
0
30
0
70
1
0
VERTEX
8
0
10
-425.000000
20
-2084.000000
30
0.000000
0
VERTEX
8
0
10
-425.000000
20
-2096.000000
30
0.000000
0
VERTEX
8
0
10
-325.000000
20
-2096.000000
30
0.000000
0
VERTEX
8
0
10
-325.000000
20
-2084.000000
30
0.000000
0
VERTEX
8
0
10
-425.000000
20
-2084.000000
30
0.000000
0
SEQEND
0
POLYLINE
8
0
40
1.000000
41
1.000000
66
1
62
136
10
0
20
0
30
0
70
0
0
VERTEX
8
0
10
-375.000000
20
-2085.000000
30
0.000000
0
VERTEX
8
0
10
-375.000000
20
-2000.000000
30
0.000000
0
SEQEND
0
POLYLINE
8
0
40
1.000000
41
1.000000
66
1
62
136
10
0
20
0
30
0
70
0
0
VERTEX
8
0
10
-375.000000
20
-2128.000000
30
0.000000
0
VERTEX
8
0
10
-375.000000
20
-2200.000000
30
0.000000
0
SEQEND
0
TEXT
8
0
39
10
62
2
10
-375.000000
20
-2025.000000
30
0.000000
11
-375.000000
21
-2025.000000
31
0.000000
40
33.000000
50
0.000000
1
C35
72
2
73
3
0
TEXT
8
0
39
10
62
2
10
-250.000000
20
-2125.000000
30
0.000000
11
-250.000000
21
-2125.000000
31
0.000000
40
34.000000
50
0.000000
1
100nF
72
2
73
3
0
POLYLINE
8
0
40
1.000000
41
1.000000
66
1
62
216
10
0
20
0
30
0
70
1
0
VERTEX
8
0
10
-225.000000
20
-2114.000000
30
0.000000
0
VERTEX
8
0
10
-225.000000
20
-2126.000000
30
0.000000
0
VERTEX
8
0
10
-125.000000
20
-2126.000000
30
0.000000
0
VERTEX
8
0
10
-125.000000
20
-2114.000000
30
0.000000
0
VERTEX
8
0
10
-225.000000
20
-2114.000000
30
0.000000
0
SEQEND
0
POLYLINE
8
0
40
1.000000
41
1.000000
66
1
62
216
10
0
20
0
30
0
70
1
0
VERTEX
8
0
10
-225.000000
20
-2084.000000
30
0.000000
0
VERTEX
8
0
10
-225.000000
20
-2096.000000
30
0.000000
0
VERTEX
8
0
10
-125.000000
20
-2096.000000
30
0.000000
0
VERTEX
8
0
10
-125.000000
20
-2084.000000
30
0.000000
0
VERTEX
8
0
10
-225.000000
20
-2084.000000
30
0.000000
0
SEQEND
0
POLYLINE
8
0
40
1.000000
41
1.000000
66
1
62
136
10
0
20
0
30
0
70
0
0
VERTEX
8
0
10
-175.000000
20
-2085.000000
30
0.000000
0
VERTEX
8
0
10
-175.000000
20
-2000.000000
30
0.000000
0
SEQEND
0
POLYLINE
8
0
40
1.000000
41
1.000000
66
1
62
136
10
0
20
0
30
0
70
0
0
VERTEX
8
0
10
-175.000000
20
-2128.000000
30
0.000000
0
VERTEX
8
0
10
-175.000000
20
-2200.000000
30
0.000000
0
SEQEND
0
TEXT
8
0
39
10
62
2
10
-175.000000
20
-2025.000000
30
0.000000
11
-175.000000
21
-2025.000000
31
0.000000
40
33.000000
50
0.000000
1
C40
72
2
73
3
0
TEXT
8
0
39
10
62
2
10
-50.000000
20
-2125.000000
30
0.000000
11
-50.000000
21
-2125.000000
31
0.000000
40
34.000000
50
0.000000
1
100nF
72
2
73
3
0
POLYLINE
8
0
40
1.000000
41
1.000000
66
1
62
216
10
0
20
0
30
0
70
1
0
VERTEX
8
0
10
-425.000000
20
-2364.000000
30
0.000000
0
VERTEX
8
0
10
-425.000000
20
-2376.000000
30
0.000000
0
VERTEX
8
0
10
-325.000000
20
-2376.000000
30
0.000000
0
VERTEX
8
0
10
-325.000000
20
-2364.000000
30
0.000000
0
VERTEX
8
0
10
-425.000000
20
-2364.000000
30
0.000000
0
SEQEND
0
POLYLINE
8
0
40
1.000000
41
1.000000
66
1
62
216
10
0
20
0
30
0
70
1
0
VERTEX
8
0
10
-425.000000
20
-2334.000000
30
0.000000
0
VERTEX
8
0
10
-425.000000
20
-2346.000000
30
0.000000
0
VERTEX
8
0
10
-325.000000
20
-2346.000000
30
0.000000
0
VERTEX
8
0
10
-325.000000
20
-2334.000000
30
0.000000
0
VERTEX
8
0
10
-425.000000
20
-2334.000000
30
0.000000
0
SEQEND
0
POLYLINE
8
0
40
1.000000
41
1.000000
66
1
62
136
10
0
20
0
30
0
70
0
0
VERTEX
8
0
10
-375.000000
20
-2335.000000
30
0.000000
0
VERTEX
8
0
10
-375.000000
20
-2250.000000
30
0.000000
0
SEQEND
0
POLYLINE
8
0
40
1.000000
41
1.000000
66
1
62
136
10
0
20
0
30
0
70
0
0
VERTEX
8
0
10
-375.000000
20
-2378.000000
30
0.000000
0
VERTEX
8
0
10
-375.000000
20
-2450.000000
30
0.000000
0
SEQEND
0
TEXT
8
0
39
10
62
2
10
-375.000000
20
-2275.000000
30
0.000000
11
-375.000000
21
-2275.000000
31
0.000000
40
33.000000
50
0.000000
1
C41
72
2
73
3
0
TEXT
8
0
39
10
62
2
10
-250.000000
20
-2375.000000
30
0.000000
11
-250.000000
21
-2375.000000
31
0.000000
40
34.000000
50
0.000000
1
47
72
2
73
3
0
POLYLINE
8
0
40
4.000000
41
4.000000
66
1
62
216
10
0
20
0
30
0
70
0
0
VERTEX
8
0
10
-2976.000000
20
-1126.000000
30
0.000000
0
VERTEX
8
0
10
-2976.000000
20
-1526.000000
30
0.000000
0
VERTEX
8
0
10
-2900.000000
20
-1526.000000
30
0.000000
0
VERTEX
8
0
10
-2900.000000
20
-1126.000000
30
0.000000
0
VERTEX
8
0
10
-2976.000000
20
-1126.000000
30
0.000000
0
SEQEND
0
POLYLINE
8
0
40
1.000000
41
1.000000
66
1
62
136
10
0
20
0
30
0
70
0
0
VERTEX
8
0
10
-2900.000000
20
-1150.000000
30
0.000000
0
VERTEX
8
0
10
-2750.000000
20
-1150.000000
30
0.000000
0
SEQEND
0
POLYLINE
8
0
40
1.000000
41
1.000000
66
1
62
136
10
0
20
0
30
0
70
0
0
VERTEX
8
0
10
-2900.000000
20
-1200.000000
30
0.000000
0
VERTEX
8
0
10
-2750.000000
20
-1200.000000
30
0.000000
0
SEQEND
0
POLYLINE
8
0
40
1.000000
41
1.000000
66
1
62
136
10
0
20
0
30
0
70
0
0
VERTEX
8
0
10
-2900.000000
20
-1250.000000
30
0.000000
0
VERTEX
8
0
10
-2750.000000
20
-1250.000000
30
0.000000
0
SEQEND
0
POLYLINE
8
0
40
1.000000
41
1.000000
66
1
62
136
10
0
20
0
30
0
70
0
0
VERTEX
8
0
10
-2900.000000
20
-1300.000000
30
0.000000
0
VERTEX
8
0
10
-2750.000000
20
-1300.000000
30
0.000000
0
SEQEND
0
POLYLINE
8
0
40
1.000000
41
1.000000
66
1
62
136
10
0
20
0
30
0
70
0
0
VERTEX
8
0
10
-2900.000000
20
-1350.000000
30
0.000000
0
VERTEX
8
0
10
-2750.000000
20
-1350.000000
30
0.000000
0
SEQEND
0
POLYLINE
8
0
40
1.000000
41
1.000000
66
1
62
136
10
0
20
0
30
0
70
0
0
VERTEX
8
0
10
-2900.000000
20
-1400.000000
30
0.000000
0
VERTEX
8
0
10
-2750.000000
20
-1400.000000
30
0.000000
0
SEQEND
0
POLYLINE
8
0
40
1.000000
41
1.000000
66
1
62
136
10
0
20
0
30
0
70
0
0
VERTEX
8
0
10
-2900.000000
20
-1450.000000
30
0.000000
0
VERTEX
8
0
10
-2750.000000
20
-1450.000000
30
0.000000
0
SEQEND
0
POLYLINE
8
0
40
1.000000
41
1.000000
66
1
62
136
10
0
20
0
30
0
70
0
0
VERTEX
8
0
10
-2900.000000
20
-1500.000000
30
0.000000
0
VERTEX
8
0
10
-2750.000000
20
-1500.000000
30
0.000000
0
SEQEND
0
TEXT
8
0
39
10
62
2
10
-2875.000000
20
-1100.000000
30
0.000000
11
-2875.000000
21
-1100.000000
31
0.000000
40
34.000000
50
0.000000
1
J8
72
1
73
2
0
TEXT
8
0
39
10
62
2
10
-2875.000000
20
-1525.000000
30
0.000000
11
-2875.000000
21
-1525.000000
31
0.000000
40
34.000000
50
0.000000
1
HDR_8
72
1
73
2
0
TEXT
8
0
39
10
62
12
10
-2750.000000
20
-1150.000000
30
0.000000
11
-2750.000000
21
-1150.000000
31
0.000000
40
34.000000
50
0.000000
1
1
72
2
73
0
0
TEXT
8
0
39
10
62
12
10
-2750.000000
20
-1200.000000
30
0.000000
11
-2750.000000
21
-1200.000000
31
0.000000
40
34.000000
50
0.000000
1
2
72
2
73
0
0
TEXT
8
0
39
10
62
12
10
-2750.000000
20
-1250.000000
30
0.000000
11
-2750.000000
21
-1250.000000
31
0.000000
40
34.000000
50
0.000000
1
3
72
2
73
0
0
TEXT
8
0
39
10
62
12
10
-2750.000000
20
-1300.000000
30
0.000000
11
-2750.000000
21
-1300.000000
31
0.000000
40
34.000000
50
0.000000
1
4
72
2
73
0
0
TEXT
8
0
39
10
62
12
10
-2750.000000
20
-1350.000000
30
0.000000
11
-2750.000000
21
-1350.000000
31
0.000000
40
34.000000
50
0.000000
1
5
72
2
73
0
0
TEXT
8
0
39
10
62
12
10
-2750.000000
20
-1400.000000
30
0.000000
11
-2750.000000
21
-1400.000000
31
0.000000
40
34.000000
50
0.000000
1
6
72
2
73
0
0
TEXT
8
0
39
10
62
12
10
-2750.000000
20
-1450.000000
30
0.000000
11
-2750.000000
21
-1450.000000
31
0.000000
40
34.000000
50
0.000000
1
7
72
2
73
0
0
TEXT
8
0
39
10
62
12
10
-2750.000000
20
-1500.000000
30
0.000000
11
-2750.000000
21
-1500.000000
31
0.000000
40
34.000000
50
0.000000
1
8
72
2
73
0
0
POLYLINE
8
0
40
4.000000
41
4.000000
66
1
62
216
10
0
20
0
30
0
70
0
0
VERTEX
8
0
10
-2426.000000
20
-1101.000000
30
0.000000
0
VERTEX
8
0
10
-2426.000000
20
-1501.000000
30
0.000000
0
VERTEX
8
0
10
-2350.000000
20
-1501.000000
30
0.000000
0
VERTEX
8
0
10
-2350.000000
20
-1101.000000
30
0.000000
0
VERTEX
8
0
10
-2426.000000
20
-1101.000000
30
0.000000
0
SEQEND
0
POLYLINE
8
0
40
1.000000
41
1.000000
66
1
62
136
10
0
20
0
30
0
70
0
0
VERTEX
8
0
10
-2350.000000
20
-1125.000000
30
0.000000
0
VERTEX
8
0
10
-2200.000000
20
-1125.000000
30
0.000000
0
SEQEND
0
POLYLINE
8
0
40
1.000000
41
1.000000
66
1
62
136
10
0
20
0
30
0
70
0
0
VERTEX
8
0
10
-2350.000000
20
-1175.000000
30
0.000000
0
VERTEX
8
0
10
-2200.000000
20
-1175.000000
30
0.000000
0
SEQEND
0
POLYLINE
8
0
40
1.000000
41
1.000000
66
1
62
136
10
0
20
0
30
0
70
0
0
VERTEX
8
0
10
-2350.000000
20
-1225.000000
30
0.000000
0
VERTEX
8
0
10
-2200.000000
20
-1225.000000
30
0.000000
0
SEQEND
0
POLYLINE
8
0
40
1.000000
41
1.000000
66
1
62
136
10
0
20
0
30
0
70
0
0
VERTEX
8
0
10
-2350.000000
20
-1275.000000
30
0.000000
0
VERTEX
8
0
10
-2200.000000
20
-1275.000000
30
0.000000
0
SEQEND
0
POLYLINE
8
0
40
1.000000
41
1.000000
66
1
62
136
10
0
20
0
30
0
70
0
0
VERTEX
8
0
10
-2350.000000
20
-1325.000000
30
0.000000
0
VERTEX
8
0
10
-2200.000000
20
-1325.000000
30
0.000000
0
SEQEND
0
POLYLINE
8
0
40
1.000000
41
1.000000
66
1
62
136
10
0
20
0
30
0
70
0
0
VERTEX
8
0
10
-2350.000000
20
-1375.000000
30
0.000000
0
VERTEX
8
0
10
-2200.000000
20
-1375.000000
30
0.000000
0
SEQEND
0
POLYLINE
8
0
40
1.000000
41
1.000000
66
1
62
136
10
0
20
0
30
0
70
0
0
VERTEX
8
0
10
-2350.000000
20
-1425.000000
30
0.000000
0
VERTEX
8
0
10
-2200.000000
20
-1425.000000
30
0.000000
0
SEQEND
0
POLYLINE
8
0
40
1.000000
41
1.000000
66
1
62
136
10
0
20
0
30
0
70
0
0
VERTEX
8
0
10
-2350.000000
20
-1475.000000
30
0.000000
0
VERTEX
8
0
10
-2200.000000
20
-1475.000000
30
0.000000
0
SEQEND
0
TEXT
8
0
39
10
62
2
10
-2325.000000
20
-1075.000000
30
0.000000
11
-2325.000000
21
-1075.000000
31
0.000000
40
34.000000
50
0.000000
1
J9
72
1
73
2
0
TEXT
8
0
39
10
62
2
10
-2325.000000
20
-1500.000000
30
0.000000
11
-2325.000000
21
-1500.000000
31
0.000000
40
34.000000
50
0.000000
1
HDR_8
72
1
73
2
0
TEXT
8
0
39
10
62
12
10
-2200.000000
20
-1125.000000
30
0.000000
11
-2200.000000
21
-1125.000000
31
0.000000
40
34.000000
50
0.000000
1
1
72
2
73
0
0
TEXT
8
0
39
10
62
12
10
-2200.000000
20
-1175.000000
30
0.000000
11
-2200.000000
21
-1175.000000
31
0.000000
40
34.000000
50
0.000000
1
2
72
2
73
0
0
TEXT
8
0
39
10
62
12
10
-2200.000000
20
-1225.000000
30
0.000000
11
-2200.000000
21
-1225.000000
31
0.000000
40
34.000000
50
0.000000
1
3
72
2
73
0
0
TEXT
8
0
39
10
62
12
10
-2200.000000
20
-1275.000000
30
0.000000
11
-2200.000000
21
-1275.000000
31
0.000000
40
34.000000
50
0.000000
1
4
72
2
73
0
0
TEXT
8
0
39
10
62
12
10
-2200.000000
20
-1325.000000
30
0.000000
11
-2200.000000
21
-1325.000000
31
0.000000
40
34.000000
50
0.000000
1
5
72
2
73
0
0
TEXT
8
0
39
10
62
12
10
-2200.000000
20
-1375.000000
30
0.000000
11
-2200.000000
21
-1375.000000
31
0.000000
40
34.000000
50
0.000000
1
6
72
2
73
0
0
TEXT
8
0
39
10
62
12
10
-2200.000000
20
-1425.000000
30
0.000000
11
-2200.000000
21
-1425.000000
31
0.000000
40
34.000000
50
0.000000
1
7
72
2
73
0
0
TEXT
8
0
39
10
62
12
10
-2200.000000
20
-1475.000000
30
0.000000
11
-2200.000000
21
-1475.000000
31
0.000000
40
34.000000
50
0.000000
1
8
72
2
73
0
0
POLYLINE
8
0
40
1.000000
41
1.000000
66
1
62
136
10
0
20
0
30
0
70
1
0
VERTEX
8
0
10
2048.000000
20
-2495.000000
30
0.000000
0
VERTEX
8
0
10
2048.000000
20
-2507.000000
30
0.000000
0
VERTEX
8
0
10
3800.000000
20
-2506.000000
30
0.000000
0
VERTEX
8
0
10
3800.000000
20
-2494.000000
30
0.000000
0
VERTEX
8
0
10
2048.000000
20
-2495.000000
30
0.000000
0
SEQEND
0
POLYLINE
8
0
40
1.000000
41
1.000000
66
1
62
136
10
0
20
0
30
0
70
1
0
VERTEX
8
0
10
2944.000000
20
-2501.000000
30
0.000000
0
VERTEX
8
0
10
2956.000000
20
-2501.000000
30
0.000000
0
VERTEX
8
0
10
2956.000000
20
-2600.000000
30
0.000000
0
VERTEX
8
0
10
2944.000000
20
-2600.000000
30
0.000000
0
VERTEX
8
0
10
2944.000000
20
-2501.000000
30
0.000000
0
SEQEND
0
POLYLINE
8
0
40
1.000000
41
1.000000
66
1
62
136
10
0
20
0
30
0
70
1
0
VERTEX
8
0
10
3294.000000
20
-2501.000000
30
0.000000
0
VERTEX
8
0
10
3306.000000
20
-2501.000000
30
0.000000
0
VERTEX
8
0
10
3306.000000
20
-2600.000000
30
0.000000
0
VERTEX
8
0
10
3294.000000
20
-2600.000000
30
0.000000
0
VERTEX
8
0
10
3294.000000
20
-2501.000000
30
0.000000
0
SEQEND
0
POLYLINE
8
0
40
1.000000
41
1.000000
66
1
62
136
10
0
20
0
30
0
70
1
0
VERTEX
8
0
10
2050.000000
20
-2245.000000
30
0.000000
0
VERTEX
8
0
10
2050.000000
20
-2257.000000
30
0.000000
0
VERTEX
8
0
10
3800.000000
20
-2256.000000
30
0.000000
0
VERTEX
8
0
10
3800.000000
20
-2244.000000
30
0.000000
0
VERTEX
8
0
10
2050.000000
20
-2245.000000
30
0.000000
0
SEQEND
0
POLYLINE
8
0
40
1.000000
41
1.000000
66
1
62
136
10
0
20
0
30
0
70
1
0
VERTEX
8
0
10
2050.000000
20
-2145.000000
30
0.000000
0
VERTEX
8
0
10
2050.000000
20
-2157.000000
30
0.000000
0
VERTEX
8
0
10
3800.000000
20
-2156.000000
30
0.000000
0
VERTEX
8
0
10
3800.000000
20
-2144.000000
30
0.000000
0
VERTEX
8
0
10
2050.000000
20
-2145.000000
30
0.000000
0
SEQEND
0
POLYLINE
8
0
40
1.000000
41
1.000000
66
1
62
136
10
0
20
0
30
0
70
1
0
VERTEX
8
0
10
2344.000000
20
-2051.000000
30
0.000000
0
VERTEX
8
0
10
2356.000000
20
-2051.000000
30
0.000000
0
VERTEX
8
0
10
2356.000000
20
-2151.000000
30
0.000000
0
VERTEX
8
0
10
2344.000000
20
-2151.000000
30
0.000000
0
VERTEX
8
0
10
2344.000000
20
-2051.000000
30
0.000000
0
SEQEND
0
POLYLINE
8
0
40
1.000000
41
1.000000
66
1
62
136
10
0
20
0
30
0
70
1
0
VERTEX
8
0
10
3044.000000
20
-2051.000000
30
0.000000
0
VERTEX
8
0
10
3056.000000
20
-2051.000000
30
0.000000
0
VERTEX
8
0
10
3056.000000
20
-2151.000000
30
0.000000
0
VERTEX
8
0
10
3044.000000
20
-2151.000000
30
0.000000
0
VERTEX
8
0
10
3044.000000
20
-2051.000000
30
0.000000
0
SEQEND
0
POLYLINE
8
0
40
1.000000
41
1.000000
66
1
62
136
10
0
20
0
30
0
70
1
0
VERTEX
8
0
10
2044.000000
20
-2026.000000
30
0.000000
0
VERTEX
8
0
10
2056.000000
20
-2026.000000
30
0.000000
0
VERTEX
8
0
10
2056.000000
20
-2600.000000
30
0.000000
0
VERTEX
8
0
10
2044.000000
20
-2600.000000
30
0.000000
0
VERTEX
8
0
10
2044.000000
20
-2026.000000
30
0.000000
0
SEQEND
0
POLYLINE
8
0
40
1.000000
41
1.000000
66
1
62
136
10
0
20
0
30
0
70
1
0
VERTEX
8
0
10
2050.000000
20
-2606.000000
30
0.000000
0
VERTEX
8
0
10
2050.000000
20
-2594.000000
30
0.000000
0
VERTEX
8
0
10
3800.000000
20
-2594.000000
30
0.000000
0
VERTEX
8
0
10
3800.000000
20
-2606.000000
30
0.000000
0
VERTEX
8
0
10
2050.000000
20
-2606.000000
30
0.000000
0
SEQEND
0
POLYLINE
8
0
40
1.000000
41
1.000000
66
1
62
136
10
0
20
0
30
0
70
1
0
VERTEX
8
0
10
3794.000000
20
-2600.000000
30
0.000000
0
VERTEX
8
0
10
3806.000000
20
-2600.000000
30
0.000000
0
VERTEX
8
0
10
3806.000000
20
-2026.000000
30
0.000000
0
VERTEX
8
0
10
3794.000000
20
-2026.000000
30
0.000000
0
VERTEX
8
0
10
3794.000000
20
-2600.000000
30
0.000000
0
SEQEND
0
POLYLINE
8
0
40
1.000000
41
1.000000
66
1
62
136
10
0
20
0
30
0
70
1
0
VERTEX
8
0
10
3800.000000
20
-2056.000000
30
0.000000
0
VERTEX
8
0
10
3800.000000
20
-2044.000000
30
0.000000
0
VERTEX
8
0
10
2050.000000
20
-2044.000000
30
0.000000
0
VERTEX
8
0
10
2050.000000
20
-2056.000000
30
0.000000
0
VERTEX
8
0
10
3800.000000
20
-2056.000000
30
0.000000
0
SEQEND
0
LINE
8
0
39
10
62
136
10
3380.000000
20
-2150.000000
30
0.000000
11
3380.000000
21
-2240.000000
31
0.000000
0
TEXT
8
0
39
10
62
136
10
2075.000000
20
-2550.000000
30
0.000000
11
2075.000000
21
-2550.000000
31
0.000000
40
34.000000
50
0.000000
1
INITIAL
72
0
73
2
0
TEXT
8
0
39
10
62
136
10
2975.000000
20
-2550.000000
30
0.000000
11
2975.000000
21
-2550.000000
31
0.000000
40
34.000000
50
0.000000
1
PAGE:
72
0
73
2
0
TEXT
8
0
39
10
62
136
10
3320.000000
20
-2550.000000
30
0.000000
11
3320.000000
21
-2550.000000
31
0.000000
40
34.000000
50
0.000000
1
OF:
72
0
73
2
0
TEXT
8
0
39
10
62
136
10
2075.000000
20
-2300.000000
30
0.000000
11
2075.000000
21
-2300.000000
31
0.000000
40
34.000000
50
0.000000
1
COMPANY:
72
0
73
2
0
TEXT
8
0
39
10
62
136
10
2075.000000
20
-2450.000000
30
0.000000
11
2075.000000
21
-2450.000000
31
0.000000
40
34.000000
50
0.000000
1
COUNTRY:
72
0
73
2
0
TEXT
8
0
39
10
62
136
10
2550.000000
20
-2550.000000
30
0.000000
11
2550.000000
21
-2550.000000
31
0.000000
40
34.000000
50
0.000000
1
28.05.2011
72
0
73
2
0
TEXT
8
0
39
10
62
136
10
2575.000000
20
-2100.000000
30
0.000000
11
2575.000000
21
-2100.000000
31
0.000000
40
34.000000
50
0.000000
1
19.07.2011
72
0
73
2
0
TEXT
8
0
39
10
62
136
10
2375.000000
20
-2200.000000
30
0.000000
11
2375.000000
21
-2200.000000
31
0.000000
40
34.000000
50
0.000000
1
SIPM CONTROLLER DUO
72
0
73
2
0
TEXT
8
0
39
10
62
136
10
3175.000000
20
-2550.000000
30
0.000000
11
3175.000000
21
-2550.000000
31
0.000000
40
34.000000
50
0.000000
1
2
72
0
73
2
0
TEXT
8
0
39
10
62
136
10
3450.000000
20
-2550.000000
30
0.000000
11
3450.000000
21
-2550.000000
31
0.000000
40
34.000000
50
0.000000
1
4
72
0
73
2
0
TEXT
8
0
39
10
62
136
10
2225.000000
20
-2100.000000
30
0.000000
11
2225.000000
21
-2100.000000
31
0.000000
40
34.000000
50
0.000000
1
1.0
72
0
73
2
0
TEXT
8
0
39
10
62
136
10
2375.000000
20
-2300.000000
30
0.000000
11
2375.000000
21
-2300.000000
31
0.000000
40
34.000000
50
0.000000
1
III. PHHYSIKALISCHES  INST. B
72
0
73
2
0
TEXT
8
0
39
10
62
136
10
2375.000000
20
-2350.000000
30
0.000000
11
2375.000000
21
-2350.000000
31
0.000000
40
34.000000
50
0.000000
1
OTTO-BLUMENTHAL-STR.
72
0
73
2
0
TEXT
8
0
39
10
62
136
10
2375.000000
20
-2400.000000
30
0.000000
11
2375.000000
21
-2400.000000
31
0.000000
40
34.000000
50
0.000000
1
52074  AACHEN
72
0
73
2
0
TEXT
8
0
39
10
62
136
10
2375.000000
20
-2450.000000
30
0.000000
11
2375.000000
21
-2450.000000
31
0.000000
40
34.000000
50
0.000000
1
GERMANY
72
0
73
2
0
TEXT
8
0
39
10
62
136
10
3225.000000
20
-2100.000000
30
0.000000
11
3225.000000
21
-2100.000000
31
0.000000
40
34.000000
50
0.000000
1
F. BEIEL
72
0
73
2
0
TEXT
8
0
39
10
62
136
10
2075.000000
20
-2400.000000
30
0.000000
11
2075.000000
21
-2400.000000
31
0.000000
40
34.000000
50
0.000000
1
CITY
72
0
73
2
0
TEXT
8
0
39
10
62
136
10
2075.000000
20
-2200.000000
30
0.000000
11
2075.000000
21
-2200.000000
31
0.000000
40
34.000000
50
0.000000
1
PROJECT:
72
0
73
2
0
TEXT
8
0
39
10
62
136
10
2075.000000
20
-2100.000000
30
0.000000
11
2075.000000
21
-2100.000000
31
0.000000
40
34.000000
50
0.000000
1
REV:
72
0
73
2
0
TEXT
8
0
39
10
62
136
10
2375.000000
20
-2100.000000
30
0.000000
11
2375.000000
21
-2100.000000
31
0.000000
40
34.000000
50
0.000000
1
DATE:
72
0
73
2
0
TEXT
8
0
39
10
62
136
10
3075.000000
20
-2100.000000
30
0.000000
11
3075.000000
21
-2100.000000
31
0.000000
40
34.000000
50
0.000000
1
ENG:
72
0
73
2
0
TEXT
8
0
39
10
62
136
10
2075.000000
20
-2350.000000
30
0.000000
11
2075.000000
21
-2350.000000
31
0.000000
40
34.000000
50
0.000000
1
ADDRESS:
72
0
73
2
0
TEXT
8
0
39
10
62
136
10
3405.000000
20
-2170.000000
30
0.000000
11
3405.000000
21
-2170.000000
31
0.000000
40
33.000000
50
0.000000
1
NO.
72
0
73
3
0
TEXT
8
0
39
10
62
136
10
3590.000000
20
-2175.000000
30
0.000000
11
3590.000000
21
-2175.000000
31
0.000000
40
33.000000
50
0.000000
1
911
72
0
73
3
0
POLYLINE
8
0
40
4.000000
41
4.000000
66
1
62
216
10
0
20
0
30
0
70
0
0
VERTEX
8
0
10
-1526.000000
20
225.000000
30
0.000000
0
VERTEX
8
0
10
-1576.000000
20
225.000000
30
0.000000
0
SEQEND
0
POLYLINE
8
0
40
4.000000
41
4.000000
66
1
62
216
10
0
20
0
30
0
70
0
0
VERTEX
8
0
10
-1550.000000
20
225.000000
30
0.000000
0
VERTEX
8
0
10
-1526.000000
20
175.000000
30
0.000000
0
VERTEX
8
0
10
-1576.000000
20
175.000000
30
0.000000
0
VERTEX
8
0
10
-1550.000000
20
225.000000
30
0.000000
0
SEQEND
0
POLYLINE
8
0
40
1.000000
41
1.000000
66
1
62
136
10
0
20
0
30
0
70
0
0
VERTEX
8
0
10
-1550.000000
20
225.000000
30
0.000000
0
VERTEX
8
0
10
-1550.000000
20
325.000000
30
0.000000
0
SEQEND
0
POLYLINE
8
0
40
1.000000
41
1.000000
66
1
62
136
10
0
20
0
30
0
70
0
0
VERTEX
8
0
10
-1550.000000
20
175.000000
30
0.000000
0
VERTEX
8
0
10
-1550.000000
20
75.000000
30
0.000000
0
SEQEND
0
TEXT
8
0
39
10
62
2
10
-1450.000000
20
225.000000
30
0.000000
11
-1450.000000
21
225.000000
31
0.000000
40
33.000000
50
90.000000
1
D4
72
2
73
0
0
TEXT
8
0
39
10
62
2
10
-1600.000000
20
200.000000
30
0.000000
11
-1600.000000
21
200.000000
31
0.000000
40
34.000000
50
90.000000
1
1N4148
72
1
73
0
0
POLYLINE
8
0
40
4.000000
41
4.000000
66
1
62
216
10
0
20
0
30
0
70
0
0
VERTEX
8
0
10
-1526.000000
20
1900.000000
30
0.000000
0
VERTEX
8
0
10
-1576.000000
20
1900.000000
30
0.000000
0
SEQEND
0
POLYLINE
8
0
40
4.000000
41
4.000000
66
1
62
216
10
0
20
0
30
0
70
0
0
VERTEX
8
0
10
-1550.000000
20
1900.000000
30
0.000000
0
VERTEX
8
0
10
-1526.000000
20
1850.000000
30
0.000000
0
VERTEX
8
0
10
-1576.000000
20
1850.000000
30
0.000000
0
VERTEX
8
0
10
-1550.000000
20
1900.000000
30
0.000000
0
SEQEND
0
POLYLINE
8
0
40
1.000000
41
1.000000
66
1
62
136
10
0
20
0
30
0
70
0
0
VERTEX
8
0
10
-1550.000000
20
1900.000000
30
0.000000
0
VERTEX
8
0
10
-1550.000000
20
2000.000000
30
0.000000
0
SEQEND
0
POLYLINE
8
0
40
1.000000
41
1.000000
66
1
62
136
10
0
20
0
30
0
70
0
0
VERTEX
8
0
10
-1550.000000
20
1850.000000
30
0.000000
0
VERTEX
8
0
10
-1550.000000
20
1750.000000
30
0.000000
0
SEQEND
0
TEXT
8
0
39
10
62
2
10
-1450.000000
20
1900.000000
30
0.000000
11
-1450.000000
21
1900.000000
31
0.000000
40
33.000000
50
90.000000
1
D5
72
2
73
0
0
TEXT
8
0
39
10
62
2
10
-1600.000000
20
1875.000000
30
0.000000
11
-1600.000000
21
1875.000000
31
0.000000
40
34.000000
50
90.000000
1
1N4148
72
1
73
0
0
TEXT
8
0
39
10
62
7
10
-3388.000000
20
-2175.000000
30
0.000000
11
-3388.000000
21
-2175.000000
31
0.000000
40
37.000000
50
90.000000
1
VCC
72
0
73
0
0
TEXT
8
0
39
10
62
7
10
-3288.000000
20
-2175.000000
30
0.000000
11
-3288.000000
21
-2175.000000
31
0.000000
40
37.000000
50
90.000000
1
VEE
72
0
73
0
0
TEXT
8
0
39
10
62
7
10
-3188.000000
20
-2175.000000
30
0.000000
11
-3188.000000
21
-2175.000000
31
0.000000
40
37.000000
50
90.000000
1
GND
72
0
73
0
0
TEXT
8
0
39
10
62
7
10
-3088.000000
20
-2175.000000
30
0.000000
11
-3088.000000
21
-2175.000000
31
0.000000
40
37.000000
50
90.000000
1
VB_1
72
0
73
0
0
TEXT
8
0
39
10
62
7
10
-2988.000000
20
-2175.000000
30
0.000000
11
-2988.000000
21
-2175.000000
31
0.000000
40
37.000000
50
90.000000
1
VB_2
72
0
73
0
0
TEXT
8
0
39
10
62
7
10
-2913.000000
20
-2175.000000
30
0.000000
11
-2913.000000
21
-2175.000000
31
0.000000
40
37.000000
50
90.000000
1
VBIN
72
0
73
0
0
TEXT
8
0
39
10
62
7
10
-2188.000000
20
-2175.000000
30
0.000000
11
-2188.000000
21
-2175.000000
31
0.000000
40
37.000000
50
90.000000
1
SCK
72
0
73
0
0
TEXT
8
0
39
10
62
7
10
-2288.000000
20
-2175.000000
30
0.000000
11
-2288.000000
21
-2175.000000
31
0.000000
40
37.000000
50
90.000000
1
MOSI
72
0
73
0
0
LINE
8
0
39
1
62
7
10
-2153.000000
20
-2175.000000
30
0.000000
11
-2153.000000
21
-2064.000000
31
0.000000
0
TEXT
8
0
39
10
62
7
10
-2113.000000
20
-2175.000000
30
0.000000
11
-2113.000000
21
-2175.000000
31
0.000000
40
37.000000
50
90.000000
1
CS1
72
0
73
0
0
TEXT
8
0
39
10
62
7
10
-2388.000000
20
-2175.000000
30
0.000000
11
-2388.000000
21
-2175.000000
31
0.000000
40
37.000000
50
90.000000
1
MISO
72
0
73
0
0
TEXT
8
0
39
10
62
2
10
-2250.000000
20
1025.000000
30
0.000000
11
-2250.000000
21
1025.000000
31
0.000000
40
37.000000
50
0.000000
1
GND
72
0
73
0
0
TEXT
8
0
39
10
62
2
10
-1325.000000
20
1975.000000
30
0.000000
11
-1325.000000
21
1975.000000
31
0.000000
40
37.000000
50
0.000000
1
VCC
72
0
73
3
0
TEXT
8
0
39
10
62
2
10
-425.000000
20
1400.000000
30
0.000000
11
-425.000000
21
1400.000000
31
0.000000
40
37.000000
50
0.000000
1
VEE
72
0
73
0
0
TEXT
8
0
39
10
62
2
10
-1900.000000
20
1725.000000
30
0.000000
11
-1900.000000
21
1725.000000
31
0.000000
40
37.000000
50
0.000000
1
GND
72
0
73
0
0
TEXT
8
0
39
10
62
2
10
-2300.000000
20
1900.000000
30
0.000000
11
-2300.000000
21
1900.000000
31
0.000000
40
37.000000
50
0.000000
1
VB_1
72
0
73
0
0
TEXT
8
0
39
10
62
2
10
-2000.000000
20
1400.000000
30
0.000000
11
-2000.000000
21
1400.000000
31
0.000000
40
37.000000
50
0.000000
1
S_1
72
0
73
0
0
TEXT
8
0
39
10
62
2
10
350.000000
20
1450.000000
30
0.000000
11
350.000000
21
1450.000000
31
0.000000
40
37.000000
50
0.000000
1
GND
72
0
73
0
0
TEXT
8
0
39
10
62
2
10
-2300.000000
20
200.000000
30
0.000000
11
-2300.000000
21
200.000000
31
0.000000
40
37.000000
50
0.000000
1
VB_2
72
0
73
0
0
TEXT
8
0
39
10
62
2
10
-425.000000
20
-300.000000
30
0.000000
11
-425.000000
21
-300.000000
31
0.000000
40
37.000000
50
0.000000
1
VEE
72
0
73
0
0
TEXT
8
0
39
10
62
2
10
350.000000
20
-250.000000
30
0.000000
11
350.000000
21
-250.000000
31
0.000000
40
37.000000
50
0.000000
1
GND
72
0
73
0
0
TEXT
8
0
39
10
62
2
10
-1400.000000
20
400.000000
30
0.000000
11
-1400.000000
21
400.000000
31
0.000000
40
37.000000
50
0.000000
1
VCC
72
0
73
3
0
TEXT
8
0
39
10
62
2
10
-2250.000000
20
-675.000000
30
0.000000
11
-2250.000000
21
-675.000000
31
0.000000
40
37.000000
50
0.000000
1
GND
72
0
73
0
0
TEXT
8
0
39
10
62
2
10
-1900.000000
20
25.000000
30
0.000000
11
-1900.000000
21
25.000000
31
0.000000
40
37.000000
50
0.000000
1
GND
72
0
73
0
0
TEXT
8
0
39
10
62
2
10
-1950.000000
20
-300.000000
30
0.000000
11
-1950.000000
21
-300.000000
31
0.000000
40
37.000000
50
0.000000
1
S_2
72
0
73
0
0
TEXT
8
0
39
10
62
2
10
-475.000000
20
1075.000000
30
0.000000
11
-475.000000
21
1075.000000
31
0.000000
40
37.000000
50
0.000000
1
VCC
72
0
73
3
0
TEXT
8
0
39
10
62
2
10
1225.000000
20
650.000000
30
0.000000
11
1225.000000
21
650.000000
31
0.000000
40
37.000000
50
0.000000
1
GND
72
0
73
0
0
TEXT
8
0
39
10
62
2
10
450.000000
20
600.000000
30
0.000000
11
450.000000
21
600.000000
31
0.000000
40
37.000000
50
0.000000
1
VEE
72
0
73
0
0
TEXT
8
0
39
10
62
2
10
-800.000000
20
825.000000
30
0.000000
11
-800.000000
21
825.000000
31
0.000000
40
37.000000
50
0.000000
1
GND
72
0
73
0
0
TEXT
8
0
39
10
62
2
10
-1000.000000
20
1225.000000
30
0.000000
11
-1000.000000
21
1225.000000
31
0.000000
40
37.000000
50
0.000000
1
GND
72
0
73
0
0
TEXT
8
0
39
10
62
2
10
75.000000
20
875.000000
30
0.000000
11
75.000000
21
875.000000
31
0.000000
40
37.000000
50
0.000000
1
GND
72
0
73
0
0
TEXT
8
0
39
10
62
2
10
-1000.000000
20
-400.000000
30
0.000000
11
-1000.000000
21
-400.000000
31
0.000000
40
37.000000
50
0.000000
1
GND
72
0
73
0
0
TEXT
8
0
39
10
62
7
10
-1913.000000
20
-2175.000000
30
0.000000
11
-1913.000000
21
-2175.000000
31
0.000000
40
37.000000
50
90.000000
1
REF
72
0
73
0
0
TEXT
8
0
39
10
62
7
10
-1813.000000
20
-2125.000000
30
0.000000
11
-1813.000000
21
-2125.000000
31
0.000000
40
37.000000
50
90.000000
1
I2
72
0
73
0
0
TEXT
8
0
39
10
62
7
10
-1713.000000
20
-2125.000000
30
0.000000
11
-1713.000000
21
-2125.000000
31
0.000000
40
37.000000
50
90.000000
1
I1
72
0
73
0
0
TEXT
8
0
39
10
62
2
10
-525.000000
20
150.000000
30
0.000000
11
-525.000000
21
150.000000
31
0.000000
40
37.000000
50
0.000000
1
VCC
72
0
73
0
0
TEXT
8
0
39
10
62
2
10
350.000000
20
1050.000000
30
0.000000
11
350.000000
21
1050.000000
31
0.000000
40
37.000000
50
0.000000
1
VCC
72
0
73
0
0
TEXT
8
0
39
10
62
2
10
-525.000000
20
1850.000000
30
0.000000
11
-525.000000
21
1850.000000
31
0.000000
40
37.000000
50
0.000000
1
VCC
72
0
73
0
0
TEXT
8
0
39
10
62
2
10
-1200.000000
20
-1950.000000
30
0.000000
11
-1200.000000
21
-1950.000000
31
0.000000
40
37.000000
50
0.000000
1
VCC
72
0
73
0
0
TEXT
8
0
39
10
62
2
10
-1200.000000
20
-2225.000000
30
0.000000
11
-1200.000000
21
-2225.000000
31
0.000000
40
37.000000
50
0.000000
1
GND
72
0
73
0
0
TEXT
8
0
39
10
62
2
10
-1200.000000
20
-2475.000000
30
0.000000
11
-1200.000000
21
-2475.000000
31
0.000000
40
37.000000
50
0.000000
1
VEE
72
0
73
0
0
TEXT
8
0
39
10
62
2
10
-1200.000000
20
-2475.000000
30
0.000000
11
-1200.000000
21
-2475.000000
31
0.000000
40
37.000000
50
0.000000
1
VEE
72
0
73
0
0
TEXT
8
0
39
10
62
2
10
-2700.000000
20
-1500.000000
30
0.000000
11
-2700.000000
21
-1500.000000
31
0.000000
40
37.000000
50
0.000000
1
GND
72
0
73
0
0
TEXT
8
0
39
10
62
2
10
-2700.000000
20
-1250.000000
30
0.000000
11
-2700.000000
21
-1250.000000
31
0.000000
40
37.000000
50
0.000000
1
GND
72
0
73
0
0
TEXT
8
0
39
10
62
2
10
-2700.000000
20
-1150.000000
30
0.000000
11
-2700.000000
21
-1150.000000
31
0.000000
40
37.000000
50
0.000000
1
VB_1
72
0
73
0
0
TEXT
8
0
39
10
62
2
10
-2675.000000
20
-1200.000000
30
0.000000
11
-2675.000000
21
-1200.000000
31
0.000000
40
37.000000
50
0.000000
1
S_1
72
0
73
0
0
TEXT
8
0
39
10
62
2
10
-2700.000000
20
-1300.000000
30
0.000000
11
-2700.000000
21
-1300.000000
31
0.000000
40
37.000000
50
0.000000
1
PT-
72
0
73
0
0
TEXT
8
0
39
10
62
2
10
-2700.000000
20
-1350.000000
30
0.000000
11
-2700.000000
21
-1350.000000
31
0.000000
40
37.000000
50
0.000000
1
PT+
72
0
73
0
0
TEXT
8
0
39
10
62
2
10
-2700.000000
20
-1400.000000
30
0.000000
11
-2700.000000
21
-1400.000000
31
0.000000
40
37.000000
50
0.000000
1
VB_2
72
0
73
0
0
TEXT
8
0
39
10
62
2
10
-2675.000000
20
-1450.000000
30
0.000000
11
-2675.000000
21
-1450.000000
31
0.000000
40
37.000000
50
0.000000
1
S_2
72
0
73
0
0
TEXT
8
0
39
10
62
7
10
-1663.000000
20
-2125.000000
30
0.000000
11
-1663.000000
21
-2125.000000
31
0.000000
40
37.000000
50
90.000000
1
PT+
72
0
73
0
0
TEXT
8
0
39
10
62
7
10
-1563.000000
20
-2125.000000
30
0.000000
11
-1563.000000
21
-2125.000000
31
0.000000
40
37.000000
50
90.000000
1
PT-
72
0
73
0
0
TEXT
8
0
39
10
62
2
10
-2150.000000
20
-1275.000000
30
0.000000
11
-2150.000000
21
-1275.000000
31
0.000000
40
37.000000
50
0.000000
1
PT-
72
0
73
0
0
TEXT
8
0
39
10
62
2
10
-2125.000000
20
-1175.000000
30
0.000000
11
-2125.000000
21
-1175.000000
31
0.000000
40
37.000000
50
0.000000
1
S_1
72
0
73
0
0
TEXT
8
0
39
10
62
2
10
-2150.000000
20
-1375.000000
30
0.000000
11
-2150.000000
21
-1375.000000
31
0.000000
40
37.000000
50
0.000000
1
VB_2
72
0
73
0
0
TEXT
8
0
39
10
62
2
10
-2150.000000
20
-1125.000000
30
0.000000
11
-2150.000000
21
-1125.000000
31
0.000000
40
37.000000
50
0.000000
1
VB_1
72
0
73
0
0
TEXT
8
0
39
10
62
2
10
-2125.000000
20
-1425.000000
30
0.000000
11
-2125.000000
21
-1425.000000
31
0.000000
40
37.000000
50
0.000000
1
S_2
72
0
73
0
0
TEXT
8
0
39
10
62
2
10
-2150.000000
20
-1225.000000
30
0.000000
11
-2150.000000
21
-1225.000000
31
0.000000
40
37.000000
50
0.000000
1
GND
72
0
73
0
0
TEXT
8
0
39
10
62
2
10
-2150.000000
20
-1325.000000
30
0.000000
11
-2150.000000
21
-1325.000000
31
0.000000
40
37.000000
50
0.000000
1
PT+
72
0
73
0
0
TEXT
8
0
39
10
62
2
10
-2150.000000
20
-1475.000000
30
0.000000
11
-2150.000000
21
-1475.000000
31
0.000000
40
37.000000
50
0.000000
1
GND
72
0
73
0
0
LINE
8
0
62
1
39
1
10
-3400.000000
20
-2075.000000
30
0.000000
11
-3400.000000
21
-2250.000000
31
0.000000
0
LINE
8
0
62
1
39
1
10
-3300.000000
20
-2075.000000
30
0.000000
11
-3300.000000
21
-2250.000000
31
0.000000
0
LINE
8
0
62
1
39
1
10
-3200.000000
20
-2075.000000
30
0.000000
11
-3200.000000
21
-2250.000000
31
0.000000
0
LINE
8
0
62
1
39
1
10
-3100.000000
20
-2075.000000
30
0.000000
11
-3100.000000
21
-2250.000000
31
0.000000
0
LINE
8
0
62
1
39
1
10
-3000.000000
20
-2250.000000
30
0.000000
11
-3000.000000
21
-2075.000000
31
0.000000
0
LINE
8
0
62
1
39
1
10
-2925.000000
20
-2250.000000
30
0.000000
11
-2925.000000
21
-2075.000000
31
0.000000
0
LINE
8
0
62
1
39
1
10
-2200.000000
20
-2250.000000
30
0.000000
11
-2200.000000
21
-2075.000000
31
0.000000
0
LINE
8
0
62
1
39
1
10
-2300.000000
20
-2250.000000
30
0.000000
11
-2300.000000
21
-2075.000000
31
0.000000
0
LINE
8
0
62
1
39
1
10
-2125.000000
20
-2250.000000
30
0.000000
11
-2125.000000
21
-2075.000000
31
0.000000
0
LINE
8
0
62
1
39
1
10
-2400.000000
20
-2250.000000
30
0.000000
11
-2400.000000
21
-2075.000000
31
0.000000
0
LINE
8
0
62
1
39
1
10
-2325.000000
20
1025.000000
30
0.000000
11
-2050.000000
21
1025.000000
31
0.000000
0
LINE
8
0
62
1
39
1
10
-2050.000000
20
1025.000000
30
0.000000
11
-2050.000000
21
1075.000000
31
0.000000
0
LINE
8
0
62
1
39
1
10
-2325.000000
20
1025.000000
30
0.000000
11
-2325.000000
21
1425.000000
31
0.000000
0
LINE
8
0
62
1
39
1
10
-1175.000000
20
1400.000000
30
0.000000
11
-1050.000000
21
1400.000000
31
0.000000
0
LINE
8
0
62
1
39
1
10
-650.000000
20
1300.000000
30
0.000000
11
-650.000000
21
1575.000000
31
0.000000
0
LINE
8
0
62
1
39
1
10
-650.000000
20
1575.000000
30
0.000000
11
-625.000000
21
1575.000000
31
0.000000
0
LINE
8
0
62
1
39
1
10
-250.000000
20
1625.000000
30
0.000000
11
-250.000000
21
1300.000000
31
0.000000
0
LINE
8
0
62
1
39
1
10
-250.000000
20
1300.000000
30
0.000000
11
-350.000000
21
1300.000000
31
0.000000
0
LINE
8
0
62
1
39
1
10
-325.000000
20
1625.000000
30
0.000000
11
-175.000000
21
1625.000000
31
0.000000
0
LINE
8
0
62
1
39
1
10
-1550.000000
20
1625.000000
30
0.000000
11
-1400.000000
21
1625.000000
31
0.000000
0
LINE
8
0
62
1
39
1
10
-1300.000000
20
1925.000000
30
0.000000
11
-1200.000000
21
1925.000000
31
0.000000
0
LINE
8
0
62
1
39
1
10
-1300.000000
20
1925.000000
30
0.000000
11
-1300.000000
21
1850.000000
31
0.000000
0
LINE
8
0
62
1
39
1
10
-425.000000
20
1400.000000
30
0.000000
11
-425.000000
21
1475.000000
31
0.000000
0
LINE
8
0
62
1
39
1
10
25.000000
20
1625.000000
30
0.000000
11
75.000000
21
1625.000000
31
0.000000
0
LINE
8
0
62
1
39
1
10
-2050.000000
20
1325.000000
30
0.000000
11
-2050.000000
21
1625.000000
31
0.000000
0
LINE
8
0
62
1
39
1
10
-2325.000000
20
1900.000000
30
0.000000
11
-2050.000000
21
1900.000000
31
0.000000
0
LINE
8
0
62
1
39
1
10
-1400.000000
20
1725.000000
30
0.000000
11
-1950.000000
21
1725.000000
31
0.000000
0
LINE
8
0
62
1
39
1
10
-2325.000000
20
1900.000000
30
0.000000
11
-2325.000000
21
1625.000000
31
0.000000
0
LINE
8
0
62
1
39
1
10
-2050.000000
20
1900.000000
30
0.000000
11
-2050.000000
21
1825.000000
31
0.000000
0
LINE
8
0
62
1
39
1
10
-1600.000000
20
1400.000000
30
0.000000
11
-1425.000000
21
1400.000000
31
0.000000
0
LINE
8
0
62
1
39
1
10
-2050.000000
20
1400.000000
30
0.000000
11
-1850.000000
21
1400.000000
31
0.000000
0
LINE
8
0
62
1
39
1
10
475.000000
20
1450.000000
30
0.000000
11
475.000000
21
1525.000000
31
0.000000
0
LINE
8
0
62
1
39
1
10
325.000000
20
1625.000000
30
0.000000
11
375.000000
21
1625.000000
31
0.000000
0
LINE
8
0
62
1
39
1
10
-250.000000
20
-400.000000
30
0.000000
11
-350.000000
21
-400.000000
31
0.000000
0
LINE
8
0
62
1
39
1
10
325.000000
20
-75.000000
30
0.000000
11
375.000000
21
-75.000000
31
0.000000
0
LINE
8
0
62
1
39
1
10
-250.000000
20
-75.000000
30
0.000000
11
-250.000000
21
-400.000000
31
0.000000
0
LINE
8
0
62
1
39
1
10
-650.000000
20
-125.000000
30
0.000000
11
-625.000000
21
-125.000000
31
0.000000
0
LINE
8
0
62
1
39
1
10
-2325.000000
20
200.000000
30
0.000000
11
-2325.000000
21
-75.000000
31
0.000000
0
LINE
8
0
62
1
39
1
10
-650.000000
20
-400.000000
30
0.000000
11
-650.000000
21
-125.000000
31
0.000000
0
LINE
8
0
62
1
39
1
10
-2325.000000
20
200.000000
30
0.000000
11
-2050.000000
21
200.000000
31
0.000000
0
LINE
8
0
62
1
39
1
10
25.000000
20
-75.000000
30
0.000000
11
75.000000
21
-75.000000
31
0.000000
0
LINE
8
0
62
1
39
1
10
-425.000000
20
-300.000000
30
0.000000
11
-425.000000
21
-225.000000
31
0.000000
0
LINE
8
0
62
1
39
1
10
-1175.000000
20
-300.000000
30
0.000000
11
-1050.000000
21
-300.000000
31
0.000000
0
LINE
8
0
62
1
39
1
10
475.000000
20
-250.000000
30
0.000000
11
475.000000
21
-175.000000
31
0.000000
0
LINE
8
0
62
1
39
1
10
-325.000000
20
-75.000000
30
0.000000
11
-175.000000
21
-75.000000
31
0.000000
0
LINE
8
0
62
1
39
1
10
-2050.000000
20
200.000000
30
0.000000
11
-2050.000000
21
125.000000
31
0.000000
0
LINE
8
0
62
1
39
1
10
-2325.000000
20
-675.000000
30
0.000000
11
-2325.000000
21
-275.000000
31
0.000000
0
LINE
8
0
62
1
39
1
10
-2050.000000
20
-375.000000
30
0.000000
11
-2050.000000
21
-75.000000
31
0.000000
0
LINE
8
0
62
1
39
1
10
-2050.000000
20
-675.000000
30
0.000000
11
-2050.000000
21
-625.000000
31
0.000000
0
LINE
8
0
62
1
39
1
10
-1300.000000
20
225.000000
30
0.000000
11
-1300.000000
21
150.000000
31
0.000000
0
LINE
8
0
62
1
39
1
10
-2325.000000
20
-675.000000
30
0.000000
11
-2050.000000
21
-675.000000
31
0.000000
0
LINE
8
0
62
1
39
1
10
-1550.000000
20
-75.000000
30
0.000000
11
-1400.000000
21
-75.000000
31
0.000000
0
LINE
8
0
62
1
39
1
10
-1400.000000
20
25.000000
30
0.000000
11
-1950.000000
21
25.000000
31
0.000000
0
LINE
8
0
62
1
39
1
10
-2050.000000
20
-300.000000
30
0.000000
11
-1850.000000
21
-300.000000
31
0.000000
0
LINE
8
0
62
1
39
1
10
-1300.000000
20
225.000000
30
0.000000
11
-1200.000000
21
225.000000
31
0.000000
0
LINE
8
0
62
1
39
1
10
-1600.000000
20
-300.000000
30
0.000000
11
-1425.000000
21
-300.000000
31
0.000000
0
LINE
8
0
62
1
39
1
10
-1050.000000
20
-1950.000000
30
0.000000
11
-1050.000000
21
-2000.000000
31
0.000000
0
LINE
8
0
62
1
39
1
10
-875.000000
20
-2000.000000
30
0.000000
11
-875.000000
21
-1950.000000
31
0.000000
0
LINE
8
0
62
1
39
1
10
-1050.000000
20
-2200.000000
30
0.000000
11
-1050.000000
21
-2250.000000
31
0.000000
0
LINE
8
0
62
1
39
1
10
-875.000000
20
-2200.000000
30
0.000000
11
-875.000000
21
-2250.000000
31
0.000000
0
LINE
8
0
62
1
39
1
10
-875.000000
20
-2475.000000
30
0.000000
11
-875.000000
21
-2450.000000
31
0.000000
0
LINE
8
0
62
1
39
1
10
-1050.000000
20
-2450.000000
30
0.000000
11
-1050.000000
21
-2475.000000
31
0.000000
0
LINE
8
0
62
1
39
1
10
225.000000
20
500.000000
30
0.000000
11
225.000000
21
775.000000
31
0.000000
0
LINE
8
0
62
1
39
1
10
-475.000000
20
1025.000000
30
0.000000
11
-375.000000
21
1025.000000
31
0.000000
0
LINE
8
0
62
1
39
1
10
-725.000000
20
500.000000
30
0.000000
11
-725.000000
21
725.000000
31
0.000000
0
LINE
8
0
62
1
39
1
10
-475.000000
20
1025.000000
30
0.000000
11
-475.000000
21
950.000000
31
0.000000
0
LINE
8
0
62
1
39
1
10
625.000000
20
825.000000
30
0.000000
11
625.000000
21
500.000000
31
0.000000
0
LINE
8
0
62
1
39
1
10
1350.000000
20
650.000000
30
0.000000
11
1350.000000
21
725.000000
31
0.000000
0
LINE
8
0
62
1
39
1
10
1200.000000
20
825.000000
30
0.000000
11
1250.000000
21
825.000000
31
0.000000
0
LINE
8
0
62
1
39
1
10
-375.000000
20
1025.000000
30
0.000000
11
-375.000000
21
950.000000
31
0.000000
0
LINE
8
0
62
1
39
1
10
625.000000
20
500.000000
30
0.000000
11
525.000000
21
500.000000
31
0.000000
0
LINE
8
0
62
1
39
1
10
450.000000
20
600.000000
30
0.000000
11
450.000000
21
675.000000
31
0.000000
0
LINE
8
0
62
1
39
1
10
550.000000
20
825.000000
30
0.000000
11
700.000000
21
825.000000
31
0.000000
0
LINE
8
0
62
1
39
1
10
900.000000
20
825.000000
30
0.000000
11
950.000000
21
825.000000
31
0.000000
0
LINE
8
0
62
1
39
1
10
-350.000000
20
500.000000
30
0.000000
11
-225.000000
21
500.000000
31
0.000000
0
LINE
8
0
62
1
39
1
10
-775.000000
20
500.000000
30
0.000000
11
-600.000000
21
500.000000
31
0.000000
0
LINE
8
0
62
1
39
1
10
-225.000000
20
775.000000
30
0.000000
11
-225.000000
21
500.000000
31
0.000000
0
LINE
8
0
62
1
39
1
10
-575.000000
20
825.000000
30
0.000000
11
-750.000000
21
825.000000
31
0.000000
0
LINE
8
0
62
1
39
1
10
-275.000000
20
775.000000
30
0.000000
11
-100.000000
21
775.000000
31
0.000000
0
LINE
8
0
62
1
39
1
10
225.000000
20
500.000000
30
0.000000
11
275.000000
21
500.000000
31
0.000000
0
LINE
8
0
62
1
39
1
10
150.000000
20
775.000000
30
0.000000
11
250.000000
21
775.000000
31
0.000000
0
LINE
8
0
62
1
39
1
10
-775.000000
20
725.000000
30
0.000000
11
-575.000000
21
725.000000
31
0.000000
0
LINE
8
0
62
1
39
1
10
-675.000000
20
1300.000000
30
0.000000
11
-600.000000
21
1300.000000
31
0.000000
0
LINE
8
0
62
1
39
1
10
-1100.000000
20
1675.000000
30
0.000000
11
-625.000000
21
1675.000000
31
0.000000
0
LINE
8
0
62
1
39
1
10
-1000.000000
20
1300.000000
30
0.000000
11
-925.000000
21
1300.000000
31
0.000000
0
LINE
8
0
62
1
39
1
10
-1100.000000
20
-25.000000
30
0.000000
11
-625.000000
21
-25.000000
31
0.000000
0
LINE
8
0
62
1
39
1
10
125.000000
20
875.000000
30
0.000000
11
250.000000
21
875.000000
31
0.000000
0
LINE
8
0
62
1
39
1
10
-600.000000
20
-2475.000000
30
0.000000
11
-600.000000
21
-2450.000000
31
0.000000
0
LINE
8
0
62
1
39
1
10
-600.000000
20
-2200.000000
30
0.000000
11
-600.000000
21
-2250.000000
31
0.000000
0
LINE
8
0
62
1
39
1
10
-600.000000
20
-2000.000000
30
0.000000
11
-600.000000
21
-1950.000000
31
0.000000
0
LINE
8
0
62
1
39
1
10
-675.000000
20
-400.000000
30
0.000000
11
-600.000000
21
-400.000000
31
0.000000
0
LINE
8
0
62
1
39
1
10
-950.000000
20
-400.000000
30
0.000000
11
-925.000000
21
-400.000000
31
0.000000
0
LINE
8
0
62
1
39
1
10
-375.000000
20
-2000.000000
30
0.000000
11
-375.000000
21
-1950.000000
31
0.000000
0
LINE
8
0
62
1
39
1
10
-1925.000000
20
-2250.000000
30
0.000000
11
-1925.000000
21
-2075.000000
31
0.000000
0
LINE
8
0
62
1
39
1
10
-1825.000000
20
-2250.000000
30
0.000000
11
-1825.000000
21
-2075.000000
31
0.000000
0
LINE
8
0
62
1
39
1
10
-1725.000000
20
-2250.000000
30
0.000000
11
-1725.000000
21
-2075.000000
31
0.000000
0
LINE
8
0
62
1
39
1
10
-425.000000
20
150.000000
30
0.000000
11
-525.000000
21
150.000000
31
0.000000
0
LINE
8
0
62
1
39
1
10
-525.000000
20
150.000000
30
0.000000
11
-525.000000
21
100.000000
31
0.000000
0
LINE
8
0
62
1
39
1
10
-425.000000
20
100.000000
30
0.000000
11
-425.000000
21
150.000000
31
0.000000
0
LINE
8
0
62
1
39
1
10
350.000000
20
1050.000000
30
0.000000
11
350.000000
21
1000.000000
31
0.000000
0
LINE
8
0
62
1
39
1
10
450.000000
20
1000.000000
30
0.000000
11
450.000000
21
1050.000000
31
0.000000
0
LINE
8
0
62
1
39
1
10
350.000000
20
1050.000000
30
0.000000
11
450.000000
21
1050.000000
31
0.000000
0
LINE
8
0
62
1
39
1
10
-525.000000
20
1850.000000
30
0.000000
11
-525.000000
21
1800.000000
31
0.000000
0
LINE
8
0
62
1
39
1
10
-425.000000
20
1800.000000
30
0.000000
11
-425.000000
21
1850.000000
31
0.000000
0
LINE
8
0
62
1
39
1
10
-425.000000
20
1850.000000
30
0.000000
11
-525.000000
21
1850.000000
31
0.000000
0
LINE
8
0
62
1
39
1
10
-175.000000
20
-1950.000000
30
0.000000
11
-175.000000
21
-2000.000000
31
0.000000
0
LINE
8
0
62
1
39
1
10
-1150.000000
20
-1950.000000
30
0.000000
11
-175.000000
21
-1950.000000
31
0.000000
0
LINE
8
0
62
1
39
1
10
-175.000000
20
-2225.000000
30
0.000000
11
-175.000000
21
-2200.000000
31
0.000000
0
LINE
8
0
62
1
39
1
10
-1150.000000
20
-2225.000000
30
0.000000
11
-175.000000
21
-2225.000000
31
0.000000
0
LINE
8
0
62
1
39
1
10
-375.000000
20
-2250.000000
30
0.000000
11
-375.000000
21
-2200.000000
31
0.000000
0
LINE
8
0
62
1
39
1
10
-1150.000000
20
-2475.000000
30
0.000000
11
-375.000000
21
-2475.000000
31
0.000000
0
LINE
8
0
62
1
39
1
10
-375.000000
20
-2475.000000
30
0.000000
11
-375.000000
21
-2450.000000
31
0.000000
0
LINE
8
0
62
1
39
1
10
-2625.000000
20
-1500.000000
30
0.000000
11
-2750.000000
21
-1500.000000
31
0.000000
0
LINE
8
0
62
1
39
1
10
-2625.000000
20
-1250.000000
30
0.000000
11
-2750.000000
21
-1250.000000
31
0.000000
0
LINE
8
0
62
1
39
1
10
-2625.000000
20
-1150.000000
30
0.000000
11
-2750.000000
21
-1150.000000
31
0.000000
0
LINE
8
0
62
1
39
1
10
-2625.000000
20
-1200.000000
30
0.000000
11
-2750.000000
21
-1200.000000
31
0.000000
0
LINE
8
0
62
1
39
1
10
-2625.000000
20
-1300.000000
30
0.000000
11
-2750.000000
21
-1300.000000
31
0.000000
0
LINE
8
0
62
1
39
1
10
-2625.000000
20
-1350.000000
30
0.000000
11
-2750.000000
21
-1350.000000
31
0.000000
0
LINE
8
0
62
1
39
1
10
-2625.000000
20
-1400.000000
30
0.000000
11
-2750.000000
21
-1400.000000
31
0.000000
0
LINE
8
0
62
1
39
1
10
-2625.000000
20
-1450.000000
30
0.000000
11
-2750.000000
21
-1450.000000
31
0.000000
0
LINE
8
0
62
1
39
1
10
-1675.000000
20
-2250.000000
30
0.000000
11
-1675.000000
21
-2075.000000
31
0.000000
0
LINE
8
0
62
1
39
1
10
-1575.000000
20
-2250.000000
30
0.000000
11
-1575.000000
21
-2075.000000
31
0.000000
0
LINE
8
0
62
1
39
1
10
-2075.000000
20
-1275.000000
30
0.000000
11
-2200.000000
21
-1275.000000
31
0.000000
0
LINE
8
0
62
1
39
1
10
-2075.000000
20
-1175.000000
30
0.000000
11
-2200.000000
21
-1175.000000
31
0.000000
0
LINE
8
0
62
1
39
1
10
-2075.000000
20
-1375.000000
30
0.000000
11
-2200.000000
21
-1375.000000
31
0.000000
0
LINE
8
0
62
1
39
1
10
-2075.000000
20
-1125.000000
30
0.000000
11
-2200.000000
21
-1125.000000
31
0.000000
0
LINE
8
0
62
1
39
1
10
-2075.000000
20
-1425.000000
30
0.000000
11
-2200.000000
21
-1425.000000
31
0.000000
0
LINE
8
0
62
1
39
1
10
-2075.000000
20
-1225.000000
30
0.000000
11
-2200.000000
21
-1225.000000
31
0.000000
0
LINE
8
0
62
1
39
1
10
-2075.000000
20
-1325.000000
30
0.000000
11
-2200.000000
21
-1325.000000
31
0.000000
0
LINE
8
0
62
1
39
1
10
-2075.000000
20
-1475.000000
30
0.000000
11
-2200.000000
21
-1475.000000
31
0.000000
0
LINE
8
0
62
1
39
1
10
-1550.000000
20
-300.000000
30
0.000000
11
-1550.000000
21
75.000000
31
0.000000
0
LINE
8
0
62
1
39
1
10
-1200.000000
20
350.000000
30
0.000000
11
-1550.000000
21
350.000000
31
0.000000
0
LINE
8
0
62
1
39
1
10
-1550.000000
20
350.000000
30
0.000000
11
-1550.000000
21
325.000000
31
0.000000
0
LINE
8
0
62
1
39
1
10
-1200.000000
20
150.000000
30
0.000000
11
-1200.000000
21
350.000000
31
0.000000
0
LINE
8
0
62
1
39
1
10
-1550.000000
20
1400.000000
30
0.000000
11
-1550.000000
21
1750.000000
31
0.000000
0
LINE
8
0
62
1
39
1
10
-1200.000000
20
2025.000000
30
0.000000
11
-1550.000000
21
2025.000000
31
0.000000
0
LINE
8
0
62
1
39
1
10
-1550.000000
20
2025.000000
30
0.000000
11
-1550.000000
21
2000.000000
31
0.000000
0
LINE
8
0
62
1
39
1
10
-1200.000000
20
1850.000000
30
0.000000
11
-1200.000000
21
2025.000000
31
0.000000
0
LINE
8
0
62
1
39
1
10
-1050.000000
20
-300.000000
30
0.000000
11
-1050.000000
21
500.000000
31
0.000000
0
LINE
8
0
62
1
39
1
10
-1050.000000
20
725.000000
30
0.000000
11
-1050.000000
21
1675.000000
31
0.000000
0
LINE
8
0
62
1
39
1
10
-1050.000000
20
725.000000
30
0.000000
11
-1025.000000
21
725.000000
31
0.000000
0
LINE
8
0
62
1
39
1
10
-1050.000000
20
500.000000
30
0.000000
11
-1025.000000
21
500.000000
31
0.000000
0
POLYLINE
8
0
40
12.000000
41
12.000000
66
1
62
5
10
0
20
0
30
0
70
0
0
VERTEX
8
0
10
-3450.000000
20
-2250.000000
30
0.000000
0
VERTEX
8
0
10
-2850.000000
20
-2250.000000
30
0.000000
0
SEQEND
0
POLYLINE
8
0
40
12.000000
41
12.000000
66
1
62
5
10
0
20
0
30
0
70
0
0
VERTEX
8
0
10
-2450.000000
20
-2250.000000
30
0.000000
0
VERTEX
8
0
10
-1525.000000
20
-2250.000000
30
0.000000
0
SEQEND
0
SOLID
8
4
10
-3405.000000
20
-2255.000000
30
0.000000
11
-3395.000000
21
-2255.000000
31
0.000000
12
-3405.000000
22
-2245.000000
32
0.000000
13
-3395.000000
23
-2245.000000
33
0.000000
0
SOLID
8
4
10
-3305.000000
20
-2255.000000
30
0.000000
11
-3295.000000
21
-2255.000000
31
0.000000
12
-3305.000000
22
-2245.000000
32
0.000000
13
-3295.000000
23
-2245.000000
33
0.000000
0
SOLID
8
4
10
-3205.000000
20
-2255.000000
30
0.000000
11
-3195.000000
21
-2255.000000
31
0.000000
12
-3205.000000
22
-2245.000000
32
0.000000
13
-3195.000000
23
-2245.000000
33
0.000000
0
SOLID
8
4
10
-3105.000000
20
-2255.000000
30
0.000000
11
-3095.000000
21
-2255.000000
31
0.000000
12
-3105.000000
22
-2245.000000
32
0.000000
13
-3095.000000
23
-2245.000000
33
0.000000
0
SOLID
8
4
10
-3005.000000
20
-2255.000000
30
0.000000
11
-2995.000000
21
-2255.000000
31
0.000000
12
-3005.000000
22
-2245.000000
32
0.000000
13
-2995.000000
23
-2245.000000
33
0.000000
0
SOLID
8
4
10
-2930.000000
20
-2255.000000
30
0.000000
11
-2920.000000
21
-2255.000000
31
0.000000
12
-2930.000000
22
-2245.000000
32
0.000000
13
-2920.000000
23
-2245.000000
33
0.000000
0
SOLID
8
4
10
-2205.000000
20
-2255.000000
30
0.000000
11
-2195.000000
21
-2255.000000
31
0.000000
12
-2205.000000
22
-2245.000000
32
0.000000
13
-2195.000000
23
-2245.000000
33
0.000000
0
SOLID
8
4
10
-2305.000000
20
-2255.000000
30
0.000000
11
-2295.000000
21
-2255.000000
31
0.000000
12
-2305.000000
22
-2245.000000
32
0.000000
13
-2295.000000
23
-2245.000000
33
0.000000
0
SOLID
8
4
10
-2130.000000
20
-2255.000000
30
0.000000
11
-2120.000000
21
-2255.000000
31
0.000000
12
-2130.000000
22
-2245.000000
32
0.000000
13
-2120.000000
23
-2245.000000
33
0.000000
0
SOLID
8
4
10
-2405.000000
20
-2255.000000
30
0.000000
11
-2395.000000
21
-2255.000000
31
0.000000
12
-2405.000000
22
-2245.000000
32
0.000000
13
-2395.000000
23
-2245.000000
33
0.000000
0
SOLID
8
4
10
-1055.000000
20
1395.000000
30
0.000000
11
-1045.000000
21
1395.000000
31
0.000000
12
-1055.000000
22
1405.000000
32
0.000000
13
-1045.000000
23
1405.000000
33
0.000000
0
SOLID
8
4
10
-1555.000000
20
1395.000000
30
0.000000
11
-1545.000000
21
1395.000000
31
0.000000
12
-1555.000000
22
1405.000000
32
0.000000
13
-1545.000000
23
1405.000000
33
0.000000
0
SOLID
8
4
10
-1555.000000
20
1620.000000
30
0.000000
11
-1545.000000
21
1620.000000
31
0.000000
12
-1555.000000
22
1630.000000
32
0.000000
13
-1545.000000
23
1630.000000
33
0.000000
0
SOLID
8
4
10
-1205.000000
20
1920.000000
30
0.000000
11
-1195.000000
21
1920.000000
31
0.000000
12
-1205.000000
22
1930.000000
32
0.000000
13
-1195.000000
23
1930.000000
33
0.000000
0
SOLID
8
4
10
-2055.000000
20
1395.000000
30
0.000000
11
-2045.000000
21
1395.000000
31
0.000000
12
-2055.000000
22
1405.000000
32
0.000000
13
-2045.000000
23
1405.000000
33
0.000000
0
SOLID
8
4
10
-1205.000000
20
220.000000
30
0.000000
11
-1195.000000
21
220.000000
31
0.000000
12
-1205.000000
22
230.000000
32
0.000000
13
-1195.000000
23
230.000000
33
0.000000
0
SOLID
8
4
10
-2055.000000
20
-305.000000
30
0.000000
11
-2045.000000
21
-305.000000
31
0.000000
12
-2055.000000
22
-295.000000
32
0.000000
13
-2045.000000
23
-295.000000
33
0.000000
0
SOLID
8
4
10
-1555.000000
20
-80.000000
30
0.000000
11
-1545.000000
21
-80.000000
31
0.000000
12
-1555.000000
22
-70.000000
32
0.000000
13
-1545.000000
23
-70.000000
33
0.000000
0
SOLID
8
4
10
-1555.000000
20
-305.000000
30
0.000000
11
-1545.000000
21
-305.000000
31
0.000000
12
-1555.000000
22
-295.000000
32
0.000000
13
-1545.000000
23
-295.000000
33
0.000000
0
SOLID
8
4
10
-1055.000000
20
-1955.000000
30
0.000000
11
-1045.000000
21
-1955.000000
31
0.000000
12
-1055.000000
22
-1945.000000
32
0.000000
13
-1045.000000
23
-1945.000000
33
0.000000
0
SOLID
8
4
10
-1055.000000
20
-2480.000000
30
0.000000
11
-1045.000000
21
-2480.000000
31
0.000000
12
-1055.000000
22
-2470.000000
32
0.000000
13
-1045.000000
23
-2470.000000
33
0.000000
0
SOLID
8
4
10
-1055.000000
20
-2230.000000
30
0.000000
11
-1045.000000
21
-2230.000000
31
0.000000
12
-1055.000000
22
-2220.000000
32
0.000000
13
-1045.000000
23
-2220.000000
33
0.000000
0
SOLID
8
4
10
-255.000000
20
1620.000000
30
0.000000
11
-245.000000
21
1620.000000
31
0.000000
12
-255.000000
22
1630.000000
32
0.000000
13
-245.000000
23
1630.000000
33
0.000000
0
SOLID
8
4
10
-655.000000
20
1295.000000
30
0.000000
11
-645.000000
21
1295.000000
31
0.000000
12
-655.000000
22
1305.000000
32
0.000000
13
-645.000000
23
1305.000000
33
0.000000
0
SOLID
8
4
10
-255.000000
20
-80.000000
30
0.000000
11
-245.000000
21
-80.000000
31
0.000000
12
-255.000000
22
-70.000000
32
0.000000
13
-245.000000
23
-70.000000
33
0.000000
0
SOLID
8
4
10
-655.000000
20
-405.000000
30
0.000000
11
-645.000000
21
-405.000000
31
0.000000
12
-655.000000
22
-395.000000
32
0.000000
13
-645.000000
23
-395.000000
33
0.000000
0
SOLID
8
4
10
-605.000000
20
-2480.000000
30
0.000000
11
-595.000000
21
-2480.000000
31
0.000000
12
-605.000000
22
-2470.000000
32
0.000000
13
-595.000000
23
-2470.000000
33
0.000000
0
SOLID
8
4
10
-605.000000
20
-2230.000000
30
0.000000
11
-595.000000
21
-2230.000000
31
0.000000
12
-605.000000
22
-2220.000000
32
0.000000
13
-595.000000
23
-2220.000000
33
0.000000
0
SOLID
8
4
10
-605.000000
20
-1955.000000
30
0.000000
11
-595.000000
21
-1955.000000
31
0.000000
12
-605.000000
22
-1945.000000
32
0.000000
13
-595.000000
23
-1945.000000
33
0.000000
0
SOLID
8
4
10
-880.000000
20
-1955.000000
30
0.000000
11
-870.000000
21
-1955.000000
31
0.000000
12
-880.000000
22
-1945.000000
32
0.000000
13
-870.000000
23
-1945.000000
33
0.000000
0
SOLID
8
4
10
-880.000000
20
-2480.000000
30
0.000000
11
-870.000000
21
-2480.000000
31
0.000000
12
-880.000000
22
-2470.000000
32
0.000000
13
-870.000000
23
-2470.000000
33
0.000000
0
SOLID
8
4
10
-880.000000
20
-2230.000000
30
0.000000
11
-870.000000
21
-2230.000000
31
0.000000
12
-880.000000
22
-2220.000000
32
0.000000
13
-870.000000
23
-2220.000000
33
0.000000
0
SOLID
8
4
10
-380.000000
20
-1955.000000
30
0.000000
11
-370.000000
21
-1955.000000
31
0.000000
12
-380.000000
22
-1945.000000
32
0.000000
13
-370.000000
23
-1945.000000
33
0.000000
0
SOLID
8
4
10
-380.000000
20
-2230.000000
30
0.000000
11
-370.000000
21
-2230.000000
31
0.000000
12
-380.000000
22
-2220.000000
32
0.000000
13
-370.000000
23
-2220.000000
33
0.000000
0
SOLID
8
4
10
-1930.000000
20
-2255.000000
30
0.000000
11
-1920.000000
21
-2255.000000
31
0.000000
12
-1930.000000
22
-2245.000000
32
0.000000
13
-1920.000000
23
-2245.000000
33
0.000000
0
SOLID
8
4
10
-1830.000000
20
-2255.000000
30
0.000000
11
-1820.000000
21
-2255.000000
31
0.000000
12
-1830.000000
22
-2245.000000
32
0.000000
13
-1820.000000
23
-2245.000000
33
0.000000
0
SOLID
8
4
10
-1730.000000
20
-2255.000000
30
0.000000
11
-1720.000000
21
-2255.000000
31
0.000000
12
-1730.000000
22
-2245.000000
32
0.000000
13
-1720.000000
23
-2245.000000
33
0.000000
0
SOLID
8
4
10
-1680.000000
20
-2255.000000
30
0.000000
11
-1670.000000
21
-2255.000000
31
0.000000
12
-1680.000000
22
-2245.000000
32
0.000000
13
-1670.000000
23
-2245.000000
33
0.000000
0
SOLID
8
4
10
-1580.000000
20
-2255.000000
30
0.000000
11
-1570.000000
21
-2255.000000
31
0.000000
12
-1580.000000
22
-2245.000000
32
0.000000
13
-1570.000000
23
-2245.000000
33
0.000000
0
SOLID
8
4
10
-1055.000000
20
1670.000000
30
0.000000
11
-1045.000000
21
1670.000000
31
0.000000
12
-1055.000000
22
1680.000000
32
0.000000
13
-1045.000000
23
1680.000000
33
0.000000
0
SOLID
8
4
10
220.000000
20
770.000000
30
0.000000
11
230.000000
21
770.000000
31
0.000000
12
220.000000
22
780.000000
32
0.000000
13
230.000000
23
780.000000
33
0.000000
0
SOLID
8
4
10
-230.000000
20
770.000000
30
0.000000
11
-220.000000
21
770.000000
31
0.000000
12
-230.000000
22
780.000000
32
0.000000
13
-220.000000
23
780.000000
33
0.000000
0
SOLID
8
4
10
-730.000000
20
495.000000
30
0.000000
11
-720.000000
21
495.000000
31
0.000000
12
-730.000000
22
505.000000
32
0.000000
13
-720.000000
23
505.000000
33
0.000000
0
SOLID
8
4
10
-730.000000
20
720.000000
30
0.000000
11
-720.000000
21
720.000000
31
0.000000
12
-730.000000
22
730.000000
32
0.000000
13
-720.000000
23
730.000000
33
0.000000
0
SOLID
8
4
10
620.000000
20
820.000000
30
0.000000
11
630.000000
21
820.000000
31
0.000000
12
620.000000
22
830.000000
32
0.000000
13
630.000000
23
830.000000
33
0.000000
0
SOLID
8
4
10
-1055.000000
20
-30.000000
30
0.000000
11
-1045.000000
21
-30.000000
31
0.000000
12
-1055.000000
22
-20.000000
32
0.000000
13
-1045.000000
23
-20.000000
33
0.000000
0
ENDSEC
0
EOF
