0
SECTION
2
HEADER
9
$EXTMIN
10
-3825.000000
20
-2625.000000
9
$EXTMAX
10
3843.000000
20
2621.000000
0
ENDSEC
0
SECTION
2
TABLES
0
TABLE
2
LTYPE
70
4
0
LTYPE
2
CONTINUOUS
70
64
3
Solid line
72
65
73
0
40
0.0
0
LTYPE
2
DASHED
70
64
3
Dashed line
72
65
73
2
40
0.8
49
0.5
49
-0.3
0
LTYPE
2
DOT
70
64
3
Dotted line
72
65
73
2
40
0.2
49
0.1
49
-0.1
0
LTYPE
2
DASHDOT
70
64
3
Dotted line
72
65
73
4
40
1
49
0.5
49
-0.2
49
0.1
49
-0.2
0
LTYPE
2
SMALLDOT
70
64
3
Small dotted
72
65
73
2
40
0.1
49
0
49
-0.1
0
LTYPE
2
CENTER
70
64
3
Centerline
72
65
73
4
40
1.1
49
0.8
49
-0.1
49
0.1
49
-0.1
0
ENDTAB
0
TABLE
2
STYLE
70
2
0
STYLE
2
STANDARD
70
64
40
0
41
1
50
0
71
0
3
TXT
42
1
4
 
0
STYLE
2
ROMAN
70
64
40
0
41
1
50
0
71
0
3
ROMANS.SHX
42
1
4
 
0
STYLE
2
TECHNIC
70
64
40
0
41
1
50
0
71
0
3
te______.pfb
42
1
4
 
0
STYLE
2
BLUEPRINT
70
64
40
0
41
1
50
0
71
0
3
cibt____.pfb
42
1
4
 
0
ENDTAB
0
TABLE
2
LAYER
70
1
0
LAYER
2
0
70
0
62
7
6
CONTINUOUS
0
LAYER
2
1
70
0
62
7
6
DASHED
0
LAYER
2
2
70
0
62
7
6
DASHDOT
0
LAYER
2
3
70
0
62
7
6
DOT
0
LAYER
2
4
70
0
62
3
6
CONTINUOUS
0
ENDTAB
0
TABLE
2
VIEW
70
0
0
ENDTAB
0
ENDSEC
0
SECTION
2
ENTITIES
0
POLYLINE
8
0
40
4.000000
41
4.000000
66
1
62
216
10
0
20
0
30
0
70
0
0
VERTEX
8
0
10
-1700.000000
20
1599.000000
30
0.000000
0
VERTEX
8
0
10
-1624.000000
20
1535.000000
30
0.000000
0
SEQEND
0
POLYLINE
8
0
40
4.000000
41
4.000000
66
1
62
216
10
0
20
0
30
0
70
0
0
VERTEX
8
0
10
-1700.000000
20
1449.000000
30
0.000000
0
VERTEX
8
0
10
-1624.000000
20
1515.000000
30
0.000000
0
SEQEND
0
POLYLINE
8
0
40
4.000000
41
4.000000
66
1
62
216
10
0
20
0
30
0
70
0
0
VERTEX
8
0
10
-1654.000000
20
1505.000000
30
0.000000
0
VERTEX
8
0
10
-1660.000000
20
1485.000000
30
0.000000
0
VERTEX
8
0
10
-1634.000000
20
1489.000000
30
0.000000
0
VERTEX
8
0
10
-1654.000000
20
1505.000000
30
0.000000
0
SEQEND
0
POLYLINE
8
0
40
1.000000
41
1.000000
66
1
62
216
10
0
20
0
30
0
70
1
0
VERTEX
8
0
10
-1618.000000
20
1575.000000
30
0.000000
0
VERTEX
8
0
10
-1630.000000
20
1575.000000
30
0.000000
0
VERTEX
8
0
10
-1630.000000
20
1475.000000
30
0.000000
0
VERTEX
8
0
10
-1618.000000
20
1475.000000
30
0.000000
0
VERTEX
8
0
10
-1618.000000
20
1575.000000
30
0.000000
0
SEQEND
0
POLYLINE
8
0
40
1.000000
41
1.000000
66
1
62
136
10
0
20
0
30
0
70
0
0
VERTEX
8
0
10
-1700.000000
20
1450.000000
30
0.000000
0
VERTEX
8
0
10
-1700.000000
20
1375.000000
30
0.000000
0
SEQEND
0
POLYLINE
8
0
40
1.000000
41
1.000000
66
1
62
136
10
0
20
0
30
0
70
0
0
VERTEX
8
0
10
-1625.000000
20
1525.000000
30
0.000000
0
VERTEX
8
0
10
-1550.000000
20
1525.000000
30
0.000000
0
SEQEND
0
POLYLINE
8
0
40
1.000000
41
1.000000
66
1
62
136
10
0
20
0
30
0
70
0
0
VERTEX
8
0
10
-1700.000000
20
1600.000000
30
0.000000
0
VERTEX
8
0
10
-1700.000000
20
1675.000000
30
0.000000
0
SEQEND
0
TEXT
8
0
39
10
62
2
10
-1700.000000
20
1575.000000
30
0.000000
11
-1700.000000
21
1575.000000
31
0.000000
40
33.000000
50
0.000000
1
T2
72
2
73
3
0
TEXT
8
0
39
10
62
2
10
-1525.000000
20
1650.000000
30
0.000000
11
-1525.000000
21
1650.000000
31
0.000000
40
34.000000
50
0.000000
1
BFN26
72
2
73
2
0
POLYLINE
8
0
40
4.000000
41
4.000000
66
1
62
216
10
0
20
0
30
0
70
0
0
VERTEX
8
0
10
-1626.000000
20
2150.000000
30
0.000000
0
VERTEX
8
0
10
-1690.000000
20
2074.000000
30
0.000000
0
SEQEND
0
POLYLINE
8
0
40
4.000000
41
4.000000
66
1
62
216
10
0
20
0
30
0
70
0
0
VERTEX
8
0
10
-1776.000000
20
2150.000000
30
0.000000
0
VERTEX
8
0
10
-1710.000000
20
2074.000000
30
0.000000
0
SEQEND
0
POLYLINE
8
0
40
4.000000
41
4.000000
66
1
62
216
10
0
20
0
30
0
70
0
0
VERTEX
8
0
10
-1720.000000
20
2084.000000
30
0.000000
0
VERTEX
8
0
10
-1740.000000
20
2094.000000
30
0.000000
0
VERTEX
8
0
10
-1726.000000
20
2104.000000
30
0.000000
0
VERTEX
8
0
10
-1720.000000
20
2084.000000
30
0.000000
0
SEQEND
0
POLYLINE
8
0
40
1.000000
41
1.000000
66
1
62
216
10
0
20
0
30
0
70
1
0
VERTEX
8
0
10
-1650.000000
20
2068.000000
30
0.000000
0
VERTEX
8
0
10
-1650.000000
20
2080.000000
30
0.000000
0
VERTEX
8
0
10
-1750.000000
20
2080.000000
30
0.000000
0
VERTEX
8
0
10
-1750.000000
20
2068.000000
30
0.000000
0
VERTEX
8
0
10
-1650.000000
20
2068.000000
30
0.000000
0
SEQEND
0
POLYLINE
8
0
40
1.000000
41
1.000000
66
1
62
136
10
0
20
0
30
0
70
0
0
VERTEX
8
0
10
-1775.000000
20
2150.000000
30
0.000000
0
VERTEX
8
0
10
-1850.000000
20
2150.000000
30
0.000000
0
SEQEND
0
POLYLINE
8
0
40
1.000000
41
1.000000
66
1
62
136
10
0
20
0
30
0
70
0
0
VERTEX
8
0
10
-1700.000000
20
2075.000000
30
0.000000
0
VERTEX
8
0
10
-1700.000000
20
2000.000000
30
0.000000
0
SEQEND
0
POLYLINE
8
0
40
1.000000
41
1.000000
66
1
62
136
10
0
20
0
30
0
70
0
0
VERTEX
8
0
10
-1625.000000
20
2150.000000
30
0.000000
0
VERTEX
8
0
10
-1550.000000
20
2150.000000
30
0.000000
0
SEQEND
0
TEXT
8
0
39
10
62
2
10
-1675.000000
20
2225.000000
30
0.000000
11
-1675.000000
21
2225.000000
31
0.000000
40
33.000000
50
0.000000
1
T1
72
2
73
3
0
TEXT
8
0
39
10
62
2
10
-1500.000000
20
2050.000000
30
0.000000
11
-1500.000000
21
2050.000000
31
0.000000
40
34.000000
50
0.000000
1
BFN27
72
2
73
2
0
POLYLINE
8
0
40
1.000000
41
1.000000
66
1
62
216
10
0
20
0
30
0
70
1
0
VERTEX
8
0
10
-1600.000000
20
1161.000000
30
0.000000
0
VERTEX
8
0
10
-1600.000000
20
1149.000000
30
0.000000
0
VERTEX
8
0
10
-1500.000000
20
1149.000000
30
0.000000
0
VERTEX
8
0
10
-1500.000000
20
1161.000000
30
0.000000
0
VERTEX
8
0
10
-1600.000000
20
1161.000000
30
0.000000
0
SEQEND
0
POLYLINE
8
0
40
1.000000
41
1.000000
66
1
62
216
10
0
20
0
30
0
70
1
0
VERTEX
8
0
10
-1600.000000
20
1191.000000
30
0.000000
0
VERTEX
8
0
10
-1600.000000
20
1179.000000
30
0.000000
0
VERTEX
8
0
10
-1500.000000
20
1179.000000
30
0.000000
0
VERTEX
8
0
10
-1500.000000
20
1191.000000
30
0.000000
0
VERTEX
8
0
10
-1600.000000
20
1191.000000
30
0.000000
0
SEQEND
0
POLYLINE
8
0
40
1.000000
41
1.000000
66
1
62
136
10
0
20
0
30
0
70
0
0
VERTEX
8
0
10
-1550.000000
20
1190.000000
30
0.000000
0
VERTEX
8
0
10
-1550.000000
20
1275.000000
30
0.000000
0
SEQEND
0
POLYLINE
8
0
40
1.000000
41
1.000000
66
1
62
136
10
0
20
0
30
0
70
0
0
VERTEX
8
0
10
-1550.000000
20
1147.000000
30
0.000000
0
VERTEX
8
0
10
-1550.000000
20
1075.000000
30
0.000000
0
SEQEND
0
TEXT
8
0
39
10
62
2
10
-1575.000000
20
1250.000000
30
0.000000
11
-1575.000000
21
1250.000000
31
0.000000
40
33.000000
50
0.000000
1
C19
72
2
73
3
0
TEXT
8
0
39
10
62
2
10
-1425.000000
20
1250.000000
30
0.000000
11
-1425.000000
21
1250.000000
31
0.000000
40
34.000000
50
0.000000
1
100nF
72
2
73
3
0
POLYLINE
8
0
40
1.000000
41
1.000000
66
1
62
216
10
0
20
0
30
0
70
1
0
VERTEX
8
0
10
-2050.000000
20
1511.000000
30
0.000000
0
VERTEX
8
0
10
-2050.000000
20
1499.000000
30
0.000000
0
VERTEX
8
0
10
-1950.000000
20
1499.000000
30
0.000000
0
VERTEX
8
0
10
-1950.000000
20
1511.000000
30
0.000000
0
VERTEX
8
0
10
-2050.000000
20
1511.000000
30
0.000000
0
SEQEND
0
POLYLINE
8
0
40
1.000000
41
1.000000
66
1
62
216
10
0
20
0
30
0
70
1
0
VERTEX
8
0
10
-2050.000000
20
1541.000000
30
0.000000
0
VERTEX
8
0
10
-2050.000000
20
1529.000000
30
0.000000
0
VERTEX
8
0
10
-1950.000000
20
1529.000000
30
0.000000
0
VERTEX
8
0
10
-1950.000000
20
1541.000000
30
0.000000
0
VERTEX
8
0
10
-2050.000000
20
1541.000000
30
0.000000
0
SEQEND
0
POLYLINE
8
0
40
1.000000
41
1.000000
66
1
62
136
10
0
20
0
30
0
70
0
0
VERTEX
8
0
10
-2000.000000
20
1540.000000
30
0.000000
0
VERTEX
8
0
10
-2000.000000
20
1625.000000
30
0.000000
0
SEQEND
0
POLYLINE
8
0
40
1.000000
41
1.000000
66
1
62
136
10
0
20
0
30
0
70
0
0
VERTEX
8
0
10
-2000.000000
20
1497.000000
30
0.000000
0
VERTEX
8
0
10
-2000.000000
20
1425.000000
30
0.000000
0
SEQEND
0
TEXT
8
0
39
10
62
2
10
-2000.000000
20
1550.000000
30
0.000000
11
-2000.000000
21
1550.000000
31
0.000000
40
33.000000
50
90.000000
1
C18
72
0
73
0
0
TEXT
8
0
39
10
62
2
10
-1875.000000
20
1475.000000
30
0.000000
11
-1875.000000
21
1475.000000
31
0.000000
40
34.000000
50
0.000000
1
100nF
72
2
73
3
0
CIRCLE
8
0
62
136
10
-1275.000000
20
2215.000000
30
0.000000
40
10.000000
39
0.000000
0
POLYLINE
8
0
40
1.000000
41
1.000000
66
1
62
136
10
0
20
0
30
0
70
0
0
VERTEX
8
0
10
-1275.000000
20
2205.000000
30
0.000000
0
VERTEX
8
0
10
-1275.000000
20
2150.000000
30
0.000000
0
SEQEND
0
TEXT
8
0
39
10
62
2
10
-1225.000000
20
2200.000000
30
0.000000
11
-1225.000000
21
2200.000000
31
0.000000
40
34.000000
50
90.000000
1
J5
72
1
73
2
0
TEXT
8
0
39
10
62
12
10
-1275.000000
20
2125.000000
30
0.000000
11
-1275.000000
21
2125.000000
31
0.000000
40
34.000000
50
90.000000
1
1
72
0
73
3
0
POLYLINE
8
0
40
1.000000
41
1.000000
66
1
62
216
10
0
20
0
30
0
70
1
0
VERTEX
8
0
10
-1164.000000
20
1900.000000
30
0.000000
0
VERTEX
8
0
10
-1176.000000
20
1900.000000
30
0.000000
0
VERTEX
8
0
10
-1176.000000
20
1800.000000
30
0.000000
0
VERTEX
8
0
10
-1164.000000
20
1800.000000
30
0.000000
0
VERTEX
8
0
10
-1164.000000
20
1900.000000
30
0.000000
0
SEQEND
0
POLYLINE
8
0
40
1.000000
41
1.000000
66
1
62
216
10
0
20
0
30
0
70
1
0
VERTEX
8
0
10
-1134.000000
20
1900.000000
30
0.000000
0
VERTEX
8
0
10
-1146.000000
20
1900.000000
30
0.000000
0
VERTEX
8
0
10
-1146.000000
20
1800.000000
30
0.000000
0
VERTEX
8
0
10
-1134.000000
20
1800.000000
30
0.000000
0
VERTEX
8
0
10
-1134.000000
20
1900.000000
30
0.000000
0
SEQEND
0
POLYLINE
8
0
40
1.000000
41
1.000000
66
1
62
136
10
0
20
0
30
0
70
0
0
VERTEX
8
0
10
-1135.000000
20
1850.000000
30
0.000000
0
VERTEX
8
0
10
-1050.000000
20
1850.000000
30
0.000000
0
SEQEND
0
POLYLINE
8
0
40
1.000000
41
1.000000
66
1
62
136
10
0
20
0
30
0
70
0
0
VERTEX
8
0
10
-1178.000000
20
1850.000000
30
0.000000
0
VERTEX
8
0
10
-1250.000000
20
1850.000000
30
0.000000
0
SEQEND
0
TEXT
8
0
39
10
62
2
10
-1125.000000
20
1850.000000
30
0.000000
11
-1125.000000
21
1850.000000
31
0.000000
40
33.000000
50
0.000000
1
C15
72
0
73
0
0
TEXT
8
0
39
10
62
2
10
-1300.000000
20
1850.000000
30
0.000000
11
-1300.000000
21
1850.000000
31
0.000000
40
34.000000
50
0.000000
1
1nF
72
0
73
0
0
POLYLINE
8
0
40
4.000000
41
4.000000
66
1
62
216
10
0
20
0
30
0
70
0
0
VERTEX
8
0
10
-1675.000000
20
1900.000000
30
0.000000
0
VERTEX
8
0
10
-1725.000000
20
1900.000000
30
0.000000
0
VERTEX
8
0
10
-1725.000000
20
1750.000000
30
0.000000
0
VERTEX
8
0
10
-1675.000000
20
1750.000000
30
0.000000
0
VERTEX
8
0
10
-1675.000000
20
1900.000000
30
0.000000
0
SEQEND
0
POLYLINE
8
0
40
1.000000
41
1.000000
66
1
62
136
10
0
20
0
30
0
70
0
0
VERTEX
8
0
10
-1700.000000
20
1900.000000
30
0.000000
0
VERTEX
8
0
10
-1700.000000
20
1950.000000
30
0.000000
0
SEQEND
0
POLYLINE
8
0
40
1.000000
41
1.000000
66
1
62
136
10
0
20
0
30
0
70
0
0
VERTEX
8
0
10
-1700.000000
20
1750.000000
30
0.000000
0
VERTEX
8
0
10
-1700.000000
20
1700.000000
30
0.000000
0
SEQEND
0
TEXT
8
0
39
10
62
2
10
-1750.000000
20
1850.000000
30
0.000000
11
-1750.000000
21
1850.000000
31
0.000000
40
33.000000
50
90.000000
1
R28
72
2
73
0
0
TEXT
8
0
39
10
62
2
10
-1701.000000
20
1825.000000
30
0.000000
11
-1701.000000
21
1825.000000
31
0.000000
40
34.000000
50
90.000000
1
100K
72
1
73
2
0
POLYLINE
8
0
40
1.000000
41
1.000000
66
1
62
216
10
0
20
0
30
0
70
1
0
VERTEX
8
0
10
-825.000000
20
1261.000000
30
0.000000
0
VERTEX
8
0
10
-825.000000
20
1249.000000
30
0.000000
0
VERTEX
8
0
10
-725.000000
20
1249.000000
30
0.000000
0
VERTEX
8
0
10
-725.000000
20
1261.000000
30
0.000000
0
VERTEX
8
0
10
-825.000000
20
1261.000000
30
0.000000
0
SEQEND
0
POLYLINE
8
0
40
1.000000
41
1.000000
66
1
62
216
10
0
20
0
30
0
70
1
0
VERTEX
8
0
10
-825.000000
20
1291.000000
30
0.000000
0
VERTEX
8
0
10
-825.000000
20
1279.000000
30
0.000000
0
VERTEX
8
0
10
-725.000000
20
1279.000000
30
0.000000
0
VERTEX
8
0
10
-725.000000
20
1291.000000
30
0.000000
0
VERTEX
8
0
10
-825.000000
20
1291.000000
30
0.000000
0
SEQEND
0
POLYLINE
8
0
40
1.000000
41
1.000000
66
1
62
136
10
0
20
0
30
0
70
0
0
VERTEX
8
0
10
-775.000000
20
1290.000000
30
0.000000
0
VERTEX
8
0
10
-775.000000
20
1375.000000
30
0.000000
0
SEQEND
0
POLYLINE
8
0
40
1.000000
41
1.000000
66
1
62
136
10
0
20
0
30
0
70
0
0
VERTEX
8
0
10
-775.000000
20
1247.000000
30
0.000000
0
VERTEX
8
0
10
-775.000000
20
1175.000000
30
0.000000
0
SEQEND
0
TEXT
8
0
39
10
62
2
10
-675.000000
20
1350.000000
30
0.000000
11
-675.000000
21
1350.000000
31
0.000000
40
33.000000
50
0.000000
1
C20
72
2
73
3
0
TEXT
8
0
39
10
62
2
10
-775.000000
20
1250.000000
30
0.000000
11
-775.000000
21
1250.000000
31
0.000000
40
34.000000
50
0.000000
1
100nF
72
2
73
3
0
POLYLINE
8
0
40
4.000000
41
4.000000
66
1
62
216
10
0
20
0
30
0
70
0
0
VERTEX
8
0
10
-1775.000000
20
1950.000000
30
0.000000
0
VERTEX
8
0
10
-1775.000000
20
2000.000000
30
0.000000
0
VERTEX
8
0
10
-1925.000000
20
2000.000000
30
0.000000
0
VERTEX
8
0
10
-1925.000000
20
1950.000000
30
0.000000
0
VERTEX
8
0
10
-1775.000000
20
1950.000000
30
0.000000
0
SEQEND
0
POLYLINE
8
0
40
1.000000
41
1.000000
66
1
62
136
10
0
20
0
30
0
70
0
0
VERTEX
8
0
10
-1775.000000
20
1975.000000
30
0.000000
0
VERTEX
8
0
10
-1725.000000
20
1975.000000
30
0.000000
0
SEQEND
0
POLYLINE
8
0
40
1.000000
41
1.000000
66
1
62
136
10
0
20
0
30
0
70
0
0
VERTEX
8
0
10
-1925.000000
20
1975.000000
30
0.000000
0
VERTEX
8
0
10
-1975.000000
20
1975.000000
30
0.000000
0
SEQEND
0
TEXT
8
0
39
10
62
2
10
-1800.000000
20
2000.000000
30
0.000000
11
-1800.000000
21
2000.000000
31
0.000000
40
33.000000
50
0.000000
1
R27
72
2
73
0
0
TEXT
8
0
39
10
62
2
10
-1850.000000
20
1976.000000
30
0.000000
11
-1850.000000
21
1976.000000
31
0.000000
40
34.000000
50
0.000000
1
4K7
72
1
73
2
0
POLYLINE
8
0
40
4.000000
41
4.000000
66
1
62
216
10
0
20
0
30
0
70
0
0
VERTEX
8
0
10
-1675.000000
20
1300.000000
30
0.000000
0
VERTEX
8
0
10
-1725.000000
20
1300.000000
30
0.000000
0
VERTEX
8
0
10
-1725.000000
20
1150.000000
30
0.000000
0
VERTEX
8
0
10
-1675.000000
20
1150.000000
30
0.000000
0
VERTEX
8
0
10
-1675.000000
20
1300.000000
30
0.000000
0
SEQEND
0
POLYLINE
8
0
40
1.000000
41
1.000000
66
1
62
136
10
0
20
0
30
0
70
0
0
VERTEX
8
0
10
-1700.000000
20
1300.000000
30
0.000000
0
VERTEX
8
0
10
-1700.000000
20
1350.000000
30
0.000000
0
SEQEND
0
POLYLINE
8
0
40
1.000000
41
1.000000
66
1
62
136
10
0
20
0
30
0
70
0
0
VERTEX
8
0
10
-1700.000000
20
1150.000000
30
0.000000
0
VERTEX
8
0
10
-1700.000000
20
1100.000000
30
0.000000
0
SEQEND
0
TEXT
8
0
39
10
62
2
10
-1800.000000
20
1350.000000
30
0.000000
11
-1800.000000
21
1350.000000
31
0.000000
40
33.000000
50
0.000000
1
R32
72
0
73
3
0
TEXT
8
0
39
10
62
2
10
-1701.000000
20
1225.000000
30
0.000000
11
-1701.000000
21
1225.000000
31
0.000000
40
34.000000
50
90.000000
1
4K7
72
1
73
2
0
POLYLINE
8
0
40
4.000000
41
4.000000
66
1
62
216
10
0
20
0
30
0
70
0
0
VERTEX
8
0
10
-1475.000000
20
1550.000000
30
0.000000
0
VERTEX
8
0
10
-1475.000000
20
1500.000000
30
0.000000
0
VERTEX
8
0
10
-1325.000000
20
1500.000000
30
0.000000
0
VERTEX
8
0
10
-1325.000000
20
1550.000000
30
0.000000
0
VERTEX
8
0
10
-1475.000000
20
1550.000000
30
0.000000
0
SEQEND
0
POLYLINE
8
0
40
1.000000
41
1.000000
66
1
62
136
10
0
20
0
30
0
70
0
0
VERTEX
8
0
10
-1475.000000
20
1525.000000
30
0.000000
0
VERTEX
8
0
10
-1525.000000
20
1525.000000
30
0.000000
0
SEQEND
0
POLYLINE
8
0
40
1.000000
41
1.000000
66
1
62
136
10
0
20
0
30
0
70
0
0
VERTEX
8
0
10
-1325.000000
20
1525.000000
30
0.000000
0
VERTEX
8
0
10
-1275.000000
20
1525.000000
30
0.000000
0
SEQEND
0
TEXT
8
0
39
10
62
2
10
-1425.000000
20
1475.000000
30
0.000000
11
-1425.000000
21
1475.000000
31
0.000000
40
33.000000
50
0.000000
1
R30
72
0
73
3
0
TEXT
8
0
39
10
62
2
10
-1400.000000
20
1524.000000
30
0.000000
11
-1400.000000
21
1524.000000
31
0.000000
40
34.000000
50
0.000000
1
1K
72
1
73
2
0
POLYLINE
8
0
40
4.000000
41
4.000000
66
1
62
216
10
0
20
0
30
0
70
0
0
VERTEX
8
0
10
-475.000000
20
2075.000000
30
0.000000
0
VERTEX
8
0
10
-525.000000
20
2075.000000
30
0.000000
0
VERTEX
8
0
10
-525.000000
20
1925.000000
30
0.000000
0
VERTEX
8
0
10
-475.000000
20
1925.000000
30
0.000000
0
VERTEX
8
0
10
-475.000000
20
2075.000000
30
0.000000
0
SEQEND
0
POLYLINE
8
0
40
1.000000
41
1.000000
66
1
62
136
10
0
20
0
30
0
70
0
0
VERTEX
8
0
10
-500.000000
20
2075.000000
30
0.000000
0
VERTEX
8
0
10
-500.000000
20
2125.000000
30
0.000000
0
SEQEND
0
POLYLINE
8
0
40
1.000000
41
1.000000
66
1
62
136
10
0
20
0
30
0
70
0
0
VERTEX
8
0
10
-500.000000
20
1925.000000
30
0.000000
0
VERTEX
8
0
10
-500.000000
20
1875.000000
30
0.000000
0
SEQEND
0
TEXT
8
0
39
10
62
2
10
-475.000000
20
2050.000000
30
0.000000
11
-475.000000
21
2050.000000
31
0.000000
40
33.000000
50
0.000000
1
R24
72
0
73
3
0
TEXT
8
0
39
10
62
2
10
-501.000000
20
2000.000000
30
0.000000
11
-501.000000
21
2000.000000
31
0.000000
40
34.000000
50
90.000000
1
270K
72
1
73
2
0
POLYLINE
8
0
40
4.000000
41
4.000000
66
1
62
216
10
0
20
0
30
0
70
0
0
VERTEX
8
0
10
-475.000000
20
1800.000000
30
0.000000
0
VERTEX
8
0
10
-525.000000
20
1800.000000
30
0.000000
0
VERTEX
8
0
10
-525.000000
20
1650.000000
30
0.000000
0
VERTEX
8
0
10
-475.000000
20
1650.000000
30
0.000000
0
VERTEX
8
0
10
-475.000000
20
1800.000000
30
0.000000
0
SEQEND
0
POLYLINE
8
0
40
1.000000
41
1.000000
66
1
62
136
10
0
20
0
30
0
70
0
0
VERTEX
8
0
10
-500.000000
20
1800.000000
30
0.000000
0
VERTEX
8
0
10
-500.000000
20
1850.000000
30
0.000000
0
SEQEND
0
POLYLINE
8
0
40
1.000000
41
1.000000
66
1
62
136
10
0
20
0
30
0
70
0
0
VERTEX
8
0
10
-500.000000
20
1650.000000
30
0.000000
0
VERTEX
8
0
10
-500.000000
20
1600.000000
30
0.000000
0
SEQEND
0
TEXT
8
0
39
10
62
2
10
-475.000000
20
1850.000000
30
0.000000
11
-475.000000
21
1850.000000
31
0.000000
40
33.000000
50
0.000000
1
R31
72
0
73
3
0
TEXT
8
0
39
10
62
2
10
-501.000000
20
1725.000000
30
0.000000
11
-501.000000
21
1725.000000
31
0.000000
40
34.000000
50
90.000000
1
330K
72
1
73
2
0
POLYLINE
8
0
40
4.000000
41
4.000000
66
1
62
216
10
0
20
0
30
0
70
0
0
VERTEX
8
0
10
-475.000000
20
1275.000000
30
0.000000
0
VERTEX
8
0
10
-525.000000
20
1275.000000
30
0.000000
0
VERTEX
8
0
10
-525.000000
20
1125.000000
30
0.000000
0
VERTEX
8
0
10
-475.000000
20
1125.000000
30
0.000000
0
VERTEX
8
0
10
-475.000000
20
1275.000000
30
0.000000
0
SEQEND
0
POLYLINE
8
0
40
1.000000
41
1.000000
66
1
62
136
10
0
20
0
30
0
70
0
0
VERTEX
8
0
10
-500.000000
20
1275.000000
30
0.000000
0
VERTEX
8
0
10
-500.000000
20
1325.000000
30
0.000000
0
SEQEND
0
POLYLINE
8
0
40
1.000000
41
1.000000
66
1
62
136
10
0
20
0
30
0
70
0
0
VERTEX
8
0
10
-500.000000
20
1125.000000
30
0.000000
0
VERTEX
8
0
10
-500.000000
20
1075.000000
30
0.000000
0
SEQEND
0
TEXT
8
0
39
10
62
2
10
-475.000000
20
1325.000000
30
0.000000
11
-475.000000
21
1325.000000
31
0.000000
40
33.000000
50
0.000000
1
R33
72
0
73
3
0
TEXT
8
0
39
10
62
2
10
-501.000000
20
1200.000000
30
0.000000
11
-501.000000
21
1200.000000
31
0.000000
40
34.000000
50
90.000000
1
18K
72
1
73
2
0
POLYLINE
8
0
40
4.000000
41
4.000000
66
1
62
216
10
0
20
0
30
0
70
0
0
VERTEX
8
0
10
-825.000000
20
1825.000000
30
0.000000
0
VERTEX
8
0
10
-825.000000
20
1875.000000
30
0.000000
0
VERTEX
8
0
10
-975.000000
20
1875.000000
30
0.000000
0
VERTEX
8
0
10
-975.000000
20
1825.000000
30
0.000000
0
VERTEX
8
0
10
-825.000000
20
1825.000000
30
0.000000
0
SEQEND
0
POLYLINE
8
0
40
1.000000
41
1.000000
66
1
62
136
10
0
20
0
30
0
70
0
0
VERTEX
8
0
10
-825.000000
20
1850.000000
30
0.000000
0
VERTEX
8
0
10
-775.000000
20
1850.000000
30
0.000000
0
SEQEND
0
POLYLINE
8
0
40
1.000000
41
1.000000
66
1
62
136
10
0
20
0
30
0
70
0
0
VERTEX
8
0
10
-975.000000
20
1850.000000
30
0.000000
0
VERTEX
8
0
10
-1025.000000
20
1850.000000
30
0.000000
0
SEQEND
0
TEXT
8
0
39
10
62
2
10
-875.000000
20
1875.000000
30
0.000000
11
-875.000000
21
1875.000000
31
0.000000
40
33.000000
50
0.000000
1
R29
72
2
73
0
0
TEXT
8
0
39
10
62
2
10
-900.000000
20
1851.000000
30
0.000000
11
-900.000000
21
1851.000000
31
0.000000
40
34.000000
50
0.000000
1
1K
72
1
73
2
0
POLYLINE
8
0
40
1.000000
41
1.000000
66
1
62
216
10
0
20
0
30
0
70
1
0
VERTEX
8
0
10
200.000000
20
1861.000000
30
0.000000
0
VERTEX
8
0
10
200.000000
20
1849.000000
30
0.000000
0
VERTEX
8
0
10
300.000000
20
1849.000000
30
0.000000
0
VERTEX
8
0
10
300.000000
20
1861.000000
30
0.000000
0
VERTEX
8
0
10
200.000000
20
1861.000000
30
0.000000
0
SEQEND
0
POLYLINE
8
0
40
1.000000
41
1.000000
66
1
62
216
10
0
20
0
30
0
70
1
0
VERTEX
8
0
10
200.000000
20
1891.000000
30
0.000000
0
VERTEX
8
0
10
200.000000
20
1879.000000
30
0.000000
0
VERTEX
8
0
10
300.000000
20
1879.000000
30
0.000000
0
VERTEX
8
0
10
300.000000
20
1891.000000
30
0.000000
0
VERTEX
8
0
10
200.000000
20
1891.000000
30
0.000000
0
SEQEND
0
POLYLINE
8
0
40
1.000000
41
1.000000
66
1
62
136
10
0
20
0
30
0
70
0
0
VERTEX
8
0
10
250.000000
20
1890.000000
30
0.000000
0
VERTEX
8
0
10
250.000000
20
1975.000000
30
0.000000
0
SEQEND
0
POLYLINE
8
0
40
1.000000
41
1.000000
66
1
62
136
10
0
20
0
30
0
70
0
0
VERTEX
8
0
10
250.000000
20
1847.000000
30
0.000000
0
VERTEX
8
0
10
250.000000
20
1775.000000
30
0.000000
0
SEQEND
0
TEXT
8
0
39
10
62
2
10
250.000000
20
1950.000000
30
0.000000
11
250.000000
21
1950.000000
31
0.000000
40
33.000000
50
0.000000
1
C17
72
2
73
3
0
TEXT
8
0
39
10
62
2
10
375.000000
20
1825.000000
30
0.000000
11
375.000000
21
1825.000000
31
0.000000
40
34.000000
50
0.000000
1
100nF
72
2
73
3
0
POLYLINE
8
0
40
1.000000
41
1.000000
66
1
62
216
10
0
20
0
30
0
70
1
0
VERTEX
8
0
10
-100.000000
20
1861.000000
30
0.000000
0
VERTEX
8
0
10
-100.000000
20
1849.000000
30
0.000000
0
VERTEX
8
0
10
0.000000
20
1849.000000
30
0.000000
0
VERTEX
8
0
10
0.000000
20
1861.000000
30
0.000000
0
VERTEX
8
0
10
-100.000000
20
1861.000000
30
0.000000
0
SEQEND
0
POLYLINE
8
0
40
1.000000
41
1.000000
66
1
62
216
10
0
20
0
30
0
70
1
0
VERTEX
8
0
10
-100.000000
20
1891.000000
30
0.000000
0
VERTEX
8
0
10
-100.000000
20
1879.000000
30
0.000000
0
VERTEX
8
0
10
0.000000
20
1879.000000
30
0.000000
0
VERTEX
8
0
10
0.000000
20
1891.000000
30
0.000000
0
VERTEX
8
0
10
-100.000000
20
1891.000000
30
0.000000
0
SEQEND
0
POLYLINE
8
0
40
1.000000
41
1.000000
66
1
62
136
10
0
20
0
30
0
70
0
0
VERTEX
8
0
10
-50.000000
20
1890.000000
30
0.000000
0
VERTEX
8
0
10
-50.000000
20
1975.000000
30
0.000000
0
SEQEND
0
POLYLINE
8
0
40
1.000000
41
1.000000
66
1
62
136
10
0
20
0
30
0
70
0
0
VERTEX
8
0
10
-50.000000
20
1847.000000
30
0.000000
0
VERTEX
8
0
10
-50.000000
20
1775.000000
30
0.000000
0
SEQEND
0
TEXT
8
0
39
10
62
2
10
50.000000
20
1950.000000
30
0.000000
11
50.000000
21
1950.000000
31
0.000000
40
33.000000
50
0.000000
1
C16
72
2
73
3
0
TEXT
8
0
39
10
62
2
10
75.000000
20
1825.000000
30
0.000000
11
75.000000
21
1825.000000
31
0.000000
40
34.000000
50
0.000000
1
100nF
72
2
73
3
0
POLYLINE
8
0
40
4.000000
41
4.000000
66
1
62
216
10
0
20
0
30
0
70
0
0
VERTEX
8
0
10
25.000000
20
2175.000000
30
0.000000
0
VERTEX
8
0
10
25.000000
20
2125.000000
30
0.000000
0
VERTEX
8
0
10
175.000000
20
2125.000000
30
0.000000
0
VERTEX
8
0
10
175.000000
20
2175.000000
30
0.000000
0
VERTEX
8
0
10
25.000000
20
2175.000000
30
0.000000
0
SEQEND
0
POLYLINE
8
0
40
1.000000
41
1.000000
66
1
62
136
10
0
20
0
30
0
70
0
0
VERTEX
8
0
10
25.000000
20
2150.000000
30
0.000000
0
VERTEX
8
0
10
-25.000000
20
2150.000000
30
0.000000
0
SEQEND
0
POLYLINE
8
0
40
1.000000
41
1.000000
66
1
62
136
10
0
20
0
30
0
70
0
0
VERTEX
8
0
10
175.000000
20
2150.000000
30
0.000000
0
VERTEX
8
0
10
225.000000
20
2150.000000
30
0.000000
0
SEQEND
0
TEXT
8
0
39
10
62
2
10
75.000000
20
2100.000000
30
0.000000
11
75.000000
21
2100.000000
31
0.000000
40
33.000000
50
0.000000
1
R25
72
0
73
3
0
TEXT
8
0
39
10
62
2
10
100.000000
20
2149.000000
30
0.000000
11
100.000000
21
2149.000000
31
0.000000
40
34.000000
50
0.000000
1
10K
72
1
73
2
0
POLYLINE
8
0
40
4.000000
41
4.000000
66
1
62
216
10
0
20
0
30
0
70
0
0
VERTEX
8
0
10
325.000000
20
2175.000000
30
0.000000
0
VERTEX
8
0
10
325.000000
20
2125.000000
30
0.000000
0
VERTEX
8
0
10
475.000000
20
2125.000000
30
0.000000
0
VERTEX
8
0
10
475.000000
20
2175.000000
30
0.000000
0
VERTEX
8
0
10
325.000000
20
2175.000000
30
0.000000
0
SEQEND
0
POLYLINE
8
0
40
1.000000
41
1.000000
66
1
62
136
10
0
20
0
30
0
70
0
0
VERTEX
8
0
10
325.000000
20
2150.000000
30
0.000000
0
VERTEX
8
0
10
275.000000
20
2150.000000
30
0.000000
0
SEQEND
0
POLYLINE
8
0
40
1.000000
41
1.000000
66
1
62
136
10
0
20
0
30
0
70
0
0
VERTEX
8
0
10
475.000000
20
2150.000000
30
0.000000
0
VERTEX
8
0
10
525.000000
20
2150.000000
30
0.000000
0
SEQEND
0
TEXT
8
0
39
10
62
2
10
375.000000
20
2100.000000
30
0.000000
11
375.000000
21
2100.000000
31
0.000000
40
33.000000
50
0.000000
1
R26
72
0
73
3
0
TEXT
8
0
39
10
62
2
10
400.000000
20
2149.000000
30
0.000000
11
400.000000
21
2149.000000
31
0.000000
40
34.000000
50
0.000000
1
10K
72
1
73
2
0
LINE
8
0
39
4
62
216
10
-925.000000
20
1625.000000
30
0.000000
11
-925.000000
21
1425.000000
31
0.000000
0
LINE
8
0
39
4
62
216
10
-1125.000000
20
1525.000000
30
0.000000
11
-925.000000
21
1425.000000
31
0.000000
0
LINE
8
0
39
4
62
216
10
-925.000000
20
1625.000000
30
0.000000
11
-1125.000000
21
1525.000000
31
0.000000
0
POLYLINE
8
0
40
1.000000
41
1.000000
66
1
62
136
10
0
20
0
30
0
70
0
0
VERTEX
8
0
10
-1195.000000
20
1515.000000
30
0.000000
0
VERTEX
8
0
10
-1205.000000
20
1525.000000
30
0.000000
0
VERTEX
8
0
10
-1195.000000
20
1535.000000
30
0.000000
0
SEQEND
0
POLYLINE
8
0
40
1.000000
41
1.000000
66
1
62
136
10
0
20
0
30
0
70
0
0
VERTEX
8
0
10
-1125.000000
20
1525.000000
30
0.000000
0
VERTEX
8
0
10
-1225.000000
20
1525.000000
30
0.000000
0
SEQEND
0
POLYLINE
8
0
40
1.000000
41
1.000000
66
1
62
136
10
0
20
0
30
0
70
0
0
VERTEX
8
0
10
-1025.000000
20
1475.000000
30
0.000000
0
VERTEX
8
0
10
-1025.000000
20
1375.000000
30
0.000000
0
SEQEND
0
POLYLINE
8
0
40
1.000000
41
1.000000
66
1
62
136
10
0
20
0
30
0
70
0
0
VERTEX
8
0
10
-845.000000
20
1465.000000
30
0.000000
0
VERTEX
8
0
10
-855.000000
20
1475.000000
30
0.000000
0
VERTEX
8
0
10
-845.000000
20
1485.000000
30
0.000000
0
SEQEND
0
POLYLINE
8
0
40
1.000000
41
1.000000
66
1
62
136
10
0
20
0
30
0
70
0
0
VERTEX
8
0
10
-925.000000
20
1475.000000
30
0.000000
0
VERTEX
8
0
10
-825.000000
20
1475.000000
30
0.000000
0
SEQEND
0
POLYLINE
8
0
40
1.000000
41
1.000000
66
1
62
136
10
0
20
0
30
0
70
0
0
VERTEX
8
0
10
-845.000000
20
1565.000000
30
0.000000
0
VERTEX
8
0
10
-855.000000
20
1575.000000
30
0.000000
0
VERTEX
8
0
10
-845.000000
20
1585.000000
30
0.000000
0
SEQEND
0
POLYLINE
8
0
40
1.000000
41
1.000000
66
1
62
136
10
0
20
0
30
0
70
0
0
VERTEX
8
0
10
-925.000000
20
1575.000000
30
0.000000
0
VERTEX
8
0
10
-825.000000
20
1575.000000
30
0.000000
0
SEQEND
0
POLYLINE
8
0
40
1.000000
41
1.000000
66
1
62
136
10
0
20
0
30
0
70
0
0
VERTEX
8
0
10
-1025.000000
20
1575.000000
30
0.000000
0
VERTEX
8
0
10
-1025.000000
20
1675.000000
30
0.000000
0
SEQEND
0
TEXT
8
0
39
10
62
2
10
-975.000000
20
1500.000000
30
0.000000
11
-975.000000
21
1500.000000
31
0.000000
40
37.000000
50
0.000000
1
U6
72
2
73
0
0
TEXT
8
0
39
10
62
7
10
-1075.000000
20
1400.000000
30
0.000000
11
-1075.000000
21
1400.000000
31
0.000000
40
37.000000
50
0.000000
1
MAX4040
72
2
73
0
0
TEXT
8
0
39
10
62
136
10
-1225.000000
20
1525.000000
30
0.000000
11
-1225.000000
21
1525.000000
31
0.000000
40
33.000000
50
0.000000
1
1
72
0
73
0
0
TEXT
8
0
39
10
62
136
10
-1000.000000
20
1375.000000
30
0.000000
11
-1000.000000
21
1375.000000
31
0.000000
40
33.000000
50
0.000000
1
2
72
2
73
0
0
TEXT
8
0
39
10
62
136
10
-825.000000
20
1475.000000
30
0.000000
11
-825.000000
21
1475.000000
31
0.000000
40
33.000000
50
0.000000
1
3
72
2
73
0
0
TEXT
8
0
39
10
62
96
10
-925.000000
20
1475.000000
30
0.000000
11
-925.000000
21
1475.000000
31
0.000000
40
33.000000
50
0.000000
1
+
72
2
73
2
0
TEXT
8
0
39
10
62
136
10
-825.000000
20
1575.000000
30
0.000000
11
-825.000000
21
1575.000000
31
0.000000
40
33.000000
50
0.000000
1
4
72
2
73
0
0
TEXT
8
0
39
10
62
96
10
-925.000000
20
1575.000000
30
0.000000
11
-925.000000
21
1575.000000
31
0.000000
40
33.000000
50
0.000000
1
-
72
2
73
2
0
TEXT
8
0
39
10
62
136
10
-1025.000000
20
1625.000000
30
0.000000
11
-1025.000000
21
1625.000000
31
0.000000
40
33.000000
50
0.000000
1
5
72
0
73
0
0
POLYLINE
8
0
40
4.000000
41
4.000000
66
1
62
216
10
0
20
0
30
0
70
0
0
VERTEX
8
0
10
-1675.000000
20
-350.000000
30
0.000000
0
VERTEX
8
0
10
-1725.000000
20
-350.000000
30
0.000000
0
VERTEX
8
0
10
-1725.000000
20
-500.000000
30
0.000000
0
VERTEX
8
0
10
-1675.000000
20
-500.000000
30
0.000000
0
VERTEX
8
0
10
-1675.000000
20
-350.000000
30
0.000000
0
SEQEND
0
POLYLINE
8
0
40
1.000000
41
1.000000
66
1
62
136
10
0
20
0
30
0
70
0
0
VERTEX
8
0
10
-1700.000000
20
-350.000000
30
0.000000
0
VERTEX
8
0
10
-1700.000000
20
-300.000000
30
0.000000
0
SEQEND
0
POLYLINE
8
0
40
1.000000
41
1.000000
66
1
62
136
10
0
20
0
30
0
70
0
0
VERTEX
8
0
10
-1700.000000
20
-500.000000
30
0.000000
0
VERTEX
8
0
10
-1700.000000
20
-550.000000
30
0.000000
0
SEQEND
0
TEXT
8
0
39
10
62
2
10
-1750.000000
20
-400.000000
30
0.000000
11
-1750.000000
21
-400.000000
31
0.000000
40
33.000000
50
90.000000
1
R37
72
2
73
0
0
TEXT
8
0
39
10
62
2
10
-1701.000000
20
-425.000000
30
0.000000
11
-1701.000000
21
-425.000000
31
0.000000
40
34.000000
50
90.000000
1
100K
72
1
73
2
0
CIRCLE
8
0
62
136
10
-1275.000000
20
-35.000000
30
0.000000
40
10.000000
39
0.000000
0
POLYLINE
8
0
40
1.000000
41
1.000000
66
1
62
136
10
0
20
0
30
0
70
0
0
VERTEX
8
0
10
-1275.000000
20
-45.000000
30
0.000000
0
VERTEX
8
0
10
-1275.000000
20
-100.000000
30
0.000000
0
SEQEND
0
TEXT
8
0
39
10
62
2
10
-1225.000000
20
-50.000000
30
0.000000
11
-1225.000000
21
-50.000000
31
0.000000
40
34.000000
50
90.000000
1
J6
72
1
73
2
0
TEXT
8
0
39
10
62
12
10
-1275.000000
20
-125.000000
30
0.000000
11
-1275.000000
21
-125.000000
31
0.000000
40
34.000000
50
90.000000
1
1
72
0
73
3
0
POLYLINE
8
0
40
4.000000
41
4.000000
66
1
62
216
10
0
20
0
30
0
70
0
0
VERTEX
8
0
10
-1700.000000
20
-651.000000
30
0.000000
0
VERTEX
8
0
10
-1624.000000
20
-715.000000
30
0.000000
0
SEQEND
0
POLYLINE
8
0
40
4.000000
41
4.000000
66
1
62
216
10
0
20
0
30
0
70
0
0
VERTEX
8
0
10
-1700.000000
20
-801.000000
30
0.000000
0
VERTEX
8
0
10
-1624.000000
20
-735.000000
30
0.000000
0
SEQEND
0
POLYLINE
8
0
40
4.000000
41
4.000000
66
1
62
216
10
0
20
0
30
0
70
0
0
VERTEX
8
0
10
-1654.000000
20
-745.000000
30
0.000000
0
VERTEX
8
0
10
-1660.000000
20
-765.000000
30
0.000000
0
VERTEX
8
0
10
-1634.000000
20
-761.000000
30
0.000000
0
VERTEX
8
0
10
-1654.000000
20
-745.000000
30
0.000000
0
SEQEND
0
POLYLINE
8
0
40
1.000000
41
1.000000
66
1
62
216
10
0
20
0
30
0
70
1
0
VERTEX
8
0
10
-1618.000000
20
-675.000000
30
0.000000
0
VERTEX
8
0
10
-1630.000000
20
-675.000000
30
0.000000
0
VERTEX
8
0
10
-1630.000000
20
-775.000000
30
0.000000
0
VERTEX
8
0
10
-1618.000000
20
-775.000000
30
0.000000
0
VERTEX
8
0
10
-1618.000000
20
-675.000000
30
0.000000
0
SEQEND
0
POLYLINE
8
0
40
1.000000
41
1.000000
66
1
62
136
10
0
20
0
30
0
70
0
0
VERTEX
8
0
10
-1700.000000
20
-800.000000
30
0.000000
0
VERTEX
8
0
10
-1700.000000
20
-875.000000
30
0.000000
0
SEQEND
0
POLYLINE
8
0
40
1.000000
41
1.000000
66
1
62
136
10
0
20
0
30
0
70
0
0
VERTEX
8
0
10
-1625.000000
20
-725.000000
30
0.000000
0
VERTEX
8
0
10
-1550.000000
20
-725.000000
30
0.000000
0
SEQEND
0
POLYLINE
8
0
40
1.000000
41
1.000000
66
1
62
136
10
0
20
0
30
0
70
0
0
VERTEX
8
0
10
-1700.000000
20
-650.000000
30
0.000000
0
VERTEX
8
0
10
-1700.000000
20
-575.000000
30
0.000000
0
SEQEND
0
TEXT
8
0
39
10
62
2
10
-1700.000000
20
-675.000000
30
0.000000
11
-1700.000000
21
-675.000000
31
0.000000
40
33.000000
50
0.000000
1
T4
72
2
73
3
0
TEXT
8
0
39
10
62
2
10
-1525.000000
20
-600.000000
30
0.000000
11
-1525.000000
21
-600.000000
31
0.000000
40
34.000000
50
0.000000
1
BFN26
72
2
73
2
0
POLYLINE
8
0
40
4.000000
41
4.000000
66
1
62
216
10
0
20
0
30
0
70
0
0
VERTEX
8
0
10
-1626.000000
20
-100.000000
30
0.000000
0
VERTEX
8
0
10
-1690.000000
20
-176.000000
30
0.000000
0
SEQEND
0
POLYLINE
8
0
40
4.000000
41
4.000000
66
1
62
216
10
0
20
0
30
0
70
0
0
VERTEX
8
0
10
-1776.000000
20
-100.000000
30
0.000000
0
VERTEX
8
0
10
-1710.000000
20
-176.000000
30
0.000000
0
SEQEND
0
POLYLINE
8
0
40
4.000000
41
4.000000
66
1
62
216
10
0
20
0
30
0
70
0
0
VERTEX
8
0
10
-1720.000000
20
-166.000000
30
0.000000
0
VERTEX
8
0
10
-1740.000000
20
-156.000000
30
0.000000
0
VERTEX
8
0
10
-1726.000000
20
-146.000000
30
0.000000
0
VERTEX
8
0
10
-1720.000000
20
-166.000000
30
0.000000
0
SEQEND
0
POLYLINE
8
0
40
1.000000
41
1.000000
66
1
62
216
10
0
20
0
30
0
70
1
0
VERTEX
8
0
10
-1650.000000
20
-182.000000
30
0.000000
0
VERTEX
8
0
10
-1650.000000
20
-170.000000
30
0.000000
0
VERTEX
8
0
10
-1750.000000
20
-170.000000
30
0.000000
0
VERTEX
8
0
10
-1750.000000
20
-182.000000
30
0.000000
0
VERTEX
8
0
10
-1650.000000
20
-182.000000
30
0.000000
0
SEQEND
0
POLYLINE
8
0
40
1.000000
41
1.000000
66
1
62
136
10
0
20
0
30
0
70
0
0
VERTEX
8
0
10
-1775.000000
20
-100.000000
30
0.000000
0
VERTEX
8
0
10
-1850.000000
20
-100.000000
30
0.000000
0
SEQEND
0
POLYLINE
8
0
40
1.000000
41
1.000000
66
1
62
136
10
0
20
0
30
0
70
0
0
VERTEX
8
0
10
-1700.000000
20
-175.000000
30
0.000000
0
VERTEX
8
0
10
-1700.000000
20
-250.000000
30
0.000000
0
SEQEND
0
POLYLINE
8
0
40
1.000000
41
1.000000
66
1
62
136
10
0
20
0
30
0
70
0
0
VERTEX
8
0
10
-1625.000000
20
-100.000000
30
0.000000
0
VERTEX
8
0
10
-1550.000000
20
-100.000000
30
0.000000
0
SEQEND
0
TEXT
8
0
39
10
62
2
10
-1675.000000
20
-25.000000
30
0.000000
11
-1675.000000
21
-25.000000
31
0.000000
40
33.000000
50
0.000000
1
T3
72
2
73
3
0
TEXT
8
0
39
10
62
2
10
-1500.000000
20
-200.000000
30
0.000000
11
-1500.000000
21
-200.000000
31
0.000000
40
34.000000
50
0.000000
1
BFN27
72
2
73
2
0
POLYLINE
8
0
40
4.000000
41
4.000000
66
1
62
216
10
0
20
0
30
0
70
0
0
VERTEX
8
0
10
-1775.000000
20
-300.000000
30
0.000000
0
VERTEX
8
0
10
-1775.000000
20
-250.000000
30
0.000000
0
VERTEX
8
0
10
-1925.000000
20
-250.000000
30
0.000000
0
VERTEX
8
0
10
-1925.000000
20
-300.000000
30
0.000000
0
VERTEX
8
0
10
-1775.000000
20
-300.000000
30
0.000000
0
SEQEND
0
POLYLINE
8
0
40
1.000000
41
1.000000
66
1
62
136
10
0
20
0
30
0
70
0
0
VERTEX
8
0
10
-1775.000000
20
-275.000000
30
0.000000
0
VERTEX
8
0
10
-1725.000000
20
-275.000000
30
0.000000
0
SEQEND
0
POLYLINE
8
0
40
1.000000
41
1.000000
66
1
62
136
10
0
20
0
30
0
70
0
0
VERTEX
8
0
10
-1925.000000
20
-275.000000
30
0.000000
0
VERTEX
8
0
10
-1975.000000
20
-275.000000
30
0.000000
0
SEQEND
0
TEXT
8
0
39
10
62
2
10
-1800.000000
20
-250.000000
30
0.000000
11
-1800.000000
21
-250.000000
31
0.000000
40
33.000000
50
0.000000
1
R36
72
2
73
0
0
TEXT
8
0
39
10
62
2
10
-1850.000000
20
-274.000000
30
0.000000
11
-1850.000000
21
-274.000000
31
0.000000
40
34.000000
50
0.000000
1
4K7
72
1
73
2
0
LINE
8
0
39
4
62
216
10
-925.000000
20
-625.000000
30
0.000000
11
-925.000000
21
-825.000000
31
0.000000
0
LINE
8
0
39
4
62
216
10
-1125.000000
20
-725.000000
30
0.000000
11
-925.000000
21
-825.000000
31
0.000000
0
LINE
8
0
39
4
62
216
10
-925.000000
20
-625.000000
30
0.000000
11
-1125.000000
21
-725.000000
31
0.000000
0
POLYLINE
8
0
40
1.000000
41
1.000000
66
1
62
136
10
0
20
0
30
0
70
0
0
VERTEX
8
0
10
-1195.000000
20
-735.000000
30
0.000000
0
VERTEX
8
0
10
-1205.000000
20
-725.000000
30
0.000000
0
VERTEX
8
0
10
-1195.000000
20
-715.000000
30
0.000000
0
SEQEND
0
POLYLINE
8
0
40
1.000000
41
1.000000
66
1
62
136
10
0
20
0
30
0
70
0
0
VERTEX
8
0
10
-1125.000000
20
-725.000000
30
0.000000
0
VERTEX
8
0
10
-1225.000000
20
-725.000000
30
0.000000
0
SEQEND
0
POLYLINE
8
0
40
1.000000
41
1.000000
66
1
62
136
10
0
20
0
30
0
70
0
0
VERTEX
8
0
10
-1025.000000
20
-775.000000
30
0.000000
0
VERTEX
8
0
10
-1025.000000
20
-875.000000
30
0.000000
0
SEQEND
0
POLYLINE
8
0
40
1.000000
41
1.000000
66
1
62
136
10
0
20
0
30
0
70
0
0
VERTEX
8
0
10
-845.000000
20
-785.000000
30
0.000000
0
VERTEX
8
0
10
-855.000000
20
-775.000000
30
0.000000
0
VERTEX
8
0
10
-845.000000
20
-765.000000
30
0.000000
0
SEQEND
0
POLYLINE
8
0
40
1.000000
41
1.000000
66
1
62
136
10
0
20
0
30
0
70
0
0
VERTEX
8
0
10
-925.000000
20
-775.000000
30
0.000000
0
VERTEX
8
0
10
-825.000000
20
-775.000000
30
0.000000
0
SEQEND
0
POLYLINE
8
0
40
1.000000
41
1.000000
66
1
62
136
10
0
20
0
30
0
70
0
0
VERTEX
8
0
10
-845.000000
20
-685.000000
30
0.000000
0
VERTEX
8
0
10
-855.000000
20
-675.000000
30
0.000000
0
VERTEX
8
0
10
-845.000000
20
-665.000000
30
0.000000
0
SEQEND
0
POLYLINE
8
0
40
1.000000
41
1.000000
66
1
62
136
10
0
20
0
30
0
70
0
0
VERTEX
8
0
10
-925.000000
20
-675.000000
30
0.000000
0
VERTEX
8
0
10
-825.000000
20
-675.000000
30
0.000000
0
SEQEND
0
POLYLINE
8
0
40
1.000000
41
1.000000
66
1
62
136
10
0
20
0
30
0
70
0
0
VERTEX
8
0
10
-1025.000000
20
-675.000000
30
0.000000
0
VERTEX
8
0
10
-1025.000000
20
-575.000000
30
0.000000
0
SEQEND
0
TEXT
8
0
39
10
62
2
10
-975.000000
20
-750.000000
30
0.000000
11
-975.000000
21
-750.000000
31
0.000000
40
37.000000
50
0.000000
1
U8
72
2
73
0
0
TEXT
8
0
39
10
62
7
10
-1075.000000
20
-850.000000
30
0.000000
11
-1075.000000
21
-850.000000
31
0.000000
40
37.000000
50
0.000000
1
MAX4040
72
2
73
0
0
TEXT
8
0
39
10
62
136
10
-1225.000000
20
-725.000000
30
0.000000
11
-1225.000000
21
-725.000000
31
0.000000
40
33.000000
50
0.000000
1
1
72
0
73
0
0
TEXT
8
0
39
10
62
136
10
-1000.000000
20
-875.000000
30
0.000000
11
-1000.000000
21
-875.000000
31
0.000000
40
33.000000
50
0.000000
1
2
72
2
73
0
0
TEXT
8
0
39
10
62
136
10
-825.000000
20
-775.000000
30
0.000000
11
-825.000000
21
-775.000000
31
0.000000
40
33.000000
50
0.000000
1
3
72
2
73
0
0
TEXT
8
0
39
10
62
96
10
-925.000000
20
-775.000000
30
0.000000
11
-925.000000
21
-775.000000
31
0.000000
40
33.000000
50
0.000000
1
+
72
2
73
2
0
TEXT
8
0
39
10
62
136
10
-825.000000
20
-675.000000
30
0.000000
11
-825.000000
21
-675.000000
31
0.000000
40
33.000000
50
0.000000
1
4
72
2
73
0
0
TEXT
8
0
39
10
62
96
10
-925.000000
20
-675.000000
30
0.000000
11
-925.000000
21
-675.000000
31
0.000000
40
33.000000
50
0.000000
1
-
72
2
73
2
0
TEXT
8
0
39
10
62
136
10
-1025.000000
20
-625.000000
30
0.000000
11
-1025.000000
21
-625.000000
31
0.000000
40
33.000000
50
0.000000
1
5
72
0
73
0
0
POLYLINE
8
0
40
1.000000
41
1.000000
66
1
62
216
10
0
20
0
30
0
70
1
0
VERTEX
8
0
10
-1600.000000
20
-1089.000000
30
0.000000
0
VERTEX
8
0
10
-1600.000000
20
-1101.000000
30
0.000000
0
VERTEX
8
0
10
-1500.000000
20
-1101.000000
30
0.000000
0
VERTEX
8
0
10
-1500.000000
20
-1089.000000
30
0.000000
0
VERTEX
8
0
10
-1600.000000
20
-1089.000000
30
0.000000
0
SEQEND
0
POLYLINE
8
0
40
1.000000
41
1.000000
66
1
62
216
10
0
20
0
30
0
70
1
0
VERTEX
8
0
10
-1600.000000
20
-1059.000000
30
0.000000
0
VERTEX
8
0
10
-1600.000000
20
-1071.000000
30
0.000000
0
VERTEX
8
0
10
-1500.000000
20
-1071.000000
30
0.000000
0
VERTEX
8
0
10
-1500.000000
20
-1059.000000
30
0.000000
0
VERTEX
8
0
10
-1600.000000
20
-1059.000000
30
0.000000
0
SEQEND
0
POLYLINE
8
0
40
1.000000
41
1.000000
66
1
62
136
10
0
20
0
30
0
70
0
0
VERTEX
8
0
10
-1550.000000
20
-1060.000000
30
0.000000
0
VERTEX
8
0
10
-1550.000000
20
-975.000000
30
0.000000
0
SEQEND
0
POLYLINE
8
0
40
1.000000
41
1.000000
66
1
62
136
10
0
20
0
30
0
70
0
0
VERTEX
8
0
10
-1550.000000
20
-1103.000000
30
0.000000
0
VERTEX
8
0
10
-1550.000000
20
-1175.000000
30
0.000000
0
SEQEND
0
TEXT
8
0
39
10
62
2
10
-1575.000000
20
-1000.000000
30
0.000000
11
-1575.000000
21
-1000.000000
31
0.000000
40
33.000000
50
0.000000
1
C26
72
2
73
3
0
TEXT
8
0
39
10
62
2
10
-1425.000000
20
-1000.000000
30
0.000000
11
-1425.000000
21
-1000.000000
31
0.000000
40
34.000000
50
0.000000
1
100nF
72
2
73
3
0
POLYLINE
8
0
40
4.000000
41
4.000000
66
1
62
216
10
0
20
0
30
0
70
0
0
VERTEX
8
0
10
-1675.000000
20
-950.000000
30
0.000000
0
VERTEX
8
0
10
-1725.000000
20
-950.000000
30
0.000000
0
VERTEX
8
0
10
-1725.000000
20
-1100.000000
30
0.000000
0
VERTEX
8
0
10
-1675.000000
20
-1100.000000
30
0.000000
0
VERTEX
8
0
10
-1675.000000
20
-950.000000
30
0.000000
0
SEQEND
0
POLYLINE
8
0
40
1.000000
41
1.000000
66
1
62
136
10
0
20
0
30
0
70
0
0
VERTEX
8
0
10
-1700.000000
20
-950.000000
30
0.000000
0
VERTEX
8
0
10
-1700.000000
20
-900.000000
30
0.000000
0
SEQEND
0
POLYLINE
8
0
40
1.000000
41
1.000000
66
1
62
136
10
0
20
0
30
0
70
0
0
VERTEX
8
0
10
-1700.000000
20
-1100.000000
30
0.000000
0
VERTEX
8
0
10
-1700.000000
20
-1150.000000
30
0.000000
0
SEQEND
0
TEXT
8
0
39
10
62
2
10
-1800.000000
20
-900.000000
30
0.000000
11
-1800.000000
21
-900.000000
31
0.000000
40
33.000000
50
0.000000
1
R42
72
0
73
3
0
TEXT
8
0
39
10
62
2
10
-1701.000000
20
-1025.000000
30
0.000000
11
-1701.000000
21
-1025.000000
31
0.000000
40
34.000000
50
90.000000
1
4K7
72
1
73
2
0
POLYLINE
8
0
40
4.000000
41
4.000000
66
1
62
216
10
0
20
0
30
0
70
0
0
VERTEX
8
0
10
-1475.000000
20
-700.000000
30
0.000000
0
VERTEX
8
0
10
-1475.000000
20
-750.000000
30
0.000000
0
VERTEX
8
0
10
-1325.000000
20
-750.000000
30
0.000000
0
VERTEX
8
0
10
-1325.000000
20
-700.000000
30
0.000000
0
VERTEX
8
0
10
-1475.000000
20
-700.000000
30
0.000000
0
SEQEND
0
POLYLINE
8
0
40
1.000000
41
1.000000
66
1
62
136
10
0
20
0
30
0
70
0
0
VERTEX
8
0
10
-1475.000000
20
-725.000000
30
0.000000
0
VERTEX
8
0
10
-1525.000000
20
-725.000000
30
0.000000
0
SEQEND
0
POLYLINE
8
0
40
1.000000
41
1.000000
66
1
62
136
10
0
20
0
30
0
70
0
0
VERTEX
8
0
10
-1325.000000
20
-725.000000
30
0.000000
0
VERTEX
8
0
10
-1275.000000
20
-725.000000
30
0.000000
0
SEQEND
0
TEXT
8
0
39
10
62
2
10
-1425.000000
20
-775.000000
30
0.000000
11
-1425.000000
21
-775.000000
31
0.000000
40
33.000000
50
0.000000
1
R41
72
0
73
3
0
TEXT
8
0
39
10
62
2
10
-1400.000000
20
-726.000000
30
0.000000
11
-1400.000000
21
-726.000000
31
0.000000
40
34.000000
50
0.000000
1
1K
72
1
73
2
0
POLYLINE
8
0
40
1.000000
41
1.000000
66
1
62
216
10
0
20
0
30
0
70
1
0
VERTEX
8
0
10
-2050.000000
20
-739.000000
30
0.000000
0
VERTEX
8
0
10
-2050.000000
20
-751.000000
30
0.000000
0
VERTEX
8
0
10
-1950.000000
20
-751.000000
30
0.000000
0
VERTEX
8
0
10
-1950.000000
20
-739.000000
30
0.000000
0
VERTEX
8
0
10
-2050.000000
20
-739.000000
30
0.000000
0
SEQEND
0
POLYLINE
8
0
40
1.000000
41
1.000000
66
1
62
216
10
0
20
0
30
0
70
1
0
VERTEX
8
0
10
-2050.000000
20
-709.000000
30
0.000000
0
VERTEX
8
0
10
-2050.000000
20
-721.000000
30
0.000000
0
VERTEX
8
0
10
-1950.000000
20
-721.000000
30
0.000000
0
VERTEX
8
0
10
-1950.000000
20
-709.000000
30
0.000000
0
VERTEX
8
0
10
-2050.000000
20
-709.000000
30
0.000000
0
SEQEND
0
POLYLINE
8
0
40
1.000000
41
1.000000
66
1
62
136
10
0
20
0
30
0
70
0
0
VERTEX
8
0
10
-2000.000000
20
-710.000000
30
0.000000
0
VERTEX
8
0
10
-2000.000000
20
-625.000000
30
0.000000
0
SEQEND
0
POLYLINE
8
0
40
1.000000
41
1.000000
66
1
62
136
10
0
20
0
30
0
70
0
0
VERTEX
8
0
10
-2000.000000
20
-753.000000
30
0.000000
0
VERTEX
8
0
10
-2000.000000
20
-825.000000
30
0.000000
0
SEQEND
0
TEXT
8
0
39
10
62
2
10
-2000.000000
20
-700.000000
30
0.000000
11
-2000.000000
21
-700.000000
31
0.000000
40
33.000000
50
90.000000
1
C25
72
0
73
0
0
TEXT
8
0
39
10
62
2
10
-1875.000000
20
-775.000000
30
0.000000
11
-1875.000000
21
-775.000000
31
0.000000
40
34.000000
50
0.000000
1
100nF
72
2
73
3
0
POLYLINE
8
0
40
1.000000
41
1.000000
66
1
62
216
10
0
20
0
30
0
70
1
0
VERTEX
8
0
10
-1164.000000
20
-350.000000
30
0.000000
0
VERTEX
8
0
10
-1176.000000
20
-350.000000
30
0.000000
0
VERTEX
8
0
10
-1176.000000
20
-450.000000
30
0.000000
0
VERTEX
8
0
10
-1164.000000
20
-450.000000
30
0.000000
0
VERTEX
8
0
10
-1164.000000
20
-350.000000
30
0.000000
0
SEQEND
0
POLYLINE
8
0
40
1.000000
41
1.000000
66
1
62
216
10
0
20
0
30
0
70
1
0
VERTEX
8
0
10
-1134.000000
20
-350.000000
30
0.000000
0
VERTEX
8
0
10
-1146.000000
20
-350.000000
30
0.000000
0
VERTEX
8
0
10
-1146.000000
20
-450.000000
30
0.000000
0
VERTEX
8
0
10
-1134.000000
20
-450.000000
30
0.000000
0
VERTEX
8
0
10
-1134.000000
20
-350.000000
30
0.000000
0
SEQEND
0
POLYLINE
8
0
40
1.000000
41
1.000000
66
1
62
136
10
0
20
0
30
0
70
0
0
VERTEX
8
0
10
-1135.000000
20
-400.000000
30
0.000000
0
VERTEX
8
0
10
-1050.000000
20
-400.000000
30
0.000000
0
SEQEND
0
POLYLINE
8
0
40
1.000000
41
1.000000
66
1
62
136
10
0
20
0
30
0
70
0
0
VERTEX
8
0
10
-1178.000000
20
-400.000000
30
0.000000
0
VERTEX
8
0
10
-1250.000000
20
-400.000000
30
0.000000
0
SEQEND
0
TEXT
8
0
39
10
62
2
10
-1125.000000
20
-400.000000
30
0.000000
11
-1125.000000
21
-400.000000
31
0.000000
40
33.000000
50
0.000000
1
C22
72
0
73
0
0
TEXT
8
0
39
10
62
2
10
-1300.000000
20
-400.000000
30
0.000000
11
-1300.000000
21
-400.000000
31
0.000000
40
34.000000
50
0.000000
1
1nF
72
0
73
0
0
POLYLINE
8
0
40
4.000000
41
4.000000
66
1
62
216
10
0
20
0
30
0
70
0
0
VERTEX
8
0
10
-475.000000
20
-175.000000
30
0.000000
0
VERTEX
8
0
10
-525.000000
20
-175.000000
30
0.000000
0
VERTEX
8
0
10
-525.000000
20
-325.000000
30
0.000000
0
VERTEX
8
0
10
-475.000000
20
-325.000000
30
0.000000
0
VERTEX
8
0
10
-475.000000
20
-175.000000
30
0.000000
0
SEQEND
0
POLYLINE
8
0
40
1.000000
41
1.000000
66
1
62
136
10
0
20
0
30
0
70
0
0
VERTEX
8
0
10
-500.000000
20
-175.000000
30
0.000000
0
VERTEX
8
0
10
-500.000000
20
-125.000000
30
0.000000
0
SEQEND
0
POLYLINE
8
0
40
1.000000
41
1.000000
66
1
62
136
10
0
20
0
30
0
70
0
0
VERTEX
8
0
10
-500.000000
20
-325.000000
30
0.000000
0
VERTEX
8
0
10
-500.000000
20
-375.000000
30
0.000000
0
SEQEND
0
TEXT
8
0
39
10
62
2
10
-475.000000
20
-200.000000
30
0.000000
11
-475.000000
21
-200.000000
31
0.000000
40
33.000000
50
0.000000
1
R39
72
0
73
3
0
TEXT
8
0
39
10
62
2
10
-501.000000
20
-250.000000
30
0.000000
11
-501.000000
21
-250.000000
31
0.000000
40
34.000000
50
90.000000
1
270K
72
1
73
2
0
POLYLINE
8
0
40
1.000000
41
1.000000
66
1
62
216
10
0
20
0
30
0
70
1
0
VERTEX
8
0
10
-825.000000
20
-989.000000
30
0.000000
0
VERTEX
8
0
10
-825.000000
20
-1001.000000
30
0.000000
0
VERTEX
8
0
10
-725.000000
20
-1001.000000
30
0.000000
0
VERTEX
8
0
10
-725.000000
20
-989.000000
30
0.000000
0
VERTEX
8
0
10
-825.000000
20
-989.000000
30
0.000000
0
SEQEND
0
POLYLINE
8
0
40
1.000000
41
1.000000
66
1
62
216
10
0
20
0
30
0
70
1
0
VERTEX
8
0
10
-825.000000
20
-959.000000
30
0.000000
0
VERTEX
8
0
10
-825.000000
20
-971.000000
30
0.000000
0
VERTEX
8
0
10
-725.000000
20
-971.000000
30
0.000000
0
VERTEX
8
0
10
-725.000000
20
-959.000000
30
0.000000
0
VERTEX
8
0
10
-825.000000
20
-959.000000
30
0.000000
0
SEQEND
0
POLYLINE
8
0
40
1.000000
41
1.000000
66
1
62
136
10
0
20
0
30
0
70
0
0
VERTEX
8
0
10
-775.000000
20
-960.000000
30
0.000000
0
VERTEX
8
0
10
-775.000000
20
-875.000000
30
0.000000
0
SEQEND
0
POLYLINE
8
0
40
1.000000
41
1.000000
66
1
62
136
10
0
20
0
30
0
70
0
0
VERTEX
8
0
10
-775.000000
20
-1003.000000
30
0.000000
0
VERTEX
8
0
10
-775.000000
20
-1075.000000
30
0.000000
0
SEQEND
0
TEXT
8
0
39
10
62
2
10
-675.000000
20
-900.000000
30
0.000000
11
-675.000000
21
-900.000000
31
0.000000
40
33.000000
50
0.000000
1
C27
72
2
73
3
0
TEXT
8
0
39
10
62
2
10
-775.000000
20
-1000.000000
30
0.000000
11
-775.000000
21
-1000.000000
31
0.000000
40
34.000000
50
0.000000
1
100nF
72
2
73
3
0
POLYLINE
8
0
40
4.000000
41
4.000000
66
1
62
216
10
0
20
0
30
0
70
0
0
VERTEX
8
0
10
-475.000000
20
-450.000000
30
0.000000
0
VERTEX
8
0
10
-525.000000
20
-450.000000
30
0.000000
0
VERTEX
8
0
10
-525.000000
20
-600.000000
30
0.000000
0
VERTEX
8
0
10
-475.000000
20
-600.000000
30
0.000000
0
VERTEX
8
0
10
-475.000000
20
-450.000000
30
0.000000
0
SEQEND
0
POLYLINE
8
0
40
1.000000
41
1.000000
66
1
62
136
10
0
20
0
30
0
70
0
0
VERTEX
8
0
10
-500.000000
20
-450.000000
30
0.000000
0
VERTEX
8
0
10
-500.000000
20
-400.000000
30
0.000000
0
SEQEND
0
POLYLINE
8
0
40
1.000000
41
1.000000
66
1
62
136
10
0
20
0
30
0
70
0
0
VERTEX
8
0
10
-500.000000
20
-600.000000
30
0.000000
0
VERTEX
8
0
10
-500.000000
20
-650.000000
30
0.000000
0
SEQEND
0
TEXT
8
0
39
10
62
2
10
-475.000000
20
-400.000000
30
0.000000
11
-475.000000
21
-400.000000
31
0.000000
40
33.000000
50
0.000000
1
R40
72
0
73
3
0
TEXT
8
0
39
10
62
2
10
-501.000000
20
-525.000000
30
0.000000
11
-501.000000
21
-525.000000
31
0.000000
40
34.000000
50
90.000000
1
330K
72
1
73
2
0
POLYLINE
8
0
40
1.000000
41
1.000000
66
1
62
216
10
0
20
0
30
0
70
1
0
VERTEX
8
0
10
200.000000
20
-389.000000
30
0.000000
0
VERTEX
8
0
10
200.000000
20
-401.000000
30
0.000000
0
VERTEX
8
0
10
300.000000
20
-401.000000
30
0.000000
0
VERTEX
8
0
10
300.000000
20
-389.000000
30
0.000000
0
VERTEX
8
0
10
200.000000
20
-389.000000
30
0.000000
0
SEQEND
0
POLYLINE
8
0
40
1.000000
41
1.000000
66
1
62
216
10
0
20
0
30
0
70
1
0
VERTEX
8
0
10
200.000000
20
-359.000000
30
0.000000
0
VERTEX
8
0
10
200.000000
20
-371.000000
30
0.000000
0
VERTEX
8
0
10
300.000000
20
-371.000000
30
0.000000
0
VERTEX
8
0
10
300.000000
20
-359.000000
30
0.000000
0
VERTEX
8
0
10
200.000000
20
-359.000000
30
0.000000
0
SEQEND
0
POLYLINE
8
0
40
1.000000
41
1.000000
66
1
62
136
10
0
20
0
30
0
70
0
0
VERTEX
8
0
10
250.000000
20
-360.000000
30
0.000000
0
VERTEX
8
0
10
250.000000
20
-275.000000
30
0.000000
0
SEQEND
0
POLYLINE
8
0
40
1.000000
41
1.000000
66
1
62
136
10
0
20
0
30
0
70
0
0
VERTEX
8
0
10
250.000000
20
-403.000000
30
0.000000
0
VERTEX
8
0
10
250.000000
20
-475.000000
30
0.000000
0
SEQEND
0
TEXT
8
0
39
10
62
2
10
250.000000
20
-300.000000
30
0.000000
11
250.000000
21
-300.000000
31
0.000000
40
33.000000
50
0.000000
1
C24
72
2
73
3
0
TEXT
8
0
39
10
62
2
10
375.000000
20
-425.000000
30
0.000000
11
375.000000
21
-425.000000
31
0.000000
40
34.000000
50
0.000000
1
100nF
72
2
73
3
0
POLYLINE
8
0
40
4.000000
41
4.000000
66
1
62
216
10
0
20
0
30
0
70
0
0
VERTEX
8
0
10
-475.000000
20
-975.000000
30
0.000000
0
VERTEX
8
0
10
-525.000000
20
-975.000000
30
0.000000
0
VERTEX
8
0
10
-525.000000
20
-1125.000000
30
0.000000
0
VERTEX
8
0
10
-475.000000
20
-1125.000000
30
0.000000
0
VERTEX
8
0
10
-475.000000
20
-975.000000
30
0.000000
0
SEQEND
0
POLYLINE
8
0
40
1.000000
41
1.000000
66
1
62
136
10
0
20
0
30
0
70
0
0
VERTEX
8
0
10
-500.000000
20
-975.000000
30
0.000000
0
VERTEX
8
0
10
-500.000000
20
-925.000000
30
0.000000
0
SEQEND
0
POLYLINE
8
0
40
1.000000
41
1.000000
66
1
62
136
10
0
20
0
30
0
70
0
0
VERTEX
8
0
10
-500.000000
20
-1125.000000
30
0.000000
0
VERTEX
8
0
10
-500.000000
20
-1175.000000
30
0.000000
0
SEQEND
0
TEXT
8
0
39
10
62
2
10
-475.000000
20
-925.000000
30
0.000000
11
-475.000000
21
-925.000000
31
0.000000
40
33.000000
50
0.000000
1
R43
72
0
73
3
0
TEXT
8
0
39
10
62
2
10
-501.000000
20
-1050.000000
30
0.000000
11
-501.000000
21
-1050.000000
31
0.000000
40
34.000000
50
90.000000
1
18K
72
1
73
2
0
POLYLINE
8
0
40
1.000000
41
1.000000
66
1
62
216
10
0
20
0
30
0
70
1
0
VERTEX
8
0
10
-100.000000
20
-389.000000
30
0.000000
0
VERTEX
8
0
10
-100.000000
20
-401.000000
30
0.000000
0
VERTEX
8
0
10
0.000000
20
-401.000000
30
0.000000
0
VERTEX
8
0
10
0.000000
20
-389.000000
30
0.000000
0
VERTEX
8
0
10
-100.000000
20
-389.000000
30
0.000000
0
SEQEND
0
POLYLINE
8
0
40
1.000000
41
1.000000
66
1
62
216
10
0
20
0
30
0
70
1
0
VERTEX
8
0
10
-100.000000
20
-359.000000
30
0.000000
0
VERTEX
8
0
10
-100.000000
20
-371.000000
30
0.000000
0
VERTEX
8
0
10
0.000000
20
-371.000000
30
0.000000
0
VERTEX
8
0
10
0.000000
20
-359.000000
30
0.000000
0
VERTEX
8
0
10
-100.000000
20
-359.000000
30
0.000000
0
SEQEND
0
POLYLINE
8
0
40
1.000000
41
1.000000
66
1
62
136
10
0
20
0
30
0
70
0
0
VERTEX
8
0
10
-50.000000
20
-360.000000
30
0.000000
0
VERTEX
8
0
10
-50.000000
20
-275.000000
30
0.000000
0
SEQEND
0
POLYLINE
8
0
40
1.000000
41
1.000000
66
1
62
136
10
0
20
0
30
0
70
0
0
VERTEX
8
0
10
-50.000000
20
-403.000000
30
0.000000
0
VERTEX
8
0
10
-50.000000
20
-475.000000
30
0.000000
0
SEQEND
0
TEXT
8
0
39
10
62
2
10
25.000000
20
-300.000000
30
0.000000
11
25.000000
21
-300.000000
31
0.000000
40
33.000000
50
0.000000
1
C23
72
2
73
3
0
TEXT
8
0
39
10
62
2
10
75.000000
20
-425.000000
30
0.000000
11
75.000000
21
-425.000000
31
0.000000
40
34.000000
50
0.000000
1
100nF
72
2
73
3
0
POLYLINE
8
0
40
4.000000
41
4.000000
66
1
62
216
10
0
20
0
30
0
70
0
0
VERTEX
8
0
10
-825.000000
20
-425.000000
30
0.000000
0
VERTEX
8
0
10
-825.000000
20
-375.000000
30
0.000000
0
VERTEX
8
0
10
-975.000000
20
-375.000000
30
0.000000
0
VERTEX
8
0
10
-975.000000
20
-425.000000
30
0.000000
0
VERTEX
8
0
10
-825.000000
20
-425.000000
30
0.000000
0
SEQEND
0
POLYLINE
8
0
40
1.000000
41
1.000000
66
1
62
136
10
0
20
0
30
0
70
0
0
VERTEX
8
0
10
-825.000000
20
-400.000000
30
0.000000
0
VERTEX
8
0
10
-775.000000
20
-400.000000
30
0.000000
0
SEQEND
0
POLYLINE
8
0
40
1.000000
41
1.000000
66
1
62
136
10
0
20
0
30
0
70
0
0
VERTEX
8
0
10
-975.000000
20
-400.000000
30
0.000000
0
VERTEX
8
0
10
-1025.000000
20
-400.000000
30
0.000000
0
SEQEND
0
TEXT
8
0
39
10
62
2
10
-875.000000
20
-375.000000
30
0.000000
11
-875.000000
21
-375.000000
31
0.000000
40
33.000000
50
0.000000
1
R38
72
2
73
0
0
TEXT
8
0
39
10
62
2
10
-900.000000
20
-399.000000
30
0.000000
11
-900.000000
21
-399.000000
31
0.000000
40
34.000000
50
0.000000
1
1K
72
1
73
2
0
POLYLINE
8
0
40
4.000000
41
4.000000
66
1
62
216
10
0
20
0
30
0
70
0
0
VERTEX
8
0
10
25.000000
20
-75.000000
30
0.000000
0
VERTEX
8
0
10
25.000000
20
-125.000000
30
0.000000
0
VERTEX
8
0
10
175.000000
20
-125.000000
30
0.000000
0
VERTEX
8
0
10
175.000000
20
-75.000000
30
0.000000
0
VERTEX
8
0
10
25.000000
20
-75.000000
30
0.000000
0
SEQEND
0
POLYLINE
8
0
40
1.000000
41
1.000000
66
1
62
136
10
0
20
0
30
0
70
0
0
VERTEX
8
0
10
25.000000
20
-100.000000
30
0.000000
0
VERTEX
8
0
10
-25.000000
20
-100.000000
30
0.000000
0
SEQEND
0
POLYLINE
8
0
40
1.000000
41
1.000000
66
1
62
136
10
0
20
0
30
0
70
0
0
VERTEX
8
0
10
175.000000
20
-100.000000
30
0.000000
0
VERTEX
8
0
10
225.000000
20
-100.000000
30
0.000000
0
SEQEND
0
TEXT
8
0
39
10
62
2
10
75.000000
20
-150.000000
30
0.000000
11
75.000000
21
-150.000000
31
0.000000
40
33.000000
50
0.000000
1
R34
72
0
73
3
0
TEXT
8
0
39
10
62
2
10
100.000000
20
-101.000000
30
0.000000
11
100.000000
21
-101.000000
31
0.000000
40
34.000000
50
0.000000
1
10K
72
1
73
2
0
POLYLINE
8
0
40
4.000000
41
4.000000
66
1
62
216
10
0
20
0
30
0
70
0
0
VERTEX
8
0
10
325.000000
20
-75.000000
30
0.000000
0
VERTEX
8
0
10
325.000000
20
-125.000000
30
0.000000
0
VERTEX
8
0
10
475.000000
20
-125.000000
30
0.000000
0
VERTEX
8
0
10
475.000000
20
-75.000000
30
0.000000
0
VERTEX
8
0
10
325.000000
20
-75.000000
30
0.000000
0
SEQEND
0
POLYLINE
8
0
40
1.000000
41
1.000000
66
1
62
136
10
0
20
0
30
0
70
0
0
VERTEX
8
0
10
325.000000
20
-100.000000
30
0.000000
0
VERTEX
8
0
10
275.000000
20
-100.000000
30
0.000000
0
SEQEND
0
POLYLINE
8
0
40
1.000000
41
1.000000
66
1
62
136
10
0
20
0
30
0
70
0
0
VERTEX
8
0
10
475.000000
20
-100.000000
30
0.000000
0
VERTEX
8
0
10
525.000000
20
-100.000000
30
0.000000
0
SEQEND
0
TEXT
8
0
39
10
62
2
10
375.000000
20
-150.000000
30
0.000000
11
375.000000
21
-150.000000
31
0.000000
40
33.000000
50
0.000000
1
R35
72
0
73
3
0
TEXT
8
0
39
10
62
2
10
400.000000
20
-101.000000
30
0.000000
11
400.000000
21
-101.000000
31
0.000000
40
34.000000
50
0.000000
1
10K
72
1
73
2
0
POLYLINE
8
0
40
4.000000
41
4.000000
66
1
62
136
10
0
20
0
30
0
70
0
0
VERTEX
8
0
10
-3275.000000
20
-2351.000000
30
0.000000
0
VERTEX
8
0
10
-3301.000000
20
-2375.000000
30
0.000000
0
VERTEX
8
0
10
-3275.000000
20
-2401.000000
30
0.000000
0
SEQEND
0
POLYLINE
8
0
40
4.000000
41
4.000000
66
1
62
136
10
0
20
0
30
0
70
0
0
VERTEX
8
0
10
-3251.000000
20
-2401.000000
30
0.000000
0
VERTEX
8
0
10
-3225.000000
20
-2375.000000
30
0.000000
0
VERTEX
8
0
10
-3251.000000
20
-2351.000000
30
0.000000
0
SEQEND
0
POLYLINE
8
0
40
10.000000
41
10.000000
66
1
62
136
10
0
20
0
30
0
70
0
0
VERTEX
8
0
10
-3225.000000
20
-2375.000000
30
0.000000
0
VERTEX
8
0
10
-3175.000000
20
-2375.000000
30
0.000000
0
SEQEND
0
TEXT
8
0
39
10
62
96
10
-3325.000000
20
-2375.000000
30
0.000000
11
-3325.000000
21
-2375.000000
31
0.000000
40
33.000000
50
0.000000
1
POWER
72
2
73
2
0
POLYLINE
8
0
40
4.000000
41
4.000000
66
1
62
216
10
0
20
0
30
0
70
1
0
VERTEX
8
0
10
500.000000
20
775.000000
30
0.000000
0
VERTEX
8
0
10
500.000000
20
175.000000
30
0.000000
0
VERTEX
8
0
10
150.000000
20
175.000000
30
0.000000
0
VERTEX
8
0
10
150.000000
20
775.000000
30
0.000000
0
VERTEX
8
0
10
500.000000
20
775.000000
30
0.000000
0
SEQEND
0
POLYLINE
8
0
40
1.000000
41
1.000000
66
1
62
136
10
0
20
0
30
0
70
0
0
VERTEX
8
0
10
250.000000
20
775.000000
30
0.000000
0
VERTEX
8
0
10
250.000000
20
825.000000
30
0.000000
0
SEQEND
0
POLYLINE
8
0
40
1.000000
41
1.000000
66
1
62
136
10
0
20
0
30
0
70
0
0
VERTEX
8
0
10
400.000000
20
775.000000
30
0.000000
0
VERTEX
8
0
10
400.000000
20
825.000000
30
0.000000
0
SEQEND
0
POLYLINE
8
0
40
1.000000
41
1.000000
66
1
62
136
10
0
20
0
30
0
70
0
0
VERTEX
8
0
10
400.000000
20
175.000000
30
0.000000
0
VERTEX
8
0
10
400.000000
20
125.000000
30
0.000000
0
SEQEND
0
POLYLINE
8
0
40
1.000000
41
1.000000
66
1
62
136
10
0
20
0
30
0
70
0
0
VERTEX
8
0
10
250.000000
20
175.000000
30
0.000000
0
VERTEX
8
0
10
250.000000
20
125.000000
30
0.000000
0
SEQEND
0
POLYLINE
8
0
40
1.000000
41
1.000000
66
1
62
136
10
0
20
0
30
0
70
0
0
VERTEX
8
0
10
150.000000
20
475.000000
30
0.000000
0
VERTEX
8
0
10
50.000000
20
475.000000
30
0.000000
0
SEQEND
0
POLYLINE
8
0
40
1.000000
41
1.000000
66
1
62
136
10
0
20
0
30
0
70
0
0
VERTEX
8
0
10
80.000000
20
665.000000
30
0.000000
0
VERTEX
8
0
10
70.000000
20
675.000000
30
0.000000
0
VERTEX
8
0
10
80.000000
20
685.000000
30
0.000000
0
SEQEND
0
POLYLINE
8
0
40
1.000000
41
1.000000
66
1
62
136
10
0
20
0
30
0
70
0
0
VERTEX
8
0
10
150.000000
20
675.000000
30
0.000000
0
VERTEX
8
0
10
50.000000
20
675.000000
30
0.000000
0
SEQEND
0
POLYLINE
8
0
40
1.000000
41
1.000000
66
1
62
136
10
0
20
0
30
0
70
0
0
VERTEX
8
0
10
80.000000
20
565.000000
30
0.000000
0
VERTEX
8
0
10
70.000000
20
575.000000
30
0.000000
0
VERTEX
8
0
10
80.000000
20
585.000000
30
0.000000
0
SEQEND
0
POLYLINE
8
0
40
1.000000
41
1.000000
66
1
62
136
10
0
20
0
30
0
70
0
0
VERTEX
8
0
10
150.000000
20
575.000000
30
0.000000
0
VERTEX
8
0
10
50.000000
20
575.000000
30
0.000000
0
SEQEND
0
POLYLINE
8
0
40
1.000000
41
1.000000
66
1
62
136
10
0
20
0
30
0
70
0
0
VERTEX
8
0
10
80.000000
20
365.000000
30
0.000000
0
VERTEX
8
0
10
70.000000
20
375.000000
30
0.000000
0
VERTEX
8
0
10
80.000000
20
385.000000
30
0.000000
0
SEQEND
0
POLYLINE
8
0
40
1.000000
41
1.000000
66
1
62
136
10
0
20
0
30
0
70
0
0
VERTEX
8
0
10
150.000000
20
375.000000
30
0.000000
0
VERTEX
8
0
10
50.000000
20
375.000000
30
0.000000
0
SEQEND
0
POLYLINE
8
0
40
1.000000
41
1.000000
66
1
62
136
10
0
20
0
30
0
70
0
0
VERTEX
8
0
10
500.000000
20
275.000000
30
0.000000
0
VERTEX
8
0
10
600.000000
20
275.000000
30
0.000000
0
SEQEND
0
POLYLINE
8
0
40
1.000000
41
1.000000
66
1
62
136
10
0
20
0
30
0
70
0
0
VERTEX
8
0
10
580.000000
20
465.000000
30
0.000000
0
VERTEX
8
0
10
570.000000
20
475.000000
30
0.000000
0
VERTEX
8
0
10
580.000000
20
485.000000
30
0.000000
0
SEQEND
0
POLYLINE
8
0
40
1.000000
41
1.000000
66
1
62
136
10
0
20
0
30
0
70
0
0
VERTEX
8
0
10
500.000000
20
475.000000
30
0.000000
0
VERTEX
8
0
10
600.000000
20
475.000000
30
0.000000
0
SEQEND
0
POLYLINE
8
0
40
1.000000
41
1.000000
66
1
62
136
10
0
20
0
30
0
70
0
0
VERTEX
8
0
10
580.000000
20
365.000000
30
0.000000
0
VERTEX
8
0
10
570.000000
20
375.000000
30
0.000000
0
VERTEX
8
0
10
580.000000
20
385.000000
30
0.000000
0
SEQEND
0
POLYLINE
8
0
40
1.000000
41
1.000000
66
1
62
136
10
0
20
0
30
0
70
0
0
VERTEX
8
0
10
500.000000
20
375.000000
30
0.000000
0
VERTEX
8
0
10
600.000000
20
375.000000
30
0.000000
0
SEQEND
0
POLYLINE
8
0
40
1.000000
41
1.000000
66
1
62
136
10
0
20
0
30
0
70
0
0
VERTEX
8
0
10
580.000000
20
565.000000
30
0.000000
0
VERTEX
8
0
10
570.000000
20
575.000000
30
0.000000
0
VERTEX
8
0
10
580.000000
20
585.000000
30
0.000000
0
SEQEND
0
POLYLINE
8
0
40
1.000000
41
1.000000
66
1
62
136
10
0
20
0
30
0
70
0
0
VERTEX
8
0
10
500.000000
20
575.000000
30
0.000000
0
VERTEX
8
0
10
600.000000
20
575.000000
30
0.000000
0
SEQEND
0
POLYLINE
8
0
40
1.000000
41
1.000000
66
1
62
136
10
0
20
0
30
0
70
0
0
VERTEX
8
0
10
580.000000
20
665.000000
30
0.000000
0
VERTEX
8
0
10
570.000000
20
675.000000
30
0.000000
0
VERTEX
8
0
10
580.000000
20
685.000000
30
0.000000
0
SEQEND
0
POLYLINE
8
0
40
1.000000
41
1.000000
66
1
62
136
10
0
20
0
30
0
70
0
0
VERTEX
8
0
10
500.000000
20
675.000000
30
0.000000
0
VERTEX
8
0
10
600.000000
20
675.000000
30
0.000000
0
SEQEND
0
POLYLINE
8
0
40
1.000000
41
1.000000
66
1
62
136
10
0
20
0
30
0
70
0
0
VERTEX
8
0
10
150.000000
20
275.000000
30
0.000000
0
VERTEX
8
0
10
50.000000
20
275.000000
30
0.000000
0
SEQEND
0
TEXT
8
0
39
10
62
2
10
350.000000
20
500.000000
30
0.000000
11
350.000000
21
500.000000
31
0.000000
40
37.000000
50
0.000000
1
U7
72
2
73
0
0
TEXT
8
0
39
10
62
7
10
425.000000
20
400.000000
30
0.000000
11
425.000000
21
400.000000
31
0.000000
40
37.000000
50
0.000000
1
MAX5134
72
2
73
0
0
TEXT
8
0
39
10
62
136
10
250.000000
20
775.000000
30
0.000000
11
250.000000
21
775.000000
31
0.000000
40
33.000000
50
0.000000
1
2
72
0
73
0
0
TEXT
8
0
39
10
62
96
10
200.000000
20
750.000000
30
0.000000
11
200.000000
21
750.000000
31
0.000000
40
33.000000
50
0.000000
1
VDD
72
0
73
2
0
TEXT
8
0
39
10
62
136
10
400.000000
20
775.000000
30
0.000000
11
400.000000
21
775.000000
31
0.000000
40
33.000000
50
0.000000
1
4
72
0
73
0
0
TEXT
8
0
39
10
62
96
10
350.000000
20
750.000000
30
0.000000
11
350.000000
21
750.000000
31
0.000000
40
33.000000
50
0.000000
1
DVDD
72
0
73
2
0
TEXT
8
0
39
10
62
136
10
400.000000
20
125.000000
30
0.000000
11
400.000000
21
125.000000
31
0.000000
40
33.000000
50
0.000000
1
7
72
2
73
0
0
TEXT
8
0
39
10
62
96
10
450.000000
20
200.000000
30
0.000000
11
450.000000
21
200.000000
31
0.000000
40
33.000000
50
0.000000
1
GND
72
2
73
2
0
TEXT
8
0
39
10
62
136
10
250.000000
20
125.000000
30
0.000000
11
250.000000
21
125.000000
31
0.000000
40
33.000000
50
0.000000
1
15
72
2
73
0
0
TEXT
8
0
39
10
62
96
10
300.000000
20
200.000000
30
0.000000
11
300.000000
21
200.000000
31
0.000000
40
33.000000
50
0.000000
1
GND
72
2
73
2
0
TEXT
8
0
39
10
62
136
10
50.000000
20
475.000000
30
0.000000
11
50.000000
21
475.000000
31
0.000000
40
33.000000
50
0.000000
1
1
72
0
73
0
0
TEXT
8
0
39
10
62
96
10
150.000000
20
475.000000
30
0.000000
11
150.000000
21
475.000000
31
0.000000
40
33.000000
50
0.000000
1
REFI
72
0
73
2
0
TEXT
8
0
39
10
62
136
10
50.000000
20
675.000000
30
0.000000
11
50.000000
21
675.000000
31
0.000000
40
33.000000
50
0.000000
1
3
72
0
73
0
0
TEXT
8
0
39
10
62
96
10
150.000000
20
675.000000
30
0.000000
11
150.000000
21
675.000000
31
0.000000
40
33.000000
50
0.000000
1
OUT0
72
0
73
2
0
TEXT
8
0
39
10
62
136
10
50.000000
20
575.000000
30
0.000000
11
50.000000
21
575.000000
31
0.000000
40
33.000000
50
0.000000
1
14
72
0
73
0
0
TEXT
8
0
39
10
62
96
10
150.000000
20
575.000000
30
0.000000
11
150.000000
21
575.000000
31
0.000000
40
33.000000
50
0.000000
1
OUT1
72
0
73
2
0
TEXT
8
0
39
10
62
136
10
50.000000
20
375.000000
30
0.000000
11
50.000000
21
375.000000
31
0.000000
40
33.000000
50
0.000000
1
16
72
0
73
0
0
TEXT
8
0
39
10
62
96
10
150.000000
20
375.000000
30
0.000000
11
150.000000
21
375.000000
31
0.000000
40
33.000000
50
0.000000
1
REFO
72
0
73
2
0
TEXT
8
0
39
10
62
136
10
600.000000
20
275.000000
30
0.000000
11
600.000000
21
275.000000
31
0.000000
40
33.000000
50
0.000000
1
5
72
2
73
0
0
TEXT
8
0
39
10
62
96
10
500.000000
20
275.000000
30
0.000000
11
500.000000
21
275.000000
31
0.000000
40
33.000000
50
0.000000
1
RDY
72
2
73
2
0
TEXT
8
0
39
10
62
136
10
600.000000
20
475.000000
30
0.000000
11
600.000000
21
475.000000
31
0.000000
40
33.000000
50
0.000000
1
8
72
2
73
0
0
TEXT
8
0
39
10
62
96
10
500.000000
20
475.000000
30
0.000000
11
500.000000
21
475.000000
31
0.000000
40
33.000000
50
0.000000
1
DIN
72
2
73
2
0
TEXT
8
0
39
10
62
136
10
600.000000
20
375.000000
30
0.000000
11
600.000000
21
375.000000
31
0.000000
40
33.000000
50
0.000000
1
9
72
2
73
0
0
LINE
8
0
39
1
62
96
10
500.000000
20
394.000000
30
0.000000
11
434.000000
21
394.000000
31
0.000000
0
TEXT
8
0
39
10
62
96
10
500.000000
20
375.000000
30
0.000000
11
500.000000
21
375.000000
31
0.000000
40
33.000000
50
0.000000
1
CS
72
2
73
2
0
TEXT
8
0
39
10
62
136
10
600.000000
20
575.000000
30
0.000000
11
600.000000
21
575.000000
31
0.000000
40
33.000000
50
0.000000
1
10
72
2
73
0
0
TEXT
8
0
39
10
62
96
10
500.000000
20
575.000000
30
0.000000
11
500.000000
21
575.000000
31
0.000000
40
33.000000
50
0.000000
1
SCLK
72
2
73
2
0
TEXT
8
0
39
10
62
136
10
600.000000
20
675.000000
30
0.000000
11
600.000000
21
675.000000
31
0.000000
40
33.000000
50
0.000000
1
12
72
2
73
0
0
LINE
8
0
39
1
62
96
10
500.000000
20
694.000000
30
0.000000
11
368.000000
21
694.000000
31
0.000000
0
TEXT
8
0
39
10
62
96
10
500.000000
20
675.000000
30
0.000000
11
500.000000
21
675.000000
31
0.000000
40
33.000000
50
0.000000
1
LDAC
72
2
73
2
0
TEXT
8
0
39
10
62
136
10
100.000000
20
275.000000
30
0.000000
11
100.000000
21
275.000000
31
0.000000
40
33.000000
50
0.000000
1
13
72
2
73
0
0
LINE
8
0
39
1
62
96
10
4325725.000000
20
294.000000
30
0.000000
11
151.000000
21
294.000000
31
0.000000
0
TEXT
8
0
39
10
62
96
10
250.000000
20
275.000000
30
0.000000
11
250.000000
21
275.000000
31
0.000000
40
33.000000
50
0.000000
1
M/Z
72
2
73
2
0
POLYLINE
8
0
40
4.000000
41
4.000000
66
1
62
136
10
0
20
0
30
0
70
0
0
VERTEX
8
0
10
-1725.000000
20
-2351.000000
30
0.000000
0
VERTEX
8
0
10
-1751.000000
20
-2375.000000
30
0.000000
0
VERTEX
8
0
10
-1725.000000
20
-2401.000000
30
0.000000
0
SEQEND
0
POLYLINE
8
0
40
4.000000
41
4.000000
66
1
62
136
10
0
20
0
30
0
70
0
0
VERTEX
8
0
10
-1701.000000
20
-2401.000000
30
0.000000
0
VERTEX
8
0
10
-1675.000000
20
-2375.000000
30
0.000000
0
VERTEX
8
0
10
-1701.000000
20
-2351.000000
30
0.000000
0
SEQEND
0
POLYLINE
8
0
40
10.000000
41
10.000000
66
1
62
136
10
0
20
0
30
0
70
0
0
VERTEX
8
0
10
-1675.000000
20
-2375.000000
30
0.000000
0
VERTEX
8
0
10
-1625.000000
20
-2375.000000
30
0.000000
0
SEQEND
0
TEXT
8
0
39
10
62
96
10
-1775.000000
20
-2375.000000
30
0.000000
11
-1775.000000
21
-2375.000000
31
0.000000
40
33.000000
50
0.000000
1
CONTROL
72
2
73
2
0
POLYLINE
8
0
40
4.000000
41
4.000000
66
1
62
216
10
0
20
0
30
0
70
1
0
VERTEX
8
0
10
975.000000
20
485.000000
30
0.000000
0
VERTEX
8
0
10
1025.000000
20
485.000000
30
0.000000
0
VERTEX
8
0
10
1025.000000
20
465.000000
30
0.000000
0
VERTEX
8
0
10
975.000000
20
465.000000
30
0.000000
0
VERTEX
8
0
10
975.000000
20
485.000000
30
0.000000
0
SEQEND
0
POLYLINE
8
0
40
4.000000
41
4.000000
66
1
62
216
10
0
20
0
30
0
70
1
0
VERTEX
8
0
10
975.000000
20
435.000000
30
0.000000
0
VERTEX
8
0
10
1025.000000
20
435.000000
30
0.000000
0
VERTEX
8
0
10
1025.000000
20
415.000000
30
0.000000
0
VERTEX
8
0
10
975.000000
20
415.000000
30
0.000000
0
VERTEX
8
0
10
975.000000
20
435.000000
30
0.000000
0
SEQEND
0
POLYLINE
8
0
40
4.000000
41
4.000000
66
1
62
216
10
0
20
0
30
0
70
1
0
VERTEX
8
0
10
975.000000
20
535.000000
30
0.000000
0
VERTEX
8
0
10
1025.000000
20
535.000000
30
0.000000
0
VERTEX
8
0
10
1025.000000
20
515.000000
30
0.000000
0
VERTEX
8
0
10
975.000000
20
515.000000
30
0.000000
0
VERTEX
8
0
10
975.000000
20
535.000000
30
0.000000
0
SEQEND
0
POLYLINE
8
0
40
4.000000
41
4.000000
66
1
62
216
10
0
20
0
30
0
70
1
0
VERTEX
8
0
10
975.000000
20
385.000000
30
0.000000
0
VERTEX
8
0
10
1025.000000
20
385.000000
30
0.000000
0
VERTEX
8
0
10
1025.000000
20
365.000000
30
0.000000
0
VERTEX
8
0
10
975.000000
20
365.000000
30
0.000000
0
VERTEX
8
0
10
975.000000
20
385.000000
30
0.000000
0
SEQEND
0
POLYLINE
8
0
40
1.000000
41
1.000000
66
1
62
136
10
0
20
0
30
0
70
0
0
VERTEX
8
0
10
1025.000000
20
525.000000
30
0.000000
0
VERTEX
8
0
10
1075.000000
20
525.000000
30
0.000000
0
SEQEND
0
POLYLINE
8
0
40
1.000000
41
1.000000
66
1
62
136
10
0
20
0
30
0
70
0
0
VERTEX
8
0
10
1025.000000
20
475.000000
30
0.000000
0
VERTEX
8
0
10
1075.000000
20
475.000000
30
0.000000
0
SEQEND
0
POLYLINE
8
0
40
1.000000
41
1.000000
66
1
62
136
10
0
20
0
30
0
70
0
0
VERTEX
8
0
10
1025.000000
20
425.000000
30
0.000000
0
VERTEX
8
0
10
1075.000000
20
425.000000
30
0.000000
0
SEQEND
0
POLYLINE
8
0
40
1.000000
41
1.000000
66
1
62
136
10
0
20
0
30
0
70
0
0
VERTEX
8
0
10
1025.000000
20
375.000000
30
0.000000
0
VERTEX
8
0
10
1075.000000
20
375.000000
30
0.000000
0
SEQEND
0
POLYLINE
8
0
40
1.000000
41
1.000000
66
1
62
136
10
0
20
0
30
0
70
0
0
VERTEX
8
0
10
975.000000
20
375.000000
30
0.000000
0
VERTEX
8
0
10
925.000000
20
375.000000
30
0.000000
0
SEQEND
0
POLYLINE
8
0
40
1.000000
41
1.000000
66
1
62
136
10
0
20
0
30
0
70
0
0
VERTEX
8
0
10
975.000000
20
425.000000
30
0.000000
0
VERTEX
8
0
10
925.000000
20
425.000000
30
0.000000
0
SEQEND
0
POLYLINE
8
0
40
1.000000
41
1.000000
66
1
62
136
10
0
20
0
30
0
70
0
0
VERTEX
8
0
10
975.000000
20
475.000000
30
0.000000
0
VERTEX
8
0
10
925.000000
20
475.000000
30
0.000000
0
SEQEND
0
POLYLINE
8
0
40
1.000000
41
1.000000
66
1
62
136
10
0
20
0
30
0
70
0
0
VERTEX
8
0
10
975.000000
20
525.000000
30
0.000000
0
VERTEX
8
0
10
925.000000
20
525.000000
30
0.000000
0
SEQEND
0
TEXT
8
0
39
10
62
2
10
970.000000
20
625.000000
30
0.000000
11
970.000000
21
625.000000
31
0.000000
40
37.000000
50
0.000000
1
RN1
72
0
73
3
0
TEXT
8
0
39
10
62
7
10
955.000000
20
360.000000
30
0.000000
11
955.000000
21
360.000000
31
0.000000
40
37.000000
50
0.000000
1
100
72
0
73
3
0
TEXT
8
0
39
10
62
96
10
1075.000000
20
545.000000
30
0.000000
11
1075.000000
21
545.000000
31
0.000000
40
33.000000
50
0.000000
1
1
72
2
73
2
0
TEXT
8
0
39
10
62
96
10
1075.000000
20
500.000000
30
0.000000
11
1075.000000
21
500.000000
31
0.000000
40
33.000000
50
0.000000
1
2
72
2
73
2
0
TEXT
8
0
39
10
62
96
10
1075.000000
20
445.000000
30
0.000000
11
1075.000000
21
445.000000
31
0.000000
40
33.000000
50
0.000000
1
3
72
2
73
2
0
TEXT
8
0
39
10
62
96
10
1073.000000
20
400.000000
30
0.000000
11
1073.000000
21
400.000000
31
0.000000
40
33.000000
50
0.000000
1
4
72
2
73
2
0
TEXT
8
0
39
10
62
96
10
925.000000
20
400.000000
30
0.000000
11
925.000000
21
400.000000
31
0.000000
40
33.000000
50
0.000000
1
5
72
0
73
2
0
TEXT
8
0
39
10
62
96
10
925.000000
20
445.000000
30
0.000000
11
925.000000
21
445.000000
31
0.000000
40
33.000000
50
0.000000
1
6
72
0
73
2
0
TEXT
8
0
39
10
62
96
10
928.000000
20
495.000000
30
0.000000
11
928.000000
21
495.000000
31
0.000000
40
33.000000
50
0.000000
1
7
72
0
73
2
0
TEXT
8
0
39
10
62
96
10
928.000000
20
546.000000
30
0.000000
11
928.000000
21
546.000000
31
0.000000
40
33.000000
50
0.000000
1
8
72
0
73
2
0
POLYLINE
8
0
40
1.000000
41
1.000000
66
1
62
216
10
0
20
0
30
0
70
1
0
VERTEX
8
0
10
-225.000000
20
161.000000
30
0.000000
0
VERTEX
8
0
10
-225.000000
20
149.000000
30
0.000000
0
VERTEX
8
0
10
-125.000000
20
149.000000
30
0.000000
0
VERTEX
8
0
10
-125.000000
20
161.000000
30
0.000000
0
VERTEX
8
0
10
-225.000000
20
161.000000
30
0.000000
0
SEQEND
0
POLYLINE
8
0
40
1.000000
41
1.000000
66
1
62
216
10
0
20
0
30
0
70
1
0
VERTEX
8
0
10
-225.000000
20
191.000000
30
0.000000
0
VERTEX
8
0
10
-225.000000
20
179.000000
30
0.000000
0
VERTEX
8
0
10
-125.000000
20
179.000000
30
0.000000
0
VERTEX
8
0
10
-125.000000
20
191.000000
30
0.000000
0
VERTEX
8
0
10
-225.000000
20
191.000000
30
0.000000
0
SEQEND
0
POLYLINE
8
0
40
1.000000
41
1.000000
66
1
62
136
10
0
20
0
30
0
70
0
0
VERTEX
8
0
10
-175.000000
20
190.000000
30
0.000000
0
VERTEX
8
0
10
-175.000000
20
275.000000
30
0.000000
0
SEQEND
0
POLYLINE
8
0
40
1.000000
41
1.000000
66
1
62
136
10
0
20
0
30
0
70
0
0
VERTEX
8
0
10
-175.000000
20
147.000000
30
0.000000
0
VERTEX
8
0
10
-175.000000
20
75.000000
30
0.000000
0
SEQEND
0
TEXT
8
0
39
10
62
2
10
-100.000000
20
250.000000
30
0.000000
11
-100.000000
21
250.000000
31
0.000000
40
33.000000
50
0.000000
1
C21
72
2
73
3
0
TEXT
8
0
39
10
62
2
10
-50.000000
20
125.000000
30
0.000000
11
-50.000000
21
125.000000
31
0.000000
40
34.000000
50
0.000000
1
100pF
72
2
73
3
0
POLYLINE
8
0
40
1.000000
41
1.000000
66
1
62
216
10
0
20
0
30
0
70
1
0
VERTEX
8
0
10
-475.000000
20
-2364.000000
30
0.000000
0
VERTEX
8
0
10
-475.000000
20
-2376.000000
30
0.000000
0
VERTEX
8
0
10
-375.000000
20
-2376.000000
30
0.000000
0
VERTEX
8
0
10
-375.000000
20
-2364.000000
30
0.000000
0
VERTEX
8
0
10
-475.000000
20
-2364.000000
30
0.000000
0
SEQEND
0
POLYLINE
8
0
40
1.000000
41
1.000000
66
1
62
216
10
0
20
0
30
0
70
1
0
VERTEX
8
0
10
-475.000000
20
-2334.000000
30
0.000000
0
VERTEX
8
0
10
-475.000000
20
-2346.000000
30
0.000000
0
VERTEX
8
0
10
-375.000000
20
-2346.000000
30
0.000000
0
VERTEX
8
0
10
-375.000000
20
-2334.000000
30
0.000000
0
VERTEX
8
0
10
-475.000000
20
-2334.000000
30
0.000000
0
SEQEND
0
POLYLINE
8
0
40
1.000000
41
1.000000
66
1
62
136
10
0
20
0
30
0
70
0
0
VERTEX
8
0
10
-425.000000
20
-2335.000000
30
0.000000
0
VERTEX
8
0
10
-425.000000
20
-2250.000000
30
0.000000
0
SEQEND
0
POLYLINE
8
0
40
1.000000
41
1.000000
66
1
62
136
10
0
20
0
30
0
70
0
0
VERTEX
8
0
10
-425.000000
20
-2378.000000
30
0.000000
0
VERTEX
8
0
10
-425.000000
20
-2450.000000
30
0.000000
0
SEQEND
0
TEXT
8
0
39
10
62
2
10
-325.000000
20
-2275.000000
30
0.000000
11
-325.000000
21
-2275.000000
31
0.000000
40
33.000000
50
0.000000
1
C28
72
2
73
3
0
TEXT
8
0
39
10
62
2
10
-425.000000
20
-2375.000000
30
0.000000
11
-425.000000
21
-2375.000000
31
0.000000
40
34.000000
50
0.000000
1
100nF
72
2
73
3
0
POLYLINE
8
0
40
1.000000
41
1.000000
66
1
62
216
10
0
20
0
30
0
70
1
0
VERTEX
8
0
10
-250.000000
20
-2364.000000
30
0.000000
0
VERTEX
8
0
10
-250.000000
20
-2376.000000
30
0.000000
0
VERTEX
8
0
10
-150.000000
20
-2376.000000
30
0.000000
0
VERTEX
8
0
10
-150.000000
20
-2364.000000
30
0.000000
0
VERTEX
8
0
10
-250.000000
20
-2364.000000
30
0.000000
0
SEQEND
0
POLYLINE
8
0
40
1.000000
41
1.000000
66
1
62
216
10
0
20
0
30
0
70
1
0
VERTEX
8
0
10
-250.000000
20
-2334.000000
30
0.000000
0
VERTEX
8
0
10
-250.000000
20
-2346.000000
30
0.000000
0
VERTEX
8
0
10
-150.000000
20
-2346.000000
30
0.000000
0
VERTEX
8
0
10
-150.000000
20
-2334.000000
30
0.000000
0
VERTEX
8
0
10
-250.000000
20
-2334.000000
30
0.000000
0
SEQEND
0
POLYLINE
8
0
40
1.000000
41
1.000000
66
1
62
136
10
0
20
0
30
0
70
0
0
VERTEX
8
0
10
-200.000000
20
-2335.000000
30
0.000000
0
VERTEX
8
0
10
-200.000000
20
-2250.000000
30
0.000000
0
SEQEND
0
POLYLINE
8
0
40
1.000000
41
1.000000
66
1
62
136
10
0
20
0
30
0
70
0
0
VERTEX
8
0
10
-200.000000
20
-2378.000000
30
0.000000
0
VERTEX
8
0
10
-200.000000
20
-2450.000000
30
0.000000
0
SEQEND
0
TEXT
8
0
39
10
62
2
10
-100.000000
20
-2275.000000
30
0.000000
11
-100.000000
21
-2275.000000
31
0.000000
40
33.000000
50
0.000000
1
C29
72
2
73
3
0
TEXT
8
0
39
10
62
2
10
-200.000000
20
-2375.000000
30
0.000000
11
-200.000000
21
-2375.000000
31
0.000000
40
34.000000
50
0.000000
1
100nF
72
2
73
3
0
POLYLINE
8
0
40
1.000000
41
1.000000
66
1
62
136
10
0
20
0
30
0
70
1
0
VERTEX
8
0
10
2048.000000
20
-2470.000000
30
0.000000
0
VERTEX
8
0
10
2048.000000
20
-2482.000000
30
0.000000
0
VERTEX
8
0
10
3800.000000
20
-2481.000000
30
0.000000
0
VERTEX
8
0
10
3800.000000
20
-2469.000000
30
0.000000
0
VERTEX
8
0
10
2048.000000
20
-2470.000000
30
0.000000
0
SEQEND
0
POLYLINE
8
0
40
1.000000
41
1.000000
66
1
62
136
10
0
20
0
30
0
70
1
0
VERTEX
8
0
10
2944.000000
20
-2476.000000
30
0.000000
0
VERTEX
8
0
10
2956.000000
20
-2476.000000
30
0.000000
0
VERTEX
8
0
10
2956.000000
20
-2575.000000
30
0.000000
0
VERTEX
8
0
10
2944.000000
20
-2575.000000
30
0.000000
0
VERTEX
8
0
10
2944.000000
20
-2476.000000
30
0.000000
0
SEQEND
0
POLYLINE
8
0
40
1.000000
41
1.000000
66
1
62
136
10
0
20
0
30
0
70
1
0
VERTEX
8
0
10
3294.000000
20
-2476.000000
30
0.000000
0
VERTEX
8
0
10
3306.000000
20
-2476.000000
30
0.000000
0
VERTEX
8
0
10
3306.000000
20
-2575.000000
30
0.000000
0
VERTEX
8
0
10
3294.000000
20
-2575.000000
30
0.000000
0
VERTEX
8
0
10
3294.000000
20
-2476.000000
30
0.000000
0
SEQEND
0
POLYLINE
8
0
40
1.000000
41
1.000000
66
1
62
136
10
0
20
0
30
0
70
1
0
VERTEX
8
0
10
2050.000000
20
-2220.000000
30
0.000000
0
VERTEX
8
0
10
2050.000000
20
-2232.000000
30
0.000000
0
VERTEX
8
0
10
3800.000000
20
-2231.000000
30
0.000000
0
VERTEX
8
0
10
3800.000000
20
-2219.000000
30
0.000000
0
VERTEX
8
0
10
2050.000000
20
-2220.000000
30
0.000000
0
SEQEND
0
POLYLINE
8
0
40
1.000000
41
1.000000
66
1
62
136
10
0
20
0
30
0
70
1
0
VERTEX
8
0
10
2050.000000
20
-2120.000000
30
0.000000
0
VERTEX
8
0
10
2050.000000
20
-2132.000000
30
0.000000
0
VERTEX
8
0
10
3800.000000
20
-2131.000000
30
0.000000
0
VERTEX
8
0
10
3800.000000
20
-2119.000000
30
0.000000
0
VERTEX
8
0
10
2050.000000
20
-2120.000000
30
0.000000
0
SEQEND
0
POLYLINE
8
0
40
1.000000
41
1.000000
66
1
62
136
10
0
20
0
30
0
70
1
0
VERTEX
8
0
10
2344.000000
20
-2026.000000
30
0.000000
0
VERTEX
8
0
10
2356.000000
20
-2026.000000
30
0.000000
0
VERTEX
8
0
10
2356.000000
20
-2126.000000
30
0.000000
0
VERTEX
8
0
10
2344.000000
20
-2126.000000
30
0.000000
0
VERTEX
8
0
10
2344.000000
20
-2026.000000
30
0.000000
0
SEQEND
0
POLYLINE
8
0
40
1.000000
41
1.000000
66
1
62
136
10
0
20
0
30
0
70
1
0
VERTEX
8
0
10
3044.000000
20
-2026.000000
30
0.000000
0
VERTEX
8
0
10
3056.000000
20
-2026.000000
30
0.000000
0
VERTEX
8
0
10
3056.000000
20
-2126.000000
30
0.000000
0
VERTEX
8
0
10
3044.000000
20
-2126.000000
30
0.000000
0
VERTEX
8
0
10
3044.000000
20
-2026.000000
30
0.000000
0
SEQEND
0
POLYLINE
8
0
40
1.000000
41
1.000000
66
1
62
136
10
0
20
0
30
0
70
1
0
VERTEX
8
0
10
2044.000000
20
-2001.000000
30
0.000000
0
VERTEX
8
0
10
2056.000000
20
-2001.000000
30
0.000000
0
VERTEX
8
0
10
2056.000000
20
-2575.000000
30
0.000000
0
VERTEX
8
0
10
2044.000000
20
-2575.000000
30
0.000000
0
VERTEX
8
0
10
2044.000000
20
-2001.000000
30
0.000000
0
SEQEND
0
POLYLINE
8
0
40
1.000000
41
1.000000
66
1
62
136
10
0
20
0
30
0
70
1
0
VERTEX
8
0
10
2050.000000
20
-2581.000000
30
0.000000
0
VERTEX
8
0
10
2050.000000
20
-2569.000000
30
0.000000
0
VERTEX
8
0
10
3800.000000
20
-2569.000000
30
0.000000
0
VERTEX
8
0
10
3800.000000
20
-2581.000000
30
0.000000
0
VERTEX
8
0
10
2050.000000
20
-2581.000000
30
0.000000
0
SEQEND
0
POLYLINE
8
0
40
1.000000
41
1.000000
66
1
62
136
10
0
20
0
30
0
70
1
0
VERTEX
8
0
10
3794.000000
20
-2575.000000
30
0.000000
0
VERTEX
8
0
10
3806.000000
20
-2575.000000
30
0.000000
0
VERTEX
8
0
10
3806.000000
20
-2001.000000
30
0.000000
0
VERTEX
8
0
10
3794.000000
20
-2001.000000
30
0.000000
0
VERTEX
8
0
10
3794.000000
20
-2575.000000
30
0.000000
0
SEQEND
0
POLYLINE
8
0
40
1.000000
41
1.000000
66
1
62
136
10
0
20
0
30
0
70
1
0
VERTEX
8
0
10
3800.000000
20
-2031.000000
30
0.000000
0
VERTEX
8
0
10
3800.000000
20
-2019.000000
30
0.000000
0
VERTEX
8
0
10
2050.000000
20
-2019.000000
30
0.000000
0
VERTEX
8
0
10
2050.000000
20
-2031.000000
30
0.000000
0
VERTEX
8
0
10
3800.000000
20
-2031.000000
30
0.000000
0
SEQEND
0
LINE
8
0
39
10
62
136
10
3380.000000
20
-2125.000000
30
0.000000
11
3380.000000
21
-2215.000000
31
0.000000
0
TEXT
8
0
39
10
62
136
10
2075.000000
20
-2525.000000
30
0.000000
11
2075.000000
21
-2525.000000
31
0.000000
40
34.000000
50
0.000000
1
INITIAL
72
0
73
2
0
TEXT
8
0
39
10
62
136
10
2975.000000
20
-2525.000000
30
0.000000
11
2975.000000
21
-2525.000000
31
0.000000
40
34.000000
50
0.000000
1
PAGE:
72
0
73
2
0
TEXT
8
0
39
10
62
136
10
3320.000000
20
-2525.000000
30
0.000000
11
3320.000000
21
-2525.000000
31
0.000000
40
34.000000
50
0.000000
1
OF:
72
0
73
2
0
TEXT
8
0
39
10
62
136
10
2075.000000
20
-2275.000000
30
0.000000
11
2075.000000
21
-2275.000000
31
0.000000
40
34.000000
50
0.000000
1
COMPANY:
72
0
73
2
0
TEXT
8
0
39
10
62
136
10
2075.000000
20
-2425.000000
30
0.000000
11
2075.000000
21
-2425.000000
31
0.000000
40
34.000000
50
0.000000
1
COUNTRY:
72
0
73
2
0
TEXT
8
0
39
10
62
136
10
2550.000000
20
-2525.000000
30
0.000000
11
2550.000000
21
-2525.000000
31
0.000000
40
34.000000
50
0.000000
1
28.05.2011
72
0
73
2
0
TEXT
8
0
39
10
62
136
10
2575.000000
20
-2075.000000
30
0.000000
11
2575.000000
21
-2075.000000
31
0.000000
40
34.000000
50
0.000000
1
19.07.2011
72
0
73
2
0
TEXT
8
0
39
10
62
136
10
2375.000000
20
-2175.000000
30
0.000000
11
2375.000000
21
-2175.000000
31
0.000000
40
34.000000
50
0.000000
1
SIPM CONTROLLER DUO
72
0
73
2
0
TEXT
8
0
39
10
62
136
10
3175.000000
20
-2525.000000
30
0.000000
11
3175.000000
21
-2525.000000
31
0.000000
40
34.000000
50
0.000000
1
3
72
0
73
2
0
TEXT
8
0
39
10
62
136
10
3450.000000
20
-2525.000000
30
0.000000
11
3450.000000
21
-2525.000000
31
0.000000
40
34.000000
50
0.000000
1
4
72
0
73
2
0
TEXT
8
0
39
10
62
136
10
2225.000000
20
-2075.000000
30
0.000000
11
2225.000000
21
-2075.000000
31
0.000000
40
34.000000
50
0.000000
1
1.0
72
0
73
2
0
TEXT
8
0
39
10
62
136
10
2375.000000
20
-2275.000000
30
0.000000
11
2375.000000
21
-2275.000000
31
0.000000
40
34.000000
50
0.000000
1
III. PHHYSIKALISCHES  INST. B
72
0
73
2
0
TEXT
8
0
39
10
62
136
10
2375.000000
20
-2325.000000
30
0.000000
11
2375.000000
21
-2325.000000
31
0.000000
40
34.000000
50
0.000000
1
OTTO-BLUMENTHAL-STR.
72
0
73
2
0
TEXT
8
0
39
10
62
136
10
2375.000000
20
-2375.000000
30
0.000000
11
2375.000000
21
-2375.000000
31
0.000000
40
34.000000
50
0.000000
1
52074  AACHEN
72
0
73
2
0
TEXT
8
0
39
10
62
136
10
2375.000000
20
-2425.000000
30
0.000000
11
2375.000000
21
-2425.000000
31
0.000000
40
34.000000
50
0.000000
1
GERMANY
72
0
73
2
0
TEXT
8
0
39
10
62
136
10
3225.000000
20
-2075.000000
30
0.000000
11
3225.000000
21
-2075.000000
31
0.000000
40
34.000000
50
0.000000
1
F. BEIEL
72
0
73
2
0
TEXT
8
0
39
10
62
136
10
2075.000000
20
-2375.000000
30
0.000000
11
2075.000000
21
-2375.000000
31
0.000000
40
34.000000
50
0.000000
1
CITY
72
0
73
2
0
TEXT
8
0
39
10
62
136
10
2075.000000
20
-2175.000000
30
0.000000
11
2075.000000
21
-2175.000000
31
0.000000
40
34.000000
50
0.000000
1
PROJECT:
72
0
73
2
0
TEXT
8
0
39
10
62
136
10
2075.000000
20
-2075.000000
30
0.000000
11
2075.000000
21
-2075.000000
31
0.000000
40
34.000000
50
0.000000
1
REV:
72
0
73
2
0
TEXT
8
0
39
10
62
136
10
2375.000000
20
-2075.000000
30
0.000000
11
2375.000000
21
-2075.000000
31
0.000000
40
34.000000
50
0.000000
1
DATE:
72
0
73
2
0
TEXT
8
0
39
10
62
136
10
3075.000000
20
-2075.000000
30
0.000000
11
3075.000000
21
-2075.000000
31
0.000000
40
34.000000
50
0.000000
1
ENG:
72
0
73
2
0
TEXT
8
0
39
10
62
136
10
2075.000000
20
-2325.000000
30
0.000000
11
2075.000000
21
-2325.000000
31
0.000000
40
34.000000
50
0.000000
1
ADDRESS:
72
0
73
2
0
TEXT
8
0
39
10
62
136
10
3405.000000
20
-2145.000000
30
0.000000
11
3405.000000
21
-2145.000000
31
0.000000
40
33.000000
50
0.000000
1
NO.
72
0
73
3
0
TEXT
8
0
39
10
62
136
10
3590.000000
20
-2150.000000
30
0.000000
11
3590.000000
21
-2150.000000
31
0.000000
40
33.000000
50
0.000000
1
911
72
0
73
3
0
TEXT
8
0
39
10
62
2
10
-1025.000000
20
1700.000000
30
0.000000
11
-1025.000000
21
1700.000000
31
0.000000
40
37.000000
50
0.000000
1
VCC
72
0
73
0
0
TEXT
8
0
39
10
62
2
10
-2000.000000
20
2150.000000
30
0.000000
11
-2000.000000
21
2150.000000
31
0.000000
40
37.000000
50
0.000000
1
VBIN
72
0
73
0
0
TEXT
8
0
39
10
62
2
10
725.000000
20
2150.000000
30
0.000000
11
725.000000
21
2150.000000
31
0.000000
40
37.000000
50
0.000000
1
VB_1
72
0
73
0
0
TEXT
8
0
39
10
62
2
10
-1025.000000
20
-550.000000
30
0.000000
11
-1025.000000
21
-550.000000
31
0.000000
40
37.000000
50
0.000000
1
VCC
72
0
73
0
0
TEXT
8
0
39
10
62
2
10
-2000.000000
20
-100.000000
30
0.000000
11
-2000.000000
21
-100.000000
31
0.000000
40
37.000000
50
0.000000
1
VBIN
72
0
73
0
0
TEXT
8
0
39
10
62
2
10
725.000000
20
-100.000000
30
0.000000
11
725.000000
21
-100.000000
31
0.000000
40
37.000000
50
0.000000
1
VB_2
72
0
73
0
0
TEXT
8
0
39
10
62
7
10
-2913.000000
20
-2300.000000
30
0.000000
11
-2913.000000
21
-2300.000000
31
0.000000
40
37.000000
50
90.000000
1
GND
72
0
73
0
0
TEXT
8
0
39
10
62
7
10
-2713.000000
20
-2300.000000
30
0.000000
11
-2713.000000
21
-2300.000000
31
0.000000
40
37.000000
50
90.000000
1
VB_2
72
0
73
0
0
TEXT
8
0
39
10
62
7
10
-3013.000000
20
-2300.000000
30
0.000000
11
-3013.000000
21
-2300.000000
31
0.000000
40
37.000000
50
90.000000
1
VEE
72
0
73
0
0
TEXT
8
0
39
10
62
7
10
-2813.000000
20
-2300.000000
30
0.000000
11
-2813.000000
21
-2300.000000
31
0.000000
40
37.000000
50
90.000000
1
VB_1
72
0
73
0
0
TEXT
8
0
39
10
62
7
10
-3113.000000
20
-2300.000000
30
0.000000
11
-3113.000000
21
-2300.000000
31
0.000000
40
37.000000
50
90.000000
1
VCC
72
0
73
0
0
TEXT
8
0
39
10
62
7
10
-2588.000000
20
-2300.000000
30
0.000000
11
-2588.000000
21
-2300.000000
31
0.000000
40
37.000000
50
90.000000
1
VBIN
72
0
73
0
0
TEXT
8
0
39
10
62
2
10
275.000000
20
875.000000
30
0.000000
11
275.000000
21
875.000000
31
0.000000
40
37.000000
50
0.000000
1
VCC
72
0
73
0
0
TEXT
8
0
39
10
62
7
10
-1388.000000
20
-2300.000000
30
0.000000
11
-1388.000000
21
-2300.000000
31
0.000000
40
37.000000
50
90.000000
1
SCK
72
0
73
0
0
TEXT
8
0
39
10
62
7
10
-1488.000000
20
-2300.000000
30
0.000000
11
-1488.000000
21
-2300.000000
31
0.000000
40
37.000000
50
90.000000
1
MOSI
72
0
73
0
0
LINE
8
0
39
1
62
7
10
-1353.000000
20
-2300.000000
30
0.000000
11
-1353.000000
21
-2189.000000
31
0.000000
0
TEXT
8
0
39
10
62
7
10
-1313.000000
20
-2300.000000
30
0.000000
11
-1313.000000
21
-2300.000000
31
0.000000
40
37.000000
50
90.000000
1
CS1
72
0
73
0
0
TEXT
8
0
39
10
62
7
10
-1588.000000
20
-2300.000000
30
0.000000
11
-1588.000000
21
-2300.000000
31
0.000000
40
37.000000
50
90.000000
1
MISO
72
0
73
0
0
LINE
8
0
39
1
62
2
10
1500.000000
20
415.000000
30
0.000000
11
1500.000000
21
415.000000
31
0.000000
0
TEXT
8
0
39
10
62
2
10
1500.000000
20
375.000000
30
0.000000
11
1500.000000
21
375.000000
31
0.000000
40
37.000000
50
0.000000
1
CS1
72
0
73
0
0
TEXT
8
0
39
10
62
2
10
1500.000000
20
475.000000
30
0.000000
11
1500.000000
21
475.000000
31
0.000000
40
37.000000
50
0.000000
1
MOSI
72
0
73
0
0
TEXT
8
0
39
10
62
2
10
1500.000000
20
575.000000
30
0.000000
11
1500.000000
21
575.000000
31
0.000000
40
37.000000
50
0.000000
1
SCK
72
0
73
0
0
TEXT
8
0
39
10
62
2
10
50.000000
20
50.000000
30
0.000000
11
50.000000
21
50.000000
31
0.000000
40
37.000000
50
0.000000
1
GND
72
0
73
0
0
TEXT
8
0
39
10
62
2
10
50.000000
20
50.000000
30
0.000000
11
50.000000
21
50.000000
31
0.000000
40
37.000000
50
0.000000
1
GND
72
0
73
0
0
TEXT
8
0
39
10
62
2
10
-1250.000000
20
-1175.000000
30
0.000000
11
-1250.000000
21
-1175.000000
31
0.000000
40
37.000000
50
0.000000
1
GND
72
0
73
0
0
TEXT
8
0
39
10
62
2
10
-1250.000000
20
1075.000000
30
0.000000
11
-1250.000000
21
1075.000000
31
0.000000
40
37.000000
50
0.000000
1
GND
72
0
73
0
0
TEXT
8
0
39
10
62
2
10
-325.000000
20
-2200.000000
30
0.000000
11
-325.000000
21
-2200.000000
31
0.000000
40
37.000000
50
0.000000
1
VCC
72
0
73
0
0
TEXT
8
0
39
10
62
2
10
-375.000000
20
-2475.000000
30
0.000000
11
-375.000000
21
-2475.000000
31
0.000000
40
37.000000
50
0.000000
1
GND
72
0
73
0
0
TEXT
8
0
39
10
62
2
10
675.000000
20
675.000000
30
0.000000
11
675.000000
21
675.000000
31
0.000000
40
37.000000
50
0.000000
1
VCC
72
0
73
0
0
LINE
8
0
62
1
39
1
10
-1550.000000
20
1525.000000
30
0.000000
11
-1525.000000
21
1525.000000
31
0.000000
0
LINE
8
0
62
1
39
1
10
-1550.000000
20
1350.000000
30
0.000000
11
-1550.000000
21
1275.000000
31
0.000000
0
LINE
8
0
62
1
39
1
10
-2000.000000
20
1075.000000
30
0.000000
11
-2000.000000
21
1425.000000
31
0.000000
0
LINE
8
0
62
1
39
1
10
-1700.000000
20
1350.000000
30
0.000000
11
-1700.000000
21
1375.000000
31
0.000000
0
LINE
8
0
62
1
39
1
10
250.000000
20
1075.000000
30
0.000000
11
250.000000
21
1775.000000
31
0.000000
0
LINE
8
0
62
1
39
1
10
-1700.000000
20
1700.000000
30
0.000000
11
-1700.000000
21
1675.000000
31
0.000000
0
LINE
8
0
62
1
39
1
10
-1700.000000
20
1075.000000
30
0.000000
11
-1700.000000
21
1100.000000
31
0.000000
0
LINE
8
0
62
1
39
1
10
225.000000
20
2150.000000
30
0.000000
11
275.000000
21
2150.000000
31
0.000000
0
LINE
8
0
62
1
39
1
10
-500.000000
20
2125.000000
30
0.000000
11
-500.000000
21
2150.000000
31
0.000000
0
LINE
8
0
62
1
39
1
10
-50.000000
20
2150.000000
30
0.000000
11
-50.000000
21
1975.000000
31
0.000000
0
LINE
8
0
62
1
39
1
10
-2000.000000
20
1975.000000
30
0.000000
11
-1975.000000
21
1975.000000
31
0.000000
0
LINE
8
0
62
1
39
1
10
-1250.000000
20
1525.000000
30
0.000000
11
-1250.000000
21
1850.000000
31
0.000000
0
LINE
8
0
62
1
39
1
10
-500.000000
20
1850.000000
30
0.000000
11
-500.000000
21
1875.000000
31
0.000000
0
LINE
8
0
62
1
39
1
10
-500.000000
20
1325.000000
30
0.000000
11
-500.000000
21
1600.000000
31
0.000000
0
LINE
8
0
62
1
39
1
10
-1025.000000
20
1675.000000
30
0.000000
11
-1025.000000
21
1775.000000
31
0.000000
0
LINE
8
0
62
1
39
1
10
-1700.000000
20
1950.000000
30
0.000000
11
-1700.000000
21
2000.000000
31
0.000000
0
LINE
8
0
62
1
39
1
10
-775.000000
20
1575.000000
30
0.000000
11
-775.000000
21
1850.000000
31
0.000000
0
LINE
8
0
62
1
39
1
10
-1700.000000
20
1975.000000
30
0.000000
11
-1725.000000
21
1975.000000
31
0.000000
0
LINE
8
0
62
1
39
1
10
-1275.000000
20
1525.000000
30
0.000000
11
-1225.000000
21
1525.000000
31
0.000000
0
LINE
8
0
62
1
39
1
10
-2000.000000
20
1625.000000
30
0.000000
11
-2000.000000
21
2150.000000
31
0.000000
0
LINE
8
0
62
1
39
1
10
-2000.000000
20
2150.000000
30
0.000000
11
-1850.000000
21
2150.000000
31
0.000000
0
LINE
8
0
62
1
39
1
10
-1050.000000
20
1850.000000
30
0.000000
11
-1025.000000
21
1850.000000
31
0.000000
0
LINE
8
0
62
1
39
1
10
-1550.000000
20
2150.000000
30
0.000000
11
-25.000000
21
2150.000000
31
0.000000
0
LINE
8
0
62
1
39
1
10
-50.000000
20
1075.000000
30
0.000000
11
-50.000000
21
1775.000000
31
0.000000
0
LINE
8
0
62
1
39
1
10
-1025.000000
20
1075.000000
30
0.000000
11
-1025.000000
21
1375.000000
31
0.000000
0
LINE
8
0
62
1
39
1
10
250.000000
20
2150.000000
30
0.000000
11
250.000000
21
1975.000000
31
0.000000
0
LINE
8
0
62
1
39
1
10
525.000000
20
2150.000000
30
0.000000
11
825.000000
21
2150.000000
31
0.000000
0
LINE
8
0
62
1
39
1
10
-1550.000000
20
1350.000000
30
0.000000
11
-1700.000000
21
1350.000000
31
0.000000
0
LINE
8
0
62
1
39
1
10
-775.000000
20
1075.000000
30
0.000000
11
-775.000000
21
1175.000000
31
0.000000
0
LINE
8
0
62
1
39
1
10
-775.000000
20
1475.000000
30
0.000000
11
-775.000000
21
1375.000000
31
0.000000
0
LINE
8
0
62
1
39
1
10
-825.000000
20
1575.000000
30
0.000000
11
-500.000000
21
1575.000000
31
0.000000
0
LINE
8
0
62
1
39
1
10
-50.000000
20
-100.000000
30
0.000000
11
-50.000000
21
-275.000000
31
0.000000
0
LINE
8
0
62
1
39
1
10
-500.000000
20
-125.000000
30
0.000000
11
-500.000000
21
-100.000000
31
0.000000
0
LINE
8
0
62
1
39
1
10
250.000000
20
-1175.000000
30
0.000000
11
250.000000
21
-475.000000
31
0.000000
0
LINE
8
0
62
1
39
1
10
-1700.000000
20
-900.000000
30
0.000000
11
-1700.000000
21
-875.000000
31
0.000000
0
LINE
8
0
62
1
39
1
10
-1025.000000
20
-1175.000000
30
0.000000
11
-1025.000000
21
-875.000000
31
0.000000
0
LINE
8
0
62
1
39
1
10
-2000.000000
20
-1175.000000
30
0.000000
11
-2000.000000
21
-825.000000
31
0.000000
0
LINE
8
0
62
1
39
1
10
-1550.000000
20
-900.000000
30
0.000000
11
-1550.000000
21
-975.000000
31
0.000000
0
LINE
8
0
62
1
39
1
10
-1550.000000
20
-100.000000
30
0.000000
11
-25.000000
21
-100.000000
31
0.000000
0
LINE
8
0
62
1
39
1
10
-1550.000000
20
-725.000000
30
0.000000
11
-1525.000000
21
-725.000000
31
0.000000
0
LINE
8
0
62
1
39
1
10
-2000.000000
20
-100.000000
30
0.000000
11
-1850.000000
21
-100.000000
31
0.000000
0
LINE
8
0
62
1
39
1
10
-500.000000
20
-400.000000
30
0.000000
11
-500.000000
21
-375.000000
31
0.000000
0
LINE
8
0
62
1
39
1
10
250.000000
20
-100.000000
30
0.000000
11
250.000000
21
-275.000000
31
0.000000
0
LINE
8
0
62
1
39
1
10
-1250.000000
20
-725.000000
30
0.000000
11
-1250.000000
21
-400.000000
31
0.000000
0
LINE
8
0
62
1
39
1
10
-50.000000
20
-1175.000000
30
0.000000
11
-50.000000
21
-475.000000
31
0.000000
0
LINE
8
0
62
1
39
1
10
-2000.000000
20
-275.000000
30
0.000000
11
-1975.000000
21
-275.000000
31
0.000000
0
LINE
8
0
62
1
39
1
10
-825.000000
20
-675.000000
30
0.000000
11
-500.000000
21
-675.000000
31
0.000000
0
LINE
8
0
62
1
39
1
10
-1275.000000
20
-725.000000
30
0.000000
11
-1225.000000
21
-725.000000
31
0.000000
0
LINE
8
0
62
1
39
1
10
-775.000000
20
-675.000000
30
0.000000
11
-775.000000
21
-400.000000
31
0.000000
0
LINE
8
0
62
1
39
1
10
-775.000000
20
-775.000000
30
0.000000
11
-775.000000
21
-875.000000
31
0.000000
0
LINE
8
0
62
1
39
1
10
-1025.000000
20
-575.000000
30
0.000000
11
-1025.000000
21
-475.000000
31
0.000000
0
LINE
8
0
62
1
39
1
10
-775.000000
20
-1175.000000
30
0.000000
11
-775.000000
21
-1075.000000
31
0.000000
0
LINE
8
0
62
1
39
1
10
225.000000
20
-100.000000
30
0.000000
11
275.000000
21
-100.000000
31
0.000000
0
LINE
8
0
62
1
39
1
10
-1050.000000
20
-400.000000
30
0.000000
11
-1025.000000
21
-400.000000
31
0.000000
0
LINE
8
0
62
1
39
1
10
-1550.000000
20
-900.000000
30
0.000000
11
-1700.000000
21
-900.000000
31
0.000000
0
LINE
8
0
62
1
39
1
10
-1700.000000
20
-275.000000
30
0.000000
11
-1725.000000
21
-275.000000
31
0.000000
0
LINE
8
0
62
1
39
1
10
-1700.000000
20
-1175.000000
30
0.000000
11
-1700.000000
21
-1150.000000
31
0.000000
0
LINE
8
0
62
1
39
1
10
-500.000000
20
-925.000000
30
0.000000
11
-500.000000
21
-650.000000
31
0.000000
0
LINE
8
0
62
1
39
1
10
-1700.000000
20
-550.000000
30
0.000000
11
-1700.000000
21
-575.000000
31
0.000000
0
LINE
8
0
62
1
39
1
10
-2000.000000
20
-625.000000
30
0.000000
11
-2000.000000
21
-100.000000
31
0.000000
0
LINE
8
0
62
1
39
1
10
525.000000
20
-100.000000
30
0.000000
11
825.000000
21
-100.000000
31
0.000000
0
LINE
8
0
62
1
39
1
10
-1700.000000
20
-300.000000
30
0.000000
11
-1700.000000
21
-250.000000
31
0.000000
0
LINE
8
0
62
1
39
1
10
-2925.000000
20
-2200.000000
30
0.000000
11
-2925.000000
21
-2375.000000
31
0.000000
0
LINE
8
0
62
1
39
1
10
-2725.000000
20
-2375.000000
30
0.000000
11
-2725.000000
21
-2200.000000
31
0.000000
0
LINE
8
0
62
1
39
1
10
-3025.000000
20
-2200.000000
30
0.000000
11
-3025.000000
21
-2375.000000
31
0.000000
0
LINE
8
0
62
1
39
1
10
-2825.000000
20
-2200.000000
30
0.000000
11
-2825.000000
21
-2375.000000
31
0.000000
0
LINE
8
0
62
1
39
1
10
-3125.000000
20
-2200.000000
30
0.000000
11
-3125.000000
21
-2375.000000
31
0.000000
0
LINE
8
0
62
1
39
1
10
-2600.000000
20
-2375.000000
30
0.000000
11
-2600.000000
21
-2200.000000
31
0.000000
0
LINE
8
0
62
1
39
1
10
250.000000
20
875.000000
30
0.000000
11
400.000000
21
875.000000
31
0.000000
0
LINE
8
0
62
1
39
1
10
25.000000
20
275.000000
30
0.000000
11
50.000000
21
275.000000
31
0.000000
0
LINE
8
0
62
1
39
1
10
-1400.000000
20
-2375.000000
30
0.000000
11
-1400.000000
21
-2200.000000
31
0.000000
0
LINE
8
0
62
1
39
1
10
-1500.000000
20
-2375.000000
30
0.000000
11
-1500.000000
21
-2200.000000
31
0.000000
0
LINE
8
0
62
1
39
1
10
-1325.000000
20
-2375.000000
30
0.000000
11
-1325.000000
21
-2200.000000
31
0.000000
0
LINE
8
0
62
1
39
1
10
-1600.000000
20
-2375.000000
30
0.000000
11
-1600.000000
21
-2200.000000
31
0.000000
0
LINE
8
0
62
1
39
1
10
-175.000000
20
375.000000
30
0.000000
11
50.000000
21
375.000000
31
0.000000
0
LINE
8
0
62
1
39
1
10
-175.000000
20
475.000000
30
0.000000
11
50.000000
21
475.000000
31
0.000000
0
LINE
8
0
62
1
39
1
10
-825.000000
20
1475.000000
30
0.000000
11
-650.000000
21
1475.000000
31
0.000000
0
LINE
8
0
62
1
39
1
10
-650.000000
20
-775.000000
30
0.000000
11
-650.000000
21
575.000000
31
0.000000
0
LINE
8
0
62
1
39
1
10
-825.000000
20
-775.000000
30
0.000000
11
-650.000000
21
-775.000000
31
0.000000
0
LINE
8
0
62
1
39
1
10
400.000000
20
875.000000
30
0.000000
11
400.000000
21
825.000000
31
0.000000
0
LINE
8
0
62
1
39
1
10
250.000000
20
875.000000
30
0.000000
11
250.000000
21
825.000000
31
0.000000
0
LINE
8
0
62
1
39
1
10
400.000000
20
50.000000
30
0.000000
11
400.000000
21
125.000000
31
0.000000
0
LINE
8
0
62
1
39
1
10
250.000000
20
50.000000
30
0.000000
11
250.000000
21
125.000000
31
0.000000
0
LINE
8
0
62
1
39
1
10
25.000000
20
50.000000
30
0.000000
11
25.000000
21
275.000000
31
0.000000
0
LINE
8
0
62
1
39
1
10
-650.000000
20
1475.000000
30
0.000000
11
-650.000000
21
675.000000
31
0.000000
0
LINE
8
0
62
1
39
1
10
925.000000
20
375.000000
30
0.000000
11
600.000000
21
375.000000
31
0.000000
0
LINE
8
0
62
1
39
1
10
750.000000
20
425.000000
30
0.000000
11
750.000000
21
475.000000
31
0.000000
0
LINE
8
0
62
1
39
1
10
875.000000
20
575.000000
30
0.000000
11
600.000000
21
575.000000
31
0.000000
0
LINE
8
0
62
1
39
1
10
750.000000
20
425.000000
30
0.000000
11
925.000000
21
425.000000
31
0.000000
0
LINE
8
0
62
1
39
1
10
750.000000
20
475.000000
30
0.000000
11
600.000000
21
475.000000
31
0.000000
0
LINE
8
0
62
1
39
1
10
875.000000
20
475.000000
30
0.000000
11
875.000000
21
575.000000
31
0.000000
0
LINE
8
0
62
1
39
1
10
925.000000
20
475.000000
30
0.000000
11
875.000000
21
475.000000
31
0.000000
0
LINE
8
0
62
1
39
1
10
1075.000000
20
375.000000
30
0.000000
11
1625.000000
21
375.000000
31
0.000000
0
LINE
8
0
62
1
39
1
10
1225.000000
20
475.000000
30
0.000000
11
1225.000000
21
425.000000
31
0.000000
0
LINE
8
0
62
1
39
1
10
1225.000000
20
425.000000
30
0.000000
11
1075.000000
21
425.000000
31
0.000000
0
LINE
8
0
62
1
39
1
10
1225.000000
20
475.000000
30
0.000000
11
1625.000000
21
475.000000
31
0.000000
0
LINE
8
0
62
1
39
1
10
1175.000000
20
475.000000
30
0.000000
11
1075.000000
21
475.000000
31
0.000000
0
LINE
8
0
62
1
39
1
10
1175.000000
20
575.000000
30
0.000000
11
1175.000000
21
475.000000
31
0.000000
0
LINE
8
0
62
1
39
1
10
1175.000000
20
575.000000
30
0.000000
11
1625.000000
21
575.000000
31
0.000000
0
LINE
8
0
62
1
39
1
10
-175.000000
20
50.000000
30
0.000000
11
400.000000
21
50.000000
31
0.000000
0
LINE
8
0
62
1
39
1
10
-175.000000
20
50.000000
30
0.000000
11
-175.000000
21
75.000000
31
0.000000
0
LINE
8
0
62
1
39
1
10
-2000.000000
20
-1175.000000
30
0.000000
11
250.000000
21
-1175.000000
31
0.000000
0
LINE
8
0
62
1
39
1
10
-2000.000000
20
1075.000000
30
0.000000
11
250.000000
21
1075.000000
31
0.000000
0
LINE
8
0
62
1
39
1
10
-425.000000
20
-2200.000000
30
0.000000
11
-425.000000
21
-2250.000000
31
0.000000
0
LINE
8
0
62
1
39
1
10
-200.000000
20
-2250.000000
30
0.000000
11
-200.000000
21
-2200.000000
31
0.000000
0
LINE
8
0
62
1
39
1
10
-425.000000
20
-2200.000000
30
0.000000
11
-200.000000
21
-2200.000000
31
0.000000
0
LINE
8
0
62
1
39
1
10
-425.000000
20
-2475.000000
30
0.000000
11
-425.000000
21
-2450.000000
31
0.000000
0
LINE
8
0
62
1
39
1
10
-200.000000
20
-2475.000000
30
0.000000
11
-425.000000
21
-2475.000000
31
0.000000
0
LINE
8
0
62
1
39
1
10
-200.000000
20
-2450.000000
30
0.000000
11
-200.000000
21
-2475.000000
31
0.000000
0
LINE
8
0
62
1
39
1
10
-350.000000
20
575.000000
30
0.000000
11
-650.000000
21
575.000000
31
0.000000
0
LINE
8
0
62
1
39
1
10
-350.000000
20
575.000000
30
0.000000
11
-250.000000
21
675.000000
31
0.000000
0
LINE
8
0
62
1
39
1
10
-250.000000
20
675.000000
30
0.000000
11
50.000000
21
675.000000
31
0.000000
0
LINE
8
0
62
1
39
1
10
-650.000000
20
675.000000
30
0.000000
11
-350.000000
21
675.000000
31
0.000000
0
LINE
8
0
62
1
39
1
10
-350.000000
20
675.000000
30
0.000000
11
-250.000000
21
575.000000
31
0.000000
0
LINE
8
0
62
1
39
1
10
-250.000000
20
575.000000
30
0.000000
11
50.000000
21
575.000000
31
0.000000
0
LINE
8
0
62
1
39
1
10
-175.000000
20
275.000000
30
0.000000
11
-175.000000
21
475.000000
31
0.000000
0
LINE
8
0
62
1
39
1
10
750.000000
20
675.000000
30
0.000000
11
600.000000
21
675.000000
31
0.000000
0
POLYLINE
8
0
40
12.000000
41
12.000000
66
1
62
5
10
0
20
0
30
0
70
0
0
VERTEX
8
0
10
-1975.000000
20
-2375.000000
30
0.000000
0
VERTEX
8
0
10
-3175.000000
20
-2375.000000
30
0.000000
0
SEQEND
0
POLYLINE
8
0
40
12.000000
41
12.000000
66
1
62
5
10
0
20
0
30
0
70
0
0
VERTEX
8
0
10
-825.000000
20
-2375.000000
30
0.000000
0
VERTEX
8
0
10
-1625.000000
20
-2375.000000
30
0.000000
0
SEQEND
0
SOLID
8
4
10
-2930.000000
20
-2380.000000
30
0.000000
11
-2920.000000
21
-2380.000000
31
0.000000
12
-2930.000000
22
-2370.000000
32
0.000000
13
-2920.000000
23
-2370.000000
33
0.000000
0
SOLID
8
4
10
-2730.000000
20
-2380.000000
30
0.000000
11
-2720.000000
21
-2380.000000
31
0.000000
12
-2730.000000
22
-2370.000000
32
0.000000
13
-2720.000000
23
-2370.000000
33
0.000000
0
SOLID
8
4
10
-3030.000000
20
-2380.000000
30
0.000000
11
-3020.000000
21
-2380.000000
31
0.000000
12
-3030.000000
22
-2370.000000
32
0.000000
13
-3020.000000
23
-2370.000000
33
0.000000
0
SOLID
8
4
10
-2830.000000
20
-2380.000000
30
0.000000
11
-2820.000000
21
-2380.000000
31
0.000000
12
-2830.000000
22
-2370.000000
32
0.000000
13
-2820.000000
23
-2370.000000
33
0.000000
0
SOLID
8
4
10
-3130.000000
20
-2380.000000
30
0.000000
11
-3120.000000
21
-2380.000000
31
0.000000
12
-3130.000000
22
-2370.000000
32
0.000000
13
-3120.000000
23
-2370.000000
33
0.000000
0
SOLID
8
4
10
-2605.000000
20
-2380.000000
30
0.000000
11
-2595.000000
21
-2380.000000
31
0.000000
12
-2605.000000
22
-2370.000000
32
0.000000
13
-2595.000000
23
-2370.000000
33
0.000000
0
SOLID
8
4
10
-1405.000000
20
-2380.000000
30
0.000000
11
-1395.000000
21
-2380.000000
31
0.000000
12
-1405.000000
22
-2370.000000
32
0.000000
13
-1395.000000
23
-2370.000000
33
0.000000
0
SOLID
8
4
10
-1505.000000
20
-2380.000000
30
0.000000
11
-1495.000000
21
-2380.000000
31
0.000000
12
-1505.000000
22
-2370.000000
32
0.000000
13
-1495.000000
23
-2370.000000
33
0.000000
0
SOLID
8
4
10
-1330.000000
20
-2380.000000
30
0.000000
11
-1320.000000
21
-2380.000000
31
0.000000
12
-1330.000000
22
-2370.000000
32
0.000000
13
-1320.000000
23
-2370.000000
33
0.000000
0
SOLID
8
4
10
-1605.000000
20
-2380.000000
30
0.000000
11
-1595.000000
21
-2380.000000
31
0.000000
12
-1605.000000
22
-2370.000000
32
0.000000
13
-1595.000000
23
-2370.000000
33
0.000000
0
SOLID
8
4
10
-505.000000
20
-105.000000
30
0.000000
11
-495.000000
21
-105.000000
31
0.000000
12
-505.000000
22
-95.000000
32
0.000000
13
-495.000000
23
-95.000000
33
0.000000
0
SOLID
8
4
10
-55.000000
20
-105.000000
30
0.000000
11
-45.000000
21
-105.000000
31
0.000000
12
-55.000000
22
-95.000000
32
0.000000
13
-45.000000
23
-95.000000
33
0.000000
0
SOLID
8
4
10
-180.000000
20
370.000000
30
0.000000
11
-170.000000
21
370.000000
31
0.000000
12
-180.000000
22
380.000000
32
0.000000
13
-170.000000
23
380.000000
33
0.000000
0
SOLID
8
4
10
-1280.000000
20
2145.000000
30
0.000000
11
-1270.000000
21
2145.000000
31
0.000000
12
-1280.000000
22
2155.000000
32
0.000000
13
-1270.000000
23
2155.000000
33
0.000000
0
SOLID
8
4
10
-1280.000000
20
-105.000000
30
0.000000
11
-1270.000000
21
-105.000000
31
0.000000
12
-1280.000000
22
-95.000000
32
0.000000
13
-1270.000000
23
-95.000000
33
0.000000
0
SOLID
8
4
10
-1555.000000
20
1070.000000
30
0.000000
11
-1545.000000
21
1070.000000
31
0.000000
12
-1555.000000
22
1080.000000
32
0.000000
13
-1545.000000
23
1080.000000
33
0.000000
0
SOLID
8
4
10
-1555.000000
20
-1180.000000
30
0.000000
11
-1545.000000
21
-1180.000000
31
0.000000
12
-1555.000000
22
-1170.000000
32
0.000000
13
-1545.000000
23
-1170.000000
33
0.000000
0
SOLID
8
4
10
-1705.000000
20
1345.000000
30
0.000000
11
-1695.000000
21
1345.000000
31
0.000000
12
-1705.000000
22
1355.000000
32
0.000000
13
-1695.000000
23
1355.000000
33
0.000000
0
SOLID
8
4
10
-505.000000
20
1070.000000
30
0.000000
11
-495.000000
21
1070.000000
31
0.000000
12
-505.000000
22
1080.000000
32
0.000000
13
-495.000000
23
1080.000000
33
0.000000
0
SOLID
8
4
10
-505.000000
20
1570.000000
30
0.000000
11
-495.000000
21
1570.000000
31
0.000000
12
-505.000000
22
1580.000000
32
0.000000
13
-495.000000
23
1580.000000
33
0.000000
0
SOLID
8
4
10
-780.000000
20
1570.000000
30
0.000000
11
-770.000000
21
1570.000000
31
0.000000
12
-780.000000
22
1580.000000
32
0.000000
13
-770.000000
23
1580.000000
33
0.000000
0
SOLID
8
4
10
-780.000000
20
1470.000000
30
0.000000
11
-770.000000
21
1470.000000
31
0.000000
12
-780.000000
22
1480.000000
32
0.000000
13
-770.000000
23
1480.000000
33
0.000000
0
SOLID
8
4
10
-1705.000000
20
-1180.000000
30
0.000000
11
-1695.000000
21
-1180.000000
31
0.000000
12
-1705.000000
22
-1170.000000
32
0.000000
13
-1695.000000
23
-1170.000000
33
0.000000
0
SOLID
8
4
10
-780.000000
20
1070.000000
30
0.000000
11
-770.000000
21
1070.000000
31
0.000000
12
-780.000000
22
1080.000000
32
0.000000
13
-770.000000
23
1080.000000
33
0.000000
0
SOLID
8
4
10
-1705.000000
20
-905.000000
30
0.000000
11
-1695.000000
21
-905.000000
31
0.000000
12
-1705.000000
22
-895.000000
32
0.000000
13
-1695.000000
23
-895.000000
33
0.000000
0
SOLID
8
4
10
245.000000
20
-105.000000
30
0.000000
11
255.000000
21
-105.000000
31
0.000000
12
245.000000
22
-95.000000
32
0.000000
13
255.000000
23
-95.000000
33
0.000000
0
SOLID
8
4
10
245.000000
20
2145.000000
30
0.000000
11
255.000000
21
2145.000000
31
0.000000
12
245.000000
22
2155.000000
32
0.000000
13
255.000000
23
2155.000000
33
0.000000
0
SOLID
8
4
10
-780.000000
20
-680.000000
30
0.000000
11
-770.000000
21
-680.000000
31
0.000000
12
-780.000000
22
-670.000000
32
0.000000
13
-770.000000
23
-670.000000
33
0.000000
0
SOLID
8
4
10
-1030.000000
20
1070.000000
30
0.000000
11
-1020.000000
21
1070.000000
31
0.000000
12
-1030.000000
22
1080.000000
32
0.000000
13
-1020.000000
23
1080.000000
33
0.000000
0
SOLID
8
4
10
-505.000000
20
-680.000000
30
0.000000
11
-495.000000
21
-680.000000
31
0.000000
12
-505.000000
22
-670.000000
32
0.000000
13
-495.000000
23
-670.000000
33
0.000000
0
SOLID
8
4
10
-55.000000
20
1070.000000
30
0.000000
11
-45.000000
21
1070.000000
31
0.000000
12
-55.000000
22
1080.000000
32
0.000000
13
-45.000000
23
1080.000000
33
0.000000
0
SOLID
8
4
10
-55.000000
20
-1180.000000
30
0.000000
11
-45.000000
21
-1180.000000
31
0.000000
12
-55.000000
22
-1170.000000
32
0.000000
13
-45.000000
23
-1170.000000
33
0.000000
0
SOLID
8
4
10
-55.000000
20
2145.000000
30
0.000000
11
-45.000000
21
2145.000000
31
0.000000
12
-55.000000
22
2155.000000
32
0.000000
13
-45.000000
23
2155.000000
33
0.000000
0
SOLID
8
4
10
-505.000000
20
2145.000000
30
0.000000
11
-495.000000
21
2145.000000
31
0.000000
12
-505.000000
22
2155.000000
32
0.000000
13
-495.000000
23
2155.000000
33
0.000000
0
SOLID
8
4
10
-2005.000000
20
1970.000000
30
0.000000
11
-1995.000000
21
1970.000000
31
0.000000
12
-2005.000000
22
1980.000000
32
0.000000
13
-1995.000000
23
1980.000000
33
0.000000
0
SOLID
8
4
10
-1255.000000
20
1520.000000
30
0.000000
11
-1245.000000
21
1520.000000
31
0.000000
12
-1255.000000
22
1530.000000
32
0.000000
13
-1245.000000
23
1530.000000
33
0.000000
0
SOLID
8
4
10
-1705.000000
20
1970.000000
30
0.000000
11
-1695.000000
21
1970.000000
31
0.000000
12
-1705.000000
22
1980.000000
32
0.000000
13
-1695.000000
23
1980.000000
33
0.000000
0
SOLID
8
4
10
-505.000000
20
-1180.000000
30
0.000000
11
-495.000000
21
-1180.000000
31
0.000000
12
-505.000000
22
-1170.000000
32
0.000000
13
-495.000000
23
-1170.000000
33
0.000000
0
SOLID
8
4
10
245.000000
20
45.000000
30
0.000000
11
255.000000
21
45.000000
31
0.000000
12
245.000000
22
55.000000
32
0.000000
13
255.000000
23
55.000000
33
0.000000
0
SOLID
8
4
10
20.000000
20
45.000000
30
0.000000
11
30.000000
21
45.000000
31
0.000000
12
20.000000
22
55.000000
32
0.000000
13
30.000000
23
55.000000
33
0.000000
0
SOLID
8
4
10
-1705.000000
20
1070.000000
30
0.000000
11
-1695.000000
21
1070.000000
31
0.000000
12
-1705.000000
22
1080.000000
32
0.000000
13
-1695.000000
23
1080.000000
33
0.000000
0
SOLID
8
4
10
-2005.000000
20
-280.000000
30
0.000000
11
-1995.000000
21
-280.000000
31
0.000000
12
-2005.000000
22
-270.000000
32
0.000000
13
-1995.000000
23
-270.000000
33
0.000000
0
SOLID
8
4
10
-1705.000000
20
-280.000000
30
0.000000
11
-1695.000000
21
-280.000000
31
0.000000
12
-1705.000000
22
-270.000000
32
0.000000
13
-1695.000000
23
-270.000000
33
0.000000
0
SOLID
8
4
10
-780.000000
20
-1180.000000
30
0.000000
11
-770.000000
21
-1180.000000
31
0.000000
12
-780.000000
22
-1170.000000
32
0.000000
13
-770.000000
23
-1170.000000
33
0.000000
0
SOLID
8
4
10
-1255.000000
20
-730.000000
30
0.000000
11
-1245.000000
21
-730.000000
31
0.000000
12
-1255.000000
22
-720.000000
32
0.000000
13
-1245.000000
23
-720.000000
33
0.000000
0
SOLID
8
4
10
-1030.000000
20
-1180.000000
30
0.000000
11
-1020.000000
21
-1180.000000
31
0.000000
12
-1030.000000
22
-1170.000000
32
0.000000
13
-1020.000000
23
-1170.000000
33
0.000000
0
SOLID
8
4
10
-780.000000
20
-780.000000
30
0.000000
11
-770.000000
21
-780.000000
31
0.000000
12
-780.000000
22
-770.000000
32
0.000000
13
-770.000000
23
-770.000000
33
0.000000
0
ENDSEC
0
EOF
